%TF.GenerationSoftware,KiCad,Pcbnew,8.0.2-1*%
%TF.CreationDate,2025-01-15T14:17:39-08:00*%
%TF.ProjectId,rocket2-load-cell,726f636b-6574-4322-9d6c-6f61642d6365,rev?*%
%TF.SameCoordinates,Original*%
%TF.FileFunction,Legend,Bot*%
%TF.FilePolarity,Positive*%
%FSLAX46Y46*%
G04 Gerber Fmt 4.6, Leading zero omitted, Abs format (unit mm)*
G04 Created by KiCad (PCBNEW 8.0.2-1) date 2025-01-15 14:17:39*
%MOMM*%
%LPD*%
G01*
G04 APERTURE LIST*
%ADD10R,1.599999X1.599999*%
%ADD11C,1.599999*%
%ADD12C,3.500000*%
%ADD13C,1.400000*%
%ADD14C,2.000000*%
%ADD15R,2.600000X2.600000*%
%ADD16C,2.600000*%
%ADD17C,4.300000*%
%ADD18C,0.500000*%
G04 APERTURE END LIST*
%LPC*%
D10*
%TO.C,U4*%
X172000000Y-134540000D03*
D11*
X172000000Y-132000000D03*
X172000000Y-129460000D03*
%TD*%
D12*
%TO.C,GX12*%
X180010000Y-96930000D03*
X180010000Y-100930000D03*
X176010000Y-100930000D03*
X176010000Y-96930000D03*
%TD*%
D13*
%TO.C,U5*%
X169740000Y-110730000D03*
D14*
X166720000Y-107160000D03*
X166710000Y-123200000D03*
D13*
X172260000Y-112000000D03*
X169720000Y-113260000D03*
X172260000Y-114540000D03*
X169720000Y-115780000D03*
X172260000Y-117080000D03*
X169720000Y-118350000D03*
X172260000Y-119610000D03*
%TD*%
D15*
%TO.C,J2*%
X182500000Y-134080000D03*
D16*
X182500000Y-129000000D03*
%TD*%
D17*
%TO.C,H3*%
X184000000Y-87500000D03*
%TD*%
%TO.C,H2*%
X126000000Y-87500000D03*
%TD*%
%TO.C,H1*%
X184000000Y-143500000D03*
%TD*%
%TO.C,H4*%
X126000000Y-143500000D03*
%TD*%
D18*
X188000000Y-99000000D03*
X142337500Y-113250000D03*
X141337500Y-106575000D03*
X141837500Y-118250000D03*
X141337500Y-107775000D03*
X143837500Y-100250000D03*
X139837500Y-119750000D03*
X139837500Y-127250000D03*
X133337500Y-99250000D03*
X146337500Y-118660000D03*
X145337500Y-96750000D03*
X144061765Y-102474266D03*
X142837500Y-128250000D03*
X129337500Y-109750000D03*
X145837500Y-132750000D03*
X128837500Y-106250000D03*
X134837500Y-105250000D03*
X148837500Y-132750000D03*
X187000000Y-106500000D03*
X128837500Y-113750000D03*
X130337500Y-118250000D03*
X144112500Y-109525000D03*
X134337500Y-121750000D03*
X134337500Y-114750000D03*
X137337500Y-115000000D03*
X137337500Y-121750000D03*
X135837500Y-114750000D03*
X135837500Y-121750000D03*
X137000000Y-111000000D03*
X163500000Y-112000000D03*
X138000000Y-112000000D03*
X163500000Y-114000000D03*
X138500000Y-112500000D03*
X163500000Y-115000000D03*
X137500000Y-111500000D03*
X163500000Y-113000000D03*
X139000000Y-113000000D03*
X163500000Y-116000000D03*
%LPD*%
M02*
