%TF.GenerationSoftware,KiCad,Pcbnew,8.0.2-1*%
%TF.CreationDate,2025-01-08T00:27:56-08:00*%
%TF.ProjectId,rocket2-load-cell,726f636b-6574-4322-9d6c-6f61642d6365,rev?*%
%TF.SameCoordinates,Original*%
%TF.FileFunction,Copper,L2,Bot*%
%TF.FilePolarity,Positive*%
%FSLAX46Y46*%
G04 Gerber Fmt 4.6, Leading zero omitted, Abs format (unit mm)*
G04 Created by KiCad (PCBNEW 8.0.2-1) date 2025-01-08 00:27:56*
%MOMM*%
%LPD*%
G01*
G04 APERTURE LIST*
%TA.AperFunction,ComponentPad*%
%ADD10C,1.400000*%
%TD*%
%TA.AperFunction,ComponentPad*%
%ADD11C,2.000000*%
%TD*%
%TA.AperFunction,ComponentPad*%
%ADD12C,2.600000*%
%TD*%
%TA.AperFunction,ComponentPad*%
%ADD13R,2.600000X2.600000*%
%TD*%
%TA.AperFunction,ComponentPad*%
%ADD14C,3.000000*%
%TD*%
%TA.AperFunction,ViaPad*%
%ADD15C,0.500000*%
%TD*%
%TA.AperFunction,Conductor*%
%ADD16C,0.500000*%
%TD*%
%TA.AperFunction,Conductor*%
%ADD17C,0.300000*%
%TD*%
G04 APERTURE END LIST*
D10*
%TO.P,U5,8,CP3/CTS/DCD*%
%TO.N,ETH_CTS*%
X171000000Y-110500000D03*
%TO.P,U5,7,CP2/DTR*%
%TO.N,unconnected-(U5-CP2{slash}DTR-Pad7)*%
X173540000Y-111760000D03*
%TO.P,U5,6,CP1/RTS*%
%TO.N,ETH_RTS*%
X171000000Y-113030000D03*
%TO.P,U5,5,RX*%
%TO.N,ETH_RX*%
X173540000Y-114330000D03*
%TO.P,U5,4,TX*%
%TO.N,ETH_TX*%
X171000000Y-115570000D03*
%TO.P,U5,3,~{RST}*%
%TO.N,ETH_~{RST}*%
X173540000Y-116850000D03*
%TO.P,U5,2,3.3V*%
%TO.N,+3.3V*%
X171000000Y-118110000D03*
D11*
%TO.P,U5,1,GND*%
%TO.N,GND*%
X176550000Y-106910000D03*
X176540000Y-122950000D03*
D10*
X173520000Y-119380000D03*
%TD*%
D12*
%TO.P,J2,2,Pin_2*%
%TO.N,GND*%
X182500000Y-129000000D03*
D13*
%TO.P,J2,1,Pin_1*%
%TO.N,VBUS*%
X182500000Y-134080000D03*
%TD*%
D14*
%TO.P,GX12,4*%
%TO.N,AIN-*%
X180000000Y-97000000D03*
%TO.P,GX12,3*%
%TO.N,Net-(C13-Pad1)*%
X180000000Y-101000000D03*
%TO.P,GX12,2*%
%TO.N,GND*%
X184000000Y-101000000D03*
%TO.P,GX12,1*%
%TO.N,AIN+*%
X184000000Y-97000000D03*
%TD*%
D15*
%TO.N,+3.3V*%
X152537500Y-115500000D03*
X142337500Y-113250000D03*
X141337500Y-106575000D03*
X141837500Y-118250000D03*
X141337500Y-107775000D03*
%TO.N,MEM_CS*%
X134337500Y-121750000D03*
X134337500Y-114750000D03*
%TO.N,MEM_WP*%
X137337500Y-115000000D03*
X137337500Y-121750000D03*
%TO.N,MEM_MISO*%
X135837500Y-114750000D03*
X135837500Y-121750000D03*
%TO.N,ETH_~{RST}*%
X167000000Y-116500000D03*
X139000000Y-113000000D03*
%TO.N,ETH_RX*%
X138000000Y-112000000D03*
X167000000Y-114500000D03*
%TO.N,ETH_TX*%
X138500000Y-112500000D03*
X167000000Y-115500000D03*
%TO.N,ETH_RTS*%
X167000000Y-113000000D03*
X137500000Y-111500000D03*
%TO.N,ETH_CTS*%
X167000000Y-110500000D03*
X137000000Y-111000000D03*
%TO.N,GND*%
X144543750Y-109956250D03*
X130337500Y-118250000D03*
X128837500Y-113750000D03*
X148837500Y-132750000D03*
X134837500Y-105250000D03*
X128837500Y-106250000D03*
X145837500Y-132750000D03*
X129337500Y-109750000D03*
X142837500Y-128250000D03*
X144061765Y-102474266D03*
X169000000Y-104500000D03*
X148837500Y-110000000D03*
X145337500Y-96750000D03*
X146337500Y-118660000D03*
X133337500Y-99250000D03*
X139837500Y-127250000D03*
X139837500Y-119750000D03*
X143837500Y-100250000D03*
%TD*%
D16*
%TO.N,+3.3V*%
X142337500Y-117750000D02*
X142337500Y-115500000D01*
X142337500Y-115500000D02*
X142337500Y-113250000D01*
X142337500Y-115500000D02*
X152537500Y-115500000D01*
X141837500Y-118250000D02*
X142337500Y-117750000D01*
D17*
X141337500Y-107775000D02*
X141337500Y-106575000D01*
%TO.N,MEM_CS*%
X134337500Y-121750000D02*
X134337500Y-114750000D01*
%TO.N,MEM_WP*%
X137337500Y-121750000D02*
X137337500Y-115000000D01*
%TO.N,MEM_MISO*%
X135837500Y-121750000D02*
X135837500Y-114750000D01*
%TO.N,ETH_~{RST}*%
X139000000Y-113000000D02*
X139350000Y-112650000D01*
X163150000Y-112650000D02*
X167000000Y-116500000D01*
X139350000Y-112650000D02*
X163150000Y-112650000D01*
%TO.N,ETH_RX*%
X166500000Y-114500000D02*
X163650000Y-111650000D01*
X167000000Y-114500000D02*
X166500000Y-114500000D01*
X163650000Y-111650000D02*
X138350000Y-111650000D01*
X138350000Y-111650000D02*
X138000000Y-112000000D01*
%TO.N,ETH_TX*%
X167000000Y-115500000D02*
X166707107Y-115500000D01*
X138850000Y-112150000D02*
X138500000Y-112500000D01*
X166707107Y-115500000D02*
X163357107Y-112150000D01*
X163357107Y-112150000D02*
X138850000Y-112150000D01*
%TO.N,ETH_RTS*%
X137850000Y-111150000D02*
X137500000Y-111500000D01*
X167000000Y-113000000D02*
X166000000Y-113000000D01*
X164150000Y-111150000D02*
X137850000Y-111150000D01*
X166000000Y-113000000D02*
X164150000Y-111150000D01*
%TO.N,ETH_CTS*%
X166850000Y-110650000D02*
X167000000Y-110500000D01*
X137501471Y-110650000D02*
X166850000Y-110650000D01*
X137000000Y-111000000D02*
X137151471Y-111000000D01*
X137151471Y-111000000D02*
X137501471Y-110650000D01*
%TD*%
%TA.AperFunction,Conductor*%
%TO.N,GND*%
G36*
X184000642Y-82000007D02*
G01*
X184235302Y-82002565D01*
X184244734Y-82003029D01*
X184712846Y-82043984D01*
X184723567Y-82045396D01*
X185185664Y-82126875D01*
X185196192Y-82129209D01*
X185649458Y-82250661D01*
X185659747Y-82253906D01*
X186100688Y-82414395D01*
X186110654Y-82418523D01*
X186535926Y-82616830D01*
X186545512Y-82621821D01*
X186951866Y-82856429D01*
X186960985Y-82862238D01*
X187345353Y-83131376D01*
X187353935Y-83137962D01*
X187713370Y-83439564D01*
X187721345Y-83446872D01*
X188053127Y-83778654D01*
X188060435Y-83786629D01*
X188362037Y-84146064D01*
X188368623Y-84154646D01*
X188637761Y-84539014D01*
X188643573Y-84548138D01*
X188878176Y-84954483D01*
X188883171Y-84964078D01*
X189081470Y-85389331D01*
X189085609Y-85399323D01*
X189205604Y-85729007D01*
X189246089Y-85840239D01*
X189249342Y-85850555D01*
X189370786Y-86303790D01*
X189373127Y-86314352D01*
X189454603Y-86776432D01*
X189456015Y-86787156D01*
X189496969Y-87255252D01*
X189497434Y-87264708D01*
X189499993Y-87499357D01*
X189500000Y-87500709D01*
X189500000Y-143499290D01*
X189499993Y-143500642D01*
X189497434Y-143735291D01*
X189496969Y-143744747D01*
X189456015Y-144212843D01*
X189454603Y-144223567D01*
X189373127Y-144685647D01*
X189370786Y-144696209D01*
X189249342Y-145149444D01*
X189246089Y-145159760D01*
X189085610Y-145600673D01*
X189081470Y-145610668D01*
X188883171Y-146035921D01*
X188878176Y-146045516D01*
X188643573Y-146451861D01*
X188637761Y-146460985D01*
X188368623Y-146845353D01*
X188362037Y-146853935D01*
X188060435Y-147213370D01*
X188053127Y-147221345D01*
X187721345Y-147553127D01*
X187713370Y-147560435D01*
X187353935Y-147862037D01*
X187345353Y-147868623D01*
X186960985Y-148137761D01*
X186951861Y-148143573D01*
X186545516Y-148378176D01*
X186535921Y-148383171D01*
X186110668Y-148581470D01*
X186100673Y-148585610D01*
X185659760Y-148746089D01*
X185649444Y-148749342D01*
X185196209Y-148870786D01*
X185185647Y-148873127D01*
X184723567Y-148954603D01*
X184712843Y-148956015D01*
X184244747Y-148996969D01*
X184235291Y-148997434D01*
X184000642Y-148999993D01*
X183999290Y-149000000D01*
X126000710Y-149000000D01*
X125999358Y-148999993D01*
X125764708Y-148997434D01*
X125755252Y-148996969D01*
X125287156Y-148956015D01*
X125276432Y-148954603D01*
X124814352Y-148873127D01*
X124803790Y-148870786D01*
X124350555Y-148749342D01*
X124340239Y-148746089D01*
X123899326Y-148585610D01*
X123889331Y-148581470D01*
X123464078Y-148383171D01*
X123454483Y-148378176D01*
X123048138Y-148143573D01*
X123039014Y-148137761D01*
X122654646Y-147868623D01*
X122646064Y-147862037D01*
X122286629Y-147560435D01*
X122278654Y-147553127D01*
X121946872Y-147221345D01*
X121939564Y-147213370D01*
X121637962Y-146853935D01*
X121631376Y-146845353D01*
X121362238Y-146460985D01*
X121356426Y-146451861D01*
X121121823Y-146045516D01*
X121116828Y-146035921D01*
X121011611Y-145810282D01*
X120918523Y-145610654D01*
X120914395Y-145600688D01*
X120753906Y-145159747D01*
X120750661Y-145149458D01*
X120629209Y-144696192D01*
X120626875Y-144685664D01*
X120545396Y-144223567D01*
X120543984Y-144212843D01*
X120503030Y-143744747D01*
X120502565Y-143735291D01*
X120501679Y-143654053D01*
X120500007Y-143500642D01*
X120500000Y-143499290D01*
X120500000Y-143345946D01*
X123649500Y-143345946D01*
X123649500Y-143654053D01*
X123649501Y-143654069D01*
X123689717Y-143959542D01*
X123769464Y-144257162D01*
X123887376Y-144541826D01*
X123887381Y-144541837D01*
X123976499Y-144696192D01*
X124041438Y-144808670D01*
X124041440Y-144808673D01*
X124041441Y-144808674D01*
X124229007Y-145053115D01*
X124229013Y-145053122D01*
X124446877Y-145270986D01*
X124446883Y-145270991D01*
X124691330Y-145458562D01*
X124862830Y-145557578D01*
X124958162Y-145612618D01*
X124958167Y-145612620D01*
X124958170Y-145612622D01*
X125242836Y-145730535D01*
X125540456Y-145810282D01*
X125845940Y-145850500D01*
X125845947Y-145850500D01*
X126154053Y-145850500D01*
X126154060Y-145850500D01*
X126459544Y-145810282D01*
X126757164Y-145730535D01*
X127041830Y-145612622D01*
X127308670Y-145458562D01*
X127553117Y-145270991D01*
X127770991Y-145053117D01*
X127958562Y-144808670D01*
X128112622Y-144541830D01*
X128230535Y-144257164D01*
X128310282Y-143959544D01*
X128350500Y-143654060D01*
X128350500Y-143345946D01*
X181649500Y-143345946D01*
X181649500Y-143654053D01*
X181649501Y-143654069D01*
X181689717Y-143959542D01*
X181769464Y-144257162D01*
X181887376Y-144541826D01*
X181887381Y-144541837D01*
X181976499Y-144696192D01*
X182041438Y-144808670D01*
X182041440Y-144808673D01*
X182041441Y-144808674D01*
X182229007Y-145053115D01*
X182229013Y-145053122D01*
X182446877Y-145270986D01*
X182446883Y-145270991D01*
X182691330Y-145458562D01*
X182862830Y-145557578D01*
X182958162Y-145612618D01*
X182958167Y-145612620D01*
X182958170Y-145612622D01*
X183242836Y-145730535D01*
X183540456Y-145810282D01*
X183845940Y-145850500D01*
X183845947Y-145850500D01*
X184154053Y-145850500D01*
X184154060Y-145850500D01*
X184459544Y-145810282D01*
X184757164Y-145730535D01*
X185041830Y-145612622D01*
X185308670Y-145458562D01*
X185553117Y-145270991D01*
X185770991Y-145053117D01*
X185958562Y-144808670D01*
X186112622Y-144541830D01*
X186230535Y-144257164D01*
X186310282Y-143959544D01*
X186350500Y-143654060D01*
X186350500Y-143345940D01*
X186310282Y-143040456D01*
X186230535Y-142742836D01*
X186112622Y-142458170D01*
X186112620Y-142458167D01*
X186112618Y-142458162D01*
X186057578Y-142362830D01*
X185958562Y-142191330D01*
X185770991Y-141946883D01*
X185770986Y-141946877D01*
X185553122Y-141729013D01*
X185553115Y-141729007D01*
X185308674Y-141541441D01*
X185308673Y-141541440D01*
X185308670Y-141541438D01*
X185202280Y-141480014D01*
X185041837Y-141387381D01*
X185041826Y-141387376D01*
X184757162Y-141269464D01*
X184459542Y-141189717D01*
X184154069Y-141149501D01*
X184154066Y-141149500D01*
X184154060Y-141149500D01*
X183845940Y-141149500D01*
X183845934Y-141149500D01*
X183845930Y-141149501D01*
X183540457Y-141189717D01*
X183242837Y-141269464D01*
X182958173Y-141387376D01*
X182958162Y-141387381D01*
X182691325Y-141541441D01*
X182446884Y-141729007D01*
X182446877Y-141729013D01*
X182229013Y-141946877D01*
X182229007Y-141946884D01*
X182041441Y-142191325D01*
X181887381Y-142458162D01*
X181887376Y-142458173D01*
X181769464Y-142742837D01*
X181689717Y-143040457D01*
X181649501Y-143345930D01*
X181649500Y-143345946D01*
X128350500Y-143345946D01*
X128350500Y-143345940D01*
X128310282Y-143040456D01*
X128230535Y-142742836D01*
X128112622Y-142458170D01*
X128112620Y-142458167D01*
X128112618Y-142458162D01*
X128057578Y-142362830D01*
X127958562Y-142191330D01*
X127770991Y-141946883D01*
X127770986Y-141946877D01*
X127553122Y-141729013D01*
X127553115Y-141729007D01*
X127308674Y-141541441D01*
X127308673Y-141541440D01*
X127308670Y-141541438D01*
X127202280Y-141480014D01*
X127041837Y-141387381D01*
X127041826Y-141387376D01*
X126757162Y-141269464D01*
X126459542Y-141189717D01*
X126154069Y-141149501D01*
X126154066Y-141149500D01*
X126154060Y-141149500D01*
X125845940Y-141149500D01*
X125845934Y-141149500D01*
X125845930Y-141149501D01*
X125540457Y-141189717D01*
X125242837Y-141269464D01*
X124958173Y-141387376D01*
X124958162Y-141387381D01*
X124691325Y-141541441D01*
X124446884Y-141729007D01*
X124446877Y-141729013D01*
X124229013Y-141946877D01*
X124229007Y-141946884D01*
X124041441Y-142191325D01*
X123887381Y-142458162D01*
X123887376Y-142458173D01*
X123769464Y-142742837D01*
X123689717Y-143040457D01*
X123649501Y-143345930D01*
X123649500Y-143345946D01*
X120500000Y-143345946D01*
X120500000Y-132760247D01*
X180999500Y-132760247D01*
X180999500Y-135399752D01*
X181011131Y-135458229D01*
X181011132Y-135458230D01*
X181055447Y-135524552D01*
X181121769Y-135568867D01*
X181121770Y-135568868D01*
X181180247Y-135580499D01*
X181180250Y-135580500D01*
X181180252Y-135580500D01*
X183819750Y-135580500D01*
X183819751Y-135580499D01*
X183834568Y-135577552D01*
X183878229Y-135568868D01*
X183878229Y-135568867D01*
X183878231Y-135568867D01*
X183944552Y-135524552D01*
X183988867Y-135458231D01*
X183988867Y-135458229D01*
X183988868Y-135458229D01*
X184000499Y-135399752D01*
X184000500Y-135399750D01*
X184000500Y-132760249D01*
X184000499Y-132760247D01*
X183988868Y-132701770D01*
X183988867Y-132701769D01*
X183944552Y-132635447D01*
X183878230Y-132591132D01*
X183878229Y-132591131D01*
X183819752Y-132579500D01*
X183819748Y-132579500D01*
X181180252Y-132579500D01*
X181180247Y-132579500D01*
X181121770Y-132591131D01*
X181121769Y-132591132D01*
X181055447Y-132635447D01*
X181011132Y-132701769D01*
X181011131Y-132701770D01*
X180999500Y-132760247D01*
X120500000Y-132760247D01*
X120500000Y-114750000D01*
X133882367Y-114750000D01*
X133900802Y-114878225D01*
X133933810Y-114950500D01*
X133954618Y-114996063D01*
X133956712Y-114998480D01*
X133958040Y-115001388D01*
X133959413Y-115003524D01*
X133959106Y-115003721D01*
X133985737Y-115062032D01*
X133987000Y-115079683D01*
X133987000Y-121420317D01*
X133967315Y-121487356D01*
X133956715Y-121501517D01*
X133954619Y-121503935D01*
X133954616Y-121503939D01*
X133900802Y-121621774D01*
X133882367Y-121750000D01*
X133900802Y-121878225D01*
X133929185Y-121940373D01*
X133954618Y-121996063D01*
X134039451Y-122093967D01*
X134148431Y-122164004D01*
X134272725Y-122200499D01*
X134272727Y-122200500D01*
X134272728Y-122200500D01*
X134402273Y-122200500D01*
X134402273Y-122200499D01*
X134526569Y-122164004D01*
X134635549Y-122093967D01*
X134720382Y-121996063D01*
X134774197Y-121878226D01*
X134792633Y-121750000D01*
X134774197Y-121621774D01*
X134720382Y-121503937D01*
X134718284Y-121501516D01*
X134716956Y-121498607D01*
X134715589Y-121496480D01*
X134715895Y-121496283D01*
X134689262Y-121437961D01*
X134688000Y-121420317D01*
X134688000Y-115079683D01*
X134707685Y-115012644D01*
X134718280Y-114998487D01*
X134720382Y-114996063D01*
X134774197Y-114878226D01*
X134792633Y-114750000D01*
X135382367Y-114750000D01*
X135400802Y-114878225D01*
X135433810Y-114950500D01*
X135454618Y-114996063D01*
X135456712Y-114998480D01*
X135458040Y-115001388D01*
X135459413Y-115003524D01*
X135459106Y-115003721D01*
X135485737Y-115062032D01*
X135487000Y-115079683D01*
X135487000Y-121420317D01*
X135467315Y-121487356D01*
X135456715Y-121501517D01*
X135454619Y-121503935D01*
X135454616Y-121503939D01*
X135400802Y-121621774D01*
X135382367Y-121750000D01*
X135400802Y-121878225D01*
X135429185Y-121940373D01*
X135454618Y-121996063D01*
X135539451Y-122093967D01*
X135648431Y-122164004D01*
X135772725Y-122200499D01*
X135772727Y-122200500D01*
X135772728Y-122200500D01*
X135902273Y-122200500D01*
X135902273Y-122200499D01*
X136026569Y-122164004D01*
X136135549Y-122093967D01*
X136220382Y-121996063D01*
X136274197Y-121878226D01*
X136292633Y-121750000D01*
X136274197Y-121621774D01*
X136220382Y-121503937D01*
X136218284Y-121501516D01*
X136216956Y-121498607D01*
X136215589Y-121496480D01*
X136215895Y-121496283D01*
X136189262Y-121437961D01*
X136188000Y-121420317D01*
X136188000Y-115079683D01*
X136207685Y-115012644D01*
X136217148Y-115000000D01*
X136882367Y-115000000D01*
X136900802Y-115128225D01*
X136950704Y-115237492D01*
X136954618Y-115246063D01*
X136956712Y-115248480D01*
X136958040Y-115251388D01*
X136959413Y-115253524D01*
X136959106Y-115253721D01*
X136985737Y-115312032D01*
X136987000Y-115329683D01*
X136987000Y-121420317D01*
X136967315Y-121487356D01*
X136956715Y-121501517D01*
X136954619Y-121503935D01*
X136954616Y-121503939D01*
X136900802Y-121621774D01*
X136882367Y-121750000D01*
X136900802Y-121878225D01*
X136929185Y-121940373D01*
X136954618Y-121996063D01*
X137039451Y-122093967D01*
X137148431Y-122164004D01*
X137272725Y-122200499D01*
X137272727Y-122200500D01*
X137272728Y-122200500D01*
X137402273Y-122200500D01*
X137402273Y-122200499D01*
X137526569Y-122164004D01*
X137635549Y-122093967D01*
X137720382Y-121996063D01*
X137774197Y-121878226D01*
X137792633Y-121750000D01*
X137774197Y-121621774D01*
X137720382Y-121503937D01*
X137718284Y-121501516D01*
X137716956Y-121498607D01*
X137715589Y-121496480D01*
X137715895Y-121496283D01*
X137689262Y-121437961D01*
X137688000Y-121420317D01*
X137688000Y-120962301D01*
X163027505Y-120962301D01*
X163027505Y-121217698D01*
X163067455Y-121469935D01*
X163113871Y-121612785D01*
X163146375Y-121712822D01*
X163262317Y-121940373D01*
X163412430Y-122146985D01*
X163593015Y-122327570D01*
X163799627Y-122477683D01*
X164027178Y-122593625D01*
X164223648Y-122657462D01*
X164270064Y-122672544D01*
X164522302Y-122712495D01*
X164777693Y-122712495D01*
X164777698Y-122712495D01*
X165029935Y-122672544D01*
X165272822Y-122593625D01*
X165500373Y-122477683D01*
X165706985Y-122327570D01*
X165887570Y-122146985D01*
X166037683Y-121940373D01*
X166153625Y-121712822D01*
X166232544Y-121469935D01*
X166272495Y-121217693D01*
X166275000Y-121090000D01*
X166272495Y-120962307D01*
X166232544Y-120710065D01*
X166153625Y-120467178D01*
X166037683Y-120239627D01*
X165887570Y-120033015D01*
X165706985Y-119852430D01*
X165500373Y-119702317D01*
X165272822Y-119586375D01*
X165172785Y-119553871D01*
X165029935Y-119507455D01*
X164777698Y-119467505D01*
X164777693Y-119467505D01*
X164522307Y-119467505D01*
X164522302Y-119467505D01*
X164270064Y-119507455D01*
X164080798Y-119568952D01*
X164027178Y-119586375D01*
X164027175Y-119586376D01*
X164027173Y-119586377D01*
X163799626Y-119702317D01*
X163681746Y-119787962D01*
X163593015Y-119852430D01*
X163593013Y-119852432D01*
X163593012Y-119852432D01*
X163412432Y-120033012D01*
X163412432Y-120033013D01*
X163412430Y-120033015D01*
X163347962Y-120121746D01*
X163262317Y-120239626D01*
X163146377Y-120467173D01*
X163067455Y-120710064D01*
X163027505Y-120962301D01*
X137688000Y-120962301D01*
X137688000Y-115329683D01*
X137707685Y-115262644D01*
X137718280Y-115248487D01*
X137720382Y-115246063D01*
X137774197Y-115128226D01*
X137792633Y-115000000D01*
X137774197Y-114871774D01*
X137720382Y-114753937D01*
X137635549Y-114656033D01*
X137526569Y-114585996D01*
X137526565Y-114585994D01*
X137526564Y-114585994D01*
X137402274Y-114549500D01*
X137402272Y-114549500D01*
X137272728Y-114549500D01*
X137272726Y-114549500D01*
X137148435Y-114585994D01*
X137148432Y-114585995D01*
X137148431Y-114585996D01*
X137097177Y-114618934D01*
X137039450Y-114656033D01*
X136954618Y-114753937D01*
X136954617Y-114753938D01*
X136900802Y-114871774D01*
X136882367Y-115000000D01*
X136217148Y-115000000D01*
X136218280Y-114998487D01*
X136220382Y-114996063D01*
X136274197Y-114878226D01*
X136292633Y-114750000D01*
X136274197Y-114621774D01*
X136220382Y-114503937D01*
X136135549Y-114406033D01*
X136026569Y-114335996D01*
X136026565Y-114335994D01*
X136026564Y-114335994D01*
X135902274Y-114299500D01*
X135902272Y-114299500D01*
X135772728Y-114299500D01*
X135772726Y-114299500D01*
X135648435Y-114335994D01*
X135648432Y-114335995D01*
X135648431Y-114335996D01*
X135597177Y-114368934D01*
X135539450Y-114406033D01*
X135454618Y-114503937D01*
X135454617Y-114503938D01*
X135400802Y-114621774D01*
X135382367Y-114750000D01*
X134792633Y-114750000D01*
X134774197Y-114621774D01*
X134720382Y-114503937D01*
X134635549Y-114406033D01*
X134526569Y-114335996D01*
X134526565Y-114335994D01*
X134526564Y-114335994D01*
X134402274Y-114299500D01*
X134402272Y-114299500D01*
X134272728Y-114299500D01*
X134272726Y-114299500D01*
X134148435Y-114335994D01*
X134148432Y-114335995D01*
X134148431Y-114335996D01*
X134097177Y-114368934D01*
X134039450Y-114406033D01*
X133954618Y-114503937D01*
X133954617Y-114503938D01*
X133900802Y-114621774D01*
X133882367Y-114750000D01*
X120500000Y-114750000D01*
X120500000Y-111000000D01*
X136544867Y-111000000D01*
X136563302Y-111128225D01*
X136617117Y-111246061D01*
X136617118Y-111246063D01*
X136701951Y-111343967D01*
X136810931Y-111414004D01*
X136935228Y-111450500D01*
X136935232Y-111450500D01*
X136944005Y-111451762D01*
X136943624Y-111454411D01*
X136997342Y-111470185D01*
X137043097Y-111522989D01*
X137053041Y-111556853D01*
X137063302Y-111628225D01*
X137117117Y-111746061D01*
X137117118Y-111746063D01*
X137201951Y-111843967D01*
X137310931Y-111914004D01*
X137435228Y-111950500D01*
X137435232Y-111950500D01*
X137444005Y-111951762D01*
X137443624Y-111954411D01*
X137497342Y-111970185D01*
X137543097Y-112022989D01*
X137553041Y-112056853D01*
X137563302Y-112128225D01*
X137617020Y-112245848D01*
X137617118Y-112246063D01*
X137701951Y-112343967D01*
X137810931Y-112414004D01*
X137935228Y-112450500D01*
X137935232Y-112450500D01*
X137944005Y-112451762D01*
X137943624Y-112454411D01*
X137997342Y-112470185D01*
X138043097Y-112522989D01*
X138053041Y-112556853D01*
X138063302Y-112628225D01*
X138078600Y-112661722D01*
X138117118Y-112746063D01*
X138201951Y-112843967D01*
X138310931Y-112914004D01*
X138435228Y-112950500D01*
X138435232Y-112950500D01*
X138444005Y-112951762D01*
X138443624Y-112954411D01*
X138497342Y-112970185D01*
X138543097Y-113022989D01*
X138553041Y-113056853D01*
X138563302Y-113128225D01*
X138617117Y-113246061D01*
X138617118Y-113246063D01*
X138701951Y-113343967D01*
X138810931Y-113414004D01*
X138863707Y-113429500D01*
X138935225Y-113450499D01*
X138935227Y-113450500D01*
X138935228Y-113450500D01*
X139064773Y-113450500D01*
X139064773Y-113450499D01*
X139189069Y-113414004D01*
X139298049Y-113343967D01*
X139382882Y-113246063D01*
X139436697Y-113128226D01*
X139439769Y-113106856D01*
X139468792Y-113043300D01*
X139527569Y-113005524D01*
X139562507Y-113000500D01*
X141775135Y-113000500D01*
X141842174Y-113020185D01*
X141887929Y-113072989D01*
X141897873Y-113142147D01*
X141897872Y-113142153D01*
X141896452Y-113152026D01*
X141893490Y-113166464D01*
X141887001Y-113190683D01*
X141887000Y-113190691D01*
X141887000Y-113208906D01*
X141885738Y-113226552D01*
X141882367Y-113249999D01*
X141885738Y-113273445D01*
X141887000Y-113291092D01*
X141887000Y-117512034D01*
X141867315Y-117579073D01*
X141850681Y-117599715D01*
X141562625Y-117887770D01*
X141541991Y-117904400D01*
X141539450Y-117906032D01*
X141539449Y-117906033D01*
X141510464Y-117939484D01*
X141504437Y-117945957D01*
X141477015Y-117973380D01*
X141477003Y-117973396D01*
X141474779Y-117977249D01*
X141461119Y-117996433D01*
X141454616Y-118003938D01*
X141454614Y-118003941D01*
X141439076Y-118037965D01*
X141433672Y-118048450D01*
X141417700Y-118076114D01*
X141414763Y-118087074D01*
X141407789Y-118106473D01*
X141400805Y-118121767D01*
X141400802Y-118121777D01*
X141396452Y-118152028D01*
X141393491Y-118166464D01*
X141387002Y-118190684D01*
X141387001Y-118190693D01*
X141387001Y-118208899D01*
X141385739Y-118226545D01*
X141382367Y-118249999D01*
X141385739Y-118273452D01*
X141387001Y-118291099D01*
X141387001Y-118309313D01*
X141393491Y-118333535D01*
X141396452Y-118347972D01*
X141400803Y-118378225D01*
X141400804Y-118378230D01*
X141407786Y-118393518D01*
X141414765Y-118412932D01*
X141417699Y-118423881D01*
X141417702Y-118423889D01*
X141433666Y-118451539D01*
X141439073Y-118462026D01*
X141454617Y-118496062D01*
X141454618Y-118496063D01*
X141461109Y-118503555D01*
X141474783Y-118522756D01*
X141477009Y-118526612D01*
X141477010Y-118526613D01*
X141477011Y-118526614D01*
X141504445Y-118554048D01*
X141510451Y-118560499D01*
X141539451Y-118593967D01*
X141541988Y-118595597D01*
X141554398Y-118605598D01*
X141554441Y-118605543D01*
X141560884Y-118610487D01*
X141560886Y-118610489D01*
X141600396Y-118633300D01*
X141605386Y-118636340D01*
X141648431Y-118664004D01*
X141648436Y-118664005D01*
X141648437Y-118664006D01*
X141649735Y-118664599D01*
X141658670Y-118667751D01*
X141663611Y-118669798D01*
X141663613Y-118669799D01*
X141663614Y-118669799D01*
X141663616Y-118669800D01*
X141714277Y-118683374D01*
X141717084Y-118684161D01*
X141772728Y-118700500D01*
X141902272Y-118700500D01*
X141957923Y-118684159D01*
X141960718Y-118683374D01*
X142011387Y-118669799D01*
X142011399Y-118669791D01*
X142016323Y-118667753D01*
X142025264Y-118664599D01*
X142026565Y-118664005D01*
X142026569Y-118664004D01*
X142069581Y-118636360D01*
X142074585Y-118633310D01*
X142114114Y-118610489D01*
X142114116Y-118610487D01*
X142120569Y-118605536D01*
X142120612Y-118605592D01*
X142133019Y-118595592D01*
X142135549Y-118593967D01*
X142164542Y-118560505D01*
X142170559Y-118554042D01*
X142614604Y-118110000D01*
X170094540Y-118110000D01*
X170114326Y-118298256D01*
X170114327Y-118298259D01*
X170172818Y-118478277D01*
X170172821Y-118478284D01*
X170267467Y-118642216D01*
X170394129Y-118782888D01*
X170547265Y-118894148D01*
X170547270Y-118894151D01*
X170720192Y-118971142D01*
X170720197Y-118971144D01*
X170905354Y-119010500D01*
X170905355Y-119010500D01*
X171094644Y-119010500D01*
X171094646Y-119010500D01*
X171279803Y-118971144D01*
X171452730Y-118894151D01*
X171605871Y-118782888D01*
X171732533Y-118642216D01*
X171827179Y-118478284D01*
X171885674Y-118298256D01*
X171905460Y-118110000D01*
X171885674Y-117921744D01*
X171827179Y-117741716D01*
X171732533Y-117577784D01*
X171605871Y-117437112D01*
X171605870Y-117437111D01*
X171452734Y-117325851D01*
X171452729Y-117325848D01*
X171279807Y-117248857D01*
X171279802Y-117248855D01*
X171134001Y-117217865D01*
X171094646Y-117209500D01*
X170905354Y-117209500D01*
X170872897Y-117216398D01*
X170720197Y-117248855D01*
X170720192Y-117248857D01*
X170547270Y-117325848D01*
X170547265Y-117325851D01*
X170394129Y-117437111D01*
X170267466Y-117577785D01*
X170172821Y-117741715D01*
X170172818Y-117741722D01*
X170114327Y-117921740D01*
X170114326Y-117921744D01*
X170094540Y-118110000D01*
X142614604Y-118110000D01*
X142697990Y-118026614D01*
X142757299Y-117923887D01*
X142763785Y-117899675D01*
X142763786Y-117899675D01*
X142763786Y-117899671D01*
X142788000Y-117809309D01*
X142788000Y-116074500D01*
X142807685Y-116007461D01*
X142860489Y-115961706D01*
X142912000Y-115950500D01*
X152602272Y-115950500D01*
X152657926Y-115934157D01*
X152660743Y-115933368D01*
X152711386Y-115919799D01*
X152711392Y-115919795D01*
X152716321Y-115917754D01*
X152725268Y-115914597D01*
X152726562Y-115914005D01*
X152726569Y-115914004D01*
X152769614Y-115886339D01*
X152774586Y-115883309D01*
X152814113Y-115860489D01*
X152814118Y-115860483D01*
X152820568Y-115855536D01*
X152820611Y-115855593D01*
X152833025Y-115845588D01*
X152835549Y-115843967D01*
X152864554Y-115810491D01*
X152870560Y-115804040D01*
X152897989Y-115776613D01*
X152900208Y-115772767D01*
X152913887Y-115753557D01*
X152920382Y-115746063D01*
X152935928Y-115712018D01*
X152941322Y-115701555D01*
X152957299Y-115673886D01*
X152960234Y-115662931D01*
X152967215Y-115643513D01*
X152974197Y-115628226D01*
X152978544Y-115597985D01*
X152981505Y-115583544D01*
X152988000Y-115559309D01*
X152988000Y-115541092D01*
X152989262Y-115523445D01*
X152992633Y-115499999D01*
X152989262Y-115476552D01*
X152988000Y-115458906D01*
X152988000Y-115440692D01*
X152988000Y-115440691D01*
X152981504Y-115416451D01*
X152978544Y-115402013D01*
X152975630Y-115381744D01*
X152974197Y-115371774D01*
X152967213Y-115356481D01*
X152960235Y-115337074D01*
X152957299Y-115326114D01*
X152941326Y-115298450D01*
X152935927Y-115287975D01*
X152920384Y-115253941D01*
X152920382Y-115253938D01*
X152920382Y-115253937D01*
X152913885Y-115246439D01*
X152900209Y-115227233D01*
X152897988Y-115223386D01*
X152870565Y-115195963D01*
X152864546Y-115189498D01*
X152835549Y-115156033D01*
X152835547Y-115156032D01*
X152835548Y-115156032D01*
X152833008Y-115154400D01*
X152820601Y-115144401D01*
X152820559Y-115144458D01*
X152814117Y-115139515D01*
X152814113Y-115139511D01*
X152794567Y-115128226D01*
X152774615Y-115116706D01*
X152769578Y-115113636D01*
X152726568Y-115085995D01*
X152725273Y-115085404D01*
X152716345Y-115082254D01*
X152711387Y-115080200D01*
X152660695Y-115066617D01*
X152657858Y-115065821D01*
X152602272Y-115049500D01*
X152602271Y-115049500D01*
X142912000Y-115049500D01*
X142844961Y-115029815D01*
X142799206Y-114977011D01*
X142788000Y-114925500D01*
X142788000Y-113291092D01*
X142789262Y-113273445D01*
X142792633Y-113249999D01*
X142789262Y-113226552D01*
X142788000Y-113208906D01*
X142788000Y-113190692D01*
X142787998Y-113190683D01*
X142781504Y-113166451D01*
X142778545Y-113152019D01*
X142777124Y-113142133D01*
X142787075Y-113072976D01*
X142832836Y-113020177D01*
X142899864Y-113000500D01*
X162953456Y-113000500D01*
X163020495Y-113020185D01*
X163041137Y-113036819D01*
X166522492Y-116518174D01*
X166555977Y-116579497D01*
X166557549Y-116588207D01*
X166563302Y-116628225D01*
X166578610Y-116661744D01*
X166617118Y-116746063D01*
X166701951Y-116843967D01*
X166810931Y-116914004D01*
X166935225Y-116950499D01*
X166935227Y-116950500D01*
X166935228Y-116950500D01*
X167064773Y-116950500D01*
X167064773Y-116950499D01*
X167189069Y-116914004D01*
X167288661Y-116850000D01*
X172634540Y-116850000D01*
X172654326Y-117038256D01*
X172654327Y-117038259D01*
X172712818Y-117218277D01*
X172712821Y-117218284D01*
X172807467Y-117382216D01*
X172856895Y-117437111D01*
X172934129Y-117522888D01*
X173087265Y-117634148D01*
X173087270Y-117634151D01*
X173260192Y-117711142D01*
X173260197Y-117711144D01*
X173445354Y-117750500D01*
X173445355Y-117750500D01*
X173634644Y-117750500D01*
X173634646Y-117750500D01*
X173819803Y-117711144D01*
X173992730Y-117634151D01*
X174145871Y-117522888D01*
X174272533Y-117382216D01*
X174367179Y-117218284D01*
X174425674Y-117038256D01*
X174445460Y-116850000D01*
X174425674Y-116661744D01*
X174367179Y-116481716D01*
X174272533Y-116317784D01*
X174145871Y-116177112D01*
X174145870Y-116177111D01*
X173992734Y-116065851D01*
X173992729Y-116065848D01*
X173819807Y-115988857D01*
X173819802Y-115988855D01*
X173674001Y-115957865D01*
X173634646Y-115949500D01*
X173445354Y-115949500D01*
X173412897Y-115956398D01*
X173260197Y-115988855D01*
X173260192Y-115988857D01*
X173087270Y-116065848D01*
X173087265Y-116065851D01*
X172934129Y-116177111D01*
X172807466Y-116317785D01*
X172712821Y-116481715D01*
X172712818Y-116481722D01*
X172654327Y-116661740D01*
X172654326Y-116661744D01*
X172634540Y-116850000D01*
X167288661Y-116850000D01*
X167298049Y-116843967D01*
X167382882Y-116746063D01*
X167436697Y-116628226D01*
X167455133Y-116500000D01*
X167436697Y-116371774D01*
X167382882Y-116253937D01*
X167298049Y-116156033D01*
X167217572Y-116104313D01*
X167171819Y-116051512D01*
X167161875Y-115982354D01*
X167190899Y-115918798D01*
X167217569Y-115895687D01*
X167298049Y-115843967D01*
X167382882Y-115746063D01*
X167436697Y-115628226D01*
X167445069Y-115570000D01*
X170094540Y-115570000D01*
X170114326Y-115758256D01*
X170114327Y-115758259D01*
X170172818Y-115938277D01*
X170172821Y-115938284D01*
X170267467Y-116102216D01*
X170334903Y-116177111D01*
X170394129Y-116242888D01*
X170547265Y-116354148D01*
X170547270Y-116354151D01*
X170720192Y-116431142D01*
X170720197Y-116431144D01*
X170905354Y-116470500D01*
X170905355Y-116470500D01*
X171094644Y-116470500D01*
X171094646Y-116470500D01*
X171279803Y-116431144D01*
X171452730Y-116354151D01*
X171605871Y-116242888D01*
X171732533Y-116102216D01*
X171827179Y-115938284D01*
X171885674Y-115758256D01*
X171905460Y-115570000D01*
X171885674Y-115381744D01*
X171827179Y-115201716D01*
X171732533Y-115037784D01*
X171605871Y-114897112D01*
X171579877Y-114878226D01*
X171452734Y-114785851D01*
X171452729Y-114785848D01*
X171279807Y-114708857D01*
X171279802Y-114708855D01*
X171134001Y-114677865D01*
X171094646Y-114669500D01*
X170905354Y-114669500D01*
X170872897Y-114676398D01*
X170720197Y-114708855D01*
X170720192Y-114708857D01*
X170547270Y-114785848D01*
X170547265Y-114785851D01*
X170394129Y-114897111D01*
X170267466Y-115037785D01*
X170172821Y-115201715D01*
X170172818Y-115201722D01*
X170114327Y-115381740D01*
X170114326Y-115381744D01*
X170094540Y-115570000D01*
X167445069Y-115570000D01*
X167455133Y-115500000D01*
X167436697Y-115371774D01*
X167382882Y-115253937D01*
X167298049Y-115156033D01*
X167217572Y-115104313D01*
X167171819Y-115051512D01*
X167161875Y-114982354D01*
X167190899Y-114918798D01*
X167217569Y-114895687D01*
X167298049Y-114843967D01*
X167382882Y-114746063D01*
X167436697Y-114628226D01*
X167455133Y-114500000D01*
X167436697Y-114371774D01*
X167417619Y-114330000D01*
X172634540Y-114330000D01*
X172654326Y-114518256D01*
X172654327Y-114518259D01*
X172712818Y-114698277D01*
X172712821Y-114698284D01*
X172807467Y-114862216D01*
X172910829Y-114977011D01*
X172934129Y-115002888D01*
X173087265Y-115114148D01*
X173087270Y-115114151D01*
X173260192Y-115191142D01*
X173260197Y-115191144D01*
X173445354Y-115230500D01*
X173445355Y-115230500D01*
X173634644Y-115230500D01*
X173634646Y-115230500D01*
X173819803Y-115191144D01*
X173992730Y-115114151D01*
X174145871Y-115002888D01*
X174272533Y-114862216D01*
X174367179Y-114698284D01*
X174425674Y-114518256D01*
X174445460Y-114330000D01*
X174425674Y-114141744D01*
X174367179Y-113961716D01*
X174272533Y-113797784D01*
X174145871Y-113657112D01*
X174145870Y-113657111D01*
X173992734Y-113545851D01*
X173992729Y-113545848D01*
X173819807Y-113468857D01*
X173819802Y-113468855D01*
X173674001Y-113437865D01*
X173634646Y-113429500D01*
X173445354Y-113429500D01*
X173412897Y-113436398D01*
X173260197Y-113468855D01*
X173260192Y-113468857D01*
X173087270Y-113545848D01*
X173087265Y-113545851D01*
X172934129Y-113657111D01*
X172807466Y-113797785D01*
X172712821Y-113961715D01*
X172712818Y-113961722D01*
X172654327Y-114141740D01*
X172654326Y-114141744D01*
X172634540Y-114330000D01*
X167417619Y-114330000D01*
X167382882Y-114253937D01*
X167298049Y-114156033D01*
X167189069Y-114085996D01*
X167189065Y-114085994D01*
X167189064Y-114085994D01*
X167064774Y-114049500D01*
X167064772Y-114049500D01*
X166935228Y-114049500D01*
X166935226Y-114049500D01*
X166810933Y-114085994D01*
X166810932Y-114085995D01*
X166755432Y-114121663D01*
X166688392Y-114141348D01*
X166621353Y-114121663D01*
X166600711Y-114105029D01*
X166057863Y-113562181D01*
X166024378Y-113500858D01*
X166029362Y-113431166D01*
X166071234Y-113375233D01*
X166136698Y-113350816D01*
X166145544Y-113350500D01*
X166675707Y-113350500D01*
X166742746Y-113370185D01*
X166810928Y-113414003D01*
X166810933Y-113414005D01*
X166935225Y-113450499D01*
X166935227Y-113450500D01*
X166935228Y-113450500D01*
X167064773Y-113450500D01*
X167064773Y-113450499D01*
X167189069Y-113414004D01*
X167298049Y-113343967D01*
X167382882Y-113246063D01*
X167436697Y-113128226D01*
X167450820Y-113030000D01*
X170094540Y-113030000D01*
X170114326Y-113218256D01*
X170114327Y-113218259D01*
X170172818Y-113398277D01*
X170172821Y-113398284D01*
X170267467Y-113562216D01*
X170352911Y-113657111D01*
X170394129Y-113702888D01*
X170547265Y-113814148D01*
X170547270Y-113814151D01*
X170720192Y-113891142D01*
X170720197Y-113891144D01*
X170905354Y-113930500D01*
X170905355Y-113930500D01*
X171094644Y-113930500D01*
X171094646Y-113930500D01*
X171279803Y-113891144D01*
X171452730Y-113814151D01*
X171605871Y-113702888D01*
X171732533Y-113562216D01*
X171827179Y-113398284D01*
X171885674Y-113218256D01*
X171905460Y-113030000D01*
X171885674Y-112841744D01*
X171827179Y-112661716D01*
X171732533Y-112497784D01*
X171605871Y-112357112D01*
X171605870Y-112357111D01*
X171452734Y-112245851D01*
X171452729Y-112245848D01*
X171279807Y-112168857D01*
X171279802Y-112168855D01*
X171134001Y-112137865D01*
X171094646Y-112129500D01*
X170905354Y-112129500D01*
X170872897Y-112136398D01*
X170720197Y-112168855D01*
X170720192Y-112168857D01*
X170547270Y-112245848D01*
X170547265Y-112245851D01*
X170394129Y-112357111D01*
X170267466Y-112497785D01*
X170172821Y-112661715D01*
X170172818Y-112661722D01*
X170114327Y-112841740D01*
X170114326Y-112841744D01*
X170094540Y-113030000D01*
X167450820Y-113030000D01*
X167455133Y-113000000D01*
X167436697Y-112871774D01*
X167382882Y-112753937D01*
X167298049Y-112656033D01*
X167189069Y-112585996D01*
X167189065Y-112585994D01*
X167189064Y-112585994D01*
X167064774Y-112549500D01*
X167064772Y-112549500D01*
X166935228Y-112549500D01*
X166935226Y-112549500D01*
X166810933Y-112585994D01*
X166810928Y-112585996D01*
X166742746Y-112629815D01*
X166675707Y-112649500D01*
X166196544Y-112649500D01*
X166129505Y-112629815D01*
X166108863Y-112613181D01*
X165255682Y-111760000D01*
X172634540Y-111760000D01*
X172654326Y-111948256D01*
X172654327Y-111948259D01*
X172712818Y-112128277D01*
X172712821Y-112128284D01*
X172807467Y-112292216D01*
X172854064Y-112343967D01*
X172934129Y-112432888D01*
X173087265Y-112544148D01*
X173087270Y-112544151D01*
X173260192Y-112621142D01*
X173260197Y-112621144D01*
X173445354Y-112660500D01*
X173445355Y-112660500D01*
X173634644Y-112660500D01*
X173634646Y-112660500D01*
X173819803Y-112621144D01*
X173992730Y-112544151D01*
X174145871Y-112432888D01*
X174272533Y-112292216D01*
X174367179Y-112128284D01*
X174425674Y-111948256D01*
X174445460Y-111760000D01*
X174425674Y-111571744D01*
X174367179Y-111391716D01*
X174272533Y-111227784D01*
X174145871Y-111087112D01*
X174137687Y-111081166D01*
X173992734Y-110975851D01*
X173992729Y-110975848D01*
X173819807Y-110898857D01*
X173819802Y-110898855D01*
X173674001Y-110867865D01*
X173634646Y-110859500D01*
X173445354Y-110859500D01*
X173412897Y-110866398D01*
X173260197Y-110898855D01*
X173260192Y-110898857D01*
X173087270Y-110975848D01*
X173087265Y-110975851D01*
X172934129Y-111087111D01*
X172807466Y-111227785D01*
X172712821Y-111391715D01*
X172712818Y-111391722D01*
X172659164Y-111556853D01*
X172654326Y-111571744D01*
X172634540Y-111760000D01*
X165255682Y-111760000D01*
X164707863Y-111212181D01*
X164674378Y-111150858D01*
X164679362Y-111081166D01*
X164721234Y-111025233D01*
X164786698Y-111000816D01*
X164795544Y-111000500D01*
X166896142Y-111000500D01*
X166896144Y-111000500D01*
X166985288Y-110976614D01*
X166986613Y-110975849D01*
X167001749Y-110967109D01*
X167056107Y-110952545D01*
X167055995Y-110951762D01*
X167062552Y-110950819D01*
X167063744Y-110950500D01*
X167064773Y-110950500D01*
X167064773Y-110950499D01*
X167189069Y-110914004D01*
X167298049Y-110843967D01*
X167382882Y-110746063D01*
X167436697Y-110628226D01*
X167455133Y-110500000D01*
X170094540Y-110500000D01*
X170114326Y-110688256D01*
X170114327Y-110688259D01*
X170172818Y-110868277D01*
X170172821Y-110868284D01*
X170267467Y-111032216D01*
X170311542Y-111081166D01*
X170394129Y-111172888D01*
X170547265Y-111284148D01*
X170547270Y-111284151D01*
X170720192Y-111361142D01*
X170720197Y-111361144D01*
X170905354Y-111400500D01*
X170905355Y-111400500D01*
X171094644Y-111400500D01*
X171094646Y-111400500D01*
X171279803Y-111361144D01*
X171452730Y-111284151D01*
X171605871Y-111172888D01*
X171732533Y-111032216D01*
X171827179Y-110868284D01*
X171885674Y-110688256D01*
X171905460Y-110500000D01*
X171885674Y-110311744D01*
X171827179Y-110131716D01*
X171732533Y-109967784D01*
X171605871Y-109827112D01*
X171605870Y-109827111D01*
X171452734Y-109715851D01*
X171452729Y-109715848D01*
X171279807Y-109638857D01*
X171279802Y-109638855D01*
X171134001Y-109607865D01*
X171094646Y-109599500D01*
X170905354Y-109599500D01*
X170872897Y-109606398D01*
X170720197Y-109638855D01*
X170720192Y-109638857D01*
X170547270Y-109715848D01*
X170547265Y-109715851D01*
X170394129Y-109827111D01*
X170267466Y-109967785D01*
X170172821Y-110131715D01*
X170172818Y-110131722D01*
X170124700Y-110279815D01*
X170114326Y-110311744D01*
X170094540Y-110500000D01*
X167455133Y-110500000D01*
X167436697Y-110371774D01*
X167382882Y-110253937D01*
X167298049Y-110156033D01*
X167189069Y-110085996D01*
X167189065Y-110085994D01*
X167189064Y-110085994D01*
X167064774Y-110049500D01*
X167064772Y-110049500D01*
X166935228Y-110049500D01*
X166935226Y-110049500D01*
X166810935Y-110085994D01*
X166810932Y-110085995D01*
X166810931Y-110085996D01*
X166759677Y-110118934D01*
X166701950Y-110156033D01*
X166614722Y-110256702D01*
X166555944Y-110294477D01*
X166521008Y-110299500D01*
X165714338Y-110299500D01*
X165647299Y-110279815D01*
X165601544Y-110227011D01*
X165591600Y-110157853D01*
X165620625Y-110094297D01*
X165641448Y-110075185D01*
X165706985Y-110027570D01*
X165887570Y-109846985D01*
X166037683Y-109640373D01*
X166153625Y-109412822D01*
X166232544Y-109169935D01*
X166272495Y-108917693D01*
X166275000Y-108790000D01*
X166272495Y-108662307D01*
X166232544Y-108410065D01*
X166153625Y-108167178D01*
X166037683Y-107939627D01*
X165887570Y-107733015D01*
X165706985Y-107552430D01*
X165500373Y-107402317D01*
X165272822Y-107286375D01*
X165172785Y-107253871D01*
X165029935Y-107207455D01*
X164777698Y-107167505D01*
X164777693Y-107167505D01*
X164522307Y-107167505D01*
X164522302Y-107167505D01*
X164270064Y-107207455D01*
X164080798Y-107268952D01*
X164027178Y-107286375D01*
X164027175Y-107286376D01*
X164027173Y-107286377D01*
X163799626Y-107402317D01*
X163716158Y-107462961D01*
X163593015Y-107552430D01*
X163593013Y-107552432D01*
X163593012Y-107552432D01*
X163412432Y-107733012D01*
X163412432Y-107733013D01*
X163412430Y-107733015D01*
X163381926Y-107775000D01*
X163262317Y-107939626D01*
X163146377Y-108167173D01*
X163067455Y-108410064D01*
X163027505Y-108662301D01*
X163027505Y-108917698D01*
X163067455Y-109169935D01*
X163113871Y-109312785D01*
X163146375Y-109412822D01*
X163262317Y-109640373D01*
X163412430Y-109846985D01*
X163593015Y-110027570D01*
X163658549Y-110075183D01*
X163701213Y-110130512D01*
X163707192Y-110200125D01*
X163674586Y-110261920D01*
X163613747Y-110296278D01*
X163585662Y-110299500D01*
X137455325Y-110299500D01*
X137409632Y-110311743D01*
X137409632Y-110311744D01*
X137366183Y-110323386D01*
X137366182Y-110323386D01*
X137366180Y-110323387D01*
X137286262Y-110369527D01*
X137286259Y-110369530D01*
X137142605Y-110513182D01*
X137081284Y-110546666D01*
X137054926Y-110549500D01*
X136935226Y-110549500D01*
X136810935Y-110585994D01*
X136810932Y-110585995D01*
X136810931Y-110585996D01*
X136759677Y-110618934D01*
X136701950Y-110656033D01*
X136617118Y-110753937D01*
X136617117Y-110753938D01*
X136563302Y-110871774D01*
X136544867Y-111000000D01*
X120500000Y-111000000D01*
X120500000Y-106575000D01*
X140882367Y-106575000D01*
X140900802Y-106703225D01*
X140954616Y-106821059D01*
X140954618Y-106821063D01*
X140956712Y-106823480D01*
X140958040Y-106826388D01*
X140959413Y-106828524D01*
X140959106Y-106828721D01*
X140985737Y-106887032D01*
X140987000Y-106904683D01*
X140987000Y-107445317D01*
X140967315Y-107512356D01*
X140956715Y-107526517D01*
X140954619Y-107528935D01*
X140954616Y-107528939D01*
X140900802Y-107646774D01*
X140882367Y-107775000D01*
X140900802Y-107903225D01*
X140917427Y-107939627D01*
X140954618Y-108021063D01*
X141039451Y-108118967D01*
X141148431Y-108189004D01*
X141272725Y-108225499D01*
X141272727Y-108225500D01*
X141272728Y-108225500D01*
X141402273Y-108225500D01*
X141402273Y-108225499D01*
X141526569Y-108189004D01*
X141635549Y-108118967D01*
X141720382Y-108021063D01*
X141774197Y-107903226D01*
X141792633Y-107775000D01*
X141774197Y-107646774D01*
X141720382Y-107528937D01*
X141718284Y-107526516D01*
X141716956Y-107523607D01*
X141715589Y-107521480D01*
X141715895Y-107521283D01*
X141689262Y-107462961D01*
X141688000Y-107445317D01*
X141688000Y-106904683D01*
X141707685Y-106837644D01*
X141718280Y-106823487D01*
X141720382Y-106821063D01*
X141774197Y-106703226D01*
X141792633Y-106575000D01*
X141774197Y-106446774D01*
X141720382Y-106328937D01*
X141635549Y-106231033D01*
X141526569Y-106160996D01*
X141526565Y-106160994D01*
X141526564Y-106160994D01*
X141402274Y-106124500D01*
X141402272Y-106124500D01*
X141272728Y-106124500D01*
X141272726Y-106124500D01*
X141148435Y-106160994D01*
X141148432Y-106160995D01*
X141148431Y-106160996D01*
X141097177Y-106193934D01*
X141039450Y-106231033D01*
X140954618Y-106328937D01*
X140954617Y-106328938D01*
X140900802Y-106446774D01*
X140882367Y-106575000D01*
X120500000Y-106575000D01*
X120500000Y-96999998D01*
X177994390Y-96999998D01*
X177994390Y-97000001D01*
X178014804Y-97285433D01*
X178075628Y-97565037D01*
X178075630Y-97565043D01*
X178075631Y-97565046D01*
X178110179Y-97657672D01*
X178175635Y-97833166D01*
X178312770Y-98084309D01*
X178312775Y-98084317D01*
X178484254Y-98313387D01*
X178484270Y-98313405D01*
X178686594Y-98515729D01*
X178686612Y-98515745D01*
X178915682Y-98687224D01*
X178915690Y-98687229D01*
X179166833Y-98824364D01*
X179166832Y-98824364D01*
X179166836Y-98824365D01*
X179166839Y-98824367D01*
X179326235Y-98883818D01*
X179382167Y-98925690D01*
X179406584Y-98991154D01*
X179391732Y-99059427D01*
X179342327Y-99108832D01*
X179326239Y-99116179D01*
X179224044Y-99154296D01*
X179166833Y-99175635D01*
X178915690Y-99312770D01*
X178915682Y-99312775D01*
X178686612Y-99484254D01*
X178686594Y-99484270D01*
X178484270Y-99686594D01*
X178484254Y-99686612D01*
X178312775Y-99915682D01*
X178312770Y-99915690D01*
X178175635Y-100166833D01*
X178075628Y-100434962D01*
X178014804Y-100714566D01*
X177994390Y-100999998D01*
X177994390Y-101000001D01*
X178014804Y-101285433D01*
X178075628Y-101565037D01*
X178175635Y-101833166D01*
X178312770Y-102084309D01*
X178312775Y-102084317D01*
X178484254Y-102313387D01*
X178484270Y-102313405D01*
X178686594Y-102515729D01*
X178686612Y-102515745D01*
X178915682Y-102687224D01*
X178915690Y-102687229D01*
X179166833Y-102824364D01*
X179166832Y-102824364D01*
X179166836Y-102824365D01*
X179166839Y-102824367D01*
X179434954Y-102924369D01*
X179434960Y-102924370D01*
X179434962Y-102924371D01*
X179714566Y-102985195D01*
X179714568Y-102985195D01*
X179714572Y-102985196D01*
X179968220Y-103003337D01*
X179999999Y-103005610D01*
X180000000Y-103005610D01*
X180000001Y-103005610D01*
X180028595Y-103003564D01*
X180285428Y-102985196D01*
X180565046Y-102924369D01*
X180833161Y-102824367D01*
X181084315Y-102687226D01*
X181313395Y-102515739D01*
X181515739Y-102313395D01*
X181687226Y-102084315D01*
X181824367Y-101833161D01*
X181924369Y-101565046D01*
X181985196Y-101285428D01*
X182005610Y-101000000D01*
X181985196Y-100714572D01*
X181924369Y-100434954D01*
X181824367Y-100166839D01*
X181687226Y-99915685D01*
X181687224Y-99915682D01*
X181515745Y-99686612D01*
X181515729Y-99686594D01*
X181313405Y-99484270D01*
X181313387Y-99484254D01*
X181084317Y-99312775D01*
X181084309Y-99312770D01*
X180833166Y-99175635D01*
X180833162Y-99175633D01*
X180758650Y-99147842D01*
X180673764Y-99116181D01*
X180617832Y-99074311D01*
X180593415Y-99008846D01*
X180608267Y-98940573D01*
X180657672Y-98891168D01*
X180673760Y-98883820D01*
X180833161Y-98824367D01*
X181084315Y-98687226D01*
X181313395Y-98515739D01*
X181515739Y-98313395D01*
X181687226Y-98084315D01*
X181824367Y-97833161D01*
X181883818Y-97673764D01*
X181925689Y-97617832D01*
X181991154Y-97593415D01*
X182059427Y-97608267D01*
X182108832Y-97657672D01*
X182116182Y-97673766D01*
X182175633Y-97833162D01*
X182175635Y-97833166D01*
X182312770Y-98084309D01*
X182312775Y-98084317D01*
X182484254Y-98313387D01*
X182484270Y-98313405D01*
X182686594Y-98515729D01*
X182686612Y-98515745D01*
X182915682Y-98687224D01*
X182915690Y-98687229D01*
X183166833Y-98824364D01*
X183166832Y-98824364D01*
X183166836Y-98824365D01*
X183166839Y-98824367D01*
X183434954Y-98924369D01*
X183434960Y-98924370D01*
X183434962Y-98924371D01*
X183714566Y-98985195D01*
X183714568Y-98985195D01*
X183714572Y-98985196D01*
X183968220Y-99003337D01*
X183999999Y-99005610D01*
X184000000Y-99005610D01*
X184000001Y-99005610D01*
X184028595Y-99003564D01*
X184285428Y-98985196D01*
X184558974Y-98925690D01*
X184565037Y-98924371D01*
X184565037Y-98924370D01*
X184565046Y-98924369D01*
X184833161Y-98824367D01*
X185084315Y-98687226D01*
X185313395Y-98515739D01*
X185515739Y-98313395D01*
X185687226Y-98084315D01*
X185824367Y-97833161D01*
X185924369Y-97565046D01*
X185985196Y-97285428D01*
X186005610Y-97000000D01*
X185985196Y-96714572D01*
X185924369Y-96434954D01*
X185824367Y-96166839D01*
X185687226Y-95915685D01*
X185687224Y-95915682D01*
X185515745Y-95686612D01*
X185515729Y-95686594D01*
X185313405Y-95484270D01*
X185313387Y-95484254D01*
X185084317Y-95312775D01*
X185084309Y-95312770D01*
X184833166Y-95175635D01*
X184833167Y-95175635D01*
X184725915Y-95135632D01*
X184565046Y-95075631D01*
X184565043Y-95075630D01*
X184565037Y-95075628D01*
X184285433Y-95014804D01*
X184000001Y-94994390D01*
X183999999Y-94994390D01*
X183714566Y-95014804D01*
X183434962Y-95075628D01*
X183166833Y-95175635D01*
X182915690Y-95312770D01*
X182915682Y-95312775D01*
X182686612Y-95484254D01*
X182686594Y-95484270D01*
X182484270Y-95686594D01*
X182484254Y-95686612D01*
X182312775Y-95915682D01*
X182312770Y-95915690D01*
X182175635Y-96166833D01*
X182116182Y-96326234D01*
X182074310Y-96382167D01*
X182008846Y-96406584D01*
X181940573Y-96391732D01*
X181891168Y-96342327D01*
X181883818Y-96326234D01*
X181824367Y-96166839D01*
X181687226Y-95915685D01*
X181687224Y-95915682D01*
X181515745Y-95686612D01*
X181515729Y-95686594D01*
X181313405Y-95484270D01*
X181313387Y-95484254D01*
X181084317Y-95312775D01*
X181084309Y-95312770D01*
X180833166Y-95175635D01*
X180833167Y-95175635D01*
X180725915Y-95135632D01*
X180565046Y-95075631D01*
X180565043Y-95075630D01*
X180565037Y-95075628D01*
X180285433Y-95014804D01*
X180000001Y-94994390D01*
X179999999Y-94994390D01*
X179714566Y-95014804D01*
X179434962Y-95075628D01*
X179166833Y-95175635D01*
X178915690Y-95312770D01*
X178915682Y-95312775D01*
X178686612Y-95484254D01*
X178686594Y-95484270D01*
X178484270Y-95686594D01*
X178484254Y-95686612D01*
X178312775Y-95915682D01*
X178312770Y-95915690D01*
X178175635Y-96166833D01*
X178075628Y-96434962D01*
X178014804Y-96714566D01*
X177994390Y-96999998D01*
X120500000Y-96999998D01*
X120500000Y-87500709D01*
X120500007Y-87499357D01*
X120501679Y-87345946D01*
X123649500Y-87345946D01*
X123649500Y-87654053D01*
X123649501Y-87654069D01*
X123689717Y-87959542D01*
X123769464Y-88257162D01*
X123887376Y-88541826D01*
X123887381Y-88541837D01*
X123980014Y-88702280D01*
X124041438Y-88808670D01*
X124041440Y-88808673D01*
X124041441Y-88808674D01*
X124229007Y-89053115D01*
X124229013Y-89053122D01*
X124446877Y-89270986D01*
X124446883Y-89270991D01*
X124691330Y-89458562D01*
X124862830Y-89557578D01*
X124958162Y-89612618D01*
X124958167Y-89612620D01*
X124958170Y-89612622D01*
X125242836Y-89730535D01*
X125540456Y-89810282D01*
X125845940Y-89850500D01*
X125845947Y-89850500D01*
X126154053Y-89850500D01*
X126154060Y-89850500D01*
X126459544Y-89810282D01*
X126757164Y-89730535D01*
X127041830Y-89612622D01*
X127308670Y-89458562D01*
X127553117Y-89270991D01*
X127770991Y-89053117D01*
X127958562Y-88808670D01*
X128112622Y-88541830D01*
X128230535Y-88257164D01*
X128310282Y-87959544D01*
X128350500Y-87654060D01*
X128350500Y-87345946D01*
X181649500Y-87345946D01*
X181649500Y-87654053D01*
X181649501Y-87654069D01*
X181689717Y-87959542D01*
X181769464Y-88257162D01*
X181887376Y-88541826D01*
X181887381Y-88541837D01*
X181980014Y-88702280D01*
X182041438Y-88808670D01*
X182041440Y-88808673D01*
X182041441Y-88808674D01*
X182229007Y-89053115D01*
X182229013Y-89053122D01*
X182446877Y-89270986D01*
X182446883Y-89270991D01*
X182691330Y-89458562D01*
X182862830Y-89557578D01*
X182958162Y-89612618D01*
X182958167Y-89612620D01*
X182958170Y-89612622D01*
X183242836Y-89730535D01*
X183540456Y-89810282D01*
X183845940Y-89850500D01*
X183845947Y-89850500D01*
X184154053Y-89850500D01*
X184154060Y-89850500D01*
X184459544Y-89810282D01*
X184757164Y-89730535D01*
X185041830Y-89612622D01*
X185308670Y-89458562D01*
X185553117Y-89270991D01*
X185770991Y-89053117D01*
X185958562Y-88808670D01*
X186112622Y-88541830D01*
X186230535Y-88257164D01*
X186310282Y-87959544D01*
X186350500Y-87654060D01*
X186350500Y-87345940D01*
X186310282Y-87040456D01*
X186230535Y-86742836D01*
X186112622Y-86458170D01*
X186112620Y-86458167D01*
X186112618Y-86458162D01*
X186057578Y-86362830D01*
X185958562Y-86191330D01*
X185770991Y-85946883D01*
X185770986Y-85946877D01*
X185553122Y-85729013D01*
X185553115Y-85729007D01*
X185308674Y-85541441D01*
X185308673Y-85541440D01*
X185308670Y-85541438D01*
X185202280Y-85480014D01*
X185041837Y-85387381D01*
X185041826Y-85387376D01*
X184757162Y-85269464D01*
X184459542Y-85189717D01*
X184154069Y-85149501D01*
X184154066Y-85149500D01*
X184154060Y-85149500D01*
X183845940Y-85149500D01*
X183845934Y-85149500D01*
X183845930Y-85149501D01*
X183540457Y-85189717D01*
X183242837Y-85269464D01*
X182958173Y-85387376D01*
X182958162Y-85387381D01*
X182691325Y-85541441D01*
X182446884Y-85729007D01*
X182446877Y-85729013D01*
X182229013Y-85946877D01*
X182229007Y-85946884D01*
X182041441Y-86191325D01*
X181887381Y-86458162D01*
X181887376Y-86458173D01*
X181769464Y-86742837D01*
X181689717Y-87040457D01*
X181649501Y-87345930D01*
X181649500Y-87345946D01*
X128350500Y-87345946D01*
X128350500Y-87345940D01*
X128310282Y-87040456D01*
X128230535Y-86742836D01*
X128112622Y-86458170D01*
X128112620Y-86458167D01*
X128112618Y-86458162D01*
X128057578Y-86362830D01*
X127958562Y-86191330D01*
X127770991Y-85946883D01*
X127770986Y-85946877D01*
X127553122Y-85729013D01*
X127553115Y-85729007D01*
X127308674Y-85541441D01*
X127308673Y-85541440D01*
X127308670Y-85541438D01*
X127202280Y-85480014D01*
X127041837Y-85387381D01*
X127041826Y-85387376D01*
X126757162Y-85269464D01*
X126459542Y-85189717D01*
X126154069Y-85149501D01*
X126154066Y-85149500D01*
X126154060Y-85149500D01*
X125845940Y-85149500D01*
X125845934Y-85149500D01*
X125845930Y-85149501D01*
X125540457Y-85189717D01*
X125242837Y-85269464D01*
X124958173Y-85387376D01*
X124958162Y-85387381D01*
X124691325Y-85541441D01*
X124446884Y-85729007D01*
X124446877Y-85729013D01*
X124229013Y-85946877D01*
X124229007Y-85946884D01*
X124041441Y-86191325D01*
X123887381Y-86458162D01*
X123887376Y-86458173D01*
X123769464Y-86742837D01*
X123689717Y-87040457D01*
X123649501Y-87345930D01*
X123649500Y-87345946D01*
X120501679Y-87345946D01*
X120502565Y-87264696D01*
X120503029Y-87255266D01*
X120543984Y-86787150D01*
X120545396Y-86776432D01*
X120551320Y-86742837D01*
X120626876Y-86314331D01*
X120629208Y-86303812D01*
X120750663Y-85850534D01*
X120753903Y-85840258D01*
X120914398Y-85399303D01*
X120918519Y-85389353D01*
X121116835Y-84964063D01*
X121121815Y-84954496D01*
X121356435Y-84548122D01*
X121362228Y-84539028D01*
X121631384Y-84154634D01*
X121637953Y-84146074D01*
X121939575Y-83786616D01*
X121946861Y-83778665D01*
X122278665Y-83446861D01*
X122286616Y-83439575D01*
X122646074Y-83137953D01*
X122654634Y-83131384D01*
X123039028Y-82862228D01*
X123048122Y-82856435D01*
X123454496Y-82621815D01*
X123464063Y-82616835D01*
X123889353Y-82418519D01*
X123899303Y-82414398D01*
X124340258Y-82253903D01*
X124350534Y-82250663D01*
X124803812Y-82129208D01*
X124814331Y-82126876D01*
X125276435Y-82045395D01*
X125287150Y-82043984D01*
X125755266Y-82003029D01*
X125764696Y-82002565D01*
X125999358Y-82000007D01*
X126000710Y-82000000D01*
X183999290Y-82000000D01*
X184000642Y-82000007D01*
G37*
%TD.AperFunction*%
%TD*%
M02*
