%TF.GenerationSoftware,KiCad,Pcbnew,8.0.2-1*%
%TF.CreationDate,2025-01-15T14:17:39-08:00*%
%TF.ProjectId,rocket2-load-cell,726f636b-6574-4322-9d6c-6f61642d6365,rev?*%
%TF.SameCoordinates,Original*%
%TF.FileFunction,Legend,Top*%
%TF.FilePolarity,Positive*%
%FSLAX46Y46*%
G04 Gerber Fmt 4.6, Leading zero omitted, Abs format (unit mm)*
G04 Created by KiCad (PCBNEW 8.0.2-1) date 2025-01-15 14:17:39*
%MOMM*%
%LPD*%
G01*
G04 APERTURE LIST*
G04 Aperture macros list*
%AMRoundRect*
0 Rectangle with rounded corners*
0 $1 Rounding radius*
0 $2 $3 $4 $5 $6 $7 $8 $9 X,Y pos of 4 corners*
0 Add a 4 corners polygon primitive as box body*
4,1,4,$2,$3,$4,$5,$6,$7,$8,$9,$2,$3,0*
0 Add four circle primitives for the rounded corners*
1,1,$1+$1,$2,$3*
1,1,$1+$1,$4,$5*
1,1,$1+$1,$6,$7*
1,1,$1+$1,$8,$9*
0 Add four rect primitives between the rounded corners*
20,1,$1+$1,$2,$3,$4,$5,0*
20,1,$1+$1,$4,$5,$6,$7,0*
20,1,$1+$1,$6,$7,$8,$9,0*
20,1,$1+$1,$8,$9,$2,$3,0*%
G04 Aperture macros list end*
%ADD10C,0.300000*%
%ADD11C,0.150000*%
%ADD12C,0.100000*%
%ADD13C,0.200000*%
%ADD14C,0.050000*%
%ADD15C,0.120000*%
%ADD16C,0.000000*%
%ADD17R,1.599999X1.599999*%
%ADD18C,1.599999*%
%ADD19C,3.500000*%
%ADD20RoundRect,0.200000X0.200000X0.275000X-0.200000X0.275000X-0.200000X-0.275000X0.200000X-0.275000X0*%
%ADD21RoundRect,0.200000X-0.200000X-0.275000X0.200000X-0.275000X0.200000X0.275000X-0.200000X0.275000X0*%
%ADD22C,1.400000*%
%ADD23C,2.000000*%
%ADD24RoundRect,0.075000X-0.662500X-0.075000X0.662500X-0.075000X0.662500X0.075000X-0.662500X0.075000X0*%
%ADD25RoundRect,0.075000X-0.075000X-0.662500X0.075000X-0.662500X0.075000X0.662500X-0.075000X0.662500X0*%
%ADD26RoundRect,0.237500X0.300000X0.237500X-0.300000X0.237500X-0.300000X-0.237500X0.300000X-0.237500X0*%
%ADD27RoundRect,0.225000X-0.225000X-0.250000X0.225000X-0.250000X0.225000X0.250000X-0.225000X0.250000X0*%
%ADD28RoundRect,0.375000X0.375000X-0.625000X0.375000X0.625000X-0.375000X0.625000X-0.375000X-0.625000X0*%
%ADD29RoundRect,0.500000X1.400000X-0.500000X1.400000X0.500000X-1.400000X0.500000X-1.400000X-0.500000X0*%
%ADD30RoundRect,0.100000X0.637500X0.100000X-0.637500X0.100000X-0.637500X-0.100000X0.637500X-0.100000X0*%
%ADD31R,1.150000X1.000000*%
%ADD32RoundRect,0.218750X-0.218750X-0.256250X0.218750X-0.256250X0.218750X0.256250X-0.218750X0.256250X0*%
%ADD33R,2.600000X2.600000*%
%ADD34C,2.600000*%
%ADD35R,2.400000X0.740000*%
%ADD36RoundRect,0.225000X0.225000X0.250000X-0.225000X0.250000X-0.225000X-0.250000X0.225000X-0.250000X0*%
%ADD37RoundRect,0.225000X-0.250000X0.225000X-0.250000X-0.225000X0.250000X-0.225000X0.250000X0.225000X0*%
%ADD38R,0.650000X1.700000*%
%ADD39RoundRect,0.218750X-0.256250X0.218750X-0.256250X-0.218750X0.256250X-0.218750X0.256250X0.218750X0*%
%ADD40C,4.300000*%
%ADD41RoundRect,0.225000X0.250000X-0.225000X0.250000X0.225000X-0.250000X0.225000X-0.250000X-0.225000X0*%
%ADD42C,0.500000*%
G04 APERTURE END LIST*
D10*
X146940475Y-139180828D02*
X146940475Y-140395114D01*
X146940475Y-140395114D02*
X147035713Y-140537971D01*
X147035713Y-140537971D02*
X147130951Y-140609400D01*
X147130951Y-140609400D02*
X147321427Y-140680828D01*
X147321427Y-140680828D02*
X147702380Y-140680828D01*
X147702380Y-140680828D02*
X147892856Y-140609400D01*
X147892856Y-140609400D02*
X147988094Y-140537971D01*
X147988094Y-140537971D02*
X148083332Y-140395114D01*
X148083332Y-140395114D02*
X148083332Y-139180828D01*
X150178570Y-140537971D02*
X150083332Y-140609400D01*
X150083332Y-140609400D02*
X149797618Y-140680828D01*
X149797618Y-140680828D02*
X149607142Y-140680828D01*
X149607142Y-140680828D02*
X149321427Y-140609400D01*
X149321427Y-140609400D02*
X149130951Y-140466542D01*
X149130951Y-140466542D02*
X149035713Y-140323685D01*
X149035713Y-140323685D02*
X148940475Y-140037971D01*
X148940475Y-140037971D02*
X148940475Y-139823685D01*
X148940475Y-139823685D02*
X149035713Y-139537971D01*
X149035713Y-139537971D02*
X149130951Y-139395114D01*
X149130951Y-139395114D02*
X149321427Y-139252257D01*
X149321427Y-139252257D02*
X149607142Y-139180828D01*
X149607142Y-139180828D02*
X149797618Y-139180828D01*
X149797618Y-139180828D02*
X150083332Y-139252257D01*
X150083332Y-139252257D02*
X150178570Y-139323685D01*
X151035713Y-140680828D02*
X151035713Y-139180828D01*
X153130951Y-140680828D02*
X152464284Y-139966542D01*
X151988094Y-140680828D02*
X151988094Y-139180828D01*
X151988094Y-139180828D02*
X152749999Y-139180828D01*
X152749999Y-139180828D02*
X152940475Y-139252257D01*
X152940475Y-139252257D02*
X153035713Y-139323685D01*
X153035713Y-139323685D02*
X153130951Y-139466542D01*
X153130951Y-139466542D02*
X153130951Y-139680828D01*
X153130951Y-139680828D02*
X153035713Y-139823685D01*
X153035713Y-139823685D02*
X152940475Y-139895114D01*
X152940475Y-139895114D02*
X152749999Y-139966542D01*
X152749999Y-139966542D02*
X151988094Y-139966542D01*
X153988094Y-140680828D02*
X153988094Y-139180828D01*
X153988094Y-139180828D02*
X154749999Y-139180828D01*
X154749999Y-139180828D02*
X154940475Y-139252257D01*
X154940475Y-139252257D02*
X155035713Y-139323685D01*
X155035713Y-139323685D02*
X155130951Y-139466542D01*
X155130951Y-139466542D02*
X155130951Y-139680828D01*
X155130951Y-139680828D02*
X155035713Y-139823685D01*
X155035713Y-139823685D02*
X154940475Y-139895114D01*
X154940475Y-139895114D02*
X154749999Y-139966542D01*
X154749999Y-139966542D02*
X153988094Y-139966542D01*
X158464285Y-140680828D02*
X157511904Y-140680828D01*
X157511904Y-140680828D02*
X157511904Y-139180828D01*
X159511904Y-139180828D02*
X159892857Y-139180828D01*
X159892857Y-139180828D02*
X160083333Y-139252257D01*
X160083333Y-139252257D02*
X160273809Y-139395114D01*
X160273809Y-139395114D02*
X160369047Y-139680828D01*
X160369047Y-139680828D02*
X160369047Y-140180828D01*
X160369047Y-140180828D02*
X160273809Y-140466542D01*
X160273809Y-140466542D02*
X160083333Y-140609400D01*
X160083333Y-140609400D02*
X159892857Y-140680828D01*
X159892857Y-140680828D02*
X159511904Y-140680828D01*
X159511904Y-140680828D02*
X159321428Y-140609400D01*
X159321428Y-140609400D02*
X159130952Y-140466542D01*
X159130952Y-140466542D02*
X159035714Y-140180828D01*
X159035714Y-140180828D02*
X159035714Y-139680828D01*
X159035714Y-139680828D02*
X159130952Y-139395114D01*
X159130952Y-139395114D02*
X159321428Y-139252257D01*
X159321428Y-139252257D02*
X159511904Y-139180828D01*
X161130952Y-140252257D02*
X162083333Y-140252257D01*
X160940476Y-140680828D02*
X161607142Y-139180828D01*
X161607142Y-139180828D02*
X162273809Y-140680828D01*
X162940476Y-140680828D02*
X162940476Y-139180828D01*
X162940476Y-139180828D02*
X163416666Y-139180828D01*
X163416666Y-139180828D02*
X163702381Y-139252257D01*
X163702381Y-139252257D02*
X163892857Y-139395114D01*
X163892857Y-139395114D02*
X163988095Y-139537971D01*
X163988095Y-139537971D02*
X164083333Y-139823685D01*
X164083333Y-139823685D02*
X164083333Y-140037971D01*
X164083333Y-140037971D02*
X163988095Y-140323685D01*
X163988095Y-140323685D02*
X163892857Y-140466542D01*
X163892857Y-140466542D02*
X163702381Y-140609400D01*
X163702381Y-140609400D02*
X163416666Y-140680828D01*
X163416666Y-140680828D02*
X162940476Y-140680828D01*
X167607143Y-140537971D02*
X167511905Y-140609400D01*
X167511905Y-140609400D02*
X167226191Y-140680828D01*
X167226191Y-140680828D02*
X167035715Y-140680828D01*
X167035715Y-140680828D02*
X166750000Y-140609400D01*
X166750000Y-140609400D02*
X166559524Y-140466542D01*
X166559524Y-140466542D02*
X166464286Y-140323685D01*
X166464286Y-140323685D02*
X166369048Y-140037971D01*
X166369048Y-140037971D02*
X166369048Y-139823685D01*
X166369048Y-139823685D02*
X166464286Y-139537971D01*
X166464286Y-139537971D02*
X166559524Y-139395114D01*
X166559524Y-139395114D02*
X166750000Y-139252257D01*
X166750000Y-139252257D02*
X167035715Y-139180828D01*
X167035715Y-139180828D02*
X167226191Y-139180828D01*
X167226191Y-139180828D02*
X167511905Y-139252257D01*
X167511905Y-139252257D02*
X167607143Y-139323685D01*
X168464286Y-139895114D02*
X169130953Y-139895114D01*
X169416667Y-140680828D02*
X168464286Y-140680828D01*
X168464286Y-140680828D02*
X168464286Y-139180828D01*
X168464286Y-139180828D02*
X169416667Y-139180828D01*
X171226191Y-140680828D02*
X170273810Y-140680828D01*
X170273810Y-140680828D02*
X170273810Y-139180828D01*
X172845239Y-140680828D02*
X171892858Y-140680828D01*
X171892858Y-140680828D02*
X171892858Y-139180828D01*
X153369047Y-142667173D02*
X154321428Y-142667173D01*
X153178571Y-143095744D02*
X153845237Y-141595744D01*
X153845237Y-141595744D02*
X154511904Y-143095744D01*
X155178571Y-143095744D02*
X155178571Y-141595744D01*
X155178571Y-141595744D02*
X155654761Y-141595744D01*
X155654761Y-141595744D02*
X155940476Y-141667173D01*
X155940476Y-141667173D02*
X156130952Y-141810030D01*
X156130952Y-141810030D02*
X156226190Y-141952887D01*
X156226190Y-141952887D02*
X156321428Y-142238601D01*
X156321428Y-142238601D02*
X156321428Y-142452887D01*
X156321428Y-142452887D02*
X156226190Y-142738601D01*
X156226190Y-142738601D02*
X156130952Y-142881458D01*
X156130952Y-142881458D02*
X155940476Y-143024316D01*
X155940476Y-143024316D02*
X155654761Y-143095744D01*
X155654761Y-143095744D02*
X155178571Y-143095744D01*
X158321428Y-142952887D02*
X158226190Y-143024316D01*
X158226190Y-143024316D02*
X157940476Y-143095744D01*
X157940476Y-143095744D02*
X157750000Y-143095744D01*
X157750000Y-143095744D02*
X157464285Y-143024316D01*
X157464285Y-143024316D02*
X157273809Y-142881458D01*
X157273809Y-142881458D02*
X157178571Y-142738601D01*
X157178571Y-142738601D02*
X157083333Y-142452887D01*
X157083333Y-142452887D02*
X157083333Y-142238601D01*
X157083333Y-142238601D02*
X157178571Y-141952887D01*
X157178571Y-141952887D02*
X157273809Y-141810030D01*
X157273809Y-141810030D02*
X157464285Y-141667173D01*
X157464285Y-141667173D02*
X157750000Y-141595744D01*
X157750000Y-141595744D02*
X157940476Y-141595744D01*
X157940476Y-141595744D02*
X158226190Y-141667173D01*
X158226190Y-141667173D02*
X158321428Y-141738601D01*
X160511905Y-142095744D02*
X160988095Y-143095744D01*
X160988095Y-143095744D02*
X161464286Y-142095744D01*
X163273810Y-143095744D02*
X162130953Y-143095744D01*
X162702381Y-143095744D02*
X162702381Y-141595744D01*
X162702381Y-141595744D02*
X162511905Y-141810030D01*
X162511905Y-141810030D02*
X162321429Y-141952887D01*
X162321429Y-141952887D02*
X162130953Y-142024316D01*
X164130953Y-142952887D02*
X164226191Y-143024316D01*
X164226191Y-143024316D02*
X164130953Y-143095744D01*
X164130953Y-143095744D02*
X164035715Y-143024316D01*
X164035715Y-143024316D02*
X164130953Y-142952887D01*
X164130953Y-142952887D02*
X164130953Y-143095744D01*
X165464286Y-141595744D02*
X165654763Y-141595744D01*
X165654763Y-141595744D02*
X165845239Y-141667173D01*
X165845239Y-141667173D02*
X165940477Y-141738601D01*
X165940477Y-141738601D02*
X166035715Y-141881458D01*
X166035715Y-141881458D02*
X166130953Y-142167173D01*
X166130953Y-142167173D02*
X166130953Y-142524316D01*
X166130953Y-142524316D02*
X166035715Y-142810030D01*
X166035715Y-142810030D02*
X165940477Y-142952887D01*
X165940477Y-142952887D02*
X165845239Y-143024316D01*
X165845239Y-143024316D02*
X165654763Y-143095744D01*
X165654763Y-143095744D02*
X165464286Y-143095744D01*
X165464286Y-143095744D02*
X165273810Y-143024316D01*
X165273810Y-143024316D02*
X165178572Y-142952887D01*
X165178572Y-142952887D02*
X165083334Y-142810030D01*
X165083334Y-142810030D02*
X164988096Y-142524316D01*
X164988096Y-142524316D02*
X164988096Y-142167173D01*
X164988096Y-142167173D02*
X165083334Y-141881458D01*
X165083334Y-141881458D02*
X165178572Y-141738601D01*
X165178572Y-141738601D02*
X165273810Y-141667173D01*
X165273810Y-141667173D02*
X165464286Y-141595744D01*
D11*
X144500000Y-138000000D02*
X175000000Y-138000000D01*
X175000000Y-144500000D01*
X144500000Y-144500000D01*
X144500000Y-138000000D01*
X150033333Y-101844819D02*
X149700000Y-101368628D01*
X149461905Y-101844819D02*
X149461905Y-100844819D01*
X149461905Y-100844819D02*
X149842857Y-100844819D01*
X149842857Y-100844819D02*
X149938095Y-100892438D01*
X149938095Y-100892438D02*
X149985714Y-100940057D01*
X149985714Y-100940057D02*
X150033333Y-101035295D01*
X150033333Y-101035295D02*
X150033333Y-101178152D01*
X150033333Y-101178152D02*
X149985714Y-101273390D01*
X149985714Y-101273390D02*
X149938095Y-101321009D01*
X149938095Y-101321009D02*
X149842857Y-101368628D01*
X149842857Y-101368628D02*
X149461905Y-101368628D01*
X150414286Y-100940057D02*
X150461905Y-100892438D01*
X150461905Y-100892438D02*
X150557143Y-100844819D01*
X150557143Y-100844819D02*
X150795238Y-100844819D01*
X150795238Y-100844819D02*
X150890476Y-100892438D01*
X150890476Y-100892438D02*
X150938095Y-100940057D01*
X150938095Y-100940057D02*
X150985714Y-101035295D01*
X150985714Y-101035295D02*
X150985714Y-101130533D01*
X150985714Y-101130533D02*
X150938095Y-101273390D01*
X150938095Y-101273390D02*
X150366667Y-101844819D01*
X150366667Y-101844819D02*
X150985714Y-101844819D01*
X129855833Y-105204819D02*
X129522500Y-104728628D01*
X129284405Y-105204819D02*
X129284405Y-104204819D01*
X129284405Y-104204819D02*
X129665357Y-104204819D01*
X129665357Y-104204819D02*
X129760595Y-104252438D01*
X129760595Y-104252438D02*
X129808214Y-104300057D01*
X129808214Y-104300057D02*
X129855833Y-104395295D01*
X129855833Y-104395295D02*
X129855833Y-104538152D01*
X129855833Y-104538152D02*
X129808214Y-104633390D01*
X129808214Y-104633390D02*
X129760595Y-104681009D01*
X129760595Y-104681009D02*
X129665357Y-104728628D01*
X129665357Y-104728628D02*
X129284405Y-104728628D01*
X130760595Y-104204819D02*
X130284405Y-104204819D01*
X130284405Y-104204819D02*
X130236786Y-104681009D01*
X130236786Y-104681009D02*
X130284405Y-104633390D01*
X130284405Y-104633390D02*
X130379643Y-104585771D01*
X130379643Y-104585771D02*
X130617738Y-104585771D01*
X130617738Y-104585771D02*
X130712976Y-104633390D01*
X130712976Y-104633390D02*
X130760595Y-104681009D01*
X130760595Y-104681009D02*
X130808214Y-104776247D01*
X130808214Y-104776247D02*
X130808214Y-105014342D01*
X130808214Y-105014342D02*
X130760595Y-105109580D01*
X130760595Y-105109580D02*
X130712976Y-105157200D01*
X130712976Y-105157200D02*
X130617738Y-105204819D01*
X130617738Y-105204819D02*
X130379643Y-105204819D01*
X130379643Y-105204819D02*
X130284405Y-105157200D01*
X130284405Y-105157200D02*
X130236786Y-105109580D01*
D12*
X188566390Y-113384285D02*
X188566390Y-113050952D01*
X188042580Y-113050952D02*
X189042580Y-113050952D01*
X189042580Y-113050952D02*
X189042580Y-113527142D01*
X188042580Y-114479523D02*
X188518771Y-114146190D01*
X188042580Y-113908095D02*
X189042580Y-113908095D01*
X189042580Y-113908095D02*
X189042580Y-114289047D01*
X189042580Y-114289047D02*
X188994961Y-114384285D01*
X188994961Y-114384285D02*
X188947342Y-114431904D01*
X188947342Y-114431904D02*
X188852104Y-114479523D01*
X188852104Y-114479523D02*
X188709247Y-114479523D01*
X188709247Y-114479523D02*
X188614009Y-114431904D01*
X188614009Y-114431904D02*
X188566390Y-114384285D01*
X188566390Y-114384285D02*
X188518771Y-114289047D01*
X188518771Y-114289047D02*
X188518771Y-113908095D01*
X189042580Y-115098571D02*
X189042580Y-115289047D01*
X189042580Y-115289047D02*
X188994961Y-115384285D01*
X188994961Y-115384285D02*
X188899723Y-115479523D01*
X188899723Y-115479523D02*
X188709247Y-115527142D01*
X188709247Y-115527142D02*
X188375914Y-115527142D01*
X188375914Y-115527142D02*
X188185438Y-115479523D01*
X188185438Y-115479523D02*
X188090200Y-115384285D01*
X188090200Y-115384285D02*
X188042580Y-115289047D01*
X188042580Y-115289047D02*
X188042580Y-115098571D01*
X188042580Y-115098571D02*
X188090200Y-115003333D01*
X188090200Y-115003333D02*
X188185438Y-114908095D01*
X188185438Y-114908095D02*
X188375914Y-114860476D01*
X188375914Y-114860476D02*
X188709247Y-114860476D01*
X188709247Y-114860476D02*
X188899723Y-114908095D01*
X188899723Y-114908095D02*
X188994961Y-115003333D01*
X188994961Y-115003333D02*
X189042580Y-115098571D01*
X188042580Y-115955714D02*
X189042580Y-115955714D01*
X189042580Y-115955714D02*
X188042580Y-116527142D01*
X188042580Y-116527142D02*
X189042580Y-116527142D01*
X189042580Y-116860476D02*
X189042580Y-117431904D01*
X188042580Y-117146190D02*
X189042580Y-117146190D01*
D11*
X131760595Y-107204819D02*
X131760595Y-108014342D01*
X131760595Y-108014342D02*
X131808214Y-108109580D01*
X131808214Y-108109580D02*
X131855833Y-108157200D01*
X131855833Y-108157200D02*
X131951071Y-108204819D01*
X131951071Y-108204819D02*
X132141547Y-108204819D01*
X132141547Y-108204819D02*
X132236785Y-108157200D01*
X132236785Y-108157200D02*
X132284404Y-108109580D01*
X132284404Y-108109580D02*
X132332023Y-108014342D01*
X132332023Y-108014342D02*
X132332023Y-107204819D01*
X132760595Y-107300057D02*
X132808214Y-107252438D01*
X132808214Y-107252438D02*
X132903452Y-107204819D01*
X132903452Y-107204819D02*
X133141547Y-107204819D01*
X133141547Y-107204819D02*
X133236785Y-107252438D01*
X133236785Y-107252438D02*
X133284404Y-107300057D01*
X133284404Y-107300057D02*
X133332023Y-107395295D01*
X133332023Y-107395295D02*
X133332023Y-107490533D01*
X133332023Y-107490533D02*
X133284404Y-107633390D01*
X133284404Y-107633390D02*
X132712976Y-108204819D01*
X132712976Y-108204819D02*
X133332023Y-108204819D01*
X132194642Y-98109580D02*
X132147023Y-98157200D01*
X132147023Y-98157200D02*
X132004166Y-98204819D01*
X132004166Y-98204819D02*
X131908928Y-98204819D01*
X131908928Y-98204819D02*
X131766071Y-98157200D01*
X131766071Y-98157200D02*
X131670833Y-98061961D01*
X131670833Y-98061961D02*
X131623214Y-97966723D01*
X131623214Y-97966723D02*
X131575595Y-97776247D01*
X131575595Y-97776247D02*
X131575595Y-97633390D01*
X131575595Y-97633390D02*
X131623214Y-97442914D01*
X131623214Y-97442914D02*
X131670833Y-97347676D01*
X131670833Y-97347676D02*
X131766071Y-97252438D01*
X131766071Y-97252438D02*
X131908928Y-97204819D01*
X131908928Y-97204819D02*
X132004166Y-97204819D01*
X132004166Y-97204819D02*
X132147023Y-97252438D01*
X132147023Y-97252438D02*
X132194642Y-97300057D01*
X133147023Y-98204819D02*
X132575595Y-98204819D01*
X132861309Y-98204819D02*
X132861309Y-97204819D01*
X132861309Y-97204819D02*
X132766071Y-97347676D01*
X132766071Y-97347676D02*
X132670833Y-97442914D01*
X132670833Y-97442914D02*
X132575595Y-97490533D01*
X133623214Y-98204819D02*
X133813690Y-98204819D01*
X133813690Y-98204819D02*
X133908928Y-98157200D01*
X133908928Y-98157200D02*
X133956547Y-98109580D01*
X133956547Y-98109580D02*
X134051785Y-97966723D01*
X134051785Y-97966723D02*
X134099404Y-97776247D01*
X134099404Y-97776247D02*
X134099404Y-97395295D01*
X134099404Y-97395295D02*
X134051785Y-97300057D01*
X134051785Y-97300057D02*
X134004166Y-97252438D01*
X134004166Y-97252438D02*
X133908928Y-97204819D01*
X133908928Y-97204819D02*
X133718452Y-97204819D01*
X133718452Y-97204819D02*
X133623214Y-97252438D01*
X133623214Y-97252438D02*
X133575595Y-97300057D01*
X133575595Y-97300057D02*
X133527976Y-97395295D01*
X133527976Y-97395295D02*
X133527976Y-97633390D01*
X133527976Y-97633390D02*
X133575595Y-97728628D01*
X133575595Y-97728628D02*
X133623214Y-97776247D01*
X133623214Y-97776247D02*
X133718452Y-97823866D01*
X133718452Y-97823866D02*
X133908928Y-97823866D01*
X133908928Y-97823866D02*
X134004166Y-97776247D01*
X134004166Y-97776247D02*
X134051785Y-97728628D01*
X134051785Y-97728628D02*
X134099404Y-97633390D01*
X135670833Y-104134819D02*
X135337500Y-103658628D01*
X135099405Y-104134819D02*
X135099405Y-103134819D01*
X135099405Y-103134819D02*
X135480357Y-103134819D01*
X135480357Y-103134819D02*
X135575595Y-103182438D01*
X135575595Y-103182438D02*
X135623214Y-103230057D01*
X135623214Y-103230057D02*
X135670833Y-103325295D01*
X135670833Y-103325295D02*
X135670833Y-103468152D01*
X135670833Y-103468152D02*
X135623214Y-103563390D01*
X135623214Y-103563390D02*
X135575595Y-103611009D01*
X135575595Y-103611009D02*
X135480357Y-103658628D01*
X135480357Y-103658628D02*
X135099405Y-103658628D01*
X136623214Y-104134819D02*
X136051786Y-104134819D01*
X136337500Y-104134819D02*
X136337500Y-103134819D01*
X136337500Y-103134819D02*
X136242262Y-103277676D01*
X136242262Y-103277676D02*
X136147024Y-103372914D01*
X136147024Y-103372914D02*
X136051786Y-103420533D01*
X170558333Y-124429580D02*
X170510714Y-124477200D01*
X170510714Y-124477200D02*
X170367857Y-124524819D01*
X170367857Y-124524819D02*
X170272619Y-124524819D01*
X170272619Y-124524819D02*
X170129762Y-124477200D01*
X170129762Y-124477200D02*
X170034524Y-124381961D01*
X170034524Y-124381961D02*
X169986905Y-124286723D01*
X169986905Y-124286723D02*
X169939286Y-124096247D01*
X169939286Y-124096247D02*
X169939286Y-123953390D01*
X169939286Y-123953390D02*
X169986905Y-123762914D01*
X169986905Y-123762914D02*
X170034524Y-123667676D01*
X170034524Y-123667676D02*
X170129762Y-123572438D01*
X170129762Y-123572438D02*
X170272619Y-123524819D01*
X170272619Y-123524819D02*
X170367857Y-123524819D01*
X170367857Y-123524819D02*
X170510714Y-123572438D01*
X170510714Y-123572438D02*
X170558333Y-123620057D01*
X171415476Y-123858152D02*
X171415476Y-124524819D01*
X171177381Y-123477200D02*
X170939286Y-124191485D01*
X170939286Y-124191485D02*
X171558333Y-124191485D01*
X132355833Y-117179580D02*
X132308214Y-117227200D01*
X132308214Y-117227200D02*
X132165357Y-117274819D01*
X132165357Y-117274819D02*
X132070119Y-117274819D01*
X132070119Y-117274819D02*
X131927262Y-117227200D01*
X131927262Y-117227200D02*
X131832024Y-117131961D01*
X131832024Y-117131961D02*
X131784405Y-117036723D01*
X131784405Y-117036723D02*
X131736786Y-116846247D01*
X131736786Y-116846247D02*
X131736786Y-116703390D01*
X131736786Y-116703390D02*
X131784405Y-116512914D01*
X131784405Y-116512914D02*
X131832024Y-116417676D01*
X131832024Y-116417676D02*
X131927262Y-116322438D01*
X131927262Y-116322438D02*
X132070119Y-116274819D01*
X132070119Y-116274819D02*
X132165357Y-116274819D01*
X132165357Y-116274819D02*
X132308214Y-116322438D01*
X132308214Y-116322438D02*
X132355833Y-116370057D01*
X132736786Y-116370057D02*
X132784405Y-116322438D01*
X132784405Y-116322438D02*
X132879643Y-116274819D01*
X132879643Y-116274819D02*
X133117738Y-116274819D01*
X133117738Y-116274819D02*
X133212976Y-116322438D01*
X133212976Y-116322438D02*
X133260595Y-116370057D01*
X133260595Y-116370057D02*
X133308214Y-116465295D01*
X133308214Y-116465295D02*
X133308214Y-116560533D01*
X133308214Y-116560533D02*
X133260595Y-116703390D01*
X133260595Y-116703390D02*
X132689167Y-117274819D01*
X132689167Y-117274819D02*
X133308214Y-117274819D01*
X144833333Y-105954819D02*
X144500000Y-105478628D01*
X144261905Y-105954819D02*
X144261905Y-104954819D01*
X144261905Y-104954819D02*
X144642857Y-104954819D01*
X144642857Y-104954819D02*
X144738095Y-105002438D01*
X144738095Y-105002438D02*
X144785714Y-105050057D01*
X144785714Y-105050057D02*
X144833333Y-105145295D01*
X144833333Y-105145295D02*
X144833333Y-105288152D01*
X144833333Y-105288152D02*
X144785714Y-105383390D01*
X144785714Y-105383390D02*
X144738095Y-105431009D01*
X144738095Y-105431009D02*
X144642857Y-105478628D01*
X144642857Y-105478628D02*
X144261905Y-105478628D01*
X145166667Y-104954819D02*
X145785714Y-104954819D01*
X145785714Y-104954819D02*
X145452381Y-105335771D01*
X145452381Y-105335771D02*
X145595238Y-105335771D01*
X145595238Y-105335771D02*
X145690476Y-105383390D01*
X145690476Y-105383390D02*
X145738095Y-105431009D01*
X145738095Y-105431009D02*
X145785714Y-105526247D01*
X145785714Y-105526247D02*
X145785714Y-105764342D01*
X145785714Y-105764342D02*
X145738095Y-105859580D01*
X145738095Y-105859580D02*
X145690476Y-105907200D01*
X145690476Y-105907200D02*
X145595238Y-105954819D01*
X145595238Y-105954819D02*
X145309524Y-105954819D01*
X145309524Y-105954819D02*
X145214286Y-105907200D01*
X145214286Y-105907200D02*
X145166667Y-105859580D01*
X142792319Y-125511904D02*
X143601842Y-125511904D01*
X143601842Y-125511904D02*
X143697080Y-125464285D01*
X143697080Y-125464285D02*
X143744700Y-125416666D01*
X143744700Y-125416666D02*
X143792319Y-125321428D01*
X143792319Y-125321428D02*
X143792319Y-125130952D01*
X143792319Y-125130952D02*
X143744700Y-125035714D01*
X143744700Y-125035714D02*
X143697080Y-124988095D01*
X143697080Y-124988095D02*
X143601842Y-124940476D01*
X143601842Y-124940476D02*
X142792319Y-124940476D01*
X142792319Y-124559523D02*
X142792319Y-123940476D01*
X142792319Y-123940476D02*
X143173271Y-124273809D01*
X143173271Y-124273809D02*
X143173271Y-124130952D01*
X143173271Y-124130952D02*
X143220890Y-124035714D01*
X143220890Y-124035714D02*
X143268509Y-123988095D01*
X143268509Y-123988095D02*
X143363747Y-123940476D01*
X143363747Y-123940476D02*
X143601842Y-123940476D01*
X143601842Y-123940476D02*
X143697080Y-123988095D01*
X143697080Y-123988095D02*
X143744700Y-124035714D01*
X143744700Y-124035714D02*
X143792319Y-124130952D01*
X143792319Y-124130952D02*
X143792319Y-124416666D01*
X143792319Y-124416666D02*
X143744700Y-124511904D01*
X143744700Y-124511904D02*
X143697080Y-124559523D01*
X139218452Y-104169104D02*
X139694642Y-104169104D01*
X139123214Y-104454819D02*
X139456547Y-103454819D01*
X139456547Y-103454819D02*
X139789880Y-104454819D01*
X140123214Y-104454819D02*
X140123214Y-103454819D01*
X140123214Y-103454819D02*
X140361309Y-103454819D01*
X140361309Y-103454819D02*
X140504166Y-103502438D01*
X140504166Y-103502438D02*
X140599404Y-103597676D01*
X140599404Y-103597676D02*
X140647023Y-103692914D01*
X140647023Y-103692914D02*
X140694642Y-103883390D01*
X140694642Y-103883390D02*
X140694642Y-104026247D01*
X140694642Y-104026247D02*
X140647023Y-104216723D01*
X140647023Y-104216723D02*
X140599404Y-104311961D01*
X140599404Y-104311961D02*
X140504166Y-104407200D01*
X140504166Y-104407200D02*
X140361309Y-104454819D01*
X140361309Y-104454819D02*
X140123214Y-104454819D01*
X141075595Y-104407200D02*
X141218452Y-104454819D01*
X141218452Y-104454819D02*
X141456547Y-104454819D01*
X141456547Y-104454819D02*
X141551785Y-104407200D01*
X141551785Y-104407200D02*
X141599404Y-104359580D01*
X141599404Y-104359580D02*
X141647023Y-104264342D01*
X141647023Y-104264342D02*
X141647023Y-104169104D01*
X141647023Y-104169104D02*
X141599404Y-104073866D01*
X141599404Y-104073866D02*
X141551785Y-104026247D01*
X141551785Y-104026247D02*
X141456547Y-103978628D01*
X141456547Y-103978628D02*
X141266071Y-103931009D01*
X141266071Y-103931009D02*
X141170833Y-103883390D01*
X141170833Y-103883390D02*
X141123214Y-103835771D01*
X141123214Y-103835771D02*
X141075595Y-103740533D01*
X141075595Y-103740533D02*
X141075595Y-103645295D01*
X141075595Y-103645295D02*
X141123214Y-103550057D01*
X141123214Y-103550057D02*
X141170833Y-103502438D01*
X141170833Y-103502438D02*
X141266071Y-103454819D01*
X141266071Y-103454819D02*
X141504166Y-103454819D01*
X141504166Y-103454819D02*
X141647023Y-103502438D01*
X142599404Y-104454819D02*
X142027976Y-104454819D01*
X142313690Y-104454819D02*
X142313690Y-103454819D01*
X142313690Y-103454819D02*
X142218452Y-103597676D01*
X142218452Y-103597676D02*
X142123214Y-103692914D01*
X142123214Y-103692914D02*
X142027976Y-103740533D01*
X142980357Y-103550057D02*
X143027976Y-103502438D01*
X143027976Y-103502438D02*
X143123214Y-103454819D01*
X143123214Y-103454819D02*
X143361309Y-103454819D01*
X143361309Y-103454819D02*
X143456547Y-103502438D01*
X143456547Y-103502438D02*
X143504166Y-103550057D01*
X143504166Y-103550057D02*
X143551785Y-103645295D01*
X143551785Y-103645295D02*
X143551785Y-103740533D01*
X143551785Y-103740533D02*
X143504166Y-103883390D01*
X143504166Y-103883390D02*
X142932738Y-104454819D01*
X142932738Y-104454819D02*
X143551785Y-104454819D01*
X144504166Y-104454819D02*
X143932738Y-104454819D01*
X144218452Y-104454819D02*
X144218452Y-103454819D01*
X144218452Y-103454819D02*
X144123214Y-103597676D01*
X144123214Y-103597676D02*
X144027976Y-103692914D01*
X144027976Y-103692914D02*
X143932738Y-103740533D01*
X144980357Y-104454819D02*
X145170833Y-104454819D01*
X145170833Y-104454819D02*
X145266071Y-104407200D01*
X145266071Y-104407200D02*
X145313690Y-104359580D01*
X145313690Y-104359580D02*
X145408928Y-104216723D01*
X145408928Y-104216723D02*
X145456547Y-104026247D01*
X145456547Y-104026247D02*
X145456547Y-103645295D01*
X145456547Y-103645295D02*
X145408928Y-103550057D01*
X145408928Y-103550057D02*
X145361309Y-103502438D01*
X145361309Y-103502438D02*
X145266071Y-103454819D01*
X145266071Y-103454819D02*
X145075595Y-103454819D01*
X145075595Y-103454819D02*
X144980357Y-103502438D01*
X144980357Y-103502438D02*
X144932738Y-103550057D01*
X144932738Y-103550057D02*
X144885119Y-103645295D01*
X144885119Y-103645295D02*
X144885119Y-103883390D01*
X144885119Y-103883390D02*
X144932738Y-103978628D01*
X144932738Y-103978628D02*
X144980357Y-104026247D01*
X144980357Y-104026247D02*
X145075595Y-104073866D01*
X145075595Y-104073866D02*
X145266071Y-104073866D01*
X145266071Y-104073866D02*
X145361309Y-104026247D01*
X145361309Y-104026247D02*
X145408928Y-103978628D01*
X145408928Y-103978628D02*
X145456547Y-103883390D01*
X124023809Y-111728628D02*
X124023809Y-112204819D01*
X123690476Y-111204819D02*
X124023809Y-111728628D01*
X124023809Y-111728628D02*
X124357142Y-111204819D01*
X125214285Y-112204819D02*
X124642857Y-112204819D01*
X124928571Y-112204819D02*
X124928571Y-111204819D01*
X124928571Y-111204819D02*
X124833333Y-111347676D01*
X124833333Y-111347676D02*
X124738095Y-111442914D01*
X124738095Y-111442914D02*
X124642857Y-111490533D01*
X131996905Y-103204819D02*
X131996905Y-102204819D01*
X131996905Y-102204819D02*
X132235000Y-102204819D01*
X132235000Y-102204819D02*
X132377857Y-102252438D01*
X132377857Y-102252438D02*
X132473095Y-102347676D01*
X132473095Y-102347676D02*
X132520714Y-102442914D01*
X132520714Y-102442914D02*
X132568333Y-102633390D01*
X132568333Y-102633390D02*
X132568333Y-102776247D01*
X132568333Y-102776247D02*
X132520714Y-102966723D01*
X132520714Y-102966723D02*
X132473095Y-103061961D01*
X132473095Y-103061961D02*
X132377857Y-103157200D01*
X132377857Y-103157200D02*
X132235000Y-103204819D01*
X132235000Y-103204819D02*
X131996905Y-103204819D01*
X133520714Y-103204819D02*
X132949286Y-103204819D01*
X133235000Y-103204819D02*
X133235000Y-102204819D01*
X133235000Y-102204819D02*
X133139762Y-102347676D01*
X133139762Y-102347676D02*
X133044524Y-102442914D01*
X133044524Y-102442914D02*
X132949286Y-102490533D01*
X180454819Y-131833333D02*
X181169104Y-131833333D01*
X181169104Y-131833333D02*
X181311961Y-131880952D01*
X181311961Y-131880952D02*
X181407200Y-131976190D01*
X181407200Y-131976190D02*
X181454819Y-132119047D01*
X181454819Y-132119047D02*
X181454819Y-132214285D01*
X180550057Y-131404761D02*
X180502438Y-131357142D01*
X180502438Y-131357142D02*
X180454819Y-131261904D01*
X180454819Y-131261904D02*
X180454819Y-131023809D01*
X180454819Y-131023809D02*
X180502438Y-130928571D01*
X180502438Y-130928571D02*
X180550057Y-130880952D01*
X180550057Y-130880952D02*
X180645295Y-130833333D01*
X180645295Y-130833333D02*
X180740533Y-130833333D01*
X180740533Y-130833333D02*
X180883390Y-130880952D01*
X180883390Y-130880952D02*
X181454819Y-131452380D01*
X181454819Y-131452380D02*
X181454819Y-130833333D01*
X142004166Y-120204819D02*
X142004166Y-120919104D01*
X142004166Y-120919104D02*
X141956547Y-121061961D01*
X141956547Y-121061961D02*
X141861309Y-121157200D01*
X141861309Y-121157200D02*
X141718452Y-121204819D01*
X141718452Y-121204819D02*
X141623214Y-121204819D01*
X143004166Y-121204819D02*
X142432738Y-121204819D01*
X142718452Y-121204819D02*
X142718452Y-120204819D01*
X142718452Y-120204819D02*
X142623214Y-120347676D01*
X142623214Y-120347676D02*
X142527976Y-120442914D01*
X142527976Y-120442914D02*
X142432738Y-120490533D01*
X133170833Y-101109580D02*
X133123214Y-101157200D01*
X133123214Y-101157200D02*
X132980357Y-101204819D01*
X132980357Y-101204819D02*
X132885119Y-101204819D01*
X132885119Y-101204819D02*
X132742262Y-101157200D01*
X132742262Y-101157200D02*
X132647024Y-101061961D01*
X132647024Y-101061961D02*
X132599405Y-100966723D01*
X132599405Y-100966723D02*
X132551786Y-100776247D01*
X132551786Y-100776247D02*
X132551786Y-100633390D01*
X132551786Y-100633390D02*
X132599405Y-100442914D01*
X132599405Y-100442914D02*
X132647024Y-100347676D01*
X132647024Y-100347676D02*
X132742262Y-100252438D01*
X132742262Y-100252438D02*
X132885119Y-100204819D01*
X132885119Y-100204819D02*
X132980357Y-100204819D01*
X132980357Y-100204819D02*
X133123214Y-100252438D01*
X133123214Y-100252438D02*
X133170833Y-100300057D01*
X134123214Y-101204819D02*
X133551786Y-101204819D01*
X133837500Y-101204819D02*
X133837500Y-100204819D01*
X133837500Y-100204819D02*
X133742262Y-100347676D01*
X133742262Y-100347676D02*
X133647024Y-100442914D01*
X133647024Y-100442914D02*
X133551786Y-100490533D01*
X188359580Y-101917857D02*
X188407200Y-101965476D01*
X188407200Y-101965476D02*
X188454819Y-102108333D01*
X188454819Y-102108333D02*
X188454819Y-102203571D01*
X188454819Y-102203571D02*
X188407200Y-102346428D01*
X188407200Y-102346428D02*
X188311961Y-102441666D01*
X188311961Y-102441666D02*
X188216723Y-102489285D01*
X188216723Y-102489285D02*
X188026247Y-102536904D01*
X188026247Y-102536904D02*
X187883390Y-102536904D01*
X187883390Y-102536904D02*
X187692914Y-102489285D01*
X187692914Y-102489285D02*
X187597676Y-102441666D01*
X187597676Y-102441666D02*
X187502438Y-102346428D01*
X187502438Y-102346428D02*
X187454819Y-102203571D01*
X187454819Y-102203571D02*
X187454819Y-102108333D01*
X187454819Y-102108333D02*
X187502438Y-101965476D01*
X187502438Y-101965476D02*
X187550057Y-101917857D01*
X188454819Y-100965476D02*
X188454819Y-101536904D01*
X188454819Y-101251190D02*
X187454819Y-101251190D01*
X187454819Y-101251190D02*
X187597676Y-101346428D01*
X187597676Y-101346428D02*
X187692914Y-101441666D01*
X187692914Y-101441666D02*
X187740533Y-101536904D01*
X187454819Y-100632142D02*
X187454819Y-100013095D01*
X187454819Y-100013095D02*
X187835771Y-100346428D01*
X187835771Y-100346428D02*
X187835771Y-100203571D01*
X187835771Y-100203571D02*
X187883390Y-100108333D01*
X187883390Y-100108333D02*
X187931009Y-100060714D01*
X187931009Y-100060714D02*
X188026247Y-100013095D01*
X188026247Y-100013095D02*
X188264342Y-100013095D01*
X188264342Y-100013095D02*
X188359580Y-100060714D01*
X188359580Y-100060714D02*
X188407200Y-100108333D01*
X188407200Y-100108333D02*
X188454819Y-100203571D01*
X188454819Y-100203571D02*
X188454819Y-100489285D01*
X188454819Y-100489285D02*
X188407200Y-100584523D01*
X188407200Y-100584523D02*
X188359580Y-100632142D01*
X128359580Y-109642857D02*
X128407200Y-109690476D01*
X128407200Y-109690476D02*
X128454819Y-109833333D01*
X128454819Y-109833333D02*
X128454819Y-109928571D01*
X128454819Y-109928571D02*
X128407200Y-110071428D01*
X128407200Y-110071428D02*
X128311961Y-110166666D01*
X128311961Y-110166666D02*
X128216723Y-110214285D01*
X128216723Y-110214285D02*
X128026247Y-110261904D01*
X128026247Y-110261904D02*
X127883390Y-110261904D01*
X127883390Y-110261904D02*
X127692914Y-110214285D01*
X127692914Y-110214285D02*
X127597676Y-110166666D01*
X127597676Y-110166666D02*
X127502438Y-110071428D01*
X127502438Y-110071428D02*
X127454819Y-109928571D01*
X127454819Y-109928571D02*
X127454819Y-109833333D01*
X127454819Y-109833333D02*
X127502438Y-109690476D01*
X127502438Y-109690476D02*
X127550057Y-109642857D01*
X128454819Y-108690476D02*
X128454819Y-109261904D01*
X128454819Y-108976190D02*
X127454819Y-108976190D01*
X127454819Y-108976190D02*
X127597676Y-109071428D01*
X127597676Y-109071428D02*
X127692914Y-109166666D01*
X127692914Y-109166666D02*
X127740533Y-109261904D01*
X127788152Y-107833333D02*
X128454819Y-107833333D01*
X127407200Y-108071428D02*
X128121485Y-108309523D01*
X128121485Y-108309523D02*
X128121485Y-107690476D01*
X136670833Y-106609580D02*
X136623214Y-106657200D01*
X136623214Y-106657200D02*
X136480357Y-106704819D01*
X136480357Y-106704819D02*
X136385119Y-106704819D01*
X136385119Y-106704819D02*
X136242262Y-106657200D01*
X136242262Y-106657200D02*
X136147024Y-106561961D01*
X136147024Y-106561961D02*
X136099405Y-106466723D01*
X136099405Y-106466723D02*
X136051786Y-106276247D01*
X136051786Y-106276247D02*
X136051786Y-106133390D01*
X136051786Y-106133390D02*
X136099405Y-105942914D01*
X136099405Y-105942914D02*
X136147024Y-105847676D01*
X136147024Y-105847676D02*
X136242262Y-105752438D01*
X136242262Y-105752438D02*
X136385119Y-105704819D01*
X136385119Y-105704819D02*
X136480357Y-105704819D01*
X136480357Y-105704819D02*
X136623214Y-105752438D01*
X136623214Y-105752438D02*
X136670833Y-105800057D01*
X137004167Y-105704819D02*
X137670833Y-105704819D01*
X137670833Y-105704819D02*
X137242262Y-106704819D01*
X132112319Y-124511904D02*
X132921842Y-124511904D01*
X132921842Y-124511904D02*
X133017080Y-124464285D01*
X133017080Y-124464285D02*
X133064700Y-124416666D01*
X133064700Y-124416666D02*
X133112319Y-124321428D01*
X133112319Y-124321428D02*
X133112319Y-124130952D01*
X133112319Y-124130952D02*
X133064700Y-124035714D01*
X133064700Y-124035714D02*
X133017080Y-123988095D01*
X133017080Y-123988095D02*
X132921842Y-123940476D01*
X132921842Y-123940476D02*
X132112319Y-123940476D01*
X133112319Y-122940476D02*
X133112319Y-123511904D01*
X133112319Y-123226190D02*
X132112319Y-123226190D01*
X132112319Y-123226190D02*
X132255176Y-123321428D01*
X132255176Y-123321428D02*
X132350414Y-123416666D01*
X132350414Y-123416666D02*
X132398033Y-123511904D01*
X184837319Y-102496666D02*
X184837319Y-102972856D01*
X184837319Y-102972856D02*
X183837319Y-102972856D01*
X183932557Y-102210951D02*
X183884938Y-102163332D01*
X183884938Y-102163332D02*
X183837319Y-102068094D01*
X183837319Y-102068094D02*
X183837319Y-101829999D01*
X183837319Y-101829999D02*
X183884938Y-101734761D01*
X183884938Y-101734761D02*
X183932557Y-101687142D01*
X183932557Y-101687142D02*
X184027795Y-101639523D01*
X184027795Y-101639523D02*
X184123033Y-101639523D01*
X184123033Y-101639523D02*
X184265890Y-101687142D01*
X184265890Y-101687142D02*
X184837319Y-102258570D01*
X184837319Y-102258570D02*
X184837319Y-101639523D01*
X148222080Y-102602857D02*
X148269700Y-102650476D01*
X148269700Y-102650476D02*
X148317319Y-102793333D01*
X148317319Y-102793333D02*
X148317319Y-102888571D01*
X148317319Y-102888571D02*
X148269700Y-103031428D01*
X148269700Y-103031428D02*
X148174461Y-103126666D01*
X148174461Y-103126666D02*
X148079223Y-103174285D01*
X148079223Y-103174285D02*
X147888747Y-103221904D01*
X147888747Y-103221904D02*
X147745890Y-103221904D01*
X147745890Y-103221904D02*
X147555414Y-103174285D01*
X147555414Y-103174285D02*
X147460176Y-103126666D01*
X147460176Y-103126666D02*
X147364938Y-103031428D01*
X147364938Y-103031428D02*
X147317319Y-102888571D01*
X147317319Y-102888571D02*
X147317319Y-102793333D01*
X147317319Y-102793333D02*
X147364938Y-102650476D01*
X147364938Y-102650476D02*
X147412557Y-102602857D01*
X147412557Y-102221904D02*
X147364938Y-102174285D01*
X147364938Y-102174285D02*
X147317319Y-102079047D01*
X147317319Y-102079047D02*
X147317319Y-101840952D01*
X147317319Y-101840952D02*
X147364938Y-101745714D01*
X147364938Y-101745714D02*
X147412557Y-101698095D01*
X147412557Y-101698095D02*
X147507795Y-101650476D01*
X147507795Y-101650476D02*
X147603033Y-101650476D01*
X147603033Y-101650476D02*
X147745890Y-101698095D01*
X147745890Y-101698095D02*
X148317319Y-102269523D01*
X148317319Y-102269523D02*
X148317319Y-101650476D01*
X147317319Y-101031428D02*
X147317319Y-100936190D01*
X147317319Y-100936190D02*
X147364938Y-100840952D01*
X147364938Y-100840952D02*
X147412557Y-100793333D01*
X147412557Y-100793333D02*
X147507795Y-100745714D01*
X147507795Y-100745714D02*
X147698271Y-100698095D01*
X147698271Y-100698095D02*
X147936366Y-100698095D01*
X147936366Y-100698095D02*
X148126842Y-100745714D01*
X148126842Y-100745714D02*
X148222080Y-100793333D01*
X148222080Y-100793333D02*
X148269700Y-100840952D01*
X148269700Y-100840952D02*
X148317319Y-100936190D01*
X148317319Y-100936190D02*
X148317319Y-101031428D01*
X148317319Y-101031428D02*
X148269700Y-101126666D01*
X148269700Y-101126666D02*
X148222080Y-101174285D01*
X148222080Y-101174285D02*
X148126842Y-101221904D01*
X148126842Y-101221904D02*
X147936366Y-101269523D01*
X147936366Y-101269523D02*
X147698271Y-101269523D01*
X147698271Y-101269523D02*
X147507795Y-101221904D01*
X147507795Y-101221904D02*
X147412557Y-101174285D01*
X147412557Y-101174285D02*
X147364938Y-101126666D01*
X147364938Y-101126666D02*
X147317319Y-101031428D01*
X130857142Y-99609580D02*
X130809523Y-99657200D01*
X130809523Y-99657200D02*
X130666666Y-99704819D01*
X130666666Y-99704819D02*
X130571428Y-99704819D01*
X130571428Y-99704819D02*
X130428571Y-99657200D01*
X130428571Y-99657200D02*
X130333333Y-99561961D01*
X130333333Y-99561961D02*
X130285714Y-99466723D01*
X130285714Y-99466723D02*
X130238095Y-99276247D01*
X130238095Y-99276247D02*
X130238095Y-99133390D01*
X130238095Y-99133390D02*
X130285714Y-98942914D01*
X130285714Y-98942914D02*
X130333333Y-98847676D01*
X130333333Y-98847676D02*
X130428571Y-98752438D01*
X130428571Y-98752438D02*
X130571428Y-98704819D01*
X130571428Y-98704819D02*
X130666666Y-98704819D01*
X130666666Y-98704819D02*
X130809523Y-98752438D01*
X130809523Y-98752438D02*
X130857142Y-98800057D01*
X131809523Y-99704819D02*
X131238095Y-99704819D01*
X131523809Y-99704819D02*
X131523809Y-98704819D01*
X131523809Y-98704819D02*
X131428571Y-98847676D01*
X131428571Y-98847676D02*
X131333333Y-98942914D01*
X131333333Y-98942914D02*
X131238095Y-98990533D01*
X132666666Y-98704819D02*
X132476190Y-98704819D01*
X132476190Y-98704819D02*
X132380952Y-98752438D01*
X132380952Y-98752438D02*
X132333333Y-98800057D01*
X132333333Y-98800057D02*
X132238095Y-98942914D01*
X132238095Y-98942914D02*
X132190476Y-99133390D01*
X132190476Y-99133390D02*
X132190476Y-99514342D01*
X132190476Y-99514342D02*
X132238095Y-99609580D01*
X132238095Y-99609580D02*
X132285714Y-99657200D01*
X132285714Y-99657200D02*
X132380952Y-99704819D01*
X132380952Y-99704819D02*
X132571428Y-99704819D01*
X132571428Y-99704819D02*
X132666666Y-99657200D01*
X132666666Y-99657200D02*
X132714285Y-99609580D01*
X132714285Y-99609580D02*
X132761904Y-99514342D01*
X132761904Y-99514342D02*
X132761904Y-99276247D01*
X132761904Y-99276247D02*
X132714285Y-99181009D01*
X132714285Y-99181009D02*
X132666666Y-99133390D01*
X132666666Y-99133390D02*
X132571428Y-99085771D01*
X132571428Y-99085771D02*
X132380952Y-99085771D01*
X132380952Y-99085771D02*
X132285714Y-99133390D01*
X132285714Y-99133390D02*
X132238095Y-99181009D01*
X132238095Y-99181009D02*
X132190476Y-99276247D01*
X129197080Y-115691666D02*
X129244700Y-115739285D01*
X129244700Y-115739285D02*
X129292319Y-115882142D01*
X129292319Y-115882142D02*
X129292319Y-115977380D01*
X129292319Y-115977380D02*
X129244700Y-116120237D01*
X129244700Y-116120237D02*
X129149461Y-116215475D01*
X129149461Y-116215475D02*
X129054223Y-116263094D01*
X129054223Y-116263094D02*
X128863747Y-116310713D01*
X128863747Y-116310713D02*
X128720890Y-116310713D01*
X128720890Y-116310713D02*
X128530414Y-116263094D01*
X128530414Y-116263094D02*
X128435176Y-116215475D01*
X128435176Y-116215475D02*
X128339938Y-116120237D01*
X128339938Y-116120237D02*
X128292319Y-115977380D01*
X128292319Y-115977380D02*
X128292319Y-115882142D01*
X128292319Y-115882142D02*
X128339938Y-115739285D01*
X128339938Y-115739285D02*
X128387557Y-115691666D01*
X128720890Y-115120237D02*
X128673271Y-115215475D01*
X128673271Y-115215475D02*
X128625652Y-115263094D01*
X128625652Y-115263094D02*
X128530414Y-115310713D01*
X128530414Y-115310713D02*
X128482795Y-115310713D01*
X128482795Y-115310713D02*
X128387557Y-115263094D01*
X128387557Y-115263094D02*
X128339938Y-115215475D01*
X128339938Y-115215475D02*
X128292319Y-115120237D01*
X128292319Y-115120237D02*
X128292319Y-114929761D01*
X128292319Y-114929761D02*
X128339938Y-114834523D01*
X128339938Y-114834523D02*
X128387557Y-114786904D01*
X128387557Y-114786904D02*
X128482795Y-114739285D01*
X128482795Y-114739285D02*
X128530414Y-114739285D01*
X128530414Y-114739285D02*
X128625652Y-114786904D01*
X128625652Y-114786904D02*
X128673271Y-114834523D01*
X128673271Y-114834523D02*
X128720890Y-114929761D01*
X128720890Y-114929761D02*
X128720890Y-115120237D01*
X128720890Y-115120237D02*
X128768509Y-115215475D01*
X128768509Y-115215475D02*
X128816128Y-115263094D01*
X128816128Y-115263094D02*
X128911366Y-115310713D01*
X128911366Y-115310713D02*
X129101842Y-115310713D01*
X129101842Y-115310713D02*
X129197080Y-115263094D01*
X129197080Y-115263094D02*
X129244700Y-115215475D01*
X129244700Y-115215475D02*
X129292319Y-115120237D01*
X129292319Y-115120237D02*
X129292319Y-114929761D01*
X129292319Y-114929761D02*
X129244700Y-114834523D01*
X129244700Y-114834523D02*
X129197080Y-114786904D01*
X129197080Y-114786904D02*
X129101842Y-114739285D01*
X129101842Y-114739285D02*
X128911366Y-114739285D01*
X128911366Y-114739285D02*
X128816128Y-114786904D01*
X128816128Y-114786904D02*
X128768509Y-114834523D01*
X128768509Y-114834523D02*
X128720890Y-114929761D01*
X140333333Y-121359580D02*
X140285714Y-121407200D01*
X140285714Y-121407200D02*
X140142857Y-121454819D01*
X140142857Y-121454819D02*
X140047619Y-121454819D01*
X140047619Y-121454819D02*
X139904762Y-121407200D01*
X139904762Y-121407200D02*
X139809524Y-121311961D01*
X139809524Y-121311961D02*
X139761905Y-121216723D01*
X139761905Y-121216723D02*
X139714286Y-121026247D01*
X139714286Y-121026247D02*
X139714286Y-120883390D01*
X139714286Y-120883390D02*
X139761905Y-120692914D01*
X139761905Y-120692914D02*
X139809524Y-120597676D01*
X139809524Y-120597676D02*
X139904762Y-120502438D01*
X139904762Y-120502438D02*
X140047619Y-120454819D01*
X140047619Y-120454819D02*
X140142857Y-120454819D01*
X140142857Y-120454819D02*
X140285714Y-120502438D01*
X140285714Y-120502438D02*
X140333333Y-120550057D01*
X140666667Y-120454819D02*
X141285714Y-120454819D01*
X141285714Y-120454819D02*
X140952381Y-120835771D01*
X140952381Y-120835771D02*
X141095238Y-120835771D01*
X141095238Y-120835771D02*
X141190476Y-120883390D01*
X141190476Y-120883390D02*
X141238095Y-120931009D01*
X141238095Y-120931009D02*
X141285714Y-121026247D01*
X141285714Y-121026247D02*
X141285714Y-121264342D01*
X141285714Y-121264342D02*
X141238095Y-121359580D01*
X141238095Y-121359580D02*
X141190476Y-121407200D01*
X141190476Y-121407200D02*
X141095238Y-121454819D01*
X141095238Y-121454819D02*
X140809524Y-121454819D01*
X140809524Y-121454819D02*
X140714286Y-121407200D01*
X140714286Y-121407200D02*
X140666667Y-121359580D01*
X144697080Y-108166666D02*
X144744700Y-108214285D01*
X144744700Y-108214285D02*
X144792319Y-108357142D01*
X144792319Y-108357142D02*
X144792319Y-108452380D01*
X144792319Y-108452380D02*
X144744700Y-108595237D01*
X144744700Y-108595237D02*
X144649461Y-108690475D01*
X144649461Y-108690475D02*
X144554223Y-108738094D01*
X144554223Y-108738094D02*
X144363747Y-108785713D01*
X144363747Y-108785713D02*
X144220890Y-108785713D01*
X144220890Y-108785713D02*
X144030414Y-108738094D01*
X144030414Y-108738094D02*
X143935176Y-108690475D01*
X143935176Y-108690475D02*
X143839938Y-108595237D01*
X143839938Y-108595237D02*
X143792319Y-108452380D01*
X143792319Y-108452380D02*
X143792319Y-108357142D01*
X143792319Y-108357142D02*
X143839938Y-108214285D01*
X143839938Y-108214285D02*
X143887557Y-108166666D01*
X143792319Y-107309523D02*
X143792319Y-107499999D01*
X143792319Y-107499999D02*
X143839938Y-107595237D01*
X143839938Y-107595237D02*
X143887557Y-107642856D01*
X143887557Y-107642856D02*
X144030414Y-107738094D01*
X144030414Y-107738094D02*
X144220890Y-107785713D01*
X144220890Y-107785713D02*
X144601842Y-107785713D01*
X144601842Y-107785713D02*
X144697080Y-107738094D01*
X144697080Y-107738094D02*
X144744700Y-107690475D01*
X144744700Y-107690475D02*
X144792319Y-107595237D01*
X144792319Y-107595237D02*
X144792319Y-107404761D01*
X144792319Y-107404761D02*
X144744700Y-107309523D01*
X144744700Y-107309523D02*
X144697080Y-107261904D01*
X144697080Y-107261904D02*
X144601842Y-107214285D01*
X144601842Y-107214285D02*
X144363747Y-107214285D01*
X144363747Y-107214285D02*
X144268509Y-107261904D01*
X144268509Y-107261904D02*
X144220890Y-107309523D01*
X144220890Y-107309523D02*
X144173271Y-107404761D01*
X144173271Y-107404761D02*
X144173271Y-107595237D01*
X144173271Y-107595237D02*
X144220890Y-107690475D01*
X144220890Y-107690475D02*
X144268509Y-107738094D01*
X144268509Y-107738094D02*
X144363747Y-107785713D01*
X127359580Y-114666666D02*
X127407200Y-114714285D01*
X127407200Y-114714285D02*
X127454819Y-114857142D01*
X127454819Y-114857142D02*
X127454819Y-114952380D01*
X127454819Y-114952380D02*
X127407200Y-115095237D01*
X127407200Y-115095237D02*
X127311961Y-115190475D01*
X127311961Y-115190475D02*
X127216723Y-115238094D01*
X127216723Y-115238094D02*
X127026247Y-115285713D01*
X127026247Y-115285713D02*
X126883390Y-115285713D01*
X126883390Y-115285713D02*
X126692914Y-115238094D01*
X126692914Y-115238094D02*
X126597676Y-115190475D01*
X126597676Y-115190475D02*
X126502438Y-115095237D01*
X126502438Y-115095237D02*
X126454819Y-114952380D01*
X126454819Y-114952380D02*
X126454819Y-114857142D01*
X126454819Y-114857142D02*
X126502438Y-114714285D01*
X126502438Y-114714285D02*
X126550057Y-114666666D01*
X126454819Y-113761904D02*
X126454819Y-114238094D01*
X126454819Y-114238094D02*
X126931009Y-114285713D01*
X126931009Y-114285713D02*
X126883390Y-114238094D01*
X126883390Y-114238094D02*
X126835771Y-114142856D01*
X126835771Y-114142856D02*
X126835771Y-113904761D01*
X126835771Y-113904761D02*
X126883390Y-113809523D01*
X126883390Y-113809523D02*
X126931009Y-113761904D01*
X126931009Y-113761904D02*
X127026247Y-113714285D01*
X127026247Y-113714285D02*
X127264342Y-113714285D01*
X127264342Y-113714285D02*
X127359580Y-113761904D01*
X127359580Y-113761904D02*
X127407200Y-113809523D01*
X127407200Y-113809523D02*
X127454819Y-113904761D01*
X127454819Y-113904761D02*
X127454819Y-114142856D01*
X127454819Y-114142856D02*
X127407200Y-114238094D01*
X127407200Y-114238094D02*
X127359580Y-114285713D01*
X150033333Y-96914819D02*
X149700000Y-96438628D01*
X149461905Y-96914819D02*
X149461905Y-95914819D01*
X149461905Y-95914819D02*
X149842857Y-95914819D01*
X149842857Y-95914819D02*
X149938095Y-95962438D01*
X149938095Y-95962438D02*
X149985714Y-96010057D01*
X149985714Y-96010057D02*
X150033333Y-96105295D01*
X150033333Y-96105295D02*
X150033333Y-96248152D01*
X150033333Y-96248152D02*
X149985714Y-96343390D01*
X149985714Y-96343390D02*
X149938095Y-96391009D01*
X149938095Y-96391009D02*
X149842857Y-96438628D01*
X149842857Y-96438628D02*
X149461905Y-96438628D01*
X150890476Y-96248152D02*
X150890476Y-96914819D01*
X150652381Y-95867200D02*
X150414286Y-96581485D01*
X150414286Y-96581485D02*
X151033333Y-96581485D01*
X176789580Y-134142857D02*
X176837200Y-134190476D01*
X176837200Y-134190476D02*
X176884819Y-134333333D01*
X176884819Y-134333333D02*
X176884819Y-134428571D01*
X176884819Y-134428571D02*
X176837200Y-134571428D01*
X176837200Y-134571428D02*
X176741961Y-134666666D01*
X176741961Y-134666666D02*
X176646723Y-134714285D01*
X176646723Y-134714285D02*
X176456247Y-134761904D01*
X176456247Y-134761904D02*
X176313390Y-134761904D01*
X176313390Y-134761904D02*
X176122914Y-134714285D01*
X176122914Y-134714285D02*
X176027676Y-134666666D01*
X176027676Y-134666666D02*
X175932438Y-134571428D01*
X175932438Y-134571428D02*
X175884819Y-134428571D01*
X175884819Y-134428571D02*
X175884819Y-134333333D01*
X175884819Y-134333333D02*
X175932438Y-134190476D01*
X175932438Y-134190476D02*
X175980057Y-134142857D01*
X176884819Y-133190476D02*
X176884819Y-133761904D01*
X176884819Y-133476190D02*
X175884819Y-133476190D01*
X175884819Y-133476190D02*
X176027676Y-133571428D01*
X176027676Y-133571428D02*
X176122914Y-133666666D01*
X176122914Y-133666666D02*
X176170533Y-133761904D01*
X175884819Y-132571428D02*
X175884819Y-132476190D01*
X175884819Y-132476190D02*
X175932438Y-132380952D01*
X175932438Y-132380952D02*
X175980057Y-132333333D01*
X175980057Y-132333333D02*
X176075295Y-132285714D01*
X176075295Y-132285714D02*
X176265771Y-132238095D01*
X176265771Y-132238095D02*
X176503866Y-132238095D01*
X176503866Y-132238095D02*
X176694342Y-132285714D01*
X176694342Y-132285714D02*
X176789580Y-132333333D01*
X176789580Y-132333333D02*
X176837200Y-132380952D01*
X176837200Y-132380952D02*
X176884819Y-132476190D01*
X176884819Y-132476190D02*
X176884819Y-132571428D01*
X176884819Y-132571428D02*
X176837200Y-132666666D01*
X176837200Y-132666666D02*
X176789580Y-132714285D01*
X176789580Y-132714285D02*
X176694342Y-132761904D01*
X176694342Y-132761904D02*
X176503866Y-132809523D01*
X176503866Y-132809523D02*
X176265771Y-132809523D01*
X176265771Y-132809523D02*
X176075295Y-132761904D01*
X176075295Y-132761904D02*
X175980057Y-132714285D01*
X175980057Y-132714285D02*
X175932438Y-132666666D01*
X175932438Y-132666666D02*
X175884819Y-132571428D01*
X176859580Y-129642857D02*
X176907200Y-129690476D01*
X176907200Y-129690476D02*
X176954819Y-129833333D01*
X176954819Y-129833333D02*
X176954819Y-129928571D01*
X176954819Y-129928571D02*
X176907200Y-130071428D01*
X176907200Y-130071428D02*
X176811961Y-130166666D01*
X176811961Y-130166666D02*
X176716723Y-130214285D01*
X176716723Y-130214285D02*
X176526247Y-130261904D01*
X176526247Y-130261904D02*
X176383390Y-130261904D01*
X176383390Y-130261904D02*
X176192914Y-130214285D01*
X176192914Y-130214285D02*
X176097676Y-130166666D01*
X176097676Y-130166666D02*
X176002438Y-130071428D01*
X176002438Y-130071428D02*
X175954819Y-129928571D01*
X175954819Y-129928571D02*
X175954819Y-129833333D01*
X175954819Y-129833333D02*
X176002438Y-129690476D01*
X176002438Y-129690476D02*
X176050057Y-129642857D01*
X176954819Y-128690476D02*
X176954819Y-129261904D01*
X176954819Y-128976190D02*
X175954819Y-128976190D01*
X175954819Y-128976190D02*
X176097676Y-129071428D01*
X176097676Y-129071428D02*
X176192914Y-129166666D01*
X176192914Y-129166666D02*
X176240533Y-129261904D01*
X176050057Y-128309523D02*
X176002438Y-128261904D01*
X176002438Y-128261904D02*
X175954819Y-128166666D01*
X175954819Y-128166666D02*
X175954819Y-127928571D01*
X175954819Y-127928571D02*
X176002438Y-127833333D01*
X176002438Y-127833333D02*
X176050057Y-127785714D01*
X176050057Y-127785714D02*
X176145295Y-127738095D01*
X176145295Y-127738095D02*
X176240533Y-127738095D01*
X176240533Y-127738095D02*
X176383390Y-127785714D01*
X176383390Y-127785714D02*
X176954819Y-128357142D01*
X176954819Y-128357142D02*
X176954819Y-127738095D01*
X145919642Y-132109580D02*
X145872023Y-132157200D01*
X145872023Y-132157200D02*
X145729166Y-132204819D01*
X145729166Y-132204819D02*
X145633928Y-132204819D01*
X145633928Y-132204819D02*
X145491071Y-132157200D01*
X145491071Y-132157200D02*
X145395833Y-132061961D01*
X145395833Y-132061961D02*
X145348214Y-131966723D01*
X145348214Y-131966723D02*
X145300595Y-131776247D01*
X145300595Y-131776247D02*
X145300595Y-131633390D01*
X145300595Y-131633390D02*
X145348214Y-131442914D01*
X145348214Y-131442914D02*
X145395833Y-131347676D01*
X145395833Y-131347676D02*
X145491071Y-131252438D01*
X145491071Y-131252438D02*
X145633928Y-131204819D01*
X145633928Y-131204819D02*
X145729166Y-131204819D01*
X145729166Y-131204819D02*
X145872023Y-131252438D01*
X145872023Y-131252438D02*
X145919642Y-131300057D01*
X146872023Y-132204819D02*
X146300595Y-132204819D01*
X146586309Y-132204819D02*
X146586309Y-131204819D01*
X146586309Y-131204819D02*
X146491071Y-131347676D01*
X146491071Y-131347676D02*
X146395833Y-131442914D01*
X146395833Y-131442914D02*
X146300595Y-131490533D01*
X147824404Y-132204819D02*
X147252976Y-132204819D01*
X147538690Y-132204819D02*
X147538690Y-131204819D01*
X147538690Y-131204819D02*
X147443452Y-131347676D01*
X147443452Y-131347676D02*
X147348214Y-131442914D01*
X147348214Y-131442914D02*
X147252976Y-131490533D01*
X186359580Y-101917857D02*
X186407200Y-101965476D01*
X186407200Y-101965476D02*
X186454819Y-102108333D01*
X186454819Y-102108333D02*
X186454819Y-102203571D01*
X186454819Y-102203571D02*
X186407200Y-102346428D01*
X186407200Y-102346428D02*
X186311961Y-102441666D01*
X186311961Y-102441666D02*
X186216723Y-102489285D01*
X186216723Y-102489285D02*
X186026247Y-102536904D01*
X186026247Y-102536904D02*
X185883390Y-102536904D01*
X185883390Y-102536904D02*
X185692914Y-102489285D01*
X185692914Y-102489285D02*
X185597676Y-102441666D01*
X185597676Y-102441666D02*
X185502438Y-102346428D01*
X185502438Y-102346428D02*
X185454819Y-102203571D01*
X185454819Y-102203571D02*
X185454819Y-102108333D01*
X185454819Y-102108333D02*
X185502438Y-101965476D01*
X185502438Y-101965476D02*
X185550057Y-101917857D01*
X186454819Y-100965476D02*
X186454819Y-101536904D01*
X186454819Y-101251190D02*
X185454819Y-101251190D01*
X185454819Y-101251190D02*
X185597676Y-101346428D01*
X185597676Y-101346428D02*
X185692914Y-101441666D01*
X185692914Y-101441666D02*
X185740533Y-101536904D01*
X185883390Y-100394047D02*
X185835771Y-100489285D01*
X185835771Y-100489285D02*
X185788152Y-100536904D01*
X185788152Y-100536904D02*
X185692914Y-100584523D01*
X185692914Y-100584523D02*
X185645295Y-100584523D01*
X185645295Y-100584523D02*
X185550057Y-100536904D01*
X185550057Y-100536904D02*
X185502438Y-100489285D01*
X185502438Y-100489285D02*
X185454819Y-100394047D01*
X185454819Y-100394047D02*
X185454819Y-100203571D01*
X185454819Y-100203571D02*
X185502438Y-100108333D01*
X185502438Y-100108333D02*
X185550057Y-100060714D01*
X185550057Y-100060714D02*
X185645295Y-100013095D01*
X185645295Y-100013095D02*
X185692914Y-100013095D01*
X185692914Y-100013095D02*
X185788152Y-100060714D01*
X185788152Y-100060714D02*
X185835771Y-100108333D01*
X185835771Y-100108333D02*
X185883390Y-100203571D01*
X185883390Y-100203571D02*
X185883390Y-100394047D01*
X185883390Y-100394047D02*
X185931009Y-100489285D01*
X185931009Y-100489285D02*
X185978628Y-100536904D01*
X185978628Y-100536904D02*
X186073866Y-100584523D01*
X186073866Y-100584523D02*
X186264342Y-100584523D01*
X186264342Y-100584523D02*
X186359580Y-100536904D01*
X186359580Y-100536904D02*
X186407200Y-100489285D01*
X186407200Y-100489285D02*
X186454819Y-100394047D01*
X186454819Y-100394047D02*
X186454819Y-100203571D01*
X186454819Y-100203571D02*
X186407200Y-100108333D01*
X186407200Y-100108333D02*
X186359580Y-100060714D01*
X186359580Y-100060714D02*
X186264342Y-100013095D01*
X186264342Y-100013095D02*
X186073866Y-100013095D01*
X186073866Y-100013095D02*
X185978628Y-100060714D01*
X185978628Y-100060714D02*
X185931009Y-100108333D01*
X185931009Y-100108333D02*
X185883390Y-100203571D01*
X149670833Y-132109580D02*
X149623214Y-132157200D01*
X149623214Y-132157200D02*
X149480357Y-132204819D01*
X149480357Y-132204819D02*
X149385119Y-132204819D01*
X149385119Y-132204819D02*
X149242262Y-132157200D01*
X149242262Y-132157200D02*
X149147024Y-132061961D01*
X149147024Y-132061961D02*
X149099405Y-131966723D01*
X149099405Y-131966723D02*
X149051786Y-131776247D01*
X149051786Y-131776247D02*
X149051786Y-131633390D01*
X149051786Y-131633390D02*
X149099405Y-131442914D01*
X149099405Y-131442914D02*
X149147024Y-131347676D01*
X149147024Y-131347676D02*
X149242262Y-131252438D01*
X149242262Y-131252438D02*
X149385119Y-131204819D01*
X149385119Y-131204819D02*
X149480357Y-131204819D01*
X149480357Y-131204819D02*
X149623214Y-131252438D01*
X149623214Y-131252438D02*
X149670833Y-131300057D01*
X150147024Y-132204819D02*
X150337500Y-132204819D01*
X150337500Y-132204819D02*
X150432738Y-132157200D01*
X150432738Y-132157200D02*
X150480357Y-132109580D01*
X150480357Y-132109580D02*
X150575595Y-131966723D01*
X150575595Y-131966723D02*
X150623214Y-131776247D01*
X150623214Y-131776247D02*
X150623214Y-131395295D01*
X150623214Y-131395295D02*
X150575595Y-131300057D01*
X150575595Y-131300057D02*
X150527976Y-131252438D01*
X150527976Y-131252438D02*
X150432738Y-131204819D01*
X150432738Y-131204819D02*
X150242262Y-131204819D01*
X150242262Y-131204819D02*
X150147024Y-131252438D01*
X150147024Y-131252438D02*
X150099405Y-131300057D01*
X150099405Y-131300057D02*
X150051786Y-131395295D01*
X150051786Y-131395295D02*
X150051786Y-131633390D01*
X150051786Y-131633390D02*
X150099405Y-131728628D01*
X150099405Y-131728628D02*
X150147024Y-131776247D01*
X150147024Y-131776247D02*
X150242262Y-131823866D01*
X150242262Y-131823866D02*
X150432738Y-131823866D01*
X150432738Y-131823866D02*
X150527976Y-131776247D01*
X150527976Y-131776247D02*
X150575595Y-131728628D01*
X150575595Y-131728628D02*
X150623214Y-131633390D01*
D13*
%TO.C,U4*%
X170412480Y-126920366D02*
X169142480Y-126920366D01*
X170412480Y-126920366D02*
X170412480Y-137080366D01*
X170412480Y-137080366D02*
X169142480Y-137080366D01*
X169142480Y-126920366D02*
X169142480Y-137080366D01*
X173714480Y-137080366D02*
X170412480Y-137080366D01*
X173714480Y-126920366D02*
X173714480Y-137080366D01*
X173714480Y-126920366D02*
X170412480Y-126920366D01*
D14*
%TO.C,GX12*%
X183760000Y-98930000D02*
G75*
G02*
X172260000Y-98930000I-5750000J0D01*
G01*
X172260000Y-98930000D02*
G75*
G02*
X183760000Y-98930000I5750000J0D01*
G01*
D15*
%TO.C,R2*%
X150437258Y-99437500D02*
X149962742Y-99437500D01*
X150437258Y-100482500D02*
X149962742Y-100482500D01*
%TO.C,R5*%
X130785242Y-105727500D02*
X131259758Y-105727500D01*
X130785242Y-106772500D02*
X131259758Y-106772500D01*
D12*
%TO.C,U5*%
X155550000Y-107145000D02*
X165250000Y-107170000D01*
X155550000Y-123195000D02*
X155550000Y-107145000D01*
X155550000Y-123195000D02*
X165250000Y-123170000D01*
X168250000Y-107170000D02*
X189450000Y-107145000D01*
X168250000Y-123170000D02*
X189450000Y-123195000D01*
X189450000Y-123195000D02*
X189450000Y-107145000D01*
D15*
%TO.C,U2*%
X133227500Y-108640000D02*
X133227500Y-109090000D01*
X133227500Y-115860000D02*
X133227500Y-115410000D01*
X133677500Y-108640000D02*
X133227500Y-108640000D01*
X133677500Y-115860000D02*
X133227500Y-115860000D01*
X139997500Y-108640000D02*
X140447500Y-108640000D01*
X139997500Y-115860000D02*
X140447500Y-115860000D01*
X140447500Y-108640000D02*
X140447500Y-109090000D01*
X140447500Y-115860000D02*
X140447500Y-115410000D01*
X132637500Y-109090000D02*
X132297500Y-108620000D01*
X132977500Y-108620000D01*
X132637500Y-109090000D01*
G36*
X132637500Y-109090000D02*
G01*
X132297500Y-108620000D01*
X132977500Y-108620000D01*
X132637500Y-109090000D01*
G37*
%TO.C,C19*%
X135983767Y-97262500D02*
X135691233Y-97262500D01*
X135983767Y-98282500D02*
X135691233Y-98282500D01*
%TO.C,R1*%
X136074758Y-101727500D02*
X135600242Y-101727500D01*
X136074758Y-102772500D02*
X135600242Y-102772500D01*
%TO.C,C4*%
X170584420Y-124990000D02*
X170865580Y-124990000D01*
X170584420Y-126010000D02*
X170865580Y-126010000D01*
%TO.C,C2*%
X132381920Y-117740000D02*
X132663080Y-117740000D01*
X132381920Y-118760000D02*
X132663080Y-118760000D01*
%TO.C,R3*%
X142574758Y-104727500D02*
X142100242Y-104727500D01*
X142574758Y-105772500D02*
X142100242Y-105772500D01*
%TO.C,U3*%
X144427500Y-122840000D02*
X145687500Y-122840000D01*
X144427500Y-126600000D02*
X144427500Y-122840000D01*
X151247500Y-122840000D02*
X149987500Y-122840000D01*
X151247500Y-126600000D02*
X151247500Y-122840000D01*
X144527500Y-127880000D02*
X144197500Y-128120000D01*
X144197500Y-127640000D01*
X144527500Y-127880000D01*
G36*
X144527500Y-127880000D02*
G01*
X144197500Y-128120000D01*
X144197500Y-127640000D01*
X144527500Y-127880000D01*
G37*
%TO.C,ADS1219*%
X142337500Y-97515000D02*
X140137500Y-97515000D01*
X142337500Y-97515000D02*
X144537500Y-97515000D01*
X142337500Y-102985000D02*
X140137500Y-102985000D01*
X142337500Y-102985000D02*
X144537500Y-102985000D01*
X146527500Y-102765000D02*
X146197500Y-102525000D01*
X146527500Y-102285000D01*
X146527500Y-102765000D01*
G36*
X146527500Y-102765000D02*
G01*
X146197500Y-102525000D01*
X146527500Y-102285000D01*
X146527500Y-102765000D01*
G37*
%TO.C,Y1*%
X125687500Y-110350000D02*
X125687500Y-113150000D01*
X125687500Y-113150000D02*
X128987500Y-113150000D01*
%TO.C,D1*%
X131250000Y-103515000D02*
X131250000Y-104985000D01*
X131250000Y-104985000D02*
X133535000Y-104985000D01*
X133535000Y-103515000D02*
X131250000Y-103515000D01*
%TO.C,J2*%
X177239000Y-126400000D02*
X187160000Y-126400000D01*
X177239000Y-136680000D02*
X177239000Y-126400000D01*
X177239000Y-136680000D02*
X187160000Y-136680000D01*
X180199000Y-136680000D02*
X180199000Y-126400000D01*
X181225000Y-127930000D02*
X181261000Y-127965000D01*
X181431000Y-127725000D02*
X181477000Y-127772000D01*
X183523000Y-130227000D02*
X183569000Y-130274000D01*
X183739000Y-130034000D02*
X183774000Y-130069000D01*
X185100000Y-136680000D02*
X185100000Y-126400000D01*
X186600000Y-136680000D02*
X186600000Y-126400000D01*
X186660000Y-136920000D02*
X187400000Y-136920000D01*
X187160000Y-136680000D02*
X187160000Y-126400000D01*
X187400000Y-136920000D02*
X187400000Y-136420000D01*
X180964573Y-134763042D02*
G75*
G02*
X180965000Y-133396000I1535420J683041D01*
G01*
X181816958Y-132544573D02*
G75*
G02*
X183184000Y-132545000I683042J-1535427D01*
G01*
X183183042Y-135615427D02*
G75*
G02*
X181816000Y-135615000I-683041J1535420D01*
G01*
X184034756Y-133396682D02*
G75*
G02*
X184180000Y-134080000I-1534756J-683318D01*
G01*
X184180253Y-134051195D02*
G75*
G02*
X184035000Y-134764000I-1680254J-28806D01*
G01*
X184180000Y-129000000D02*
G75*
G02*
X180820000Y-129000000I-1680000J0D01*
G01*
X180820000Y-129000000D02*
G75*
G02*
X184180000Y-129000000I1680000J0D01*
G01*
%TO.C,J1*%
X143410000Y-112830000D02*
X144735000Y-112830000D01*
X144735000Y-112765000D02*
X144735000Y-112830000D01*
X144735000Y-112765000D02*
X148265000Y-112765000D01*
X144735000Y-119170000D02*
X144735000Y-119235000D01*
X144735000Y-119235000D02*
X148265000Y-119235000D01*
X148265000Y-112765000D02*
X148265000Y-112830000D01*
X148265000Y-119170000D02*
X148265000Y-119235000D01*
%TO.C,C1*%
X135978080Y-100240000D02*
X135696920Y-100240000D01*
X135978080Y-101260000D02*
X135696920Y-101260000D01*
%TO.C,C13*%
X188510000Y-104409420D02*
X188510000Y-104690580D01*
X187490000Y-104409420D02*
X187490000Y-104690580D01*
%TO.C,C14*%
X130012500Y-108884420D02*
X130012500Y-109165580D01*
X131032500Y-108884420D02*
X131032500Y-109165580D01*
%TO.C,C7*%
X134388080Y-105740000D02*
X134106920Y-105740000D01*
X134388080Y-106760000D02*
X134106920Y-106760000D01*
D11*
%TO.C,U1*%
X133582500Y-121000000D02*
X133787500Y-121000000D01*
X133582500Y-126500000D02*
X133582500Y-121000000D01*
X133582500Y-126500000D02*
X133787500Y-126500000D01*
X139092500Y-121000000D02*
X138887500Y-121000000D01*
X139092500Y-126500000D02*
X138887500Y-126500000D01*
X139092500Y-126500000D02*
X139092500Y-121000000D01*
D15*
X133837500Y-127050000D02*
X133507500Y-127290000D01*
X133507500Y-126810000D01*
X133837500Y-127050000D01*
G36*
X133837500Y-127050000D02*
G01*
X133507500Y-127290000D01*
X133507500Y-126810000D01*
X133837500Y-127050000D01*
G37*
%TO.C,L2*%
X184730000Y-104367221D02*
X184730000Y-104692779D01*
X183710000Y-104367221D02*
X183710000Y-104692779D01*
%TO.C,C20*%
X147190000Y-99100580D02*
X147190000Y-98819420D01*
X148210000Y-99100580D02*
X148210000Y-98819420D01*
%TO.C,C16*%
X135983767Y-98740000D02*
X135691233Y-98740000D01*
X135983767Y-99760000D02*
X135691233Y-99760000D01*
%TO.C,C8*%
X130012500Y-115890580D02*
X130012500Y-115609420D01*
X131032500Y-115890580D02*
X131032500Y-115609420D01*
%TO.C,C3*%
X139381920Y-117740000D02*
X139663080Y-117740000D01*
X139381920Y-118760000D02*
X139663080Y-118760000D01*
%TO.C,C6*%
X142327500Y-108890580D02*
X142327500Y-108609420D01*
X143347500Y-108890580D02*
X143347500Y-108609420D01*
%TO.C,C5*%
X130012500Y-112890580D02*
X130012500Y-112609420D01*
X131032500Y-112890580D02*
X131032500Y-112609420D01*
%TO.C,R4*%
X150437258Y-97437500D02*
X149962742Y-97437500D01*
X150437258Y-98482500D02*
X149962742Y-98482500D01*
D16*
%TO.C,G\u002A\u002A\u002A*%
G36*
X138298949Y-140841311D02*
G01*
X138298667Y-141149021D01*
X138295993Y-141378110D01*
X138288187Y-141538921D01*
X138272509Y-141641797D01*
X138246219Y-141697083D01*
X138206576Y-141715122D01*
X138150842Y-141706259D01*
X138076533Y-141680929D01*
X138001938Y-141651114D01*
X137875956Y-141597828D01*
X137754028Y-141544916D01*
X137498249Y-141432684D01*
X137498249Y-140866431D01*
X137498249Y-140300178D01*
X137798511Y-140166639D01*
X137961115Y-140096109D01*
X138103653Y-140037409D01*
X138196345Y-140002788D01*
X138198862Y-140001994D01*
X138298949Y-139970888D01*
X138298949Y-140841311D01*
G37*
G36*
X138743783Y-137263398D02*
G01*
X138743783Y-137619265D01*
X138521366Y-137619265D01*
X138298949Y-137619265D01*
X138298949Y-138257536D01*
X138298949Y-138895807D01*
X137931962Y-138992112D01*
X137761261Y-139035876D01*
X137624215Y-139069089D01*
X137542962Y-139086461D01*
X137531611Y-139087816D01*
X137520490Y-139045575D01*
X137510940Y-138929072D01*
X137503632Y-138753009D01*
X137499236Y-138532085D01*
X137498249Y-138355677D01*
X137498249Y-137624139D01*
X137286953Y-137610581D01*
X137075657Y-137597023D01*
X137062665Y-137252277D01*
X137049673Y-136907531D01*
X137896728Y-136907531D01*
X138743783Y-136907531D01*
X138743783Y-137263398D01*
G37*
G36*
X142728097Y-141472982D02*
G01*
X142795364Y-141559416D01*
X142893589Y-141711426D01*
X143027440Y-141935752D01*
X143031882Y-141943373D01*
X143153865Y-142152771D01*
X142983938Y-142223920D01*
X142460472Y-142415301D01*
X141880147Y-142578401D01*
X141272518Y-142706101D01*
X140667139Y-142791284D01*
X140600963Y-142797847D01*
X140300701Y-142826296D01*
X140300701Y-142386359D01*
X140300701Y-141946422D01*
X140645447Y-141915890D01*
X141063899Y-141862257D01*
X141517456Y-141775898D01*
X141962717Y-141665948D01*
X142253366Y-141577450D01*
X142429730Y-141519697D01*
X142574433Y-141474795D01*
X142666685Y-141449076D01*
X142687122Y-141445384D01*
X142728097Y-141472982D01*
G37*
G36*
X142346935Y-137238598D02*
G01*
X142346935Y-137569666D01*
X142157881Y-137583344D01*
X141968827Y-137597023D01*
X141956604Y-138319878D01*
X141949879Y-138607074D01*
X141940341Y-138813867D01*
X141927199Y-138948795D01*
X141909657Y-139020399D01*
X141889879Y-139037805D01*
X141819743Y-139025611D01*
X141693190Y-138998982D01*
X141568476Y-138970788D01*
X141407865Y-138933503D01*
X141269422Y-138901498D01*
X141201489Y-138885901D01*
X141162475Y-138873861D01*
X141135196Y-138849185D01*
X141117553Y-138797890D01*
X141107450Y-138705995D01*
X141102786Y-138559516D01*
X141101465Y-138344473D01*
X141101401Y-138218942D01*
X141101401Y-137574781D01*
X140901226Y-137574781D01*
X140701051Y-137574781D01*
X140701051Y-137241156D01*
X140701051Y-136907531D01*
X141523993Y-136907531D01*
X142346935Y-136907531D01*
X142346935Y-137238598D01*
G37*
G36*
X141325840Y-139973122D02*
G01*
X141490276Y-140007523D01*
X141565920Y-140025783D01*
X141946585Y-140121257D01*
X141946585Y-140845011D01*
X141945469Y-141119579D01*
X141941347Y-141317744D01*
X141933056Y-141452051D01*
X141919435Y-141535044D01*
X141899320Y-141579269D01*
X141877064Y-141595443D01*
X141800252Y-141618597D01*
X141670813Y-141652098D01*
X141517052Y-141689271D01*
X141367277Y-141723445D01*
X141249791Y-141747948D01*
X141195021Y-141756217D01*
X141133888Y-141729252D01*
X141131057Y-141726562D01*
X141119365Y-141672105D01*
X141110682Y-141546334D01*
X141104893Y-141365947D01*
X141101882Y-141147640D01*
X141101532Y-140908110D01*
X141103729Y-140664054D01*
X141108356Y-140432167D01*
X141115298Y-140229147D01*
X141124439Y-140071691D01*
X141135664Y-139976495D01*
X141143328Y-139956221D01*
X141202781Y-139954801D01*
X141325840Y-139973122D01*
G37*
G36*
X140678809Y-138925640D02*
G01*
X140901568Y-138948696D01*
X141168478Y-138987005D01*
X141437401Y-139034155D01*
X141568476Y-139061004D01*
X141773113Y-139110542D01*
X142008098Y-139175176D01*
X142256644Y-139249388D01*
X142501963Y-139327659D01*
X142727266Y-139404471D01*
X142915766Y-139474305D01*
X143050674Y-139531644D01*
X143113183Y-139568769D01*
X143108109Y-139620116D01*
X143064615Y-139724165D01*
X142994644Y-139860277D01*
X142910136Y-140007814D01*
X142823033Y-140146136D01*
X142745277Y-140254607D01*
X142688809Y-140312585D01*
X142680561Y-140316477D01*
X142612927Y-140305587D01*
X142524869Y-140265284D01*
X142380010Y-140197806D01*
X142169430Y-140120383D01*
X141914875Y-140039329D01*
X141638091Y-139960957D01*
X141360824Y-139891583D01*
X141104822Y-139837519D01*
X140977974Y-139816153D01*
X140772099Y-139785403D01*
X140591061Y-139757780D01*
X140457942Y-139736840D01*
X140403944Y-139727752D01*
X140357870Y-139712696D01*
X140328201Y-139676350D01*
X140310307Y-139601058D01*
X140299561Y-139469162D01*
X140292735Y-139303500D01*
X140278459Y-138897128D01*
X140678809Y-138925640D01*
G37*
G36*
X139801666Y-137697575D02*
G01*
X139851392Y-137826173D01*
X139916337Y-138000987D01*
X139987413Y-138197669D01*
X140167251Y-138701810D01*
X140167251Y-140933352D01*
X140167251Y-143164894D01*
X140454970Y-143639365D01*
X140562007Y-143818863D01*
X140647031Y-143967233D01*
X140702097Y-144070164D01*
X140719258Y-144113347D01*
X140718452Y-144113835D01*
X140672783Y-144089815D01*
X140576040Y-144026763D01*
X140448941Y-143938198D01*
X140445732Y-143935902D01*
X140197251Y-143757969D01*
X139753851Y-143757969D01*
X139549172Y-143759346D01*
X139409162Y-143767143D01*
X139309530Y-143786858D01*
X139225982Y-143823991D01*
X139134227Y-143884039D01*
X139104962Y-143904846D01*
X138951337Y-144013363D01*
X138856137Y-144076407D01*
X138806378Y-144101563D01*
X138789072Y-144096420D01*
X138788266Y-144089864D01*
X138810570Y-144042463D01*
X138870945Y-143936800D01*
X138959588Y-143789602D01*
X139044046Y-143653526D01*
X139299825Y-143246410D01*
X139322603Y-140933275D01*
X139345381Y-138620140D01*
X139543196Y-138097361D01*
X139631699Y-137874277D01*
X139701985Y-137719739D01*
X139751182Y-137639503D01*
X139774293Y-137634055D01*
X139801666Y-137697575D01*
G37*
G36*
X139189882Y-138893329D02*
G01*
X139199737Y-138895781D01*
X139216140Y-138945576D01*
X139226825Y-139057285D01*
X139231948Y-139206955D01*
X139231666Y-139370637D01*
X139226133Y-139524379D01*
X139215507Y-139644230D01*
X139199941Y-139706238D01*
X139194443Y-139709983D01*
X139076067Y-139721397D01*
X138897453Y-139751918D01*
X138683835Y-139795962D01*
X138460447Y-139847943D01*
X138252525Y-139902277D01*
X138085301Y-139953380D01*
X138069322Y-139958975D01*
X137731884Y-140095729D01*
X137437882Y-140247390D01*
X137196323Y-140407244D01*
X137016214Y-140568573D01*
X136906562Y-140724660D01*
X136875482Y-140849185D01*
X136918337Y-141025803D01*
X137040634Y-141201478D01*
X137232972Y-141370598D01*
X137485950Y-141527550D01*
X137790164Y-141666721D01*
X138136215Y-141782499D01*
X138514699Y-141869271D01*
X138611383Y-141885479D01*
X138796411Y-141914292D01*
X138966368Y-141940812D01*
X139085508Y-141959463D01*
X139088529Y-141959938D01*
X139233100Y-141982665D01*
X139233100Y-142381000D01*
X139233100Y-142779335D01*
X139021804Y-142776427D01*
X138891183Y-142766002D01*
X138701507Y-142740037D01*
X138480473Y-142702710D01*
X138300715Y-142667690D01*
X138002301Y-142602280D01*
X137762004Y-142539217D01*
X137549895Y-142468086D01*
X137336044Y-142378478D01*
X137090522Y-142259979D01*
X137006911Y-142217594D01*
X136614465Y-141986732D01*
X136308429Y-141738462D01*
X136087700Y-141471406D01*
X135951178Y-141184184D01*
X135897761Y-140875415D01*
X135896848Y-140827377D01*
X135915410Y-140588488D01*
X135978120Y-140381176D01*
X136095510Y-140184507D01*
X136278115Y-139977549D01*
X136368302Y-139890442D01*
X136688354Y-139639754D01*
X137079151Y-139414531D01*
X137524522Y-139221250D01*
X138008294Y-139066390D01*
X138514295Y-138956429D01*
X138797688Y-138917275D01*
X138970952Y-138900884D01*
X139109349Y-138892493D01*
X139189882Y-138893329D01*
G37*
G36*
X137598254Y-142583264D02*
G01*
X137598336Y-142583290D01*
X137693033Y-142610937D01*
X137840179Y-142650765D01*
X137987566Y-142688946D01*
X138141534Y-142730261D01*
X138229043Y-142766010D01*
X138270157Y-142811331D01*
X138284941Y-142881362D01*
X138287668Y-142915355D01*
X138308423Y-143184169D01*
X138329119Y-143382454D01*
X138354014Y-143528543D01*
X138387366Y-143640768D01*
X138433431Y-143737463D01*
X138496468Y-143836959D01*
X138504379Y-143848510D01*
X138587962Y-143973482D01*
X138626685Y-144052608D01*
X138626434Y-144113114D01*
X138593098Y-144182226D01*
X138581002Y-144202824D01*
X138530776Y-144312606D01*
X138544410Y-144361063D01*
X138620195Y-144346999D01*
X138714428Y-144296165D01*
X138805363Y-144244724D01*
X138881332Y-144224261D01*
X138975531Y-144232576D01*
X139121156Y-144267467D01*
X139126464Y-144268849D01*
X139443116Y-144321577D01*
X139799406Y-144331930D01*
X140156839Y-144300083D01*
X140345478Y-144263321D01*
X140505323Y-144226358D01*
X140606616Y-144212377D01*
X140677191Y-144223081D01*
X140744880Y-144260175D01*
X140788116Y-144290415D01*
X140900313Y-144355666D01*
X140955376Y-144352869D01*
X140951523Y-144283628D01*
X140906251Y-144184114D01*
X140861516Y-144093812D01*
X140852619Y-144027494D01*
X140884154Y-143951555D01*
X140952685Y-143844516D01*
X141014762Y-143741024D01*
X141054165Y-143640746D01*
X141077218Y-143516869D01*
X141090244Y-143342579D01*
X141094407Y-143243577D01*
X141109655Y-142833612D01*
X141501134Y-142761990D01*
X141678014Y-142730147D01*
X141819867Y-142705581D01*
X141905284Y-142691954D01*
X141919598Y-142690368D01*
X141935108Y-142731351D01*
X141943947Y-142840868D01*
X141946530Y-142998765D01*
X141943268Y-143184892D01*
X141934577Y-143379098D01*
X141920870Y-143561229D01*
X141902560Y-143711136D01*
X141898122Y-143736889D01*
X141786801Y-144107249D01*
X141599172Y-144434039D01*
X141425258Y-144632580D01*
X141203490Y-144819592D01*
X140966586Y-144954785D01*
X140680902Y-145056625D01*
X140624562Y-145072083D01*
X140440116Y-145107342D01*
X140196590Y-145135053D01*
X139921529Y-145153998D01*
X139642475Y-145162959D01*
X139386972Y-145160717D01*
X139182562Y-145146056D01*
X139130373Y-145138168D01*
X138704771Y-145026446D01*
X138334873Y-144859355D01*
X138026376Y-144641561D01*
X137784977Y-144377731D01*
X137616372Y-144072529D01*
X137545420Y-143840090D01*
X137526402Y-143705769D01*
X137511053Y-143510488D01*
X137501123Y-143282237D01*
X137498249Y-143085531D01*
X137498715Y-142860596D01*
X137501964Y-142710710D01*
X137510768Y-142621952D01*
X137527902Y-142580404D01*
X137556139Y-142572148D01*
X137598254Y-142583264D01*
G37*
G36*
X139462531Y-85604353D02*
G01*
X139773342Y-85681329D01*
X139791252Y-85687921D01*
X140126470Y-85865376D01*
X140411650Y-86127751D01*
X140646261Y-86474198D01*
X140829771Y-86903875D01*
X140961647Y-87415934D01*
X140992347Y-87593762D01*
X141043902Y-87862166D01*
X141117174Y-88164162D01*
X141197727Y-88441152D01*
X141210967Y-88481126D01*
X141283076Y-88704743D01*
X141325028Y-88858443D01*
X141336324Y-88936779D01*
X141316465Y-88934302D01*
X141264952Y-88845563D01*
X141239596Y-88793632D01*
X141179034Y-88692218D01*
X141095866Y-88624413D01*
X140959990Y-88570012D01*
X140864768Y-88542048D01*
X140629055Y-88485329D01*
X140433279Y-88465242D01*
X140234628Y-88481725D01*
X139990291Y-88534720D01*
X139966474Y-88540795D01*
X139590354Y-88597591D01*
X139178663Y-88592157D01*
X138761167Y-88529398D01*
X138367630Y-88414222D01*
X138027817Y-88251534D01*
X137964679Y-88210846D01*
X137758515Y-88055601D01*
X137537091Y-87864030D01*
X137313270Y-87650174D01*
X137099912Y-87428076D01*
X136973481Y-87284168D01*
X137625043Y-87284168D01*
X137630006Y-87329539D01*
X137672224Y-87460150D01*
X137750496Y-87632142D01*
X137830101Y-87777526D01*
X137943258Y-87947850D01*
X138058687Y-88064974D01*
X138213985Y-88163025D01*
X138306226Y-88209693D01*
X138457407Y-88270761D01*
X138647329Y-88330211D01*
X138849798Y-88382052D01*
X139038619Y-88420294D01*
X139187597Y-88438947D01*
X139270535Y-88432020D01*
X139272752Y-88430718D01*
X139261963Y-88384976D01*
X139244073Y-88344064D01*
X139660091Y-88344064D01*
X139663117Y-88397126D01*
X139710641Y-88410498D01*
X139727071Y-88410721D01*
X139826644Y-88398577D01*
X139980563Y-88367410D01*
X140090617Y-88340621D01*
X140389335Y-88243928D01*
X140600282Y-88126929D01*
X140734264Y-87978719D01*
X140802086Y-87788394D01*
X140816033Y-87608599D01*
X140785851Y-87356240D01*
X140704758Y-87065268D01*
X140585244Y-86763654D01*
X140439801Y-86479368D01*
X140280920Y-86240382D01*
X140136519Y-86086944D01*
X140021295Y-85997916D01*
X139936665Y-85943274D01*
X139914531Y-85935088D01*
X139901701Y-85981019D01*
X139896811Y-86105084D01*
X139900131Y-86286687D01*
X139907874Y-86443433D01*
X139912309Y-86778471D01*
X139890983Y-87152974D01*
X139847806Y-87533868D01*
X139786684Y-87888074D01*
X139711528Y-88182518D01*
X139697359Y-88225049D01*
X139660091Y-88344064D01*
X139244073Y-88344064D01*
X139216505Y-88281021D01*
X139185869Y-88218979D01*
X139111793Y-88048290D01*
X139040467Y-87843799D01*
X139012966Y-87748171D01*
X138970238Y-87527427D01*
X138936139Y-87243018D01*
X138912345Y-86926306D01*
X138900535Y-86608653D01*
X138902384Y-86321421D01*
X138919571Y-86095971D01*
X138923277Y-86071248D01*
X138947263Y-85919271D01*
X138962104Y-85816190D01*
X138964726Y-85787086D01*
X138811603Y-85822861D01*
X138613437Y-85895175D01*
X138394923Y-85991805D01*
X138180761Y-86100527D01*
X137995646Y-86209118D01*
X137864277Y-86305356D01*
X137820793Y-86353233D01*
X137763216Y-86485734D01*
X137707902Y-86680645D01*
X137661802Y-86902398D01*
X137631866Y-87115428D01*
X137625043Y-87284168D01*
X136973481Y-87284168D01*
X136909882Y-87211777D01*
X136756042Y-87015320D01*
X136651253Y-86852748D01*
X136608379Y-86738102D01*
X136607992Y-86729723D01*
X136635881Y-86671976D01*
X136730605Y-86624346D01*
X136892690Y-86581683D01*
X137160898Y-86489703D01*
X137487995Y-86318307D01*
X137629574Y-86231184D01*
X137917073Y-86051127D01*
X138144619Y-85917594D01*
X138333279Y-85820172D01*
X138504119Y-85748447D01*
X138678207Y-85692008D01*
X138771910Y-85666562D01*
X139137907Y-85599623D01*
X139462531Y-85604353D01*
G37*
G36*
X146128855Y-85475194D02*
G01*
X146347492Y-85511363D01*
X146542810Y-85583991D01*
X146734843Y-85703363D01*
X146943629Y-85879764D01*
X147189204Y-86123477D01*
X147227907Y-86163812D01*
X147415830Y-86358291D01*
X147553385Y-86492179D01*
X147657287Y-86577729D01*
X147744252Y-86627192D01*
X147830994Y-86652821D01*
X147910745Y-86664315D01*
X148097802Y-86667671D01*
X148253862Y-86619646D01*
X148322813Y-86582319D01*
X148464491Y-86513449D01*
X148541242Y-86509342D01*
X148556739Y-86563346D01*
X148514655Y-86668810D01*
X148418663Y-86819083D01*
X148272436Y-87007513D01*
X148079649Y-87227450D01*
X147843973Y-87472241D01*
X147816059Y-87499935D01*
X147406620Y-87875115D01*
X146995766Y-88196164D01*
X146602673Y-88448585D01*
X146462436Y-88523250D01*
X146323036Y-88589956D01*
X146203888Y-88635679D01*
X146079891Y-88665052D01*
X145925946Y-88682710D01*
X145716953Y-88693286D01*
X145508391Y-88699372D01*
X145184863Y-88702918D01*
X144920072Y-88692533D01*
X144674312Y-88664992D01*
X144407876Y-88617069D01*
X144351850Y-88605438D01*
X144117706Y-88557406D01*
X143957115Y-88530164D01*
X143847023Y-88522751D01*
X143764379Y-88534202D01*
X143686128Y-88563554D01*
X143658473Y-88576464D01*
X143532345Y-88662804D01*
X143447071Y-88767644D01*
X143440841Y-88781802D01*
X143396415Y-88870958D01*
X143356801Y-88912418D01*
X143341715Y-88890530D01*
X143358866Y-88829892D01*
X143405950Y-88694447D01*
X143476412Y-88501442D01*
X143563700Y-88268130D01*
X143661259Y-88011758D01*
X143762535Y-87749578D01*
X143808653Y-87632111D01*
X144050744Y-87632111D01*
X144062626Y-87844549D01*
X144148891Y-88026358D01*
X144313654Y-88193056D01*
X144561030Y-88360161D01*
X144583787Y-88373587D01*
X144772582Y-88476287D01*
X144922558Y-88532959D01*
X145074726Y-88556167D01*
X145189968Y-88559259D01*
X145359172Y-88553033D01*
X145442422Y-88532411D01*
X145453417Y-88497369D01*
X145444504Y-88473338D01*
X145854683Y-88473338D01*
X145855837Y-88536654D01*
X145912003Y-88548176D01*
X146039188Y-88517302D01*
X146132239Y-88489557D01*
X146425903Y-88367120D01*
X146757713Y-88167859D01*
X147114780Y-87899814D01*
X147220797Y-87810721D01*
X147304481Y-87727896D01*
X147353190Y-87638650D01*
X147379265Y-87510083D01*
X147392338Y-87353413D01*
X147402733Y-87057037D01*
X147384666Y-86828523D01*
X147329219Y-86638655D01*
X147227472Y-86458216D01*
X147070508Y-86257989D01*
X147050993Y-86235246D01*
X146789094Y-85967717D01*
X146542529Y-85788407D01*
X146499792Y-85765718D01*
X146322265Y-85690659D01*
X146164991Y-85647651D01*
X146047697Y-85639245D01*
X145990112Y-85667993D01*
X145990802Y-85699903D01*
X146004596Y-85772885D01*
X146024458Y-85920534D01*
X146047357Y-86118910D01*
X146063361Y-86273018D01*
X146078967Y-86566031D01*
X146075928Y-86909633D01*
X146056487Y-87276588D01*
X146022883Y-87639656D01*
X145977359Y-87971602D01*
X145922155Y-88245187D01*
X145892534Y-88348831D01*
X145854683Y-88473338D01*
X145444504Y-88473338D01*
X145375713Y-88287864D01*
X145289892Y-88022402D01*
X145205722Y-87734950D01*
X145132972Y-87459476D01*
X145081407Y-87229947D01*
X145069440Y-87162097D01*
X145044895Y-86906132D01*
X145039947Y-86610469D01*
X145053362Y-86313612D01*
X145083910Y-86054066D01*
X145108626Y-85937168D01*
X145141107Y-85815467D01*
X145010418Y-85912412D01*
X144835638Y-86077568D01*
X144647619Y-86316541D01*
X144460833Y-86608077D01*
X144289748Y-86930923D01*
X144233667Y-87053272D01*
X144109129Y-87373524D01*
X144050744Y-87632111D01*
X143808653Y-87632111D01*
X143860976Y-87498839D01*
X143950027Y-87276791D01*
X144009625Y-87132537D01*
X144257159Y-86617545D01*
X144526885Y-86193564D01*
X144817262Y-85862577D01*
X145126750Y-85626564D01*
X145220488Y-85575857D01*
X145366219Y-85515722D01*
X145522094Y-85481356D01*
X145722629Y-85466851D01*
X145866861Y-85465201D01*
X146128855Y-85475194D01*
G37*
G36*
X149920944Y-85593786D02*
G01*
X149937361Y-85704082D01*
X149950237Y-85900351D01*
X149959209Y-86179333D01*
X149963913Y-86537771D01*
X149964524Y-86801560D01*
X149963257Y-87108287D01*
X149960413Y-87369810D01*
X149956274Y-87574231D01*
X149951121Y-87709653D01*
X149945234Y-87764181D01*
X149941951Y-87756457D01*
X149897535Y-87655757D01*
X149809039Y-87538287D01*
X149704590Y-87434725D01*
X149612310Y-87375754D01*
X149588891Y-87371310D01*
X149560056Y-87415297D01*
X149510476Y-87532949D01*
X149448580Y-87703300D01*
X149414716Y-87804546D01*
X149326622Y-88053776D01*
X149213836Y-88341281D01*
X149086304Y-88644659D01*
X148953975Y-88941509D01*
X148826795Y-89209429D01*
X148714711Y-89426020D01*
X148637526Y-89554815D01*
X148357897Y-89905167D01*
X147998562Y-90259905D01*
X147576974Y-90604265D01*
X147110582Y-90923483D01*
X146812277Y-91099141D01*
X146495120Y-91274659D01*
X146810063Y-91478216D01*
X147054400Y-91624043D01*
X147237569Y-91706884D01*
X147355042Y-91724928D01*
X147387370Y-91709446D01*
X147405895Y-91648514D01*
X147426701Y-91515733D01*
X147439797Y-91393205D01*
X147518734Y-91393205D01*
X147528498Y-91614891D01*
X147549373Y-91775489D01*
X147571003Y-91887885D01*
X147587286Y-91926121D01*
X147634490Y-91896619D01*
X147737699Y-91818140D01*
X147877366Y-91705718D01*
X147925187Y-91666179D01*
X148070258Y-91539604D01*
X148180297Y-91432419D01*
X148236806Y-91363027D01*
X148240550Y-91352443D01*
X148201411Y-91305429D01*
X148099848Y-91235367D01*
X147964570Y-91157953D01*
X147824282Y-91088883D01*
X147707694Y-91043854D01*
X147659760Y-91034893D01*
X147587722Y-91080507D01*
X147539401Y-91205746D01*
X147518734Y-91393205D01*
X147439797Y-91393205D01*
X147445689Y-91338074D01*
X147448026Y-91310453D01*
X147466515Y-91128429D01*
X147487565Y-90987282D01*
X147507023Y-90914053D01*
X147509431Y-90910712D01*
X147568057Y-90912441D01*
X147680340Y-90952838D01*
X147741572Y-90981926D01*
X147922029Y-91048518D01*
X148115111Y-91080297D01*
X148289759Y-91075943D01*
X148414912Y-91034138D01*
X148440305Y-91011601D01*
X148470437Y-90914818D01*
X148473182Y-90747147D01*
X148450001Y-90532434D01*
X148402353Y-90294520D01*
X148394497Y-90263361D01*
X148355056Y-90110737D01*
X148651042Y-90230291D01*
X148846570Y-90293821D01*
X149013948Y-90320021D01*
X149133033Y-90308160D01*
X149183682Y-90257507D01*
X149184210Y-90249658D01*
X149169425Y-90187301D01*
X149129872Y-90054884D01*
X149072758Y-89876067D01*
X149043169Y-89786534D01*
X148902129Y-89364069D01*
X149205505Y-89388421D01*
X149405818Y-89392008D01*
X149537377Y-89359193D01*
X149602461Y-89281308D01*
X149603349Y-89149686D01*
X149542318Y-88955661D01*
X149421648Y-88690564D01*
X149400258Y-88647553D01*
X149334423Y-88511561D01*
X149291974Y-88415035D01*
X149283236Y-88387611D01*
X149327252Y-88371181D01*
X149437397Y-88361945D01*
X149484541Y-88361209D01*
X149711759Y-88333060D01*
X149864206Y-88246218D01*
X149930914Y-88147543D01*
X149958264Y-88114163D01*
X149971293Y-88160411D01*
X149971803Y-88268210D01*
X149961593Y-88419484D01*
X149942464Y-88596155D01*
X149916217Y-88780149D01*
X149884653Y-88953387D01*
X149849570Y-89097794D01*
X149830508Y-89155561D01*
X149569764Y-89724632D01*
X149224353Y-90294146D01*
X148807226Y-90847912D01*
X148331334Y-91369740D01*
X147809627Y-91843438D01*
X147473014Y-92102857D01*
X146985942Y-92422299D01*
X146450541Y-92718596D01*
X145893124Y-92979743D01*
X145340003Y-93193737D01*
X144817491Y-93348574D01*
X144669195Y-93381993D01*
X144462163Y-93417024D01*
X144200928Y-93449361D01*
X143899837Y-93478406D01*
X143573233Y-93503560D01*
X143235462Y-93524225D01*
X142900868Y-93539802D01*
X142583798Y-93549693D01*
X142298595Y-93553299D01*
X142059605Y-93550022D01*
X141881172Y-93539263D01*
X141777643Y-93520423D01*
X141774968Y-93518195D01*
X142041926Y-93518195D01*
X142419314Y-93501983D01*
X142614339Y-93490230D01*
X142729499Y-93472307D01*
X142783947Y-93443109D01*
X142796889Y-93401375D01*
X142794639Y-93388602D01*
X142896101Y-93388602D01*
X142905358Y-93422106D01*
X142941428Y-93444624D01*
X143016762Y-93456421D01*
X143143808Y-93457763D01*
X143335016Y-93448915D01*
X143602837Y-93430142D01*
X143866786Y-93409278D01*
X144138409Y-93381255D01*
X144426193Y-93341444D01*
X144708569Y-93293915D01*
X144963967Y-93242739D01*
X145170819Y-93191985D01*
X145307554Y-93145724D01*
X145332816Y-93132634D01*
X145339374Y-93075927D01*
X145296562Y-92964361D01*
X145218293Y-92819246D01*
X145207937Y-92802920D01*
X145523996Y-92802920D01*
X145528211Y-92957966D01*
X145540417Y-93046201D01*
X145551402Y-93058719D01*
X145615251Y-93031989D01*
X145745016Y-92977989D01*
X145915126Y-92907356D01*
X145953069Y-92891618D01*
X146121560Y-92818559D01*
X146247631Y-92757826D01*
X146309160Y-92720255D01*
X146311865Y-92715868D01*
X146281918Y-92660646D01*
X146203585Y-92555007D01*
X146095647Y-92421296D01*
X145976885Y-92281861D01*
X145866081Y-92159048D01*
X145782015Y-92075203D01*
X145756821Y-92055451D01*
X145674206Y-92027549D01*
X145613310Y-92066664D01*
X145570641Y-92181143D01*
X145542709Y-92379333D01*
X145528754Y-92600923D01*
X145523996Y-92802920D01*
X145207937Y-92802920D01*
X145118478Y-92661893D01*
X145011027Y-92513610D01*
X144909852Y-92395707D01*
X144828865Y-92329495D01*
X144803770Y-92322222D01*
X144715092Y-92370708D01*
X144638464Y-92516471D01*
X144573679Y-92759967D01*
X144554267Y-92865367D01*
X144500240Y-93185705D01*
X144342010Y-92955726D01*
X144198568Y-92758095D01*
X144089967Y-92636253D01*
X144004629Y-92578517D01*
X143959414Y-92569786D01*
X143901366Y-92615167D01*
X143848143Y-92734863D01*
X143807295Y-92904198D01*
X143786368Y-93098499D01*
X143785224Y-93139181D01*
X143782566Y-93337232D01*
X143641779Y-93064912D01*
X143548407Y-92901696D01*
X143453685Y-92763411D01*
X143396597Y-92698272D01*
X143316368Y-92635482D01*
X143258118Y-92640486D01*
X143194215Y-92692628D01*
X143124193Y-92788287D01*
X143043787Y-92943044D01*
X142968609Y-93120443D01*
X142914276Y-93284033D01*
X142896101Y-93388602D01*
X142794639Y-93388602D01*
X142777483Y-93291196D01*
X142727164Y-93127092D01*
X142658262Y-92940794D01*
X142583107Y-92764031D01*
X142514029Y-92628534D01*
X142475819Y-92575155D01*
X142409127Y-92524111D01*
X142357297Y-92549402D01*
X142322177Y-92593682D01*
X142257779Y-92716022D01*
X142187717Y-92905584D01*
X142122062Y-93131823D01*
X142074427Y-93344954D01*
X142041926Y-93518195D01*
X141774968Y-93518195D01*
X141757310Y-93503486D01*
X141738700Y-93386546D01*
X141690709Y-93214849D01*
X141625098Y-93021664D01*
X141553625Y-92840256D01*
X141488051Y-92703893D01*
X141459501Y-92661014D01*
X141361208Y-92545029D01*
X141268065Y-92654655D01*
X141203974Y-92760764D01*
X141133392Y-92923328D01*
X141084313Y-93066763D01*
X141025826Y-93229058D01*
X140978277Y-93293069D01*
X140943428Y-93259111D01*
X140923042Y-93127498D01*
X140919074Y-93037241D01*
X140893533Y-92894063D01*
X140845316Y-92789678D01*
X140793011Y-92728431D01*
X140745473Y-92729326D01*
X140666548Y-92795501D01*
X140655160Y-92806185D01*
X140574074Y-92904158D01*
X140487409Y-93041469D01*
X140408711Y-93191135D01*
X140351529Y-93326177D01*
X140329412Y-93419614D01*
X140335744Y-93442307D01*
X140394107Y-93455501D01*
X140532324Y-93469936D01*
X140731262Y-93484065D01*
X140971787Y-93496343D01*
X141037317Y-93498985D01*
X141282019Y-93511025D01*
X141486716Y-93526246D01*
X141633405Y-93542914D01*
X141704081Y-93559297D01*
X141707797Y-93563541D01*
X141664650Y-93587654D01*
X141559505Y-93594229D01*
X141546881Y-93593654D01*
X141435188Y-93587671D01*
X141250379Y-93577949D01*
X141018232Y-93565837D01*
X140767056Y-93552817D01*
X140073828Y-93481289D01*
X139367575Y-93342069D01*
X138684257Y-93143616D01*
X138433326Y-93046047D01*
X138652154Y-93046047D01*
X138707207Y-93071601D01*
X138827319Y-93115564D01*
X138940306Y-93153347D01*
X139099590Y-93198567D01*
X139192877Y-93199134D01*
X139230285Y-93141945D01*
X139221931Y-93013897D01*
X139185552Y-92835728D01*
X139124773Y-92629472D01*
X139055419Y-92519971D01*
X138975557Y-92505180D01*
X138913948Y-92548486D01*
X138846351Y-92635016D01*
X138770652Y-92758048D01*
X138702618Y-92887613D01*
X138658019Y-92993744D01*
X138652154Y-93046047D01*
X138433326Y-93046047D01*
X138158480Y-92939179D01*
X137710866Y-92701663D01*
X137259271Y-92389835D01*
X136827975Y-92024291D01*
X136441260Y-91625628D01*
X136383651Y-91551103D01*
X136496970Y-91551103D01*
X136552778Y-91640841D01*
X136677400Y-91777178D01*
X136709219Y-91810947D01*
X136886982Y-91987855D01*
X137087588Y-92169469D01*
X137257552Y-92308564D01*
X137414345Y-92421072D01*
X137597512Y-92543461D01*
X137785235Y-92662270D01*
X137955697Y-92764038D01*
X138087081Y-92835304D01*
X138155263Y-92862433D01*
X138175768Y-92820306D01*
X138189254Y-92707136D01*
X138192397Y-92600605D01*
X138178959Y-92398861D01*
X138134230Y-92287641D01*
X138051586Y-92261562D01*
X137924404Y-92315245D01*
X137877965Y-92345153D01*
X137697817Y-92467405D01*
X137703927Y-92202364D01*
X137701377Y-92042831D01*
X137688209Y-91921851D01*
X137675976Y-91882209D01*
X137590013Y-91833497D01*
X137437658Y-91845782D01*
X137229700Y-91918022D01*
X137208699Y-91927395D01*
X136992446Y-92025519D01*
X137024841Y-91913929D01*
X137049360Y-91799918D01*
X137075340Y-91635254D01*
X137086995Y-91543460D01*
X137093512Y-91361374D01*
X137055111Y-91265462D01*
X136963198Y-91249776D01*
X136809179Y-91308365D01*
X136773708Y-91326599D01*
X136604308Y-91417470D01*
X136513104Y-91484475D01*
X136496970Y-91551103D01*
X136383651Y-91551103D01*
X136123406Y-91214440D01*
X136121173Y-91211105D01*
X135939924Y-90898733D01*
X136511659Y-90898733D01*
X136514939Y-91077465D01*
X136538298Y-91185942D01*
X136596801Y-91229923D01*
X136705513Y-91215163D01*
X136879498Y-91147421D01*
X137009745Y-91089085D01*
X137167072Y-91019441D01*
X137283658Y-90971497D01*
X137335838Y-90954948D01*
X137336480Y-90955227D01*
X137330615Y-91004238D01*
X137304479Y-91120483D01*
X137275177Y-91235246D01*
X137224838Y-91465143D01*
X137205156Y-91651277D01*
X137216471Y-91777312D01*
X137259120Y-91826907D01*
X137262898Y-91827096D01*
X137330080Y-91802780D01*
X137458521Y-91737720D01*
X137625564Y-91643746D01*
X137708512Y-91594438D01*
X137877824Y-91489279D01*
X138009140Y-91402379D01*
X138083446Y-91346584D01*
X138093284Y-91334496D01*
X138092230Y-91333424D01*
X138142885Y-91333424D01*
X138142885Y-91725575D01*
X138155011Y-92025590D01*
X138191753Y-92231556D01*
X138253658Y-92345477D01*
X138318635Y-92371735D01*
X138392088Y-92339321D01*
X138509701Y-92254189D01*
X138646484Y-92134503D01*
X138651316Y-92129907D01*
X138904822Y-91888080D01*
X139056115Y-92236509D01*
X139168222Y-92468419D01*
X139264931Y-92607416D01*
X139351170Y-92657504D01*
X139431868Y-92622686D01*
X139471961Y-92574279D01*
X139545605Y-92447100D01*
X139619354Y-92290549D01*
X139628949Y-92267125D01*
X139703901Y-92079258D01*
X139808910Y-92367581D01*
X139863614Y-92525932D01*
X139882622Y-92612379D01*
X139867763Y-92646661D01*
X139835074Y-92649980D01*
X139775009Y-92686519D01*
X139687831Y-92784433D01*
X139591744Y-92917054D01*
X139504956Y-93057711D01*
X139445673Y-93179734D01*
X139430214Y-93243038D01*
X139474176Y-93286284D01*
X139586133Y-93330806D01*
X139665399Y-93350779D01*
X139866846Y-93390445D01*
X139989092Y-93404352D01*
X140049388Y-93389171D01*
X140064985Y-93341575D01*
X140056393Y-93275341D01*
X140015408Y-93052740D01*
X139994079Y-92910755D01*
X139994833Y-92832488D01*
X140020098Y-92801040D01*
X140072303Y-92799512D01*
X140123708Y-92806834D01*
X140197313Y-92812893D01*
X140252822Y-92794334D01*
X140304705Y-92734568D01*
X140367431Y-92617007D01*
X140454134Y-92428036D01*
X140634402Y-92027199D01*
X140787376Y-92250072D01*
X140917851Y-92405062D01*
X141045066Y-92495013D01*
X141153492Y-92512180D01*
X141218432Y-92465084D01*
X141256150Y-92381257D01*
X141305822Y-92238339D01*
X141340289Y-92124172D01*
X141386460Y-91962893D01*
X141423671Y-91835679D01*
X141438792Y-91786107D01*
X141473121Y-91795236D01*
X141548079Y-91873373D01*
X141650946Y-92006097D01*
X141720100Y-92104946D01*
X141888208Y-92342685D01*
X142017752Y-92494272D01*
X142116911Y-92560850D01*
X142193867Y-92543565D01*
X142256800Y-92443562D01*
X142313890Y-92261984D01*
X142331402Y-92190495D01*
X142362922Y-92015310D01*
X142385521Y-91810188D01*
X142398164Y-91601382D01*
X142399817Y-91415144D01*
X142389447Y-91277725D01*
X142377858Y-91242772D01*
X142709229Y-91242772D01*
X142733168Y-91410870D01*
X142777670Y-91611703D01*
X142837767Y-91825362D01*
X142908488Y-92031943D01*
X142984864Y-92211537D01*
X143054998Y-92334601D01*
X143149148Y-92438501D01*
X143237034Y-92458043D01*
X143331681Y-92390075D01*
X143439761Y-92241523D01*
X143532694Y-92060999D01*
X143601710Y-91866083D01*
X143619130Y-91785618D01*
X143653121Y-91558951D01*
X143837596Y-91958459D01*
X143944797Y-92180876D01*
X144026687Y-92321575D01*
X144093376Y-92391313D01*
X144154973Y-92400846D01*
X144218362Y-92363619D01*
X144296925Y-92263484D01*
X144383155Y-92101184D01*
X144462220Y-91910991D01*
X144519283Y-91727174D01*
X144537700Y-91625877D01*
X144541085Y-91519614D01*
X144629072Y-91519614D01*
X144651754Y-91577116D01*
X144712515Y-91699728D01*
X144800321Y-91866572D01*
X144904141Y-92056769D01*
X145012943Y-92249440D01*
X145033549Y-92285088D01*
X145168074Y-92490995D01*
X145277270Y-92601861D01*
X145360855Y-92617566D01*
X145418550Y-92537989D01*
X145438319Y-92458382D01*
X145457398Y-92325603D01*
X145479666Y-92136681D01*
X145498872Y-91947310D01*
X145531331Y-91597153D01*
X145784573Y-91864918D01*
X145960622Y-92044201D01*
X146088222Y-92153367D01*
X146181198Y-92199292D01*
X146253376Y-92188853D01*
X146317671Y-92130050D01*
X146364002Y-92032113D01*
X146406142Y-91875737D01*
X146432079Y-91731798D01*
X146686419Y-91731798D01*
X146701345Y-91864852D01*
X146728505Y-92027864D01*
X146762306Y-92192221D01*
X146797152Y-92329310D01*
X146827448Y-92410518D01*
X146838705Y-92421248D01*
X146889144Y-92396590D01*
X146998206Y-92332171D01*
X147131813Y-92248568D01*
X147270558Y-92153500D01*
X147367970Y-92074693D01*
X147401754Y-92031783D01*
X147363878Y-91976234D01*
X147267162Y-91887516D01*
X147136972Y-91784565D01*
X146998676Y-91686319D01*
X146877641Y-91611715D01*
X146799233Y-91579690D01*
X146795948Y-91579532D01*
X146713349Y-91619749D01*
X146689324Y-91657313D01*
X146686419Y-91731798D01*
X146432079Y-91731798D01*
X146438869Y-91694116D01*
X146456957Y-91520444D01*
X146455184Y-91387915D01*
X146441845Y-91341011D01*
X146378915Y-91327810D01*
X146240950Y-91351958D01*
X146102287Y-91391691D01*
X145898119Y-91444294D01*
X145663797Y-91477496D01*
X145371562Y-91494608D01*
X145210846Y-91497978D01*
X144984057Y-91501960D01*
X144798608Y-91507390D01*
X144673838Y-91513548D01*
X144629072Y-91519614D01*
X144541085Y-91519614D01*
X144541325Y-91512078D01*
X144511114Y-91469573D01*
X144452466Y-91469700D01*
X144365751Y-91469432D01*
X144203376Y-91458575D01*
X143987921Y-91438973D01*
X143741969Y-91412468D01*
X143721213Y-91410053D01*
X143372063Y-91359826D01*
X143099910Y-91300669D01*
X142910967Y-91234511D01*
X142811447Y-91163280D01*
X142797076Y-91123243D01*
X142758547Y-91086064D01*
X142742917Y-91084406D01*
X142710822Y-91127315D01*
X142709229Y-91242772D01*
X142377858Y-91242772D01*
X142369704Y-91218177D01*
X142320075Y-91230475D01*
X142234669Y-91299470D01*
X142205721Y-91328974D01*
X142060993Y-91434413D01*
X141831089Y-91538913D01*
X141529796Y-91638019D01*
X141170902Y-91727273D01*
X140768193Y-91802219D01*
X140717544Y-91810045D01*
X140443677Y-91846904D01*
X140222114Y-91862866D01*
X140008546Y-91858762D01*
X139758663Y-91835421D01*
X139704502Y-91829011D01*
X139352589Y-91773241D01*
X139004596Y-91694336D01*
X138686797Y-91599732D01*
X138425464Y-91496867D01*
X138303801Y-91432501D01*
X138142885Y-91333424D01*
X138092230Y-91333424D01*
X138054868Y-91295437D01*
X137955796Y-91223143D01*
X137858098Y-91159128D01*
X137714783Y-91056831D01*
X137541202Y-90915105D01*
X137354849Y-90750488D01*
X137173216Y-90579518D01*
X137013798Y-90418734D01*
X136894085Y-90284674D01*
X136831573Y-90193878D01*
X136828393Y-90185598D01*
X136782303Y-90109526D01*
X136726005Y-90116930D01*
X136665791Y-90193645D01*
X136607953Y-90325506D01*
X136558782Y-90498349D01*
X136524569Y-90698009D01*
X136511659Y-90898733D01*
X135939924Y-90898733D01*
X135848058Y-90740408D01*
X135605005Y-90197493D01*
X135400824Y-89606859D01*
X135244327Y-88993007D01*
X135237987Y-88957263D01*
X135525920Y-88957263D01*
X135571303Y-89101743D01*
X135595790Y-89142395D01*
X135664742Y-89211355D01*
X135766761Y-89244332D01*
X135925296Y-89252437D01*
X136070780Y-89254825D01*
X136133966Y-89267770D01*
X136131564Y-89299936D01*
X136097086Y-89341542D01*
X136015227Y-89469524D01*
X135945122Y-89645316D01*
X135892863Y-89840801D01*
X135864540Y-90027861D01*
X135866243Y-90178380D01*
X135898310Y-90259194D01*
X135917378Y-90279015D01*
X135940010Y-90286489D01*
X135987259Y-90276546D01*
X136080180Y-90244116D01*
X136239827Y-90184128D01*
X136292643Y-90164227D01*
X136459752Y-90100096D01*
X136585973Y-90049301D01*
X136646874Y-90021715D01*
X136648701Y-90020366D01*
X136630060Y-89973604D01*
X136562786Y-89858678D01*
X136455063Y-89688529D01*
X136315069Y-89476099D01*
X136161766Y-89250017D01*
X136089938Y-89133590D01*
X135999963Y-88972276D01*
X135945412Y-88867863D01*
X135855071Y-88712913D01*
X135774406Y-88644525D01*
X135683573Y-88654739D01*
X135580604Y-88721546D01*
X135528535Y-88817093D01*
X135525920Y-88957263D01*
X135237987Y-88957263D01*
X135167388Y-88559259D01*
X135147534Y-88370665D01*
X135131664Y-88120445D01*
X135124757Y-87948512D01*
X135181271Y-87948512D01*
X135194525Y-88090435D01*
X135220323Y-88222518D01*
X135264794Y-88305268D01*
X135353577Y-88368731D01*
X135484981Y-88430821D01*
X135626895Y-88490490D01*
X135727202Y-88526070D01*
X135758683Y-88530858D01*
X135750453Y-88481522D01*
X135712470Y-88365554D01*
X135652892Y-88207800D01*
X135651286Y-88203760D01*
X135580235Y-88010120D01*
X135521543Y-87823318D01*
X135492452Y-87705166D01*
X135463117Y-87586328D01*
X135433068Y-87523040D01*
X135426556Y-87519832D01*
X135381703Y-87557171D01*
X135307227Y-87650348D01*
X135277770Y-87692215D01*
X135203626Y-87823475D01*
X135181271Y-87948512D01*
X135124757Y-87948512D01*
X135119838Y-87826066D01*
X135112110Y-87504995D01*
X135108539Y-87174698D01*
X135109182Y-86852642D01*
X135114094Y-86556293D01*
X135115284Y-86523686D01*
X135181352Y-86523686D01*
X135184257Y-86657778D01*
X135205563Y-86800332D01*
X135238189Y-86923673D01*
X135275051Y-87000127D01*
X135305029Y-87006992D01*
X135306702Y-86951818D01*
X135291677Y-86826182D01*
X135263175Y-86656624D01*
X135261259Y-86646437D01*
X135227566Y-86472013D01*
X135207132Y-86387359D01*
X135195026Y-86384902D01*
X135186322Y-86457072D01*
X135181352Y-86523686D01*
X135115284Y-86523686D01*
X135123333Y-86303118D01*
X135136956Y-86110585D01*
X135155021Y-85996158D01*
X135158996Y-85984601D01*
X135192579Y-85912566D01*
X135213128Y-85914202D01*
X135231922Y-85999679D01*
X135241356Y-86058870D01*
X135345554Y-86677248D01*
X135453654Y-87211988D01*
X135570239Y-87678475D01*
X135699889Y-88092093D01*
X135847187Y-88468227D01*
X136016715Y-88822261D01*
X136121276Y-89013459D01*
X136512649Y-89645103D01*
X136915614Y-90184127D01*
X137336248Y-90636785D01*
X137780627Y-91009329D01*
X138254829Y-91308011D01*
X138443908Y-91403349D01*
X138748193Y-91537734D01*
X139021586Y-91633716D01*
X139292350Y-91696937D01*
X139588746Y-91733041D01*
X139939037Y-91747671D01*
X140172904Y-91748568D01*
X140620765Y-91734911D01*
X141001583Y-91695427D01*
X141345242Y-91624562D01*
X141681627Y-91516761D01*
X141904821Y-91426715D01*
X142119299Y-91296475D01*
X142267219Y-91111613D01*
X142360270Y-90856144D01*
X142375690Y-90782801D01*
X142389464Y-90683432D01*
X142371336Y-90618719D01*
X142302410Y-90564151D01*
X142163789Y-90495216D01*
X142148443Y-90488028D01*
X141865323Y-90331026D01*
X141619524Y-90147882D01*
X141437786Y-89959212D01*
X141407597Y-89916806D01*
X141351884Y-89789465D01*
X141319288Y-89631766D01*
X141317852Y-89599418D01*
X141376344Y-89599418D01*
X141431452Y-89762120D01*
X141531769Y-89929524D01*
X141622083Y-90033119D01*
X141733152Y-90122642D01*
X141887609Y-90224925D01*
X142062576Y-90327588D01*
X142235176Y-90418252D01*
X142382532Y-90484539D01*
X142481766Y-90514068D01*
X142505896Y-90511366D01*
X142554374Y-90462005D01*
X142644092Y-90355387D01*
X142756736Y-90213372D01*
X142771089Y-90194777D01*
X142879305Y-90050890D01*
X142958813Y-89938978D01*
X142994489Y-89880446D01*
X142995126Y-89877657D01*
X143025520Y-89827866D01*
X143100479Y-89738302D01*
X143118908Y-89718128D01*
X143222406Y-89565957D01*
X143229909Y-89436677D01*
X143165224Y-89348809D01*
X143106885Y-89318560D01*
X143019791Y-89315227D01*
X142879620Y-89340290D01*
X142740173Y-89374671D01*
X142533672Y-89420099D01*
X142335863Y-89442059D01*
X142107748Y-89443238D01*
X141900231Y-89432557D01*
X141668779Y-89419787D01*
X141518101Y-89418795D01*
X141430495Y-89430951D01*
X141388258Y-89457628D01*
X141380028Y-89472860D01*
X141376344Y-89599418D01*
X141317852Y-89599418D01*
X141312467Y-89478082D01*
X141334080Y-89362789D01*
X141361938Y-89326255D01*
X141430431Y-89318709D01*
X141572155Y-89324364D01*
X141762396Y-89341834D01*
X141869442Y-89354754D01*
X142096657Y-89381591D01*
X142263181Y-89390423D01*
X142406060Y-89379188D01*
X142562338Y-89345825D01*
X142698050Y-89308625D01*
X142886038Y-89256660D01*
X143005468Y-89231795D01*
X143082808Y-89233276D01*
X143144529Y-89260353D01*
X143193177Y-89294549D01*
X143277531Y-89369709D01*
X143318451Y-89449474D01*
X143311768Y-89547674D01*
X143253313Y-89678140D01*
X143138917Y-89854704D01*
X142964412Y-90091197D01*
X142945605Y-90115908D01*
X142543920Y-90642811D01*
X142642273Y-90801718D01*
X142847249Y-91059014D01*
X143086447Y-91225295D01*
X143242690Y-91279888D01*
X143361843Y-91299372D01*
X143560142Y-91322069D01*
X143817839Y-91346139D01*
X144115182Y-91369744D01*
X144432423Y-91391044D01*
X144444060Y-91391750D01*
X144823470Y-91412697D01*
X145122170Y-91424047D01*
X145358011Y-91425781D01*
X145548846Y-91417879D01*
X145712526Y-91400323D01*
X145776009Y-91390316D01*
X146175101Y-91284909D01*
X146604241Y-91106891D01*
X147043847Y-90869344D01*
X147474339Y-90585349D01*
X147876136Y-90267986D01*
X148229659Y-89930337D01*
X148515325Y-89585483D01*
X148548112Y-89538370D01*
X148718244Y-89252709D01*
X148898063Y-88888764D01*
X149080787Y-88465898D01*
X149259629Y-88003473D01*
X149427807Y-87520852D01*
X149578534Y-87037396D01*
X149705027Y-86572467D01*
X149800502Y-86145429D01*
X149854083Y-85811306D01*
X149878942Y-85644140D01*
X149901350Y-85572719D01*
X149920944Y-85593786D01*
G37*
D15*
%TO.C,C10*%
X174490000Y-133359420D02*
X174490000Y-133640580D01*
X175510000Y-133359420D02*
X175510000Y-133640580D01*
%TO.C,C12*%
X174490000Y-129140580D02*
X174490000Y-128859420D01*
X175510000Y-129140580D02*
X175510000Y-128859420D01*
%TO.C,C11*%
X146421920Y-129740000D02*
X146703080Y-129740000D01*
X146421920Y-130760000D02*
X146703080Y-130760000D01*
%TO.C,C18*%
X186510000Y-104409420D02*
X186510000Y-104690580D01*
X185490000Y-104409420D02*
X185490000Y-104690580D01*
%TO.C,C9*%
X149696920Y-129740000D02*
X149978080Y-129740000D01*
X149696920Y-130760000D02*
X149978080Y-130760000D01*
%TD*%
%LPC*%
D17*
%TO.C,U4*%
X172000000Y-134540000D03*
D18*
X172000000Y-132000000D03*
X172000000Y-129460000D03*
%TD*%
D19*
%TO.C,GX12*%
X180010000Y-96930000D03*
X180010000Y-100930000D03*
X176010000Y-100930000D03*
X176010000Y-96930000D03*
%TD*%
D20*
%TO.C,R2*%
X151025000Y-99960000D03*
X149375000Y-99960000D03*
%TD*%
D21*
%TO.C,R5*%
X130197500Y-106250000D03*
X131847500Y-106250000D03*
%TD*%
D22*
%TO.C,U5*%
X169740000Y-110730000D03*
D23*
X166720000Y-107160000D03*
X166710000Y-123200000D03*
D22*
X172260000Y-112000000D03*
X169720000Y-113260000D03*
X172260000Y-114540000D03*
X169720000Y-115780000D03*
X172260000Y-117080000D03*
X169720000Y-118350000D03*
X172260000Y-119610000D03*
%TD*%
D24*
%TO.C,U2*%
X132675000Y-109500000D03*
X132675000Y-110000000D03*
X132675000Y-110500000D03*
X132675000Y-111000000D03*
X132675000Y-111500000D03*
X132675000Y-112000000D03*
X132675000Y-112500000D03*
X132675000Y-113000000D03*
X132675000Y-113500000D03*
X132675000Y-114000000D03*
X132675000Y-114500000D03*
X132675000Y-115000000D03*
D25*
X134087500Y-116412500D03*
X134587500Y-116412500D03*
X135087500Y-116412500D03*
X135587500Y-116412500D03*
X136087500Y-116412500D03*
X136587500Y-116412500D03*
X137087500Y-116412500D03*
X137587500Y-116412500D03*
X138087500Y-116412500D03*
X138587500Y-116412500D03*
X139087500Y-116412500D03*
X139587500Y-116412500D03*
D24*
X141000000Y-115000000D03*
X141000000Y-114500000D03*
X141000000Y-114000000D03*
X141000000Y-113500000D03*
X141000000Y-113000000D03*
X141000000Y-112500000D03*
X141000000Y-112000000D03*
X141000000Y-111500000D03*
X141000000Y-111000000D03*
X141000000Y-110500000D03*
X141000000Y-110000000D03*
X141000000Y-109500000D03*
D25*
X139587500Y-108087500D03*
X139087500Y-108087500D03*
X138587500Y-108087500D03*
X138087500Y-108087500D03*
X137587500Y-108087500D03*
X137087500Y-108087500D03*
X136587500Y-108087500D03*
X136087500Y-108087500D03*
X135587500Y-108087500D03*
X135087500Y-108087500D03*
X134587500Y-108087500D03*
X134087500Y-108087500D03*
%TD*%
D26*
%TO.C,C19*%
X136700000Y-97772500D03*
X134975000Y-97772500D03*
%TD*%
D20*
%TO.C,R1*%
X136662500Y-102250000D03*
X135012500Y-102250000D03*
%TD*%
D27*
%TO.C,C4*%
X169950000Y-125500000D03*
X171500000Y-125500000D03*
%TD*%
%TO.C,C2*%
X131747500Y-118250000D03*
X133297500Y-118250000D03*
%TD*%
D20*
%TO.C,R3*%
X143162500Y-105250000D03*
X141512500Y-105250000D03*
%TD*%
D28*
%TO.C,U3*%
X145537500Y-127900000D03*
X147837500Y-127900000D03*
D29*
X147837500Y-121600000D03*
D28*
X150137500Y-127900000D03*
%TD*%
D30*
%TO.C,ADS1219*%
X145200000Y-102525000D03*
X145200000Y-101875000D03*
X145200000Y-101225000D03*
X145200000Y-100575000D03*
X145200000Y-99925000D03*
X145200000Y-99275000D03*
X145200000Y-98625000D03*
X145200000Y-97975000D03*
X139475000Y-97975000D03*
X139475000Y-98625000D03*
X139475000Y-99275000D03*
X139475000Y-99925000D03*
X139475000Y-100575000D03*
X139475000Y-101225000D03*
X139475000Y-101875000D03*
X139475000Y-102525000D03*
%TD*%
D31*
%TO.C,Y1*%
X126462500Y-112450000D03*
X128212500Y-112450000D03*
X128212500Y-111050000D03*
X126462500Y-111050000D03*
%TD*%
D32*
%TO.C,D1*%
X131947500Y-104250000D03*
X133522500Y-104250000D03*
%TD*%
D33*
%TO.C,J2*%
X182500000Y-134080000D03*
D34*
X182500000Y-129000000D03*
%TD*%
D35*
%TO.C,J1*%
X144550000Y-113460000D03*
X148450000Y-113460000D03*
X144550000Y-114730000D03*
X148450000Y-114730000D03*
X144550000Y-116000000D03*
X148450000Y-116000000D03*
X144550000Y-117270000D03*
X148450000Y-117270000D03*
X144550000Y-118540000D03*
X148450000Y-118540000D03*
%TD*%
D36*
%TO.C,C1*%
X136612500Y-100750000D03*
X135062500Y-100750000D03*
%TD*%
D37*
%TO.C,C13*%
X188000000Y-105325000D03*
X188000000Y-103775000D03*
%TD*%
%TO.C,C14*%
X130522500Y-108250000D03*
X130522500Y-109800000D03*
%TD*%
D36*
%TO.C,C7*%
X135022500Y-106250000D03*
X133472500Y-106250000D03*
%TD*%
D38*
%TO.C,U1*%
X134432500Y-127400000D03*
X135702500Y-127400000D03*
X136972500Y-127400000D03*
X138242500Y-127400000D03*
X138242500Y-120100000D03*
X136972500Y-120100000D03*
X135702500Y-120100000D03*
X134432500Y-120100000D03*
%TD*%
D39*
%TO.C,L2*%
X184220000Y-105317500D03*
X184220000Y-103742500D03*
%TD*%
D40*
%TO.C,H3*%
X184000000Y-87500000D03*
%TD*%
D41*
%TO.C,C20*%
X147700000Y-99735000D03*
X147700000Y-98185000D03*
%TD*%
D26*
%TO.C,C16*%
X136700000Y-99250000D03*
X134975000Y-99250000D03*
%TD*%
D41*
%TO.C,C8*%
X130522500Y-116525000D03*
X130522500Y-114975000D03*
%TD*%
D27*
%TO.C,C3*%
X138747500Y-118250000D03*
X140297500Y-118250000D03*
%TD*%
D40*
%TO.C,H2*%
X126000000Y-87500000D03*
%TD*%
D41*
%TO.C,C6*%
X142837500Y-109525000D03*
X142837500Y-107975000D03*
%TD*%
%TO.C,C5*%
X130522500Y-113525000D03*
X130522500Y-111975000D03*
%TD*%
D20*
%TO.C,R4*%
X151025000Y-97960000D03*
X149375000Y-97960000D03*
%TD*%
D37*
%TO.C,C10*%
X175000000Y-132725000D03*
X175000000Y-134275000D03*
%TD*%
D41*
%TO.C,C12*%
X175000000Y-129775000D03*
X175000000Y-128225000D03*
%TD*%
D27*
%TO.C,C11*%
X145787500Y-130250000D03*
X147337500Y-130250000D03*
%TD*%
D37*
%TO.C,C18*%
X186000000Y-105325000D03*
X186000000Y-103775000D03*
%TD*%
D40*
%TO.C,H1*%
X184000000Y-143500000D03*
%TD*%
%TO.C,H4*%
X126000000Y-143500000D03*
%TD*%
D27*
%TO.C,C9*%
X149062500Y-130250000D03*
X150612500Y-130250000D03*
%TD*%
D42*
X188000000Y-99000000D03*
X142337500Y-113250000D03*
X141337500Y-106575000D03*
X141837500Y-118250000D03*
X141337500Y-107775000D03*
X143837500Y-100250000D03*
X139837500Y-119750000D03*
X139837500Y-127250000D03*
X133337500Y-99250000D03*
X146337500Y-118660000D03*
X145337500Y-96750000D03*
X144061765Y-102474266D03*
X142837500Y-128250000D03*
X129337500Y-109750000D03*
X145837500Y-132750000D03*
X128837500Y-106250000D03*
X134837500Y-105250000D03*
X148837500Y-132750000D03*
X187000000Y-106500000D03*
X128837500Y-113750000D03*
X130337500Y-118250000D03*
X144112500Y-109525000D03*
X134337500Y-121750000D03*
X134337500Y-114750000D03*
X137337500Y-115000000D03*
X137337500Y-121750000D03*
X135837500Y-114750000D03*
X135837500Y-121750000D03*
X137000000Y-111000000D03*
X163500000Y-112000000D03*
X138000000Y-112000000D03*
X163500000Y-114000000D03*
X138500000Y-112500000D03*
X163500000Y-115000000D03*
X137500000Y-111500000D03*
X163500000Y-113000000D03*
X139000000Y-113000000D03*
X163500000Y-116000000D03*
%LPD*%
M02*
