%TF.GenerationSoftware,KiCad,Pcbnew,8.0.2-1*%
%TF.CreationDate,2025-01-15T14:17:39-08:00*%
%TF.ProjectId,rocket2-load-cell,726f636b-6574-4322-9d6c-6f61642d6365,rev?*%
%TF.SameCoordinates,Original*%
%TF.FileFunction,Copper,L1,Top*%
%TF.FilePolarity,Positive*%
%FSLAX46Y46*%
G04 Gerber Fmt 4.6, Leading zero omitted, Abs format (unit mm)*
G04 Created by KiCad (PCBNEW 8.0.2-1) date 2025-01-15 14:17:39*
%MOMM*%
%LPD*%
G01*
G04 APERTURE LIST*
G04 Aperture macros list*
%AMRoundRect*
0 Rectangle with rounded corners*
0 $1 Rounding radius*
0 $2 $3 $4 $5 $6 $7 $8 $9 X,Y pos of 4 corners*
0 Add a 4 corners polygon primitive as box body*
4,1,4,$2,$3,$4,$5,$6,$7,$8,$9,$2,$3,0*
0 Add four circle primitives for the rounded corners*
1,1,$1+$1,$2,$3*
1,1,$1+$1,$4,$5*
1,1,$1+$1,$6,$7*
1,1,$1+$1,$8,$9*
0 Add four rect primitives between the rounded corners*
20,1,$1+$1,$2,$3,$4,$5,0*
20,1,$1+$1,$4,$5,$6,$7,0*
20,1,$1+$1,$6,$7,$8,$9,0*
20,1,$1+$1,$8,$9,$2,$3,0*%
G04 Aperture macros list end*
%TA.AperFunction,ComponentPad*%
%ADD10R,1.599999X1.599999*%
%TD*%
%TA.AperFunction,ComponentPad*%
%ADD11C,1.599999*%
%TD*%
%TA.AperFunction,ComponentPad*%
%ADD12C,2.500000*%
%TD*%
%TA.AperFunction,SMDPad,CuDef*%
%ADD13RoundRect,0.200000X0.200000X0.275000X-0.200000X0.275000X-0.200000X-0.275000X0.200000X-0.275000X0*%
%TD*%
%TA.AperFunction,SMDPad,CuDef*%
%ADD14RoundRect,0.200000X-0.200000X-0.275000X0.200000X-0.275000X0.200000X0.275000X-0.200000X0.275000X0*%
%TD*%
%TA.AperFunction,ComponentPad*%
%ADD15C,1.400000*%
%TD*%
%TA.AperFunction,ComponentPad*%
%ADD16C,2.000000*%
%TD*%
%TA.AperFunction,SMDPad,CuDef*%
%ADD17RoundRect,0.075000X-0.662500X-0.075000X0.662500X-0.075000X0.662500X0.075000X-0.662500X0.075000X0*%
%TD*%
%TA.AperFunction,SMDPad,CuDef*%
%ADD18RoundRect,0.075000X-0.075000X-0.662500X0.075000X-0.662500X0.075000X0.662500X-0.075000X0.662500X0*%
%TD*%
%TA.AperFunction,SMDPad,CuDef*%
%ADD19RoundRect,0.237500X0.300000X0.237500X-0.300000X0.237500X-0.300000X-0.237500X0.300000X-0.237500X0*%
%TD*%
%TA.AperFunction,SMDPad,CuDef*%
%ADD20RoundRect,0.225000X-0.225000X-0.250000X0.225000X-0.250000X0.225000X0.250000X-0.225000X0.250000X0*%
%TD*%
%TA.AperFunction,SMDPad,CuDef*%
%ADD21RoundRect,0.375000X0.375000X-0.625000X0.375000X0.625000X-0.375000X0.625000X-0.375000X-0.625000X0*%
%TD*%
%TA.AperFunction,SMDPad,CuDef*%
%ADD22RoundRect,0.500000X1.400000X-0.500000X1.400000X0.500000X-1.400000X0.500000X-1.400000X-0.500000X0*%
%TD*%
%TA.AperFunction,SMDPad,CuDef*%
%ADD23RoundRect,0.100000X0.637500X0.100000X-0.637500X0.100000X-0.637500X-0.100000X0.637500X-0.100000X0*%
%TD*%
%TA.AperFunction,SMDPad,CuDef*%
%ADD24R,1.150000X1.000000*%
%TD*%
%TA.AperFunction,SMDPad,CuDef*%
%ADD25RoundRect,0.218750X-0.218750X-0.256250X0.218750X-0.256250X0.218750X0.256250X-0.218750X0.256250X0*%
%TD*%
%TA.AperFunction,ComponentPad*%
%ADD26R,2.600000X2.600000*%
%TD*%
%TA.AperFunction,ComponentPad*%
%ADD27C,2.600000*%
%TD*%
%TA.AperFunction,SMDPad,CuDef*%
%ADD28R,2.400000X0.740000*%
%TD*%
%TA.AperFunction,SMDPad,CuDef*%
%ADD29RoundRect,0.225000X0.225000X0.250000X-0.225000X0.250000X-0.225000X-0.250000X0.225000X-0.250000X0*%
%TD*%
%TA.AperFunction,SMDPad,CuDef*%
%ADD30RoundRect,0.225000X-0.250000X0.225000X-0.250000X-0.225000X0.250000X-0.225000X0.250000X0.225000X0*%
%TD*%
%TA.AperFunction,SMDPad,CuDef*%
%ADD31R,0.650000X1.700000*%
%TD*%
%TA.AperFunction,SMDPad,CuDef*%
%ADD32RoundRect,0.218750X-0.256250X0.218750X-0.256250X-0.218750X0.256250X-0.218750X0.256250X0.218750X0*%
%TD*%
%TA.AperFunction,SMDPad,CuDef*%
%ADD33RoundRect,0.225000X0.250000X-0.225000X0.250000X0.225000X-0.250000X0.225000X-0.250000X-0.225000X0*%
%TD*%
%TA.AperFunction,ViaPad*%
%ADD34C,0.500000*%
%TD*%
%TA.AperFunction,Conductor*%
%ADD35C,0.300000*%
%TD*%
%TA.AperFunction,Conductor*%
%ADD36C,0.500000*%
%TD*%
G04 APERTURE END LIST*
D10*
%TO.P,U4,1,INPUT*%
%TO.N,VIN*%
X172000000Y-134540000D03*
D11*
%TO.P,U4,2,COMMON*%
%TO.N,GND*%
X172000000Y-132000000D03*
%TO.P,U4,3,OUTPUT*%
%TO.N,VBUS*%
X172000000Y-129460000D03*
%TD*%
D12*
%TO.P,GX12,1*%
%TO.N,AIN-*%
X180010000Y-96930000D03*
%TO.P,GX12,4*%
%TO.N,AIN+*%
X180010000Y-100930000D03*
%TO.P,GX12,3*%
%TO.N,GND*%
X176010000Y-100930000D03*
%TO.P,GX12,2*%
%TO.N,VLC*%
X176010000Y-96930000D03*
%TD*%
D13*
%TO.P,R2,1*%
%TO.N,AIN+*%
X151025000Y-99960000D03*
%TO.P,R2,2*%
%TO.N,Net-(ADS1219-AIN3)*%
X149375000Y-99960000D03*
%TD*%
D14*
%TO.P,R5,1*%
%TO.N,GND*%
X130197500Y-106250000D03*
%TO.P,R5,2*%
%TO.N,Net-(D1-K)*%
X131847500Y-106250000D03*
%TD*%
D15*
%TO.P,U5,1,GND*%
%TO.N,GND*%
X169740000Y-110730000D03*
D16*
X166720000Y-107160000D03*
X166710000Y-123200000D03*
D15*
%TO.P,U5,2,3.3V*%
%TO.N,+3.3V*%
X172260000Y-112000000D03*
%TO.P,U5,3,~{RST}*%
%TO.N,ETH_~{RST}*%
X169720000Y-113260000D03*
%TO.P,U5,4,TX*%
%TO.N,ETH_TX*%
X172260000Y-114540000D03*
%TO.P,U5,5,RX*%
%TO.N,ETH_RX*%
X169720000Y-115780000D03*
%TO.P,U5,6,CP1/RTS*%
%TO.N,ETH_RTS*%
X172260000Y-117080000D03*
%TO.P,U5,7,CP2/DTR*%
%TO.N,unconnected-(U5-CP2{slash}DTR-Pad7)*%
X169720000Y-118350000D03*
%TO.P,U5,8,CP3/CTS/DCD*%
%TO.N,ETH_CTS*%
X172260000Y-119610000D03*
%TD*%
D17*
%TO.P,U2,1,VBAT*%
%TO.N,+3.3V*%
X132675000Y-109500000D03*
%TO.P,U2,2,PC13*%
%TO.N,unconnected-(U2-PC13-Pad2)*%
X132675000Y-110000000D03*
%TO.P,U2,3,PC14*%
%TO.N,unconnected-(U2-PC14-Pad3)*%
X132675000Y-110500000D03*
%TO.P,U2,4,PC15*%
%TO.N,unconnected-(U2-PC15-Pad4)*%
X132675000Y-111000000D03*
%TO.P,U2,5,PD0*%
%TO.N,HSE_IN*%
X132675000Y-111500000D03*
%TO.P,U2,6,PD1*%
%TO.N,unconnected-(U2-PD1-Pad6)*%
X132675000Y-112000000D03*
%TO.P,U2,7,NRST*%
%TO.N,NRST*%
X132675000Y-112500000D03*
%TO.P,U2,8,VSSA*%
%TO.N,GND*%
X132675000Y-113000000D03*
%TO.P,U2,9,VDDA*%
%TO.N,+3.3V*%
X132675000Y-113500000D03*
%TO.P,U2,10,PA0*%
%TO.N,unconnected-(U2-PA0-Pad10)*%
X132675000Y-114000000D03*
%TO.P,U2,11,PA1*%
%TO.N,unconnected-(U2-PA1-Pad11)*%
X132675000Y-114500000D03*
%TO.P,U2,12,PA2*%
%TO.N,unconnected-(U2-PA2-Pad12)*%
X132675000Y-115000000D03*
D18*
%TO.P,U2,13,PA3*%
%TO.N,MEM_HOLD*%
X134087500Y-116412500D03*
%TO.P,U2,14,PA4*%
%TO.N,MEM_CS*%
X134587500Y-116412500D03*
%TO.P,U2,15,PA5*%
%TO.N,MEM_SCK*%
X135087500Y-116412500D03*
%TO.P,U2,16,PA6*%
%TO.N,MEM_MISO*%
X135587500Y-116412500D03*
%TO.P,U2,17,PA7*%
%TO.N,MEM_MOSI*%
X136087500Y-116412500D03*
%TO.P,U2,18,PB0*%
%TO.N,unconnected-(U2-PB0-Pad18)*%
X136587500Y-116412500D03*
%TO.P,U2,19,PB1*%
%TO.N,MEM_WP*%
X137087500Y-116412500D03*
%TO.P,U2,20,PB2*%
%TO.N,unconnected-(U2-PB2-Pad20)*%
X137587500Y-116412500D03*
%TO.P,U2,21,PB10*%
%TO.N,unconnected-(U2-PB10-Pad21)*%
X138087500Y-116412500D03*
%TO.P,U2,22,PB11*%
%TO.N,unconnected-(U2-PB11-Pad22)*%
X138587500Y-116412500D03*
%TO.P,U2,23,VSS*%
%TO.N,GND*%
X139087500Y-116412500D03*
%TO.P,U2,24,VDD*%
%TO.N,+3.3V*%
X139587500Y-116412500D03*
D17*
%TO.P,U2,25,PB12*%
%TO.N,unconnected-(U2-PB12-Pad25)*%
X141000000Y-115000000D03*
%TO.P,U2,26,PB13*%
%TO.N,unconnected-(U2-PB13-Pad26)*%
X141000000Y-114500000D03*
%TO.P,U2,27,PB14*%
%TO.N,unconnected-(U2-PB14-Pad27)*%
X141000000Y-114000000D03*
%TO.P,U2,28,PB15*%
%TO.N,unconnected-(U2-PB15-Pad28)*%
X141000000Y-113500000D03*
%TO.P,U2,29,PA8*%
%TO.N,ETH_CTS*%
X141000000Y-113000000D03*
%TO.P,U2,30,PA9*%
%TO.N,ETH_TX*%
X141000000Y-112500000D03*
%TO.P,U2,31,PA10*%
%TO.N,ETH_RX*%
X141000000Y-112000000D03*
%TO.P,U2,32,PA11*%
%TO.N,ETH_RTS*%
X141000000Y-111500000D03*
%TO.P,U2,33,PA12*%
%TO.N,ETH_~{RST}*%
X141000000Y-111000000D03*
%TO.P,U2,34,PA13*%
%TO.N,DEBUG_SWCLK*%
X141000000Y-110500000D03*
%TO.P,U2,35,VSS*%
%TO.N,GND*%
X141000000Y-110000000D03*
%TO.P,U2,36,VDD*%
%TO.N,+3.3V*%
X141000000Y-109500000D03*
D18*
%TO.P,U2,37,PA14*%
%TO.N,DEBUG_SWDIO*%
X139587500Y-108087500D03*
%TO.P,U2,38,PA15*%
%TO.N,unconnected-(U2-PA15-Pad38)*%
X139087500Y-108087500D03*
%TO.P,U2,39,PB3*%
%TO.N,unconnected-(U2-PB3-Pad39)*%
X138587500Y-108087500D03*
%TO.P,U2,40,PB4*%
%TO.N,ADS_DRDY*%
X138087500Y-108087500D03*
%TO.P,U2,41,PB5*%
%TO.N,unconnected-(U2-PB5-Pad41)*%
X137587500Y-108087500D03*
%TO.P,U2,42,PB6*%
%TO.N,ADS_CLK*%
X137087500Y-108087500D03*
%TO.P,U2,43,PB7*%
%TO.N,ADS_DATA*%
X136587500Y-108087500D03*
%TO.P,U2,44,BOOT0*%
%TO.N,GND*%
X136087500Y-108087500D03*
%TO.P,U2,45,PB8*%
%TO.N,unconnected-(U2-PB8-Pad45)*%
X135587500Y-108087500D03*
%TO.P,U2,46,PB9*%
%TO.N,unconnected-(U2-PB9-Pad46)*%
X135087500Y-108087500D03*
%TO.P,U2,47,VSS*%
%TO.N,GND*%
X134587500Y-108087500D03*
%TO.P,U2,48,VDD*%
%TO.N,+3.3V*%
X134087500Y-108087500D03*
%TD*%
D19*
%TO.P,C19,1*%
%TO.N,+3.3V*%
X136700000Y-97772500D03*
%TO.P,C19,2*%
%TO.N,GND*%
X134975000Y-97772500D03*
%TD*%
D13*
%TO.P,R1,1*%
%TO.N,ADS_DRDY*%
X136662500Y-102250000D03*
%TO.P,R1,2*%
%TO.N,+3.3V*%
X135012500Y-102250000D03*
%TD*%
D20*
%TO.P,C4,1*%
%TO.N,+3.3V*%
X169950000Y-125500000D03*
%TO.P,C4,2*%
%TO.N,GND*%
X171500000Y-125500000D03*
%TD*%
%TO.P,C2,1*%
%TO.N,GND*%
X131747500Y-118250000D03*
%TO.P,C2,2*%
%TO.N,+3.3V*%
X133297500Y-118250000D03*
%TD*%
D13*
%TO.P,R3,1*%
%TO.N,Net-(ADS1219-RESET)*%
X143162500Y-105250000D03*
%TO.P,R3,2*%
%TO.N,+3.3V*%
X141512500Y-105250000D03*
%TD*%
D21*
%TO.P,U3,1,GND*%
%TO.N,GND*%
X145537500Y-127900000D03*
%TO.P,U3,2,VO*%
%TO.N,+3.3V*%
X147837500Y-127900000D03*
D22*
X147837500Y-121600000D03*
D21*
%TO.P,U3,3,VI*%
%TO.N,VBUS*%
X150137500Y-127900000D03*
%TD*%
D23*
%TO.P,ADS1219,1,A0*%
%TO.N,GND*%
X145200000Y-102525000D03*
%TO.P,ADS1219,2,A1*%
X145200000Y-101875000D03*
%TO.P,ADS1219,3,RESET*%
%TO.N,Net-(ADS1219-RESET)*%
X145200000Y-101225000D03*
%TO.P,ADS1219,4,DGND*%
%TO.N,GND*%
X145200000Y-100575000D03*
%TO.P,ADS1219,5,AGND*%
X145200000Y-99925000D03*
%TO.P,ADS1219,6,AIN3*%
%TO.N,Net-(ADS1219-AIN3)*%
X145200000Y-99275000D03*
%TO.P,ADS1219,7,AIN2*%
%TO.N,Net-(ADS1219-AIN2)*%
X145200000Y-98625000D03*
%TO.P,ADS1219,8,REFN*%
%TO.N,GND*%
X145200000Y-97975000D03*
%TO.P,ADS1219,9,REFP*%
%TO.N,+3.3V*%
X139475000Y-97975000D03*
%TO.P,ADS1219,10,AIN1*%
%TO.N,unconnected-(ADS1219-AIN1-Pad10)*%
X139475000Y-98625000D03*
%TO.P,ADS1219,11,AIN0*%
%TO.N,unconnected-(ADS1219-AIN0-Pad11)*%
X139475000Y-99275000D03*
%TO.P,ADS1219,12,AVDD*%
%TO.N,+3.3V*%
X139475000Y-99925000D03*
%TO.P,ADS1219,13,DVDD*%
X139475000Y-100575000D03*
%TO.P,ADS1219,14,DRDY*%
%TO.N,ADS_DRDY*%
X139475000Y-101225000D03*
%TO.P,ADS1219,15,SDA*%
%TO.N,ADS_DATA*%
X139475000Y-101875000D03*
%TO.P,ADS1219,16,SCL*%
%TO.N,ADS_CLK*%
X139475000Y-102525000D03*
%TD*%
D24*
%TO.P,Y1,1,1*%
%TO.N,unconnected-(Y1-Pad1)*%
X126462500Y-112450000D03*
%TO.P,Y1,2,2*%
%TO.N,GND*%
X128212500Y-112450000D03*
%TO.P,Y1,3,3*%
%TO.N,HSE_IN*%
X128212500Y-111050000D03*
%TO.P,Y1,4,4*%
%TO.N,+3.3V*%
X126462500Y-111050000D03*
%TD*%
D25*
%TO.P,D1,1,K*%
%TO.N,Net-(D1-K)*%
X131947500Y-104250000D03*
%TO.P,D1,2,A*%
%TO.N,+3.3V*%
X133522500Y-104250000D03*
%TD*%
D26*
%TO.P,J2,1,Pin_1*%
%TO.N,VIN*%
X182500000Y-134080000D03*
D27*
%TO.P,J2,2,Pin_2*%
%TO.N,GND*%
X182500000Y-129000000D03*
%TD*%
D28*
%TO.P,J1,1,VCC*%
%TO.N,+3.3V*%
X144550000Y-113460000D03*
%TO.P,J1,2,SWDIO/TMS*%
%TO.N,DEBUG_SWDIO*%
X148450000Y-113460000D03*
%TO.P,J1,3,GND*%
%TO.N,GND*%
X144550000Y-114730000D03*
%TO.P,J1,4,SWDCLK/TCK*%
%TO.N,DEBUG_SWCLK*%
X148450000Y-114730000D03*
%TO.P,J1,5,GND*%
%TO.N,GND*%
X144550000Y-116000000D03*
%TO.P,J1,6,SWO/TDO*%
%TO.N,unconnected-(J1-SWO{slash}TDO-Pad6)*%
X148450000Y-116000000D03*
%TO.P,J1,7*%
%TO.N,unconnected-(J1-Pad7)*%
X144550000Y-117270000D03*
%TO.P,J1,8,NC/TDI*%
%TO.N,unconnected-(J1-NC{slash}TDI-Pad8)*%
X148450000Y-117270000D03*
%TO.P,J1,9,GND_Detect*%
%TO.N,GND*%
X144550000Y-118540000D03*
%TO.P,J1,10,~{RST}*%
%TO.N,NRST*%
X148450000Y-118540000D03*
%TD*%
D29*
%TO.P,C1,1*%
%TO.N,+3.3V*%
X136612500Y-100750000D03*
%TO.P,C1,2*%
%TO.N,GND*%
X135062500Y-100750000D03*
%TD*%
D30*
%TO.P,C13,2*%
%TO.N,GND*%
X188000000Y-105325000D03*
%TO.P,C13,1*%
%TO.N,VLC*%
X188000000Y-103775000D03*
%TD*%
%TO.P,C14,1*%
%TO.N,+3.3V*%
X130522500Y-108250000D03*
%TO.P,C14,2*%
%TO.N,GND*%
X130522500Y-109800000D03*
%TD*%
D29*
%TO.P,C7,1*%
%TO.N,GND*%
X135022500Y-106250000D03*
%TO.P,C7,2*%
%TO.N,+3.3V*%
X133472500Y-106250000D03*
%TD*%
D31*
%TO.P,U1,1,~{CE}*%
%TO.N,MEM_CS*%
X134432500Y-127400000D03*
%TO.P,U1,2,SO*%
%TO.N,MEM_MISO*%
X135702500Y-127400000D03*
%TO.P,U1,3,~{WP}*%
%TO.N,MEM_WP*%
X136972500Y-127400000D03*
%TO.P,U1,4,VSS*%
%TO.N,GND*%
X138242500Y-127400000D03*
%TO.P,U1,5,SI*%
%TO.N,MEM_MOSI*%
X138242500Y-120100000D03*
%TO.P,U1,6,SCK*%
%TO.N,MEM_SCK*%
X136972500Y-120100000D03*
%TO.P,U1,7,~{HOLD}*%
%TO.N,MEM_HOLD*%
X135702500Y-120100000D03*
%TO.P,U1,8,VDD*%
%TO.N,+3.3V*%
X134432500Y-120100000D03*
%TD*%
D32*
%TO.P,L2,2*%
%TO.N,VBUS*%
X184220000Y-105317500D03*
%TO.P,L2,1*%
%TO.N,VLC*%
X184220000Y-103742500D03*
%TD*%
D33*
%TO.P,C20,1*%
%TO.N,Net-(ADS1219-AIN3)*%
X147700000Y-99735000D03*
%TO.P,C20,2*%
%TO.N,Net-(ADS1219-AIN2)*%
X147700000Y-98185000D03*
%TD*%
D19*
%TO.P,C16,1*%
%TO.N,+3.3V*%
X136700000Y-99250000D03*
%TO.P,C16,2*%
%TO.N,GND*%
X134975000Y-99250000D03*
%TD*%
D33*
%TO.P,C8,1*%
%TO.N,GND*%
X130522500Y-116525000D03*
%TO.P,C8,2*%
%TO.N,+3.3V*%
X130522500Y-114975000D03*
%TD*%
D20*
%TO.P,C3,1*%
%TO.N,GND*%
X138747500Y-118250000D03*
%TO.P,C3,2*%
%TO.N,+3.3V*%
X140297500Y-118250000D03*
%TD*%
D33*
%TO.P,C6,1*%
%TO.N,GND*%
X142837500Y-109525000D03*
%TO.P,C6,2*%
%TO.N,+3.3V*%
X142837500Y-107975000D03*
%TD*%
%TO.P,C5,1*%
%TO.N,GND*%
X130522500Y-113525000D03*
%TO.P,C5,2*%
%TO.N,NRST*%
X130522500Y-111975000D03*
%TD*%
D13*
%TO.P,R4,1*%
%TO.N,AIN-*%
X151025000Y-97960000D03*
%TO.P,R4,2*%
%TO.N,Net-(ADS1219-AIN2)*%
X149375000Y-97960000D03*
%TD*%
D30*
%TO.P,C10,1*%
%TO.N,GND*%
X175000000Y-132725000D03*
%TO.P,C10,2*%
%TO.N,VIN*%
X175000000Y-134275000D03*
%TD*%
D33*
%TO.P,C12,1*%
%TO.N,GND*%
X175000000Y-129775000D03*
%TO.P,C12,2*%
%TO.N,VBUS*%
X175000000Y-128225000D03*
%TD*%
D20*
%TO.P,C11,1*%
%TO.N,GND*%
X145787500Y-130250000D03*
%TO.P,C11,2*%
%TO.N,+3.3V*%
X147337500Y-130250000D03*
%TD*%
D30*
%TO.P,C18,2*%
%TO.N,GND*%
X186000000Y-105325000D03*
%TO.P,C18,1*%
%TO.N,VLC*%
X186000000Y-103775000D03*
%TD*%
D20*
%TO.P,C9,1*%
%TO.N,GND*%
X149062500Y-130250000D03*
%TO.P,C9,2*%
%TO.N,VBUS*%
X150612500Y-130250000D03*
%TD*%
D34*
%TO.N,VLC*%
X188000000Y-99000000D03*
%TO.N,+3.3V*%
X142337500Y-113250000D03*
X141337500Y-106575000D03*
X141837500Y-118250000D03*
X141337500Y-107775000D03*
%TO.N,GND*%
X143837500Y-100250000D03*
X139837500Y-119750000D03*
X139837500Y-127250000D03*
X133337500Y-99250000D03*
X146337500Y-118660000D03*
X145337500Y-96750000D03*
X144061765Y-102474266D03*
X142837500Y-128250000D03*
X129337500Y-109750000D03*
X145837500Y-132750000D03*
X128837500Y-106250000D03*
X134837500Y-105250000D03*
X148837500Y-132750000D03*
X187000000Y-106500000D03*
X128837500Y-113750000D03*
X130337500Y-118250000D03*
X144112500Y-109525000D03*
%TO.N,MEM_CS*%
X134337500Y-121750000D03*
X134337500Y-114750000D03*
%TO.N,MEM_WP*%
X137337500Y-115000000D03*
X137337500Y-121750000D03*
%TO.N,MEM_MISO*%
X135837500Y-114750000D03*
X135837500Y-121750000D03*
%TO.N,ETH_~{RST}*%
X137000000Y-111000000D03*
X163500000Y-112000000D03*
%TO.N,ETH_RX*%
X138000000Y-112000000D03*
X163500000Y-114000000D03*
%TO.N,ETH_TX*%
X138500000Y-112500000D03*
X163500000Y-115000000D03*
%TO.N,ETH_RTS*%
X137500000Y-111500000D03*
X163500000Y-113000000D03*
%TO.N,ETH_CTS*%
X139000000Y-113000000D03*
X163500000Y-116000000D03*
%TD*%
D35*
%TO.N,ETH_RTS*%
X163500000Y-113000000D02*
X165000000Y-114500000D01*
%TO.N,ETH_~{RST}*%
X163500000Y-112000000D02*
X164760000Y-113260000D01*
X164760000Y-113260000D02*
X169720000Y-113260000D01*
%TO.N,ETH_RX*%
X163500000Y-114000000D02*
X165600000Y-116100000D01*
X165600000Y-116100000D02*
X169400000Y-116100000D01*
%TO.N,ETH_TX*%
X167503254Y-117100000D02*
X165600000Y-117100000D01*
X165600000Y-117100000D02*
X163500000Y-115000000D01*
%TO.N,ETH_CTS*%
X172250000Y-119600000D02*
X167100000Y-119600000D01*
X167100000Y-119600000D02*
X163500000Y-116000000D01*
D36*
%TO.N,VLC*%
X188000000Y-103775000D02*
X188000000Y-99000000D01*
X186000000Y-103775000D02*
X188000000Y-103775000D01*
X184220000Y-103742500D02*
X185967500Y-103742500D01*
%TO.N,AIN+*%
X151025000Y-99960000D02*
X154565000Y-103500000D01*
X154565000Y-103500000D02*
X180000000Y-103500000D01*
X180000000Y-103500000D02*
X180010000Y-103490000D01*
X180010000Y-103490000D02*
X180010000Y-100930000D01*
%TO.N,AIN-*%
X151025000Y-97960000D02*
X154985000Y-94000000D01*
X180000000Y-94000000D02*
X180010000Y-94010000D01*
X154985000Y-94000000D02*
X180000000Y-94000000D01*
X180010000Y-94010000D02*
X180010000Y-96930000D01*
%TO.N,+3.3V*%
X144340000Y-113250000D02*
X144550000Y-113460000D01*
D35*
X141512500Y-101817894D02*
X140269606Y-100575000D01*
X131337500Y-113996880D02*
X131834380Y-113500000D01*
X139475000Y-100575000D02*
X136787500Y-100575000D01*
X133472500Y-106250000D02*
X133472500Y-104300000D01*
X130522500Y-114975000D02*
X128112500Y-114975000D01*
X132647500Y-107075000D02*
X129012500Y-107075000D01*
X130837500Y-102250000D02*
X131337500Y-101750000D01*
X133297500Y-118250000D02*
X133297500Y-128140000D01*
D36*
X141988972Y-118250000D02*
X141837500Y-118250000D01*
D35*
X139475000Y-99925000D02*
X137375000Y-99925000D01*
X128887500Y-108250000D02*
X126462500Y-110675000D01*
X141512500Y-105250000D02*
X141512500Y-101817894D01*
D36*
X142067500Y-118328528D02*
X141988972Y-118250000D01*
X142067500Y-120020000D02*
X142067500Y-118328528D01*
D35*
X129337500Y-108250000D02*
X127837500Y-108250000D01*
X139587500Y-117500000D02*
X139587500Y-116412500D01*
X133472500Y-106250000D02*
X132647500Y-107075000D01*
D36*
X169950000Y-125500000D02*
X147837500Y-125500000D01*
D35*
X124837500Y-119680000D02*
X133372500Y-128215000D01*
X130612500Y-114975000D02*
X131337500Y-114250000D01*
X140269606Y-100575000D02*
X139475000Y-100575000D01*
D36*
X175500000Y-112000000D02*
X172260000Y-112000000D01*
D35*
X133372500Y-128215000D02*
X134007500Y-128850000D01*
D36*
X143647500Y-121600000D02*
X142067500Y-120020000D01*
D35*
X127837500Y-108250000D02*
X124837500Y-108250000D01*
D36*
X147837500Y-121600000D02*
X147837500Y-125500000D01*
X175500000Y-120000000D02*
X175500000Y-112000000D01*
D35*
X136612500Y-100750000D02*
X136612500Y-99337500D01*
X124837500Y-108250000D02*
X130837500Y-102250000D01*
X141312500Y-109500000D02*
X142837500Y-107975000D01*
X129012500Y-107075000D02*
X127837500Y-108250000D01*
X124837500Y-108250000D02*
X124837500Y-118250000D01*
X131834380Y-113500000D02*
X132675000Y-113500000D01*
X126462500Y-110675000D02*
X126462500Y-111050000D01*
X141337500Y-106575000D02*
X141337500Y-105425000D01*
X124837500Y-118250000D02*
X124837500Y-119680000D01*
D36*
X147837500Y-125500000D02*
X147837500Y-127900000D01*
D35*
X131425000Y-108250000D02*
X132675000Y-109500000D01*
X131337500Y-101750000D02*
X131337500Y-96750000D01*
D36*
X142067500Y-120020000D02*
X140297500Y-118250000D01*
D35*
X133297500Y-128140000D02*
X133372500Y-128215000D01*
X136337500Y-96250000D02*
X136700000Y-96612500D01*
X133297500Y-118250000D02*
X133297500Y-118965000D01*
X134087500Y-108087500D02*
X134087500Y-106865000D01*
X140297500Y-118210000D02*
X139587500Y-117500000D01*
X130837500Y-102250000D02*
X135012500Y-102250000D01*
X136700000Y-96612500D02*
X136700000Y-97772500D01*
D36*
X142337500Y-113250000D02*
X144340000Y-113250000D01*
D35*
X130522500Y-108250000D02*
X131425000Y-108250000D01*
X128112500Y-114975000D02*
X124837500Y-118250000D01*
X133297500Y-118965000D02*
X134432500Y-120100000D01*
X134087500Y-106865000D02*
X133472500Y-106250000D01*
X134007500Y-128850000D02*
X140587500Y-128850000D01*
X140587500Y-128850000D02*
X147837500Y-121600000D01*
X129337500Y-108250000D02*
X128887500Y-108250000D01*
D36*
X175450000Y-120000000D02*
X175500000Y-120000000D01*
D35*
X137375000Y-99925000D02*
X136700000Y-99250000D01*
X131337500Y-96750000D02*
X131837500Y-96250000D01*
X136700000Y-99250000D02*
X136700000Y-97772500D01*
X131337500Y-114250000D02*
X131337500Y-113996880D01*
D36*
X169950000Y-125500000D02*
X175450000Y-120000000D01*
D35*
X141537500Y-107975000D02*
X141337500Y-107775000D01*
X131837500Y-96250000D02*
X136337500Y-96250000D01*
D36*
X147337500Y-130250000D02*
X147337500Y-128400000D01*
D35*
X130522500Y-108250000D02*
X129337500Y-108250000D01*
X139475000Y-97975000D02*
X136902500Y-97975000D01*
X142837500Y-107975000D02*
X141537500Y-107975000D01*
D36*
X147837500Y-121600000D02*
X143647500Y-121600000D01*
D35*
%TO.N,GND*%
X130522500Y-116525000D02*
X130522500Y-118065000D01*
X145200000Y-97975000D02*
X145200000Y-96887500D01*
X131047500Y-113000000D02*
X130522500Y-113525000D01*
D36*
X146250000Y-116000000D02*
X146337500Y-116087500D01*
D35*
X130197500Y-106250000D02*
X128837500Y-106250000D01*
X134587500Y-106685000D02*
X135022500Y-106250000D01*
X135472500Y-106250000D02*
X135022500Y-106250000D01*
D36*
X144550000Y-114730000D02*
X144550000Y-116000000D01*
D35*
X144112500Y-109525000D02*
X142837500Y-109525000D01*
D36*
X145537500Y-127900000D02*
X143187500Y-127900000D01*
D35*
X132675000Y-113000000D02*
X131047500Y-113000000D01*
X138747500Y-118660000D02*
X139837500Y-119750000D01*
X129387500Y-109800000D02*
X129337500Y-109750000D01*
D36*
X128212500Y-112450000D02*
X129447500Y-112450000D01*
X145787500Y-132700000D02*
X145837500Y-132750000D01*
X135062500Y-100750000D02*
X135062500Y-99337500D01*
D35*
X139087500Y-117910000D02*
X139087500Y-116412500D01*
X136087500Y-106865000D02*
X135472500Y-106250000D01*
X136087500Y-108087500D02*
X136087500Y-106865000D01*
X139687500Y-127400000D02*
X139837500Y-127250000D01*
X144162500Y-100575000D02*
X143837500Y-100250000D01*
X135022500Y-106250000D02*
X135022500Y-105435000D01*
D36*
X146217500Y-118540000D02*
X146337500Y-118660000D01*
D35*
X130522500Y-109800000D02*
X129387500Y-109800000D01*
D36*
X129062500Y-113525000D02*
X128837500Y-113750000D01*
X145787500Y-130250000D02*
X145787500Y-132700000D01*
D35*
X141000000Y-110000000D02*
X142362500Y-110000000D01*
D36*
X175000000Y-129775000D02*
X175000000Y-132725000D01*
X143187500Y-127900000D02*
X142837500Y-128250000D01*
X134975000Y-99250000D02*
X133337500Y-99250000D01*
X146337500Y-116087500D02*
X146337500Y-118660000D01*
D35*
X138747500Y-118250000D02*
X138747500Y-118660000D01*
D36*
X149062500Y-132525000D02*
X148837500Y-132750000D01*
X129447500Y-112450000D02*
X130522500Y-113525000D01*
D35*
X135022500Y-105435000D02*
X134837500Y-105250000D01*
X145200000Y-101875000D02*
X145200000Y-102525000D01*
X142362500Y-110000000D02*
X142837500Y-109525000D01*
X134587500Y-108087500D02*
X134587500Y-106685000D01*
X145200000Y-99925000D02*
X145200000Y-100575000D01*
X138747500Y-118250000D02*
X139087500Y-117910000D01*
D36*
X130522500Y-113525000D02*
X129062500Y-113525000D01*
X134975000Y-97772500D02*
X134975000Y-99250000D01*
D35*
X144112499Y-102525000D02*
X144061765Y-102474266D01*
X131747500Y-118250000D02*
X130337500Y-118250000D01*
D36*
X149062500Y-130250000D02*
X149062500Y-132525000D01*
D35*
X130522500Y-118065000D02*
X130337500Y-118250000D01*
D36*
X187000000Y-106500000D02*
X188000000Y-105500000D01*
X144550000Y-118540000D02*
X146217500Y-118540000D01*
D35*
X145200000Y-100575000D02*
X144162500Y-100575000D01*
X138242500Y-127400000D02*
X139687500Y-127400000D01*
D36*
X187000000Y-106500000D02*
X186000000Y-105500000D01*
D35*
X145200000Y-96887500D02*
X145337500Y-96750000D01*
D36*
X144550000Y-116000000D02*
X146250000Y-116000000D01*
D35*
X145200000Y-102525000D02*
X144112499Y-102525000D01*
%TO.N,NRST*%
X131047500Y-112500000D02*
X130522500Y-111975000D01*
X148450000Y-118540000D02*
X147730000Y-119260000D01*
X143000000Y-118412500D02*
X138437500Y-113850000D01*
X143000000Y-119260000D02*
X143000000Y-118412500D01*
X138437500Y-113850000D02*
X134937500Y-113850000D01*
X134937500Y-113850000D02*
X133587500Y-112500000D01*
X133587500Y-112500000D02*
X132675000Y-112500000D01*
X132675000Y-112500000D02*
X131047500Y-112500000D01*
X147730000Y-119260000D02*
X143000000Y-119260000D01*
D36*
%TO.N,VBUS*%
X175000000Y-125000000D02*
X183000000Y-125000000D01*
X172000000Y-128000000D02*
X175000000Y-125000000D01*
X173315000Y-128225000D02*
X172040000Y-129500000D01*
X172000000Y-129460000D02*
X172000000Y-128000000D01*
X183000000Y-125000000D02*
X184220000Y-123780000D01*
X175000000Y-128225000D02*
X173315000Y-128225000D01*
D35*
%TO.N,Net-(ADS1219-AIN3)*%
X145200000Y-99275000D02*
X147100000Y-99275000D01*
D36*
X149375000Y-99960000D02*
X147925000Y-99960000D01*
D35*
X147100000Y-99275000D02*
X147600000Y-99775000D01*
%TO.N,Net-(ADS1219-AIN2)*%
X145200000Y-98625000D02*
X147200000Y-98625000D01*
X147200000Y-98625000D02*
X147600000Y-98225000D01*
D36*
X149375000Y-97960000D02*
X147925000Y-97960000D01*
D35*
%TO.N,Net-(D1-K)*%
X131947500Y-104250000D02*
X131947500Y-106150000D01*
%TO.N,DEBUG_SWCLK*%
X148450000Y-114730000D02*
X146857500Y-114730000D01*
X146857500Y-114730000D02*
X146837500Y-114750000D01*
X146837500Y-113477500D02*
X143860000Y-110500000D01*
X143860000Y-110500000D02*
X141000000Y-110500000D01*
X146837500Y-114750000D02*
X146837500Y-113477500D01*
%TO.N,DEBUG_SWDIO*%
X140500000Y-107175000D02*
X139587500Y-108087500D01*
X143331908Y-107175000D02*
X140500000Y-107175000D01*
X148450000Y-113460000D02*
X148450000Y-112293092D01*
X148450000Y-112293092D02*
X143331908Y-107175000D01*
%TO.N,ADS_DRDY*%
X136662500Y-102250000D02*
X137337500Y-102250000D01*
X140562500Y-102814168D02*
X140562500Y-101575001D01*
X138087500Y-105289168D02*
X140562500Y-102814168D01*
X137337500Y-102250000D02*
X138362500Y-101225000D01*
X138362500Y-101225000D02*
X139475000Y-101225000D01*
X138087500Y-108087500D02*
X138087500Y-105289168D01*
X140562500Y-101575001D02*
X140212499Y-101225000D01*
X140212499Y-101225000D02*
X139475000Y-101225000D01*
%TO.N,MEM_SCK*%
X136972500Y-120100000D02*
X136972500Y-119138120D01*
X136972500Y-119138120D02*
X135087500Y-117253120D01*
X135087500Y-117253120D02*
X135087500Y-116412500D01*
%TO.N,MEM_HOLD*%
X134087500Y-117253120D02*
X134087500Y-116412500D01*
X135702500Y-118868120D02*
X134087500Y-117253120D01*
X135702500Y-120100000D02*
X135702500Y-118868120D01*
%TO.N,MEM_CS*%
X134432500Y-127400000D02*
X134432500Y-121845000D01*
X134337500Y-114750000D02*
X134587500Y-115000000D01*
X134587500Y-115000000D02*
X134587500Y-116412500D01*
X134432500Y-121845000D02*
X134337500Y-121750000D01*
%TO.N,MEM_MOSI*%
X136087500Y-117420000D02*
X136087500Y-116412500D01*
X138242500Y-119575000D02*
X136087500Y-117420000D01*
%TO.N,MEM_WP*%
X136972500Y-127400000D02*
X136972500Y-122115000D01*
X137087500Y-115250000D02*
X137087500Y-116412500D01*
X137337500Y-115000000D02*
X137087500Y-115250000D01*
X136972500Y-122115000D02*
X137337500Y-121750000D01*
%TO.N,MEM_MISO*%
X135702500Y-121885000D02*
X135837500Y-121750000D01*
X135587500Y-115000000D02*
X135587500Y-116412500D01*
X135837500Y-114750000D02*
X135587500Y-115000000D01*
X135702500Y-127400000D02*
X135702500Y-121885000D01*
%TO.N,HSE_IN*%
X128212500Y-111050000D02*
X131384380Y-111050000D01*
X131384380Y-111050000D02*
X131834380Y-111500000D01*
X131834380Y-111500000D02*
X132675000Y-111500000D01*
%TO.N,ADS_DATA*%
X136587500Y-104025001D02*
X136587500Y-108087500D01*
X139475000Y-101875000D02*
X138737501Y-101875000D01*
X138737501Y-101875000D02*
X136587500Y-104025001D01*
%TO.N,ADS_CLK*%
X139475000Y-102525000D02*
X138794607Y-102525000D01*
X138794607Y-102525000D02*
X137087500Y-104232107D01*
X137087500Y-104232107D02*
X137087500Y-108087500D01*
%TO.N,Net-(ADS1219-RESET)*%
X144462501Y-101225000D02*
X145200000Y-101225000D01*
X143162500Y-105250000D02*
X143162500Y-102525001D01*
X143162500Y-102525001D02*
X144462501Y-101225000D01*
%TO.N,ETH_~{RST}*%
X139869850Y-110900000D02*
X137100000Y-110900000D01*
X141000000Y-111000000D02*
X139969850Y-111000000D01*
X137100000Y-110900000D02*
X137000000Y-111000000D01*
X139969850Y-111000000D02*
X139869850Y-110900000D01*
%TO.N,ETH_RX*%
X139455636Y-111900000D02*
X138100000Y-111900000D01*
X138100000Y-111900000D02*
X138000000Y-112000000D01*
X139555636Y-112000000D02*
X139455636Y-111900000D01*
X141000000Y-112000000D02*
X139555636Y-112000000D01*
%TO.N,ETH_TX*%
X141000000Y-112500000D02*
X139348529Y-112500000D01*
X138600000Y-112400000D02*
X138500000Y-112500000D01*
X167503254Y-117100000D02*
X167622855Y-117100000D01*
X170400000Y-117100000D02*
X172260000Y-115240000D01*
X167622855Y-117100000D02*
X170400000Y-117100000D01*
X172260000Y-115240000D02*
X172260000Y-114540000D01*
X139348529Y-112500000D02*
X139248529Y-112400000D01*
X139248529Y-112400000D02*
X138600000Y-112400000D01*
%TO.N,ETH_RTS*%
X170407537Y-114500000D02*
X171607537Y-113300000D01*
X165000000Y-114500000D02*
X170407537Y-114500000D01*
X173600000Y-113997537D02*
X173600000Y-115740000D01*
X137600000Y-111400000D02*
X137500000Y-111500000D01*
X139662743Y-111400000D02*
X137600000Y-111400000D01*
X171607537Y-113300000D02*
X172902463Y-113300000D01*
X172902463Y-113300000D02*
X173600000Y-113997537D01*
X173600000Y-115740000D02*
X172260000Y-117080000D01*
X139762743Y-111500000D02*
X139662743Y-111400000D01*
X141000000Y-111500000D02*
X139762743Y-111500000D01*
%TO.N,ETH_CTS*%
X141000000Y-113000000D02*
X139000000Y-113000000D01*
D36*
%TO.N,VBUS*%
X184220000Y-123780000D02*
X184220000Y-105317500D01*
%TD*%
%TA.AperFunction,Conductor*%
%TO.N,VBUS*%
G36*
X153501836Y-127500054D02*
G01*
X170499986Y-128000000D01*
X170500000Y-128000000D01*
X173376000Y-128000000D01*
X173443039Y-128019685D01*
X173488794Y-128072489D01*
X173500000Y-128124000D01*
X173500000Y-130376000D01*
X173480315Y-130443039D01*
X173427511Y-130488794D01*
X173376000Y-130500000D01*
X153500000Y-130500000D01*
X152019089Y-130993637D01*
X151979877Y-131000000D01*
X150124000Y-131000000D01*
X150056961Y-130980315D01*
X150011206Y-130927511D01*
X150000000Y-130876000D01*
X150000000Y-127624000D01*
X150019685Y-127556961D01*
X150072489Y-127511206D01*
X150124000Y-127500000D01*
X153498191Y-127500000D01*
X153501836Y-127500054D01*
G37*
%TD.AperFunction*%
%TD*%
%TA.AperFunction,Conductor*%
%TO.N,GND*%
G36*
X139809711Y-118905473D02*
G01*
X139833762Y-118916980D01*
X139842274Y-118921628D01*
X139970386Y-118969412D01*
X140027015Y-118975500D01*
X140212045Y-118975499D01*
X140307332Y-118994452D01*
X140388114Y-119048428D01*
X143247000Y-121907314D01*
X143246999Y-121907314D01*
X143300098Y-121960412D01*
X143340186Y-122000500D01*
X143447180Y-122062273D01*
X143454314Y-122066392D01*
X143454318Y-122066393D01*
X143581604Y-122100500D01*
X143581607Y-122100500D01*
X143581608Y-122100500D01*
X145467230Y-122100500D01*
X145562518Y-122119454D01*
X145643300Y-122173430D01*
X145697276Y-122254212D01*
X145703591Y-122271177D01*
X145738653Y-122376985D01*
X145752686Y-122419334D01*
X145796920Y-122491049D01*
X145837952Y-122557574D01*
X145844788Y-122568656D01*
X145897551Y-122621419D01*
X145951525Y-122702198D01*
X145970479Y-122797486D01*
X145951525Y-122892774D01*
X145897549Y-122973556D01*
X140494537Y-128376570D01*
X140413755Y-128430546D01*
X140318467Y-128449500D01*
X139316500Y-128449500D01*
X139221212Y-128430546D01*
X139140430Y-128376570D01*
X139086454Y-128295788D01*
X139067500Y-128200500D01*
X139067500Y-127650001D01*
X139067499Y-127650000D01*
X138241500Y-127650000D01*
X138146212Y-127631046D01*
X138065430Y-127577070D01*
X138011454Y-127496288D01*
X137992500Y-127401000D01*
X137992500Y-126050001D01*
X138492500Y-126050001D01*
X138492500Y-127149999D01*
X138492501Y-127150000D01*
X139067499Y-127150000D01*
X139067500Y-127149999D01*
X139067500Y-126502175D01*
X139067499Y-126502167D01*
X139061098Y-126442628D01*
X139061096Y-126442621D01*
X139010853Y-126307912D01*
X138924689Y-126192812D01*
X138924687Y-126192810D01*
X138809587Y-126106646D01*
X138674878Y-126056403D01*
X138674871Y-126056401D01*
X138615332Y-126050000D01*
X138492501Y-126050000D01*
X138492500Y-126050001D01*
X137992500Y-126050001D01*
X137992499Y-126050000D01*
X137869667Y-126050000D01*
X137810128Y-126056401D01*
X137810118Y-126056403D01*
X137709015Y-126094113D01*
X137613111Y-126109653D01*
X137518561Y-126087310D01*
X137439757Y-126030484D01*
X137388699Y-125947827D01*
X137373000Y-125860812D01*
X137373000Y-122447605D01*
X137391954Y-122352317D01*
X137445930Y-122271535D01*
X137526712Y-122217559D01*
X137545105Y-122211070D01*
X137547549Y-122209953D01*
X137547553Y-122209953D01*
X137668628Y-122132143D01*
X137762877Y-122023373D01*
X137822665Y-121892457D01*
X137843147Y-121750000D01*
X137822665Y-121607543D01*
X137797728Y-121552939D01*
X137775385Y-121458388D01*
X137790925Y-121362484D01*
X137841984Y-121279828D01*
X137920787Y-121223002D01*
X138015338Y-121200659D01*
X138024226Y-121200500D01*
X138592175Y-121200500D01*
X138592175Y-121200499D01*
X138665240Y-121185966D01*
X138748101Y-121130601D01*
X138803466Y-121047740D01*
X138818000Y-120974674D01*
X138818000Y-119470576D01*
X138836954Y-119375288D01*
X138890930Y-119294506D01*
X138971712Y-119240530D01*
X139041697Y-119222865D01*
X139120109Y-119214855D01*
X139120112Y-119214854D01*
X139280980Y-119161548D01*
X139425231Y-119072572D01*
X139538354Y-118959450D01*
X139619135Y-118905473D01*
X139714423Y-118886519D01*
X139809711Y-118905473D01*
G37*
%TD.AperFunction*%
%TA.AperFunction,Conductor*%
G36*
X131610209Y-115097219D02*
G01*
X131684759Y-115159520D01*
X131716550Y-115210531D01*
X131741752Y-115264578D01*
X131822921Y-115345747D01*
X131926950Y-115394257D01*
X131926952Y-115394258D01*
X131926953Y-115394258D01*
X131926955Y-115394259D01*
X131974361Y-115400500D01*
X133375638Y-115400499D01*
X133412484Y-115395649D01*
X133509430Y-115402005D01*
X133596565Y-115444977D01*
X133660622Y-115518023D01*
X133691850Y-115610022D01*
X133691850Y-115675019D01*
X133687000Y-115711859D01*
X133687000Y-117275500D01*
X133668046Y-117370788D01*
X133614070Y-117451570D01*
X133533288Y-117505546D01*
X133438001Y-117524500D01*
X133027024Y-117524500D01*
X133027014Y-117524501D01*
X132970389Y-117530587D01*
X132970380Y-117530589D01*
X132842273Y-117578371D01*
X132833755Y-117583023D01*
X132741039Y-117612054D01*
X132644271Y-117603393D01*
X132558183Y-117558360D01*
X132538354Y-117540550D01*
X132425229Y-117427425D01*
X132280983Y-117338453D01*
X132120103Y-117285144D01*
X132020817Y-117275000D01*
X131997501Y-117275000D01*
X131997500Y-117275001D01*
X131997500Y-119224998D01*
X131997501Y-119224999D01*
X132020804Y-119224999D01*
X132020820Y-119224998D01*
X132120109Y-119214855D01*
X132120112Y-119214854D01*
X132280980Y-119161548D01*
X132425229Y-119072574D01*
X132471930Y-119025874D01*
X132552712Y-118971898D01*
X132648000Y-118952944D01*
X132743288Y-118971898D01*
X132824070Y-119025874D01*
X132878046Y-119106656D01*
X132897000Y-119201944D01*
X132897000Y-126571967D01*
X132878046Y-126667255D01*
X132824070Y-126748037D01*
X132743288Y-126802013D01*
X132648000Y-126820967D01*
X132552712Y-126802013D01*
X132471930Y-126748037D01*
X125310930Y-119587037D01*
X125256954Y-119506255D01*
X125238000Y-119410967D01*
X125238000Y-118519033D01*
X125241786Y-118500001D01*
X130797501Y-118500001D01*
X130797501Y-118548320D01*
X130807644Y-118647609D01*
X130807645Y-118647612D01*
X130860951Y-118808480D01*
X130949925Y-118952729D01*
X131069770Y-119072574D01*
X131214016Y-119161546D01*
X131374896Y-119214855D01*
X131474187Y-119224999D01*
X131474188Y-119224999D01*
X131497500Y-119224998D01*
X131497500Y-118500001D01*
X131497499Y-118500000D01*
X130797502Y-118500000D01*
X130797501Y-118500001D01*
X125241786Y-118500001D01*
X125256954Y-118423745D01*
X125310930Y-118342963D01*
X126878892Y-116775001D01*
X129547501Y-116775001D01*
X129547501Y-116798320D01*
X129557644Y-116897609D01*
X129557645Y-116897612D01*
X129610951Y-117058480D01*
X129699925Y-117202729D01*
X129819770Y-117322574D01*
X129964016Y-117411546D01*
X130124896Y-117464855D01*
X130224187Y-117474999D01*
X130272500Y-117474998D01*
X130272500Y-116775001D01*
X130772500Y-116775001D01*
X130772500Y-117474998D01*
X130784226Y-117486724D01*
X130838202Y-117567506D01*
X130857156Y-117662794D01*
X130844518Y-117741114D01*
X130807644Y-117852394D01*
X130797500Y-117951682D01*
X130797500Y-117999999D01*
X130797501Y-118000000D01*
X131497499Y-118000000D01*
X131497500Y-117999999D01*
X131497500Y-117271495D01*
X131450577Y-117201274D01*
X131431622Y-117105986D01*
X131444260Y-117027661D01*
X131487355Y-116897603D01*
X131497499Y-116798317D01*
X131497500Y-116798307D01*
X131497500Y-116775001D01*
X131497499Y-116775000D01*
X130772501Y-116775000D01*
X130772500Y-116775001D01*
X130272500Y-116775001D01*
X130272499Y-116775000D01*
X129547502Y-116775000D01*
X129547501Y-116775001D01*
X126878892Y-116775001D01*
X128205463Y-115448430D01*
X128286245Y-115394454D01*
X128381533Y-115375500D01*
X129570556Y-115375500D01*
X129665844Y-115394454D01*
X129746626Y-115448430D01*
X129800602Y-115529212D01*
X129819556Y-115624500D01*
X129800602Y-115719788D01*
X129746626Y-115800570D01*
X129699925Y-115847270D01*
X129610953Y-115991516D01*
X129557644Y-116152396D01*
X129547500Y-116251682D01*
X129547500Y-116274999D01*
X129547501Y-116275000D01*
X131497498Y-116275000D01*
X131497499Y-116274999D01*
X131497499Y-116251696D01*
X131497498Y-116251679D01*
X131487355Y-116152390D01*
X131487354Y-116152387D01*
X131434048Y-115991519D01*
X131345074Y-115847270D01*
X131231949Y-115734145D01*
X131177973Y-115653363D01*
X131159019Y-115558075D01*
X131177973Y-115462787D01*
X131189482Y-115438733D01*
X131194123Y-115430231D01*
X131194128Y-115430226D01*
X131241912Y-115302114D01*
X131243306Y-115289143D01*
X131272336Y-115196432D01*
X131334637Y-115121882D01*
X131420725Y-115076849D01*
X131517493Y-115068188D01*
X131610209Y-115097219D01*
G37*
%TD.AperFunction*%
%TA.AperFunction,Conductor*%
G36*
X142258569Y-113750500D02*
G01*
X142265539Y-113750500D01*
X142271608Y-113750500D01*
X142687601Y-113750500D01*
X142782889Y-113769454D01*
X142863671Y-113823430D01*
X142917647Y-113904212D01*
X142936601Y-113999500D01*
X142917647Y-114094788D01*
X142906869Y-114117313D01*
X142856403Y-114252621D01*
X142856401Y-114252628D01*
X142850000Y-114312167D01*
X142850000Y-114479999D01*
X142850001Y-114480000D01*
X144551000Y-114480000D01*
X144646288Y-114498954D01*
X144727070Y-114552930D01*
X144781046Y-114633712D01*
X144800000Y-114729000D01*
X144800000Y-115749999D01*
X144800001Y-115750000D01*
X146249999Y-115750000D01*
X146250000Y-115749999D01*
X146250000Y-115582175D01*
X146249999Y-115582167D01*
X146243598Y-115522628D01*
X146243596Y-115522617D01*
X146217263Y-115452017D01*
X146201722Y-115356113D01*
X146217262Y-115277985D01*
X146244397Y-115205232D01*
X146295455Y-115122575D01*
X146374258Y-115065749D01*
X146468809Y-115043406D01*
X146564713Y-115058946D01*
X146602198Y-115076607D01*
X146665470Y-115113137D01*
X146682912Y-115123207D01*
X146784773Y-115150500D01*
X146803272Y-115150500D01*
X146898560Y-115169454D01*
X146979342Y-115223430D01*
X147033318Y-115304212D01*
X147052272Y-115399500D01*
X147033318Y-115494788D01*
X147016600Y-115526064D01*
X147014033Y-115532260D01*
X146999500Y-115605323D01*
X146999500Y-116394676D01*
X147014033Y-116467739D01*
X147014034Y-116467742D01*
X147033361Y-116496667D01*
X147070539Y-116586427D01*
X147070538Y-116683582D01*
X147033361Y-116773333D01*
X147014034Y-116802257D01*
X147014033Y-116802260D01*
X146999500Y-116875323D01*
X146999500Y-117664676D01*
X147014033Y-117737739D01*
X147014034Y-117737742D01*
X147033361Y-117766667D01*
X147070539Y-117856427D01*
X147070538Y-117953582D01*
X147033361Y-118043333D01*
X147014034Y-118072257D01*
X147014033Y-118072260D01*
X146999500Y-118145323D01*
X146999500Y-118610500D01*
X146980546Y-118705788D01*
X146926570Y-118786570D01*
X146845788Y-118840546D01*
X146750500Y-118859500D01*
X146422639Y-118859500D01*
X146327351Y-118840546D01*
X146251702Y-118790000D01*
X144549000Y-118790000D01*
X144453712Y-118771046D01*
X144372930Y-118717070D01*
X144318954Y-118636288D01*
X144300000Y-118541000D01*
X144300000Y-118539000D01*
X144318954Y-118443712D01*
X144372930Y-118362930D01*
X144453712Y-118308954D01*
X144549000Y-118290000D01*
X146249999Y-118290000D01*
X146250000Y-118289999D01*
X146250000Y-118122175D01*
X146249999Y-118122167D01*
X146243598Y-118062628D01*
X146243596Y-118062621D01*
X146193353Y-117927912D01*
X146107189Y-117812812D01*
X146107183Y-117812806D01*
X146100278Y-117807637D01*
X146035355Y-117735359D01*
X146003034Y-117643738D01*
X146000500Y-117608304D01*
X146000500Y-116931695D01*
X146019454Y-116836407D01*
X146073430Y-116755625D01*
X146100284Y-116732357D01*
X146107188Y-116727188D01*
X146107189Y-116727187D01*
X146193353Y-116612087D01*
X146243596Y-116477378D01*
X146243598Y-116477371D01*
X146249999Y-116417832D01*
X146250000Y-116417825D01*
X146250000Y-116250001D01*
X146249999Y-116250000D01*
X142850001Y-116250000D01*
X142850000Y-116250001D01*
X142850000Y-116417832D01*
X142856401Y-116477371D01*
X142856403Y-116477378D01*
X142906646Y-116612087D01*
X142992810Y-116727187D01*
X142992811Y-116727188D01*
X142999716Y-116732357D01*
X143064641Y-116804633D01*
X143096965Y-116896254D01*
X143099500Y-116931695D01*
X143099500Y-117344467D01*
X143080546Y-117439755D01*
X143026570Y-117520537D01*
X142945788Y-117574513D01*
X142850500Y-117593467D01*
X142755212Y-117574513D01*
X142674430Y-117520537D01*
X140979462Y-115825569D01*
X140925486Y-115744787D01*
X140906532Y-115649499D01*
X140925486Y-115554211D01*
X140979462Y-115473429D01*
X141060244Y-115419453D01*
X141155532Y-115400499D01*
X141700634Y-115400499D01*
X141700638Y-115400499D01*
X141748045Y-115394259D01*
X141852079Y-115345747D01*
X141933247Y-115264579D01*
X141981759Y-115160545D01*
X141988000Y-115113139D01*
X141987999Y-114980001D01*
X142850000Y-114980001D01*
X142850000Y-115147832D01*
X142856401Y-115207371D01*
X142856403Y-115207381D01*
X142882737Y-115277985D01*
X142898277Y-115373889D01*
X142882737Y-115452015D01*
X142856403Y-115522618D01*
X142856401Y-115522628D01*
X142850000Y-115582167D01*
X142850000Y-115749999D01*
X142850001Y-115750000D01*
X144299999Y-115750000D01*
X144300000Y-115749999D01*
X144300000Y-114980001D01*
X144299999Y-114980000D01*
X142850001Y-114980000D01*
X142850000Y-114980001D01*
X141987999Y-114980001D01*
X141987999Y-114886862D01*
X141981759Y-114839455D01*
X141981757Y-114839452D01*
X141976427Y-114821162D01*
X141980490Y-114819977D01*
X141966024Y-114760888D01*
X141978549Y-114679451D01*
X141976428Y-114678833D01*
X141981756Y-114660550D01*
X141981759Y-114660545D01*
X141988000Y-114613139D01*
X141987999Y-114386862D01*
X141981759Y-114339455D01*
X141981757Y-114339452D01*
X141976427Y-114321162D01*
X141980490Y-114319977D01*
X141966024Y-114260888D01*
X141978549Y-114179451D01*
X141976428Y-114178833D01*
X141981756Y-114160550D01*
X141981759Y-114160545D01*
X141988000Y-114113139D01*
X141987999Y-113997956D01*
X142006952Y-113902671D01*
X142060928Y-113821889D01*
X142141709Y-113767912D01*
X142236997Y-113748957D01*
X142258569Y-113750500D01*
G37*
%TD.AperFunction*%
%TA.AperFunction,Conductor*%
G36*
X129643288Y-111469454D02*
G01*
X129724070Y-111523430D01*
X129778046Y-111604212D01*
X129797000Y-111699500D01*
X129797000Y-112245475D01*
X129797001Y-112245485D01*
X129803087Y-112302110D01*
X129803089Y-112302119D01*
X129850870Y-112430223D01*
X129855521Y-112438740D01*
X129884553Y-112531456D01*
X129875894Y-112628224D01*
X129830863Y-112714313D01*
X129813050Y-112734144D01*
X129712570Y-112834625D01*
X129631789Y-112888602D01*
X129536501Y-112907556D01*
X129441213Y-112888602D01*
X129360431Y-112834626D01*
X129306454Y-112753845D01*
X129297790Y-112710291D01*
X129287499Y-112700000D01*
X128462501Y-112700000D01*
X128462500Y-112700001D01*
X128462500Y-113449999D01*
X128462501Y-113450000D01*
X128835325Y-113450000D01*
X128835332Y-113449999D01*
X128894871Y-113443598D01*
X128894878Y-113443596D01*
X129029587Y-113393353D01*
X129144687Y-113307189D01*
X129144691Y-113307185D01*
X129158704Y-113288466D01*
X129230980Y-113223541D01*
X129322600Y-113191216D01*
X129419615Y-113196414D01*
X129507257Y-113238343D01*
X129534112Y-113261611D01*
X129547501Y-113275000D01*
X130523500Y-113275000D01*
X130618788Y-113293954D01*
X130699570Y-113347930D01*
X130753546Y-113428712D01*
X130772500Y-113524000D01*
X130772500Y-113526000D01*
X130753546Y-113621288D01*
X130699570Y-113702070D01*
X130618788Y-113756046D01*
X130523500Y-113775000D01*
X129547502Y-113775000D01*
X129547501Y-113775001D01*
X129547501Y-113798320D01*
X129557644Y-113897609D01*
X129557645Y-113897612D01*
X129610950Y-114058478D01*
X129695023Y-114194780D01*
X129728915Y-114285832D01*
X129725383Y-114382923D01*
X129684965Y-114471271D01*
X129613815Y-114537428D01*
X129522763Y-114571320D01*
X129483095Y-114574500D01*
X128059773Y-114574500D01*
X127957911Y-114601793D01*
X127873552Y-114650498D01*
X127866592Y-114654516D01*
X127866589Y-114654518D01*
X125663070Y-116858037D01*
X125582288Y-116912013D01*
X125487000Y-116930967D01*
X125391712Y-116912013D01*
X125310930Y-116858037D01*
X125256954Y-116777255D01*
X125238000Y-116681967D01*
X125238000Y-113249687D01*
X125256954Y-113154399D01*
X125310930Y-113073617D01*
X125391712Y-113019641D01*
X125487000Y-113000687D01*
X125582288Y-113019641D01*
X125663070Y-113073617D01*
X125694038Y-113111353D01*
X125706897Y-113130599D01*
X125706900Y-113130602D01*
X125734396Y-113148973D01*
X125789760Y-113185966D01*
X125862824Y-113200499D01*
X125862825Y-113200500D01*
X127074407Y-113200500D01*
X127074407Y-113203862D01*
X127147832Y-113211045D01*
X127233545Y-113256788D01*
X127275044Y-113300152D01*
X127280311Y-113307188D01*
X127280312Y-113307189D01*
X127395412Y-113393353D01*
X127530121Y-113443596D01*
X127530128Y-113443598D01*
X127589667Y-113449999D01*
X127589675Y-113450000D01*
X127962499Y-113450000D01*
X127962500Y-113449999D01*
X127962500Y-112449000D01*
X127981454Y-112353712D01*
X128035430Y-112272930D01*
X128116212Y-112218954D01*
X128211500Y-112200000D01*
X129287499Y-112200000D01*
X129287500Y-112199999D01*
X129287500Y-111902175D01*
X129287499Y-111902167D01*
X129281098Y-111842628D01*
X129281096Y-111842618D01*
X129260171Y-111786515D01*
X129244631Y-111690611D01*
X129266974Y-111596060D01*
X129323800Y-111517257D01*
X129406457Y-111466199D01*
X129493472Y-111450500D01*
X129548000Y-111450500D01*
X129643288Y-111469454D01*
G37*
%TD.AperFunction*%
%TA.AperFunction,Conductor*%
G36*
X143833021Y-108274333D02*
G01*
X143915679Y-108325390D01*
X143922081Y-108331566D01*
X147976570Y-112386055D01*
X148030546Y-112466837D01*
X148049500Y-112562125D01*
X148049500Y-112590500D01*
X148030546Y-112685788D01*
X147976570Y-112766570D01*
X147895788Y-112820546D01*
X147800500Y-112839500D01*
X147225323Y-112839500D01*
X147152260Y-112854033D01*
X147152257Y-112854034D01*
X147099268Y-112889440D01*
X147009508Y-112926618D01*
X146912353Y-112926617D01*
X146822594Y-112889435D01*
X146784865Y-112858472D01*
X144105913Y-110179520D01*
X144014588Y-110126793D01*
X144014583Y-110126791D01*
X143990033Y-110120213D01*
X143902898Y-110077242D01*
X143838840Y-110004196D01*
X143807611Y-109912197D01*
X143806771Y-109854388D01*
X143812498Y-109798329D01*
X143812500Y-109798307D01*
X143812500Y-109775001D01*
X143812499Y-109775000D01*
X142836500Y-109775000D01*
X142741212Y-109756046D01*
X142660430Y-109702070D01*
X142606454Y-109621288D01*
X142587500Y-109526000D01*
X142587500Y-109524000D01*
X142606454Y-109428712D01*
X142660430Y-109347930D01*
X142741212Y-109293954D01*
X142836500Y-109275000D01*
X143812498Y-109275000D01*
X143812499Y-109274999D01*
X143812499Y-109251696D01*
X143812498Y-109251679D01*
X143802355Y-109152390D01*
X143802354Y-109152387D01*
X143749048Y-108991519D01*
X143660074Y-108847270D01*
X143546949Y-108734145D01*
X143492973Y-108653363D01*
X143474019Y-108558075D01*
X143492973Y-108462787D01*
X143504482Y-108438733D01*
X143509122Y-108430233D01*
X143509128Y-108430226D01*
X143512709Y-108420623D01*
X143563765Y-108337968D01*
X143642567Y-108281140D01*
X143737117Y-108258795D01*
X143833021Y-108274333D01*
G37*
%TD.AperFunction*%
%TA.AperFunction,Conductor*%
G36*
X129665844Y-108669454D02*
G01*
X129746626Y-108723430D01*
X129800602Y-108804212D01*
X129819556Y-108899500D01*
X129800602Y-108994788D01*
X129746626Y-109075570D01*
X129699925Y-109122270D01*
X129610953Y-109266516D01*
X129557644Y-109427396D01*
X129547500Y-109526682D01*
X129547500Y-109549999D01*
X129547501Y-109550000D01*
X130523500Y-109550000D01*
X130618788Y-109568954D01*
X130699570Y-109622930D01*
X130753546Y-109703712D01*
X130772500Y-109799000D01*
X130772500Y-109801000D01*
X130753546Y-109896288D01*
X130699570Y-109977070D01*
X130618788Y-110031046D01*
X130523500Y-110050000D01*
X129547502Y-110050000D01*
X129547501Y-110050001D01*
X129547501Y-110073320D01*
X129557644Y-110172609D01*
X129557645Y-110172612D01*
X129607206Y-110322178D01*
X129619187Y-110418592D01*
X129593360Y-110512251D01*
X129533656Y-110588897D01*
X129449167Y-110636861D01*
X129370845Y-110649500D01*
X129267049Y-110649500D01*
X129171761Y-110630546D01*
X129090979Y-110576570D01*
X129037003Y-110495788D01*
X129024708Y-110455259D01*
X129023466Y-110452261D01*
X129023466Y-110452260D01*
X128972810Y-110376446D01*
X128968102Y-110369400D01*
X128968099Y-110369397D01*
X128913107Y-110332653D01*
X128885240Y-110314034D01*
X128885239Y-110314033D01*
X128812176Y-110299500D01*
X128812174Y-110299500D01*
X128005532Y-110299500D01*
X127910244Y-110280546D01*
X127829462Y-110226570D01*
X127775486Y-110145788D01*
X127756532Y-110050500D01*
X127775486Y-109955212D01*
X127829462Y-109874430D01*
X128173893Y-109530000D01*
X128980463Y-108723430D01*
X129061245Y-108669454D01*
X129156533Y-108650500D01*
X129284773Y-108650500D01*
X129570556Y-108650500D01*
X129665844Y-108669454D01*
G37*
%TD.AperFunction*%
%TA.AperFunction,Conductor*%
G36*
X135953844Y-102630181D02*
G01*
X136029235Y-102691462D01*
X136057648Y-102733985D01*
X136059706Y-102737879D01*
X136059707Y-102737882D01*
X136140350Y-102847150D01*
X136249618Y-102927793D01*
X136377801Y-102972646D01*
X136408227Y-102975499D01*
X136408229Y-102975500D01*
X136469468Y-102975500D01*
X136564756Y-102994454D01*
X136645538Y-103048430D01*
X136699514Y-103129212D01*
X136718468Y-103224500D01*
X136699514Y-103319788D01*
X136645538Y-103400570D01*
X136267020Y-103779087D01*
X136214292Y-103870415D01*
X136188576Y-103966392D01*
X136187000Y-103972271D01*
X136187000Y-105313056D01*
X136168046Y-105408344D01*
X136114070Y-105489126D01*
X136033288Y-105543102D01*
X135938000Y-105562056D01*
X135842712Y-105543102D01*
X135761930Y-105489126D01*
X135700229Y-105427425D01*
X135555983Y-105338453D01*
X135395103Y-105285144D01*
X135295817Y-105275000D01*
X135272501Y-105275000D01*
X135272500Y-105275001D01*
X135272500Y-106251000D01*
X135253546Y-106346288D01*
X135199570Y-106427070D01*
X135118788Y-106481046D01*
X135023500Y-106500000D01*
X135021500Y-106500000D01*
X134926212Y-106481046D01*
X134845430Y-106427070D01*
X134791454Y-106346288D01*
X134772500Y-106251000D01*
X134772500Y-105275000D01*
X134772499Y-105274999D01*
X134749188Y-105275000D01*
X134649889Y-105285144D01*
X134649887Y-105285145D01*
X134489019Y-105338451D01*
X134344770Y-105427425D01*
X134298070Y-105474126D01*
X134217288Y-105528102D01*
X134122000Y-105547056D01*
X134026712Y-105528102D01*
X133945930Y-105474126D01*
X133891954Y-105393344D01*
X133873000Y-105298056D01*
X133873000Y-105118429D01*
X133891954Y-105023141D01*
X133945930Y-104942359D01*
X133972774Y-104919098D01*
X134076472Y-104841472D01*
X134157336Y-104733450D01*
X134204491Y-104607022D01*
X134210500Y-104551130D01*
X134210500Y-103948870D01*
X134204491Y-103892978D01*
X134157336Y-103766550D01*
X134076472Y-103658528D01*
X133968450Y-103577664D01*
X133842022Y-103530509D01*
X133842020Y-103530508D01*
X133842017Y-103530508D01*
X133786135Y-103524500D01*
X133786130Y-103524500D01*
X133258870Y-103524500D01*
X133258864Y-103524500D01*
X133202982Y-103530508D01*
X133202978Y-103530509D01*
X133076550Y-103577664D01*
X133076549Y-103577665D01*
X132968530Y-103658526D01*
X132968526Y-103658530D01*
X132934335Y-103704205D01*
X132862057Y-103769129D01*
X132770436Y-103801451D01*
X132673421Y-103796250D01*
X132585780Y-103754320D01*
X132535665Y-103704205D01*
X132501472Y-103658528D01*
X132393450Y-103577664D01*
X132267022Y-103530509D01*
X132267020Y-103530508D01*
X132267017Y-103530508D01*
X132211135Y-103524500D01*
X132211130Y-103524500D01*
X131683870Y-103524500D01*
X131683864Y-103524500D01*
X131627982Y-103530508D01*
X131627978Y-103530509D01*
X131501550Y-103577664D01*
X131501549Y-103577665D01*
X131393530Y-103658526D01*
X131393526Y-103658530D01*
X131375072Y-103683182D01*
X131312664Y-103766550D01*
X131301190Y-103797314D01*
X131265509Y-103892978D01*
X131265508Y-103892982D01*
X131259500Y-103948864D01*
X131259500Y-104551135D01*
X131265508Y-104607017D01*
X131265509Y-104607022D01*
X131312664Y-104733450D01*
X131393528Y-104841472D01*
X131447219Y-104881665D01*
X131512142Y-104953940D01*
X131544465Y-105045560D01*
X131547000Y-105080999D01*
X131547000Y-105363564D01*
X131528046Y-105458852D01*
X131474070Y-105539634D01*
X131445861Y-105563909D01*
X131334394Y-105646175D01*
X131246470Y-105687509D01*
X131149421Y-105692049D01*
X131058022Y-105659104D01*
X130986188Y-105593691D01*
X130973444Y-105574647D01*
X130952577Y-105540129D01*
X130832370Y-105419922D01*
X130686902Y-105331983D01*
X130686897Y-105331981D01*
X130524601Y-105281408D01*
X130454091Y-105275001D01*
X130454067Y-105275000D01*
X130447501Y-105275000D01*
X130447500Y-105275001D01*
X130447500Y-106251000D01*
X130428546Y-106346288D01*
X130374570Y-106427070D01*
X130293788Y-106481046D01*
X130198500Y-106500000D01*
X129297502Y-106500000D01*
X129279002Y-106518499D01*
X129278547Y-106520788D01*
X129224571Y-106601570D01*
X129143789Y-106655546D01*
X129048501Y-106674500D01*
X128959773Y-106674500D01*
X128857914Y-106701792D01*
X128857911Y-106701793D01*
X128766586Y-106754520D01*
X127744537Y-107776570D01*
X127663755Y-107830546D01*
X127568467Y-107849500D01*
X126405533Y-107849500D01*
X126310245Y-107830546D01*
X126229463Y-107776570D01*
X126175487Y-107695788D01*
X126156533Y-107600500D01*
X126175487Y-107505212D01*
X126229463Y-107424430D01*
X127735461Y-105918432D01*
X129297500Y-105918432D01*
X129297500Y-105999999D01*
X129297501Y-106000000D01*
X129947499Y-106000000D01*
X129947500Y-105999999D01*
X129947500Y-105275000D01*
X129940935Y-105275001D01*
X129940926Y-105275001D01*
X129870394Y-105281409D01*
X129708102Y-105331981D01*
X129708097Y-105331983D01*
X129562629Y-105419922D01*
X129442422Y-105540129D01*
X129354483Y-105685597D01*
X129354481Y-105685602D01*
X129303908Y-105847898D01*
X129297501Y-105918408D01*
X129297500Y-105918432D01*
X127735461Y-105918432D01*
X130930463Y-102723430D01*
X131011245Y-102669454D01*
X131106533Y-102650500D01*
X134219515Y-102650500D01*
X134314803Y-102669454D01*
X134395585Y-102723430D01*
X134419860Y-102751639D01*
X134490350Y-102847150D01*
X134599618Y-102927793D01*
X134727801Y-102972646D01*
X134758227Y-102975499D01*
X134758229Y-102975500D01*
X134758234Y-102975500D01*
X135266771Y-102975500D01*
X135266772Y-102975499D01*
X135297199Y-102972646D01*
X135425382Y-102927793D01*
X135534650Y-102847150D01*
X135615293Y-102737882D01*
X135615295Y-102737874D01*
X135617352Y-102733985D01*
X135626232Y-102723060D01*
X135626374Y-102722868D01*
X135626382Y-102722874D01*
X135678633Y-102658594D01*
X135764099Y-102612393D01*
X135860741Y-102602416D01*
X135953844Y-102630181D01*
G37*
%TD.AperFunction*%
%TA.AperFunction,Conductor*%
G36*
X134010666Y-96669454D02*
G01*
X134091448Y-96723430D01*
X134145424Y-96804212D01*
X134164378Y-96899500D01*
X134145424Y-96994788D01*
X134100398Y-97062175D01*
X134101550Y-97063086D01*
X134092555Y-97074461D01*
X134002045Y-97221200D01*
X134002044Y-97221202D01*
X133947819Y-97384842D01*
X133937500Y-97485850D01*
X133937500Y-97522499D01*
X133937501Y-97522500D01*
X134976000Y-97522500D01*
X135071288Y-97541454D01*
X135152070Y-97595430D01*
X135206046Y-97676212D01*
X135225000Y-97771500D01*
X135225000Y-99731999D01*
X135239570Y-99746569D01*
X135293546Y-99827351D01*
X135312500Y-99922639D01*
X135312500Y-100751000D01*
X135293546Y-100846288D01*
X135239570Y-100927070D01*
X135158788Y-100981046D01*
X135063500Y-101000000D01*
X134112502Y-101000000D01*
X134112501Y-101000001D01*
X134112501Y-101048320D01*
X134122644Y-101147609D01*
X134122645Y-101147612D01*
X134175951Y-101308480D01*
X134272541Y-101465076D01*
X134270135Y-101466559D01*
X134303888Y-101532570D01*
X134311648Y-101629415D01*
X134281758Y-101721857D01*
X134218766Y-101795824D01*
X134132263Y-101840055D01*
X134064333Y-101849500D01*
X131987000Y-101849500D01*
X131891712Y-101830546D01*
X131810930Y-101776570D01*
X131756954Y-101695788D01*
X131738000Y-101600500D01*
X131738000Y-99500001D01*
X133937501Y-99500001D01*
X133937501Y-99536652D01*
X133947819Y-99637651D01*
X134002046Y-99801302D01*
X134092553Y-99948035D01*
X134107194Y-99962676D01*
X134161170Y-100043458D01*
X134180124Y-100138746D01*
X134167486Y-100217066D01*
X134122644Y-100352394D01*
X134112500Y-100451682D01*
X134112500Y-100499999D01*
X134112501Y-100500000D01*
X134812499Y-100500000D01*
X134812500Y-100499999D01*
X134812500Y-100268001D01*
X134797930Y-100253431D01*
X134743954Y-100172649D01*
X134725000Y-100077361D01*
X134725000Y-99500001D01*
X134724999Y-99500000D01*
X133937502Y-99500000D01*
X133937501Y-99500001D01*
X131738000Y-99500001D01*
X131738000Y-98963350D01*
X133937500Y-98963350D01*
X133937500Y-98999999D01*
X133937501Y-99000000D01*
X134724999Y-99000000D01*
X134725000Y-98999999D01*
X134725000Y-98022501D01*
X134724999Y-98022500D01*
X133937502Y-98022500D01*
X133937501Y-98022501D01*
X133937501Y-98059152D01*
X133947819Y-98160151D01*
X134002046Y-98323801D01*
X134037038Y-98380532D01*
X134070929Y-98471584D01*
X134067397Y-98568675D01*
X134037038Y-98641968D01*
X134002044Y-98698701D01*
X134002044Y-98698702D01*
X133947819Y-98862342D01*
X133937500Y-98963350D01*
X131738000Y-98963350D01*
X131738000Y-97019032D01*
X131756954Y-96923744D01*
X131810930Y-96842962D01*
X131930462Y-96723430D01*
X132011244Y-96669454D01*
X132106532Y-96650500D01*
X133915378Y-96650500D01*
X134010666Y-96669454D01*
G37*
%TD.AperFunction*%
%TA.AperFunction,Conductor*%
G36*
X184001375Y-82000015D02*
G01*
X184006996Y-82000076D01*
X184230520Y-82002513D01*
X184249491Y-82003445D01*
X184707408Y-82043508D01*
X184728934Y-82046342D01*
X185180284Y-82125927D01*
X185201465Y-82130622D01*
X185644192Y-82249250D01*
X185664882Y-82255775D01*
X186095545Y-82412523D01*
X186115599Y-82420829D01*
X186530985Y-82614526D01*
X186550248Y-82624555D01*
X186947134Y-82853697D01*
X186965452Y-82865366D01*
X187340888Y-83128250D01*
X187358115Y-83141469D01*
X187709181Y-83436049D01*
X187725197Y-83450724D01*
X188049275Y-83774802D01*
X188063950Y-83790818D01*
X188358530Y-84141884D01*
X188371754Y-84159117D01*
X188634631Y-84534544D01*
X188646302Y-84552865D01*
X188875444Y-84949751D01*
X188885475Y-84969019D01*
X189079167Y-85384393D01*
X189087479Y-85404462D01*
X189244220Y-85835104D01*
X189250753Y-85855821D01*
X189369374Y-86298521D01*
X189374075Y-86319729D01*
X189453656Y-86771060D01*
X189456491Y-86792596D01*
X189496553Y-87250499D01*
X189497486Y-87269486D01*
X189499985Y-87498624D01*
X189500000Y-87501339D01*
X189500000Y-143498660D01*
X189499985Y-143501375D01*
X189497486Y-143730513D01*
X189496553Y-143749500D01*
X189456491Y-144207403D01*
X189453656Y-144228939D01*
X189374075Y-144680270D01*
X189369374Y-144701478D01*
X189250753Y-145144178D01*
X189244220Y-145164895D01*
X189087479Y-145595537D01*
X189079167Y-145615606D01*
X188885475Y-146030980D01*
X188875444Y-146050248D01*
X188646302Y-146447134D01*
X188634631Y-146465455D01*
X188371754Y-146840882D01*
X188358530Y-146858115D01*
X188063950Y-147209181D01*
X188049275Y-147225197D01*
X187725197Y-147549275D01*
X187709181Y-147563950D01*
X187358115Y-147858530D01*
X187340882Y-147871754D01*
X186965455Y-148134631D01*
X186947134Y-148146302D01*
X186550248Y-148375444D01*
X186530980Y-148385475D01*
X186115606Y-148579167D01*
X186095537Y-148587479D01*
X185664895Y-148744220D01*
X185644178Y-148750753D01*
X185201478Y-148869374D01*
X185180270Y-148874075D01*
X184728939Y-148953656D01*
X184707403Y-148956491D01*
X184249500Y-148996553D01*
X184230513Y-148997486D01*
X184001376Y-148999985D01*
X183998661Y-149000000D01*
X126001339Y-149000000D01*
X125998624Y-148999985D01*
X125769486Y-148997486D01*
X125750499Y-148996553D01*
X125292596Y-148956491D01*
X125271060Y-148953656D01*
X124819729Y-148874075D01*
X124798521Y-148869374D01*
X124355821Y-148750753D01*
X124335104Y-148744220D01*
X123904462Y-148587479D01*
X123884393Y-148579167D01*
X123469019Y-148385475D01*
X123449751Y-148375444D01*
X123052865Y-148146302D01*
X123034544Y-148134631D01*
X122659117Y-147871754D01*
X122641884Y-147858530D01*
X122290818Y-147563950D01*
X122274802Y-147549275D01*
X121950724Y-147225197D01*
X121936049Y-147209181D01*
X121641469Y-146858115D01*
X121628245Y-146840882D01*
X121365368Y-146465455D01*
X121353697Y-146447134D01*
X121124555Y-146050248D01*
X121114524Y-146030980D01*
X120920832Y-145615606D01*
X120912520Y-145595537D01*
X120862663Y-145458556D01*
X120755775Y-145164882D01*
X120749250Y-145144192D01*
X120630622Y-144701465D01*
X120625927Y-144680284D01*
X120546342Y-144228934D01*
X120543508Y-144207403D01*
X120503445Y-143749491D01*
X120502513Y-143730512D01*
X120500015Y-143501374D01*
X120500000Y-143498660D01*
X120500000Y-143345940D01*
X123649500Y-143345940D01*
X123649500Y-143654060D01*
X123689718Y-143959544D01*
X123769465Y-144257164D01*
X123887378Y-144541830D01*
X123887380Y-144541834D01*
X123887382Y-144541838D01*
X124041432Y-144808660D01*
X124041443Y-144808678D01*
X124229001Y-145053108D01*
X124229005Y-145053112D01*
X124229009Y-145053117D01*
X124446883Y-145270991D01*
X124446887Y-145270994D01*
X124446891Y-145270998D01*
X124691321Y-145458556D01*
X124691326Y-145458559D01*
X124691330Y-145458562D01*
X124958170Y-145612622D01*
X125242836Y-145730535D01*
X125540456Y-145810282D01*
X125769569Y-145840445D01*
X125845939Y-145850500D01*
X125845940Y-145850500D01*
X126154061Y-145850500D01*
X126204974Y-145843797D01*
X126459544Y-145810282D01*
X126757164Y-145730535D01*
X127041830Y-145612622D01*
X127308670Y-145458562D01*
X127553117Y-145270991D01*
X127770991Y-145053117D01*
X127958562Y-144808670D01*
X128112622Y-144541830D01*
X128230535Y-144257164D01*
X128310282Y-143959544D01*
X128350500Y-143654060D01*
X128350500Y-143345940D01*
X181649500Y-143345940D01*
X181649500Y-143654060D01*
X181689718Y-143959544D01*
X181769465Y-144257164D01*
X181887378Y-144541830D01*
X181887380Y-144541834D01*
X181887382Y-144541838D01*
X182041432Y-144808660D01*
X182041443Y-144808678D01*
X182229001Y-145053108D01*
X182229005Y-145053112D01*
X182229009Y-145053117D01*
X182446883Y-145270991D01*
X182446887Y-145270994D01*
X182446891Y-145270998D01*
X182691321Y-145458556D01*
X182691326Y-145458559D01*
X182691330Y-145458562D01*
X182958170Y-145612622D01*
X183242836Y-145730535D01*
X183540456Y-145810282D01*
X183769569Y-145840445D01*
X183845939Y-145850500D01*
X183845940Y-145850500D01*
X184154061Y-145850500D01*
X184204974Y-145843797D01*
X184459544Y-145810282D01*
X184757164Y-145730535D01*
X185041830Y-145612622D01*
X185308670Y-145458562D01*
X185553117Y-145270991D01*
X185770991Y-145053117D01*
X185958562Y-144808670D01*
X186112622Y-144541830D01*
X186230535Y-144257164D01*
X186310282Y-143959544D01*
X186350500Y-143654060D01*
X186350500Y-143345940D01*
X186310282Y-143040456D01*
X186230535Y-142742836D01*
X186112622Y-142458170D01*
X185958562Y-142191330D01*
X185958559Y-142191326D01*
X185958556Y-142191321D01*
X185770998Y-141946891D01*
X185770994Y-141946887D01*
X185770991Y-141946883D01*
X185553117Y-141729009D01*
X185553112Y-141729005D01*
X185553108Y-141729001D01*
X185308678Y-141541443D01*
X185308660Y-141541432D01*
X185041838Y-141387382D01*
X185041834Y-141387380D01*
X185041830Y-141387378D01*
X184757164Y-141269465D01*
X184459544Y-141189718D01*
X184459539Y-141189717D01*
X184459540Y-141189717D01*
X184154061Y-141149500D01*
X184154060Y-141149500D01*
X183845940Y-141149500D01*
X183845939Y-141149500D01*
X183540460Y-141189717D01*
X183242842Y-141269463D01*
X183242839Y-141269464D01*
X183242836Y-141269465D01*
X182958170Y-141387378D01*
X182958168Y-141387378D01*
X182958161Y-141387382D01*
X182691339Y-141541432D01*
X182691321Y-141541443D01*
X182446891Y-141729001D01*
X182229001Y-141946891D01*
X182041443Y-142191321D01*
X182041432Y-142191339D01*
X181887382Y-142458161D01*
X181887378Y-142458168D01*
X181887378Y-142458170D01*
X181769465Y-142742836D01*
X181689718Y-143040456D01*
X181649500Y-143345940D01*
X128350500Y-143345940D01*
X128310282Y-143040456D01*
X128230535Y-142742836D01*
X128112622Y-142458170D01*
X127958562Y-142191330D01*
X127958559Y-142191326D01*
X127958556Y-142191321D01*
X127770998Y-141946891D01*
X127770994Y-141946887D01*
X127770991Y-141946883D01*
X127553117Y-141729009D01*
X127553112Y-141729005D01*
X127553108Y-141729001D01*
X127308678Y-141541443D01*
X127308660Y-141541432D01*
X127041838Y-141387382D01*
X127041834Y-141387380D01*
X127041830Y-141387378D01*
X126757164Y-141269465D01*
X126459544Y-141189718D01*
X126459539Y-141189717D01*
X126459540Y-141189717D01*
X126154061Y-141149500D01*
X126154060Y-141149500D01*
X125845940Y-141149500D01*
X125845939Y-141149500D01*
X125540460Y-141189717D01*
X125242842Y-141269463D01*
X125242839Y-141269464D01*
X125242836Y-141269465D01*
X124958170Y-141387378D01*
X124958168Y-141387378D01*
X124958161Y-141387382D01*
X124691339Y-141541432D01*
X124691321Y-141541443D01*
X124446891Y-141729001D01*
X124229001Y-141946891D01*
X124041443Y-142191321D01*
X124041432Y-142191339D01*
X123887382Y-142458161D01*
X123887378Y-142458168D01*
X123887378Y-142458170D01*
X123769465Y-142742836D01*
X123689718Y-143040456D01*
X123649500Y-143345940D01*
X120500000Y-143345940D01*
X120500000Y-130500001D01*
X144837501Y-130500001D01*
X144837501Y-130548320D01*
X144847644Y-130647609D01*
X144847645Y-130647612D01*
X144900951Y-130808480D01*
X144989925Y-130952729D01*
X145109770Y-131072574D01*
X145254016Y-131161546D01*
X145414896Y-131214855D01*
X145514187Y-131224999D01*
X145514188Y-131224999D01*
X145537500Y-131224998D01*
X145537500Y-130500001D01*
X145537499Y-130500000D01*
X144837502Y-130500000D01*
X144837501Y-130500001D01*
X120500000Y-130500001D01*
X120500000Y-108197272D01*
X124437000Y-108197272D01*
X124437000Y-119732727D01*
X124464292Y-119834585D01*
X124464293Y-119834588D01*
X124517020Y-119925913D01*
X132977018Y-128385910D01*
X132977019Y-128385912D01*
X133052019Y-128460913D01*
X133678319Y-129087211D01*
X133678324Y-129087217D01*
X133678325Y-129087217D01*
X133687018Y-129095910D01*
X133687020Y-129095913D01*
X133761587Y-129170480D01*
X133852913Y-129223207D01*
X133852915Y-129223207D01*
X133852916Y-129223208D01*
X133954773Y-129250501D01*
X134075488Y-129250501D01*
X134075504Y-129250500D01*
X140640227Y-129250500D01*
X140742088Y-129223207D01*
X140833413Y-129170480D01*
X142804992Y-127198900D01*
X144287500Y-127198900D01*
X144287500Y-127649999D01*
X144287501Y-127650000D01*
X145287499Y-127650000D01*
X145287500Y-127649999D01*
X145287500Y-126400001D01*
X145287499Y-126400000D01*
X145086400Y-126400000D01*
X145043678Y-126402897D01*
X144858979Y-126448829D01*
X144688474Y-126533392D01*
X144688472Y-126533393D01*
X144540137Y-126652629D01*
X144540129Y-126652637D01*
X144420893Y-126800972D01*
X144420892Y-126800974D01*
X144336329Y-126971479D01*
X144290397Y-127156178D01*
X144287500Y-127198900D01*
X142804992Y-127198900D01*
X146911930Y-123091961D01*
X146992712Y-123037986D01*
X147088000Y-123019032D01*
X147183288Y-123037986D01*
X147264070Y-123091962D01*
X147318046Y-123172744D01*
X147337000Y-123268032D01*
X147337000Y-126480495D01*
X147318046Y-126575783D01*
X147264070Y-126656565D01*
X147214752Y-126694820D01*
X147212111Y-126696381D01*
X147212110Y-126696382D01*
X147124766Y-126748037D01*
X147076078Y-126776831D01*
X147076077Y-126776831D01*
X147027643Y-126825266D01*
X146946861Y-126879242D01*
X146851573Y-126898195D01*
X146756285Y-126879240D01*
X146675504Y-126825263D01*
X146657501Y-126805196D01*
X146534870Y-126652637D01*
X146534862Y-126652629D01*
X146386527Y-126533393D01*
X146386525Y-126533392D01*
X146216020Y-126448829D01*
X146031321Y-126402897D01*
X145988599Y-126400000D01*
X145787501Y-126400000D01*
X145787500Y-126400001D01*
X145787500Y-127901000D01*
X145768546Y-127996288D01*
X145714570Y-128077070D01*
X145633788Y-128131046D01*
X145538500Y-128150000D01*
X144287501Y-128150000D01*
X144287500Y-128150001D01*
X144287500Y-128601099D01*
X144290397Y-128643821D01*
X144336329Y-128828520D01*
X144420892Y-128999025D01*
X144420893Y-128999027D01*
X144540129Y-129147362D01*
X144540137Y-129147370D01*
X144688472Y-129266606D01*
X144688474Y-129266607D01*
X144807204Y-129325492D01*
X144884148Y-129384810D01*
X144932536Y-129469058D01*
X144944999Y-129565411D01*
X144919642Y-129659198D01*
X144908501Y-129679279D01*
X144900952Y-129691516D01*
X144847644Y-129852396D01*
X144837500Y-129951682D01*
X144837500Y-129999999D01*
X144837501Y-130000000D01*
X145788500Y-130000000D01*
X145883788Y-130018954D01*
X145964570Y-130072930D01*
X146018546Y-130153712D01*
X146037500Y-130249000D01*
X146037500Y-131224998D01*
X146037501Y-131224999D01*
X146060804Y-131224999D01*
X146060820Y-131224998D01*
X146160109Y-131214855D01*
X146160112Y-131214854D01*
X146320980Y-131161548D01*
X146465231Y-131072572D01*
X146578354Y-130959450D01*
X146659135Y-130905473D01*
X146754423Y-130886519D01*
X146849711Y-130905473D01*
X146873762Y-130916980D01*
X146882274Y-130921628D01*
X147010386Y-130969412D01*
X147067015Y-130975500D01*
X147607984Y-130975499D01*
X147664614Y-130969412D01*
X147792726Y-130921628D01*
X147859700Y-130871491D01*
X147884529Y-130852906D01*
X147972170Y-130810975D01*
X148069186Y-130805776D01*
X148160806Y-130838098D01*
X148233083Y-130903022D01*
X148245675Y-130921520D01*
X148264925Y-130952729D01*
X148384770Y-131072574D01*
X148529016Y-131161546D01*
X148689896Y-131214855D01*
X148789187Y-131224999D01*
X148789188Y-131224999D01*
X148812500Y-131224998D01*
X148812500Y-129274999D01*
X148749974Y-129212476D01*
X148695996Y-129131695D01*
X148677040Y-129036408D01*
X148695992Y-128941119D01*
X148711711Y-128909658D01*
X148773176Y-128805727D01*
X148837996Y-128733358D01*
X148925576Y-128691303D01*
X149022585Y-128685964D01*
X149114251Y-128718155D01*
X149186622Y-128782976D01*
X149201820Y-128805721D01*
X149264330Y-128911420D01*
X149294138Y-128941228D01*
X149348112Y-129022007D01*
X149367066Y-129117295D01*
X149348112Y-129212583D01*
X149312500Y-129265880D01*
X149312500Y-131224998D01*
X149312501Y-131224999D01*
X149335804Y-131224999D01*
X149335820Y-131224998D01*
X149435109Y-131214855D01*
X149435112Y-131214854D01*
X149595978Y-131161549D01*
X149603678Y-131156800D01*
X149694729Y-131122907D01*
X149791820Y-131126437D01*
X149880169Y-131166853D01*
X149884734Y-131170671D01*
X149896638Y-131179255D01*
X149896640Y-131179256D01*
X149896641Y-131179257D01*
X149984976Y-131225465D01*
X149984985Y-131225467D01*
X149984986Y-131225468D01*
X150052010Y-131245149D01*
X150052013Y-131245149D01*
X150052015Y-131245150D01*
X150124000Y-131255500D01*
X150124004Y-131255500D01*
X151979877Y-131255500D01*
X152020792Y-131252202D01*
X152020795Y-131252201D01*
X152020802Y-131252201D01*
X152060014Y-131245838D01*
X152099885Y-131236026D01*
X153503129Y-130768278D01*
X153581870Y-130755500D01*
X171017270Y-130755500D01*
X171112558Y-130774454D01*
X171193340Y-130828430D01*
X171216206Y-130862652D01*
X171870590Y-131517036D01*
X171807007Y-131534074D01*
X171692992Y-131599900D01*
X171599900Y-131692992D01*
X171534074Y-131807007D01*
X171517036Y-131870590D01*
X170920974Y-131274528D01*
X170920973Y-131274528D01*
X170869871Y-131347511D01*
X170869868Y-131347515D01*
X170773733Y-131553677D01*
X170714860Y-131773396D01*
X170714860Y-131773397D01*
X170695035Y-132000000D01*
X170714860Y-132226602D01*
X170714860Y-132226603D01*
X170773733Y-132446322D01*
X170869868Y-132652484D01*
X170869871Y-132652489D01*
X170920974Y-132725471D01*
X171517036Y-132129409D01*
X171534074Y-132192993D01*
X171599900Y-132307008D01*
X171692992Y-132400100D01*
X171807007Y-132465926D01*
X171870588Y-132482963D01*
X171220190Y-133133361D01*
X171208021Y-133155546D01*
X171132254Y-133216361D01*
X171038981Y-133243552D01*
X171017269Y-133244500D01*
X170124000Y-133244500D01*
X170102914Y-133246766D01*
X170069690Y-133250338D01*
X170018162Y-133261548D01*
X170018150Y-133261551D01*
X169991806Y-133268779D01*
X169991802Y-133268781D01*
X169905172Y-133318112D01*
X169905169Y-133318114D01*
X169852372Y-133363863D01*
X169820742Y-133396642D01*
X169774537Y-133484972D01*
X169774531Y-133484986D01*
X169754850Y-133552010D01*
X169754850Y-133552011D01*
X169744500Y-133624003D01*
X169744500Y-136375996D01*
X169750338Y-136430309D01*
X169761548Y-136481837D01*
X169761551Y-136481849D01*
X169768779Y-136508193D01*
X169768780Y-136508195D01*
X169768781Y-136508198D01*
X169818112Y-136594828D01*
X169863867Y-136647632D01*
X169896641Y-136679257D01*
X169984976Y-136725465D01*
X169984985Y-136725467D01*
X169984986Y-136725468D01*
X170052010Y-136745149D01*
X170052013Y-136745149D01*
X170052015Y-136745150D01*
X170124000Y-136755500D01*
X170124004Y-136755500D01*
X184875996Y-136755500D01*
X184876000Y-136755500D01*
X184930313Y-136749661D01*
X184981824Y-136738455D01*
X185008198Y-136731219D01*
X185094828Y-136681888D01*
X185147632Y-136636133D01*
X185179257Y-136603359D01*
X185225465Y-136515024D01*
X185245150Y-136447985D01*
X185255500Y-136376000D01*
X185255500Y-132124000D01*
X185249661Y-132069687D01*
X185238455Y-132018176D01*
X185231219Y-131991802D01*
X185181888Y-131905172D01*
X185136133Y-131852368D01*
X185103359Y-131820743D01*
X185015024Y-131774535D01*
X185015018Y-131774533D01*
X185015013Y-131774531D01*
X184947989Y-131754850D01*
X184911992Y-131749675D01*
X184876000Y-131744500D01*
X180513139Y-131744500D01*
X180513123Y-131744500D01*
X180486248Y-131745919D01*
X180486227Y-131745920D01*
X180460257Y-131748670D01*
X180460249Y-131748671D01*
X180433609Y-131752924D01*
X176272306Y-132644632D01*
X176175161Y-132646064D01*
X176084863Y-132610212D01*
X176015159Y-132542533D01*
X175976660Y-132453332D01*
X175972422Y-132426463D01*
X175964855Y-132352390D01*
X175964854Y-132352387D01*
X175911548Y-132191519D01*
X175822574Y-132047270D01*
X175702729Y-131927425D01*
X175558483Y-131838453D01*
X175397603Y-131785144D01*
X175298317Y-131775000D01*
X175250001Y-131775000D01*
X175250000Y-131775001D01*
X175250000Y-132726000D01*
X175231046Y-132821288D01*
X175177070Y-132902070D01*
X175096288Y-132956046D01*
X175001000Y-132975000D01*
X174025002Y-132975000D01*
X174012561Y-132987440D01*
X174006047Y-133020190D01*
X173952071Y-133100972D01*
X173871289Y-133154948D01*
X173828174Y-133168375D01*
X173498719Y-133238973D01*
X173446546Y-133244500D01*
X172982730Y-133244500D01*
X172887442Y-133225546D01*
X172806660Y-133171570D01*
X172783793Y-133137347D01*
X172129409Y-132482963D01*
X172192993Y-132465926D01*
X172307008Y-132400100D01*
X172400100Y-132307008D01*
X172465926Y-132192993D01*
X172482963Y-132129409D01*
X173079025Y-132725471D01*
X173079026Y-132725471D01*
X173130129Y-132652488D01*
X173130133Y-132652482D01*
X173223767Y-132451682D01*
X174025000Y-132451682D01*
X174025000Y-132474999D01*
X174025001Y-132475000D01*
X174749999Y-132475000D01*
X174750000Y-132474999D01*
X174750000Y-131774999D01*
X174701688Y-131775000D01*
X174602390Y-131785144D01*
X174602387Y-131785145D01*
X174441519Y-131838451D01*
X174297270Y-131927425D01*
X174177425Y-132047270D01*
X174088453Y-132191516D01*
X174035144Y-132352396D01*
X174025000Y-132451682D01*
X173223767Y-132451682D01*
X173226265Y-132446325D01*
X173285139Y-132226603D01*
X173285139Y-132226602D01*
X173304964Y-132000000D01*
X173285139Y-131773397D01*
X173285139Y-131773396D01*
X173226266Y-131553677D01*
X173130131Y-131347516D01*
X173079024Y-131274528D01*
X173079022Y-131274528D01*
X172482963Y-131870588D01*
X172465926Y-131807007D01*
X172400100Y-131692992D01*
X172307008Y-131599900D01*
X172192993Y-131534074D01*
X172129409Y-131517036D01*
X172779816Y-130866629D01*
X172791993Y-130844437D01*
X172867765Y-130783629D01*
X172961040Y-130756447D01*
X172982731Y-130755500D01*
X173375996Y-130755500D01*
X173376000Y-130755500D01*
X173430313Y-130749661D01*
X173481824Y-130738455D01*
X173508198Y-130731219D01*
X173594828Y-130681888D01*
X173647632Y-130636133D01*
X173679257Y-130603359D01*
X173725465Y-130515024D01*
X173726168Y-130512627D01*
X173727323Y-130510419D01*
X173730046Y-130503678D01*
X173730709Y-130503946D01*
X173771198Y-130426540D01*
X173845746Y-130364236D01*
X173938461Y-130335203D01*
X174035230Y-130343861D01*
X174121319Y-130388891D01*
X174167927Y-130441754D01*
X174168432Y-130441356D01*
X174175875Y-130450769D01*
X174177013Y-130452060D01*
X174177426Y-130452730D01*
X174297270Y-130572574D01*
X174441516Y-130661546D01*
X174602396Y-130714855D01*
X174701687Y-130724999D01*
X174750000Y-130724998D01*
X174750000Y-130025001D01*
X175250000Y-130025001D01*
X175250000Y-130724998D01*
X175250001Y-130724999D01*
X175298304Y-130724999D01*
X175298320Y-130724998D01*
X175397609Y-130714855D01*
X175397612Y-130714854D01*
X175558480Y-130661548D01*
X175702729Y-130572574D01*
X175822574Y-130452729D01*
X175911546Y-130308483D01*
X175964855Y-130147603D01*
X175974999Y-130048317D01*
X175975000Y-130048307D01*
X175975000Y-130025001D01*
X175974999Y-130025000D01*
X175250001Y-130025000D01*
X175250000Y-130025001D01*
X174750000Y-130025001D01*
X174750000Y-129774000D01*
X174768954Y-129678712D01*
X174822930Y-129597930D01*
X174903712Y-129543954D01*
X174999000Y-129525000D01*
X175974998Y-129525000D01*
X175974999Y-129524999D01*
X175974999Y-129501696D01*
X175974998Y-129501679D01*
X175964855Y-129402390D01*
X175964854Y-129402387D01*
X175911548Y-129241519D01*
X175822574Y-129097270D01*
X175725304Y-129000000D01*
X180694953Y-129000000D01*
X180715115Y-129269031D01*
X180775144Y-129532041D01*
X180873705Y-129783173D01*
X180873713Y-129783189D01*
X181008598Y-130016816D01*
X181008604Y-130016824D01*
X181062294Y-130084150D01*
X181898957Y-129247486D01*
X181923978Y-129307890D01*
X181995112Y-129414351D01*
X182085649Y-129504888D01*
X182192110Y-129576022D01*
X182252510Y-129601041D01*
X181414849Y-130438703D01*
X181597473Y-130563215D01*
X181597478Y-130563217D01*
X181840535Y-130680268D01*
X181840540Y-130680270D01*
X182098333Y-130759789D01*
X182365112Y-130800000D01*
X182634888Y-130800000D01*
X182901666Y-130759789D01*
X183159459Y-130680270D01*
X183159465Y-130680268D01*
X183402519Y-130563219D01*
X183585149Y-130438703D01*
X182747487Y-129601041D01*
X182807890Y-129576022D01*
X182914351Y-129504888D01*
X183004888Y-129414351D01*
X183076022Y-129307890D01*
X183101041Y-129247487D01*
X183937704Y-130084150D01*
X183991401Y-130016817D01*
X184126286Y-129783189D01*
X184126294Y-129783173D01*
X184224855Y-129532041D01*
X184284884Y-129269031D01*
X184305046Y-129000000D01*
X184284884Y-128730968D01*
X184224855Y-128467958D01*
X184126294Y-128216826D01*
X184126286Y-128216810D01*
X183991405Y-127983189D01*
X183991402Y-127983184D01*
X183937704Y-127915848D01*
X183101041Y-128752510D01*
X183076022Y-128692110D01*
X183004888Y-128585649D01*
X182914351Y-128495112D01*
X182807890Y-128423978D01*
X182747486Y-128398957D01*
X183585149Y-127561295D01*
X183402527Y-127436784D01*
X183402522Y-127436782D01*
X183159465Y-127319731D01*
X183159459Y-127319729D01*
X182901666Y-127240210D01*
X182634888Y-127200000D01*
X182365112Y-127200000D01*
X182098333Y-127240210D01*
X181840540Y-127319729D01*
X181840535Y-127319731D01*
X181597486Y-127436778D01*
X181597475Y-127436784D01*
X181414849Y-127561295D01*
X182252512Y-128398958D01*
X182192110Y-128423978D01*
X182085649Y-128495112D01*
X181995112Y-128585649D01*
X181923978Y-128692110D01*
X181898958Y-128752512D01*
X181062294Y-127915848D01*
X181008600Y-127983180D01*
X180873713Y-128216810D01*
X180873705Y-128216826D01*
X180775144Y-128467958D01*
X180715115Y-128730968D01*
X180694953Y-129000000D01*
X175725304Y-129000000D01*
X175709449Y-128984145D01*
X175655473Y-128903363D01*
X175636519Y-128808075D01*
X175655473Y-128712787D01*
X175666982Y-128688733D01*
X175671623Y-128680231D01*
X175671628Y-128680226D01*
X175719412Y-128552114D01*
X175725500Y-128495485D01*
X175725499Y-127954516D01*
X175719412Y-127897886D01*
X175719410Y-127897880D01*
X175671630Y-127769778D01*
X175671627Y-127769772D01*
X175589690Y-127660316D01*
X175589683Y-127660309D01*
X175480227Y-127578372D01*
X175480223Y-127578370D01*
X175352115Y-127530588D01*
X175352113Y-127530587D01*
X175295487Y-127524500D01*
X174704524Y-127524500D01*
X174704514Y-127524501D01*
X174647889Y-127530587D01*
X174647880Y-127530589D01*
X174519778Y-127578369D01*
X174519772Y-127578373D01*
X174396056Y-127670985D01*
X174394036Y-127668287D01*
X174338275Y-127705546D01*
X174242987Y-127724500D01*
X173584454Y-127724500D01*
X173489166Y-127705546D01*
X173408384Y-127651570D01*
X173354408Y-127570788D01*
X173335454Y-127475500D01*
X173354408Y-127380212D01*
X173408384Y-127299430D01*
X175134384Y-125573430D01*
X175215166Y-125519454D01*
X175310454Y-125500500D01*
X183065892Y-125500500D01*
X183193186Y-125466392D01*
X183307314Y-125400500D01*
X184620500Y-124087314D01*
X184686392Y-123973186D01*
X184720500Y-123845892D01*
X184720500Y-106139937D01*
X184739454Y-106044649D01*
X184793430Y-105963867D01*
X184874212Y-105909891D01*
X184969500Y-105890937D01*
X185064788Y-105909891D01*
X185145570Y-105963867D01*
X185167737Y-105991904D01*
X185168432Y-105991356D01*
X185177423Y-106002727D01*
X185297270Y-106122574D01*
X185441516Y-106211546D01*
X185602396Y-106264855D01*
X185701687Y-106274999D01*
X185750000Y-106274998D01*
X185750000Y-105575001D01*
X186250000Y-105575001D01*
X186250000Y-106274998D01*
X186250001Y-106274999D01*
X186298304Y-106274999D01*
X186298320Y-106274998D01*
X186397609Y-106264855D01*
X186397612Y-106264854D01*
X186558480Y-106211548D01*
X186702729Y-106122574D01*
X186823930Y-106001374D01*
X186904712Y-105947398D01*
X187000000Y-105928444D01*
X187095288Y-105947398D01*
X187176070Y-106001374D01*
X187297270Y-106122574D01*
X187441516Y-106211546D01*
X187602396Y-106264855D01*
X187701687Y-106274999D01*
X187750000Y-106274998D01*
X187750000Y-105575001D01*
X188250000Y-105575001D01*
X188250000Y-106274998D01*
X188250001Y-106274999D01*
X188298304Y-106274999D01*
X188298320Y-106274998D01*
X188397609Y-106264855D01*
X188397612Y-106264854D01*
X188558480Y-106211548D01*
X188702729Y-106122574D01*
X188822574Y-106002729D01*
X188911546Y-105858483D01*
X188964855Y-105697603D01*
X188974999Y-105598317D01*
X188975000Y-105598307D01*
X188975000Y-105575001D01*
X188974999Y-105575000D01*
X188250001Y-105575000D01*
X188250000Y-105575001D01*
X187750000Y-105575001D01*
X187749999Y-105575000D01*
X186250001Y-105575000D01*
X186250000Y-105575001D01*
X185750000Y-105575001D01*
X185750000Y-105324000D01*
X185768954Y-105228712D01*
X185822930Y-105147930D01*
X185903712Y-105093954D01*
X185999000Y-105075000D01*
X188974998Y-105075000D01*
X188974999Y-105074999D01*
X188974999Y-105051696D01*
X188974998Y-105051679D01*
X188964855Y-104952390D01*
X188964854Y-104952387D01*
X188911548Y-104791519D01*
X188822574Y-104647270D01*
X188709449Y-104534145D01*
X188655473Y-104453363D01*
X188636519Y-104358075D01*
X188655473Y-104262787D01*
X188666982Y-104238733D01*
X188671623Y-104230231D01*
X188671628Y-104230226D01*
X188719412Y-104102114D01*
X188725500Y-104045485D01*
X188725499Y-103504516D01*
X188719412Y-103447886D01*
X188678020Y-103336911D01*
X188671630Y-103319778D01*
X188671628Y-103319776D01*
X188671628Y-103319774D01*
X188623548Y-103255546D01*
X188589692Y-103210319D01*
X188589689Y-103210316D01*
X188589687Y-103210313D01*
X188589683Y-103210310D01*
X188577094Y-103197721D01*
X188579597Y-103195217D01*
X188535353Y-103145959D01*
X188503033Y-103054337D01*
X188500500Y-103018908D01*
X188500500Y-99053609D01*
X188503034Y-99018174D01*
X188505647Y-98999999D01*
X188505647Y-98999998D01*
X188503034Y-98981823D01*
X188500500Y-98946390D01*
X188500500Y-98934106D01*
X188495004Y-98913597D01*
X188489052Y-98884582D01*
X188488309Y-98879412D01*
X188485165Y-98857543D01*
X188484230Y-98855497D01*
X188481269Y-98849011D01*
X188467249Y-98810012D01*
X188467059Y-98809304D01*
X188466392Y-98806814D01*
X188451291Y-98780658D01*
X188440437Y-98759603D01*
X188425378Y-98726628D01*
X188425127Y-98726339D01*
X188409715Y-98704695D01*
X188400500Y-98692685D01*
X188372829Y-98665014D01*
X188360718Y-98652006D01*
X188351524Y-98641395D01*
X188331128Y-98617857D01*
X188331127Y-98617856D01*
X188320720Y-98608838D01*
X188320262Y-98609435D01*
X188307311Y-98599497D01*
X188265704Y-98575475D01*
X188255590Y-98569310D01*
X188210059Y-98540050D01*
X188210054Y-98540047D01*
X188210053Y-98540047D01*
X188210051Y-98540046D01*
X188205356Y-98537902D01*
X188193198Y-98533613D01*
X188193188Y-98533608D01*
X188138150Y-98518861D01*
X188132449Y-98517260D01*
X188071962Y-98499500D01*
X188071961Y-98499500D01*
X187928039Y-98499500D01*
X187867540Y-98517263D01*
X187861842Y-98518863D01*
X187806806Y-98533610D01*
X187806774Y-98533624D01*
X187794631Y-98537907D01*
X187789941Y-98540049D01*
X187744399Y-98569317D01*
X187734287Y-98575481D01*
X187692684Y-98599500D01*
X187679739Y-98609434D01*
X187679281Y-98608837D01*
X187668869Y-98617858D01*
X187639273Y-98652014D01*
X187627169Y-98665015D01*
X187599502Y-98692682D01*
X187590310Y-98704662D01*
X187574883Y-98726327D01*
X187574621Y-98726628D01*
X187559557Y-98759613D01*
X187548704Y-98780665D01*
X187533610Y-98806808D01*
X187533606Y-98806817D01*
X187532745Y-98810033D01*
X187518737Y-98848996D01*
X187514834Y-98857541D01*
X187510945Y-98884591D01*
X187504999Y-98913582D01*
X187499500Y-98934106D01*
X187499500Y-98946390D01*
X187496966Y-98981823D01*
X187494353Y-98999998D01*
X187494353Y-98999999D01*
X187496966Y-99018174D01*
X187499500Y-99053609D01*
X187499500Y-103018908D01*
X187480546Y-103114196D01*
X187426570Y-103194978D01*
X187419671Y-103200955D01*
X187419057Y-103201570D01*
X187418643Y-103201846D01*
X187399726Y-103218238D01*
X187396062Y-103220981D01*
X187394042Y-103218283D01*
X187338275Y-103255546D01*
X187242987Y-103274500D01*
X186757013Y-103274500D01*
X186661725Y-103255546D01*
X186605963Y-103218287D01*
X186603944Y-103220985D01*
X186507910Y-103149096D01*
X186480226Y-103128372D01*
X186480225Y-103128371D01*
X186480223Y-103128370D01*
X186352115Y-103080588D01*
X186352113Y-103080587D01*
X186295487Y-103074500D01*
X185704524Y-103074500D01*
X185704514Y-103074501D01*
X185647889Y-103080587D01*
X185647880Y-103080589D01*
X185519778Y-103128369D01*
X185519776Y-103128371D01*
X185519775Y-103128371D01*
X185519774Y-103128372D01*
X185434327Y-103192336D01*
X185346689Y-103234265D01*
X185285110Y-103242000D01*
X184965777Y-103242000D01*
X184870489Y-103223046D01*
X184816557Y-103192335D01*
X184811472Y-103188529D01*
X184811472Y-103188528D01*
X184703450Y-103107664D01*
X184577022Y-103060509D01*
X184577020Y-103060508D01*
X184577017Y-103060508D01*
X184521135Y-103054500D01*
X184521130Y-103054500D01*
X183918870Y-103054500D01*
X183918864Y-103054500D01*
X183862982Y-103060508D01*
X183862978Y-103060509D01*
X183736550Y-103107664D01*
X183736549Y-103107665D01*
X183628530Y-103188526D01*
X183628526Y-103188530D01*
X183604234Y-103220981D01*
X183547664Y-103296550D01*
X183508867Y-103400570D01*
X183500509Y-103422978D01*
X183500508Y-103422982D01*
X183494500Y-103478864D01*
X183494500Y-104006135D01*
X183500508Y-104062017D01*
X183500509Y-104062022D01*
X183547664Y-104188450D01*
X183628528Y-104296472D01*
X183666731Y-104325070D01*
X183674205Y-104330665D01*
X183739129Y-104402943D01*
X183771451Y-104494564D01*
X183766250Y-104591579D01*
X183724320Y-104679220D01*
X183674206Y-104729333D01*
X183668708Y-104733450D01*
X183628530Y-104763526D01*
X183628526Y-104763530D01*
X183594838Y-104808533D01*
X183547664Y-104871550D01*
X183516934Y-104953940D01*
X183500509Y-104997978D01*
X183500508Y-104997982D01*
X183494500Y-105053864D01*
X183494500Y-105581135D01*
X183500508Y-105637017D01*
X183500509Y-105637022D01*
X183547664Y-105763450D01*
X183628528Y-105871472D01*
X183628531Y-105871474D01*
X183641122Y-105884065D01*
X183638926Y-105886260D01*
X183684639Y-105937148D01*
X183716964Y-106028767D01*
X183719500Y-106064213D01*
X183719500Y-123469546D01*
X183700546Y-123564834D01*
X183646570Y-123645616D01*
X182865616Y-124426570D01*
X182784834Y-124480546D01*
X182689546Y-124499500D01*
X174934108Y-124499500D01*
X174806818Y-124533606D01*
X174806814Y-124533607D01*
X174806814Y-124533608D01*
X174725006Y-124580840D01*
X174692686Y-124599500D01*
X171692686Y-127599500D01*
X171692685Y-127599499D01*
X171620618Y-127671568D01*
X171539837Y-127725545D01*
X171444549Y-127744500D01*
X170507405Y-127744500D01*
X170500085Y-127744392D01*
X153509440Y-127244666D01*
X153505626Y-127244582D01*
X153501908Y-127244527D01*
X153498192Y-127244500D01*
X153498191Y-127244500D01*
X151341957Y-127244500D01*
X151246669Y-127225546D01*
X151165887Y-127171570D01*
X151111911Y-127090788D01*
X151102844Y-127064970D01*
X151091118Y-127024611D01*
X151091118Y-127024610D01*
X151010670Y-126888580D01*
X150898920Y-126776830D01*
X150762890Y-126696382D01*
X150762888Y-126696381D01*
X150762886Y-126696380D01*
X150611136Y-126652293D01*
X150611122Y-126652290D01*
X150575666Y-126649500D01*
X149699347Y-126649500D01*
X149699333Y-126649501D01*
X149663877Y-126652290D01*
X149663867Y-126652292D01*
X149512113Y-126696380D01*
X149512112Y-126696380D01*
X149376082Y-126776828D01*
X149264328Y-126888582D01*
X149201825Y-126994270D01*
X149137005Y-127066641D01*
X149049424Y-127108696D01*
X148952415Y-127114035D01*
X148860749Y-127081844D01*
X148788378Y-127017024D01*
X148773175Y-126994270D01*
X148710671Y-126888582D01*
X148710670Y-126888580D01*
X148598920Y-126776830D01*
X148462890Y-126696382D01*
X148462888Y-126696381D01*
X148460248Y-126694820D01*
X148387878Y-126629999D01*
X148345823Y-126542419D01*
X148338000Y-126480495D01*
X148338000Y-126249500D01*
X148356954Y-126154212D01*
X148410930Y-126073430D01*
X148491712Y-126019454D01*
X148587000Y-126000500D01*
X169193908Y-126000500D01*
X169289196Y-126019454D01*
X169369978Y-126073430D01*
X169375961Y-126080335D01*
X169385314Y-126089689D01*
X169494772Y-126171627D01*
X169494776Y-126171629D01*
X169494779Y-126171630D01*
X169622886Y-126219412D01*
X169679515Y-126225500D01*
X170220484Y-126225499D01*
X170277114Y-126219412D01*
X170405226Y-126171628D01*
X170405232Y-126171623D01*
X170413733Y-126166982D01*
X170506448Y-126137947D01*
X170603217Y-126146602D01*
X170689307Y-126191631D01*
X170709145Y-126209449D01*
X170822270Y-126322574D01*
X170966516Y-126411546D01*
X171127396Y-126464855D01*
X171226687Y-126474999D01*
X171226688Y-126474999D01*
X171250000Y-126474998D01*
X171250000Y-125750001D01*
X171750000Y-125750001D01*
X171750000Y-126474998D01*
X171750001Y-126474999D01*
X171773304Y-126474999D01*
X171773320Y-126474998D01*
X171872609Y-126464855D01*
X171872612Y-126464854D01*
X172033480Y-126411548D01*
X172177729Y-126322574D01*
X172297574Y-126202729D01*
X172386546Y-126058483D01*
X172439855Y-125897603D01*
X172449999Y-125798317D01*
X172450000Y-125798307D01*
X172450000Y-125750001D01*
X172449999Y-125750000D01*
X171750001Y-125750000D01*
X171750000Y-125750001D01*
X171250000Y-125750001D01*
X171250000Y-125499000D01*
X171268954Y-125403712D01*
X171322930Y-125322930D01*
X171403712Y-125268954D01*
X171499000Y-125250000D01*
X172449998Y-125250000D01*
X172449999Y-125249999D01*
X172449999Y-125201696D01*
X172449998Y-125201679D01*
X172439855Y-125102390D01*
X172439854Y-125102387D01*
X172386548Y-124941519D01*
X172297574Y-124797270D01*
X172177729Y-124677425D01*
X172021141Y-124580840D01*
X172022403Y-124578793D01*
X171960878Y-124533669D01*
X171910487Y-124450604D01*
X171895719Y-124354578D01*
X171918823Y-124260210D01*
X171968406Y-124189406D01*
X174965501Y-121192311D01*
X176987505Y-121192311D01*
X176987505Y-121447688D01*
X176987506Y-121447704D01*
X177027455Y-121699931D01*
X177106372Y-121942814D01*
X177106374Y-121942820D01*
X177222319Y-122170377D01*
X177372425Y-122376979D01*
X177372427Y-122376981D01*
X177372430Y-122376985D01*
X177553015Y-122557570D01*
X177553018Y-122557572D01*
X177553020Y-122557574D01*
X177759622Y-122707680D01*
X177759624Y-122707681D01*
X177759627Y-122707683D01*
X177987178Y-122823625D01*
X178230065Y-122902544D01*
X178482307Y-122942495D01*
X178737689Y-122942495D01*
X178737693Y-122942495D01*
X178989935Y-122902544D01*
X179232822Y-122823625D01*
X179460373Y-122707683D01*
X179666985Y-122557570D01*
X179847570Y-122376985D01*
X179997683Y-122170373D01*
X180113625Y-121942822D01*
X180192544Y-121699935D01*
X180232495Y-121447693D01*
X180235000Y-121320000D01*
X180232495Y-121192307D01*
X180232493Y-121192295D01*
X180232493Y-121192291D01*
X180209956Y-121050002D01*
X180192544Y-120940065D01*
X180113625Y-120697178D01*
X179997683Y-120469627D01*
X179997681Y-120469624D01*
X179997680Y-120469622D01*
X179847574Y-120263020D01*
X179847572Y-120263018D01*
X179847570Y-120263015D01*
X179666985Y-120082430D01*
X179666981Y-120082427D01*
X179666979Y-120082425D01*
X179460377Y-119932319D01*
X179232820Y-119816374D01*
X179232814Y-119816372D01*
X179093866Y-119771225D01*
X178989935Y-119737456D01*
X178989933Y-119737455D01*
X178989931Y-119737455D01*
X178737704Y-119697506D01*
X178737695Y-119697505D01*
X178737693Y-119697505D01*
X178737689Y-119697505D01*
X178482311Y-119697505D01*
X178482307Y-119697505D01*
X178482304Y-119697505D01*
X178482295Y-119697506D01*
X178230068Y-119737455D01*
X177987185Y-119816372D01*
X177987179Y-119816374D01*
X177759622Y-119932319D01*
X177553020Y-120082425D01*
X177372425Y-120263020D01*
X177222319Y-120469622D01*
X177106374Y-120697179D01*
X177106372Y-120697185D01*
X177027455Y-120940068D01*
X176987506Y-121192295D01*
X176987505Y-121192311D01*
X174965501Y-121192311D01*
X175665835Y-120491977D01*
X175717397Y-120452413D01*
X175807314Y-120400500D01*
X175900500Y-120307314D01*
X175966392Y-120193186D01*
X176000500Y-120065892D01*
X176000500Y-111934108D01*
X175989421Y-111892762D01*
X175966393Y-111806818D01*
X175966392Y-111806814D01*
X175900500Y-111692686D01*
X175807314Y-111599500D01*
X175693186Y-111533608D01*
X175693183Y-111533607D01*
X175693181Y-111533606D01*
X175565892Y-111499500D01*
X173196627Y-111499500D01*
X173101339Y-111480546D01*
X173020557Y-111426570D01*
X173004148Y-111408465D01*
X172982545Y-111382142D01*
X172935357Y-111324643D01*
X172790625Y-111205864D01*
X172625501Y-111117604D01*
X172625498Y-111117603D01*
X172625500Y-111117603D01*
X172446330Y-111063252D01*
X172260001Y-111044901D01*
X172259999Y-111044901D01*
X172073669Y-111063252D01*
X171894500Y-111117603D01*
X171729375Y-111205864D01*
X171584646Y-111324640D01*
X171584640Y-111324646D01*
X171465864Y-111469375D01*
X171377603Y-111634500D01*
X171323252Y-111813669D01*
X171304901Y-111999999D01*
X171304901Y-112000000D01*
X171323252Y-112186330D01*
X171377603Y-112365499D01*
X171458990Y-112517766D01*
X171465864Y-112530625D01*
X171491715Y-112562125D01*
X171496131Y-112567505D01*
X171541929Y-112653188D01*
X171551452Y-112749875D01*
X171523249Y-112842847D01*
X171461615Y-112917949D01*
X171428154Y-112941108D01*
X171361622Y-112979521D01*
X171361619Y-112979523D01*
X171083772Y-113257370D01*
X171002991Y-113311346D01*
X170907703Y-113330300D01*
X170812414Y-113311346D01*
X170731633Y-113257369D01*
X170677657Y-113176588D01*
X170659902Y-113105704D01*
X170656747Y-113073669D01*
X170634551Y-113000500D01*
X170602396Y-112894499D01*
X170514136Y-112729375D01*
X170395357Y-112584643D01*
X170250625Y-112465864D01*
X170085501Y-112377604D01*
X170085498Y-112377603D01*
X170085499Y-112377603D01*
X170057703Y-112369171D01*
X169972021Y-112323372D01*
X169910387Y-112248269D01*
X169882186Y-112155297D01*
X169891710Y-112058610D01*
X169937509Y-111972928D01*
X170012612Y-111911294D01*
X170061851Y-111891398D01*
X170069798Y-111889136D01*
X170277175Y-111808798D01*
X170277177Y-111808797D01*
X170393326Y-111736880D01*
X169828584Y-111172138D01*
X169913694Y-111149333D01*
X170016306Y-111090090D01*
X170100090Y-111006306D01*
X170159333Y-110903694D01*
X170182138Y-110818584D01*
X170748861Y-111385307D01*
X170764630Y-111364426D01*
X170863759Y-111165349D01*
X170924621Y-110951440D01*
X170945140Y-110730000D01*
X170924621Y-110508559D01*
X170863759Y-110294650D01*
X170764630Y-110095573D01*
X170764628Y-110095569D01*
X170748861Y-110074691D01*
X170182137Y-110641414D01*
X170159333Y-110556306D01*
X170100090Y-110453694D01*
X170016306Y-110369910D01*
X169913694Y-110310667D01*
X169828584Y-110287861D01*
X170393327Y-109723119D01*
X170393326Y-109723118D01*
X170277181Y-109651203D01*
X170069800Y-109570863D01*
X170069796Y-109570862D01*
X169851200Y-109530000D01*
X169628800Y-109530000D01*
X169410203Y-109570862D01*
X169410199Y-109570863D01*
X169202824Y-109651201D01*
X169202816Y-109651205D01*
X169086672Y-109723118D01*
X169651415Y-110287861D01*
X169566306Y-110310667D01*
X169463694Y-110369910D01*
X169379910Y-110453694D01*
X169320667Y-110556306D01*
X169297861Y-110641415D01*
X168731137Y-110074691D01*
X168715371Y-110095569D01*
X168616240Y-110294650D01*
X168555378Y-110508559D01*
X168534859Y-110730000D01*
X168555378Y-110951440D01*
X168616240Y-111165349D01*
X168715369Y-111364427D01*
X168715371Y-111364429D01*
X168731137Y-111385307D01*
X169297861Y-110818584D01*
X169320667Y-110903694D01*
X169379910Y-111006306D01*
X169463694Y-111090090D01*
X169566306Y-111149333D01*
X169651414Y-111172137D01*
X169086672Y-111736880D01*
X169202820Y-111808797D01*
X169419560Y-111892762D01*
X169501567Y-111944858D01*
X169557395Y-112024371D01*
X169578546Y-112119196D01*
X169561798Y-112214896D01*
X169509702Y-112296903D01*
X169430189Y-112352731D01*
X169401897Y-112363225D01*
X169354500Y-112377603D01*
X169189375Y-112465864D01*
X169044646Y-112584640D01*
X169044640Y-112584646D01*
X168925859Y-112729380D01*
X168919068Y-112739545D01*
X168917789Y-112738690D01*
X168865032Y-112802978D01*
X168779350Y-112848777D01*
X168707066Y-112859500D01*
X165029033Y-112859500D01*
X164933745Y-112840546D01*
X164852963Y-112786570D01*
X164054047Y-111987654D01*
X164000071Y-111906872D01*
X163991149Y-111874347D01*
X163990182Y-111874632D01*
X163985166Y-111857550D01*
X163985165Y-111857543D01*
X163925377Y-111726627D01*
X163831128Y-111617857D01*
X163802564Y-111599500D01*
X163710054Y-111540047D01*
X163710049Y-111540045D01*
X163571961Y-111499500D01*
X163428039Y-111499500D01*
X163289950Y-111540045D01*
X163289945Y-111540047D01*
X163168871Y-111617857D01*
X163074622Y-111726627D01*
X163014836Y-111857539D01*
X163014836Y-111857540D01*
X163014835Y-111857543D01*
X162994353Y-112000000D01*
X163010619Y-112113137D01*
X163014835Y-112142456D01*
X163014836Y-112142460D01*
X163074623Y-112273374D01*
X163129704Y-112336942D01*
X163177779Y-112421368D01*
X163189886Y-112517766D01*
X163164182Y-112611459D01*
X163129704Y-112663058D01*
X163074623Y-112726625D01*
X163014836Y-112857539D01*
X163014835Y-112857543D01*
X162994353Y-113000000D01*
X163013130Y-113130601D01*
X163014835Y-113142456D01*
X163014836Y-113142460D01*
X163074623Y-113273374D01*
X163129704Y-113336942D01*
X163177779Y-113421368D01*
X163189886Y-113517766D01*
X163164182Y-113611459D01*
X163129704Y-113663058D01*
X163074623Y-113726625D01*
X163014836Y-113857539D01*
X163014835Y-113857543D01*
X162994353Y-114000000D01*
X163010620Y-114113144D01*
X163014835Y-114142456D01*
X163014836Y-114142460D01*
X163074623Y-114273374D01*
X163129704Y-114336942D01*
X163177779Y-114421368D01*
X163189886Y-114517766D01*
X163164182Y-114611459D01*
X163129704Y-114663058D01*
X163074623Y-114726625D01*
X163014836Y-114857539D01*
X163014835Y-114857543D01*
X162994353Y-115000000D01*
X163011976Y-115122575D01*
X163014835Y-115142456D01*
X163014836Y-115142460D01*
X163074623Y-115273374D01*
X163129704Y-115336942D01*
X163177779Y-115421368D01*
X163189886Y-115517766D01*
X163164182Y-115611459D01*
X163129704Y-115663058D01*
X163074623Y-115726625D01*
X163014836Y-115857539D01*
X163014835Y-115857543D01*
X162994353Y-116000000D01*
X163014835Y-116142456D01*
X163014836Y-116142460D01*
X163074622Y-116273372D01*
X163074623Y-116273373D01*
X163168872Y-116382143D01*
X163289947Y-116459953D01*
X163375651Y-116485117D01*
X163461735Y-116530146D01*
X163481567Y-116547960D01*
X166854087Y-119920480D01*
X166945412Y-119973207D01*
X167047273Y-120000500D01*
X167152727Y-120000500D01*
X171241721Y-120000500D01*
X171337009Y-120019454D01*
X171417791Y-120073430D01*
X171461317Y-120132119D01*
X171465864Y-120140625D01*
X171584643Y-120285357D01*
X171729375Y-120404136D01*
X171894499Y-120492396D01*
X172073669Y-120546747D01*
X172259999Y-120565099D01*
X172260000Y-120565099D01*
X172260001Y-120565099D01*
X172353165Y-120555923D01*
X172446331Y-120546747D01*
X172625501Y-120492396D01*
X172790625Y-120404136D01*
X172935357Y-120285357D01*
X173054136Y-120140625D01*
X173142396Y-119975501D01*
X173196747Y-119796331D01*
X173215099Y-119610000D01*
X173212191Y-119580479D01*
X173196747Y-119423669D01*
X173163093Y-119312727D01*
X173142396Y-119244499D01*
X173054136Y-119079375D01*
X172935357Y-118934643D01*
X172790625Y-118815864D01*
X172625501Y-118727604D01*
X172625498Y-118727603D01*
X172625500Y-118727603D01*
X172446330Y-118673252D01*
X172260001Y-118654901D01*
X172259999Y-118654901D01*
X172073669Y-118673252D01*
X171894500Y-118727603D01*
X171729375Y-118815864D01*
X171584646Y-118934640D01*
X171584640Y-118934646D01*
X171465863Y-119079375D01*
X171459544Y-119088834D01*
X171390846Y-119157534D01*
X171301087Y-119194715D01*
X171252506Y-119199500D01*
X170759125Y-119199500D01*
X170663837Y-119180546D01*
X170583055Y-119126570D01*
X170529079Y-119045788D01*
X170510125Y-118950500D01*
X170529079Y-118855212D01*
X170539526Y-118833123D01*
X170552698Y-118808480D01*
X170602396Y-118715501D01*
X170656747Y-118536331D01*
X170675099Y-118350000D01*
X170656747Y-118163669D01*
X170602396Y-117984499D01*
X170514136Y-117819375D01*
X170514135Y-117819374D01*
X170514132Y-117819368D01*
X170507340Y-117809203D01*
X170509994Y-117807429D01*
X170474771Y-117741543D01*
X170465240Y-117644857D01*
X170493435Y-117551883D01*
X170555064Y-117476776D01*
X170588543Y-117453603D01*
X170593505Y-117450737D01*
X170645913Y-117420480D01*
X170907729Y-117158662D01*
X170988509Y-117104687D01*
X171083797Y-117085733D01*
X171179085Y-117104687D01*
X171259867Y-117158663D01*
X171313844Y-117239444D01*
X171322076Y-117262451D01*
X171323253Y-117266330D01*
X171323253Y-117266331D01*
X171377604Y-117445501D01*
X171465864Y-117610625D01*
X171584643Y-117755357D01*
X171729375Y-117874136D01*
X171894499Y-117962396D01*
X172073669Y-118016747D01*
X172259999Y-118035099D01*
X172260000Y-118035099D01*
X172260001Y-118035099D01*
X172409302Y-118020394D01*
X172446331Y-118016747D01*
X172625501Y-117962396D01*
X172790625Y-117874136D01*
X172935357Y-117755357D01*
X173054136Y-117610625D01*
X173142396Y-117445501D01*
X173196747Y-117266331D01*
X173215099Y-117080000D01*
X173212979Y-117058480D01*
X173200492Y-116931695D01*
X173196747Y-116893669D01*
X173196746Y-116893667D01*
X173194360Y-116881669D01*
X173195869Y-116881368D01*
X173187716Y-116798613D01*
X173215917Y-116705641D01*
X173259449Y-116646943D01*
X173546620Y-116359773D01*
X173920480Y-115985913D01*
X173973207Y-115894588D01*
X174000500Y-115792727D01*
X174000500Y-115687273D01*
X174000500Y-113944810D01*
X173989622Y-113904212D01*
X173979022Y-113864648D01*
X173975812Y-113852671D01*
X173973207Y-113842949D01*
X173920480Y-113751624D01*
X173148376Y-112979520D01*
X173123468Y-112965139D01*
X173050424Y-112901081D01*
X173007454Y-112813945D01*
X173001100Y-112716998D01*
X173032330Y-112624999D01*
X173096389Y-112551954D01*
X173183525Y-112508984D01*
X173247970Y-112500500D01*
X174750500Y-112500500D01*
X174845788Y-112519454D01*
X174926570Y-112573430D01*
X174980546Y-112654212D01*
X174999500Y-112749500D01*
X174999500Y-119639545D01*
X174980546Y-119734833D01*
X174926570Y-119815615D01*
X170040614Y-124701570D01*
X169959832Y-124755546D01*
X169864545Y-124774500D01*
X169679525Y-124774500D01*
X169679514Y-124774501D01*
X169622889Y-124780587D01*
X169622880Y-124780589D01*
X169494778Y-124828369D01*
X169494772Y-124828372D01*
X169385314Y-124910310D01*
X169372723Y-124922903D01*
X169370220Y-124920400D01*
X169320969Y-124964642D01*
X169229348Y-124996965D01*
X169193908Y-124999500D01*
X167519703Y-124999500D01*
X167424415Y-124980546D01*
X167343633Y-124926570D01*
X167289657Y-124845788D01*
X167270703Y-124750500D01*
X167289657Y-124655212D01*
X167343633Y-124574430D01*
X167401192Y-124531511D01*
X167533230Y-124460055D01*
X167533238Y-124460050D01*
X167580056Y-124423610D01*
X167072293Y-123915847D01*
X167088942Y-123908951D01*
X167219970Y-123821401D01*
X167331401Y-123709970D01*
X167418951Y-123578942D01*
X167425847Y-123562293D01*
X167933435Y-124069881D01*
X168033731Y-123916368D01*
X168133586Y-123688722D01*
X168133589Y-123688714D01*
X168194610Y-123447748D01*
X168194612Y-123447741D01*
X168215140Y-123200000D01*
X168194612Y-122952258D01*
X168194610Y-122952251D01*
X168133589Y-122711285D01*
X168133586Y-122711277D01*
X168033730Y-122483628D01*
X167933435Y-122330117D01*
X167425846Y-122837705D01*
X167418951Y-122821058D01*
X167331401Y-122690030D01*
X167219970Y-122578599D01*
X167088942Y-122491049D01*
X167072292Y-122484152D01*
X167580056Y-121976388D01*
X167533241Y-121939951D01*
X167533230Y-121939944D01*
X167314607Y-121821631D01*
X167079490Y-121740916D01*
X167079487Y-121740915D01*
X166834294Y-121700000D01*
X166585706Y-121700000D01*
X166340512Y-121740915D01*
X166340509Y-121740916D01*
X166105392Y-121821631D01*
X165886768Y-121939944D01*
X165886758Y-121939951D01*
X165839941Y-121976388D01*
X166347706Y-122484153D01*
X166331058Y-122491049D01*
X166200030Y-122578599D01*
X166088599Y-122690030D01*
X166001049Y-122821058D01*
X165994152Y-122837706D01*
X165486563Y-122330117D01*
X165386268Y-122483630D01*
X165386268Y-122483631D01*
X165286413Y-122711277D01*
X165286410Y-122711285D01*
X165225389Y-122952251D01*
X165225387Y-122952258D01*
X165204859Y-123200000D01*
X165225387Y-123447741D01*
X165225389Y-123447748D01*
X165286410Y-123688714D01*
X165286413Y-123688722D01*
X165386266Y-123916364D01*
X165486564Y-124069881D01*
X165994152Y-123562292D01*
X166001049Y-123578942D01*
X166088599Y-123709970D01*
X166200030Y-123821401D01*
X166331058Y-123908951D01*
X166347705Y-123915846D01*
X165839942Y-124423610D01*
X165886766Y-124460054D01*
X165886770Y-124460057D01*
X166018806Y-124531511D01*
X166093589Y-124593532D01*
X166138944Y-124679451D01*
X166147968Y-124776186D01*
X166119285Y-124869010D01*
X166057264Y-124943793D01*
X165971345Y-124989148D01*
X165900296Y-124999500D01*
X148587000Y-124999500D01*
X148491712Y-124980546D01*
X148410930Y-124926570D01*
X148356954Y-124845788D01*
X148338000Y-124750500D01*
X148338000Y-123099499D01*
X148356954Y-123004211D01*
X148410930Y-122923429D01*
X148491712Y-122869453D01*
X148587000Y-122850499D01*
X149287506Y-122850499D01*
X149287508Y-122850499D01*
X149390297Y-122839999D01*
X149556834Y-122784814D01*
X149706156Y-122692712D01*
X149830212Y-122568656D01*
X149922314Y-122419334D01*
X149977499Y-122252797D01*
X149988000Y-122150009D01*
X149987999Y-121049992D01*
X149977499Y-120947203D01*
X149922314Y-120780666D01*
X149830212Y-120631344D01*
X149706156Y-120507288D01*
X149556834Y-120415186D01*
X149556832Y-120415185D01*
X149556830Y-120415184D01*
X149556832Y-120415184D01*
X149390302Y-120360002D01*
X149390298Y-120360001D01*
X149390297Y-120360001D01*
X149287509Y-120349500D01*
X149287505Y-120349500D01*
X146387493Y-120349500D01*
X146284699Y-120360001D01*
X146118167Y-120415185D01*
X145968846Y-120507286D01*
X145844786Y-120631346D01*
X145752684Y-120780668D01*
X145703592Y-120928822D01*
X145655628Y-121013311D01*
X145578982Y-121073014D01*
X145485323Y-121098842D01*
X145467231Y-121099500D01*
X143957954Y-121099500D01*
X143862666Y-121080546D01*
X143781884Y-121026570D01*
X142840884Y-120085570D01*
X142786908Y-120004788D01*
X142767954Y-119909500D01*
X142786908Y-119814212D01*
X142840884Y-119733430D01*
X142921666Y-119679454D01*
X143016954Y-119660500D01*
X147782727Y-119660500D01*
X147884588Y-119633207D01*
X147975913Y-119580480D01*
X148322961Y-119233430D01*
X148403743Y-119179454D01*
X148499031Y-119160500D01*
X149674675Y-119160500D01*
X149674675Y-119160499D01*
X149747740Y-119145966D01*
X149830601Y-119090601D01*
X149885966Y-119007740D01*
X149900500Y-118934674D01*
X149900500Y-118145326D01*
X149885966Y-118072260D01*
X149885966Y-118072259D01*
X149866640Y-118043336D01*
X149829460Y-117953577D01*
X149829461Y-117856422D01*
X149866640Y-117766664D01*
X149885966Y-117737740D01*
X149885966Y-117737739D01*
X149900500Y-117664674D01*
X149900500Y-116875326D01*
X149885966Y-116802260D01*
X149885966Y-116802259D01*
X149866640Y-116773336D01*
X149829460Y-116683577D01*
X149829461Y-116586422D01*
X149866640Y-116496664D01*
X149885966Y-116467740D01*
X149885966Y-116467739D01*
X149888429Y-116455357D01*
X149900500Y-116394674D01*
X149900500Y-115605326D01*
X149885966Y-115532260D01*
X149885966Y-115532259D01*
X149866640Y-115503336D01*
X149829460Y-115413577D01*
X149829461Y-115316422D01*
X149866640Y-115226664D01*
X149885966Y-115197740D01*
X149885966Y-115197739D01*
X149890390Y-115175500D01*
X149900500Y-115124674D01*
X149900500Y-114335326D01*
X149885966Y-114262260D01*
X149885966Y-114262259D01*
X149866640Y-114233336D01*
X149829460Y-114143577D01*
X149829461Y-114046422D01*
X149866640Y-113956664D01*
X149885966Y-113927740D01*
X149885966Y-113927739D01*
X149890646Y-113904212D01*
X149900500Y-113854674D01*
X149900500Y-113065326D01*
X149885966Y-112992260D01*
X149830601Y-112909399D01*
X149830599Y-112909397D01*
X149768428Y-112867857D01*
X149747740Y-112854034D01*
X149747739Y-112854033D01*
X149674676Y-112839500D01*
X149674674Y-112839500D01*
X149099500Y-112839500D01*
X149004212Y-112820546D01*
X148923430Y-112766570D01*
X148869454Y-112685788D01*
X148850500Y-112590500D01*
X148850500Y-112240364D01*
X148834197Y-112179520D01*
X148834197Y-112179519D01*
X148829113Y-112160545D01*
X148823207Y-112138504D01*
X148770480Y-112047179D01*
X145615612Y-108892311D01*
X176987505Y-108892311D01*
X176987505Y-109147688D01*
X176987506Y-109147704D01*
X177027455Y-109399931D01*
X177106372Y-109642814D01*
X177106374Y-109642820D01*
X177222319Y-109870377D01*
X177372425Y-110076979D01*
X177372427Y-110076981D01*
X177372430Y-110076985D01*
X177553015Y-110257570D01*
X177553018Y-110257572D01*
X177553020Y-110257574D01*
X177759622Y-110407680D01*
X177759624Y-110407681D01*
X177759627Y-110407683D01*
X177987178Y-110523625D01*
X178230065Y-110602544D01*
X178482307Y-110642495D01*
X178737689Y-110642495D01*
X178737693Y-110642495D01*
X178989935Y-110602544D01*
X179232822Y-110523625D01*
X179460373Y-110407683D01*
X179666985Y-110257570D01*
X179847570Y-110076985D01*
X179997683Y-109870373D01*
X180113625Y-109642822D01*
X180192544Y-109399935D01*
X180217620Y-109241609D01*
X180232493Y-109147708D01*
X180232493Y-109147704D01*
X180232495Y-109147693D01*
X180235000Y-109020000D01*
X180232495Y-108892307D01*
X180232493Y-108892295D01*
X180232493Y-108892291D01*
X180205748Y-108723430D01*
X180192544Y-108640065D01*
X180113625Y-108397178D01*
X179997683Y-108169627D01*
X179997681Y-108169624D01*
X179997680Y-108169622D01*
X179847574Y-107963020D01*
X179847572Y-107963018D01*
X179847570Y-107963015D01*
X179666985Y-107782430D01*
X179666981Y-107782427D01*
X179666979Y-107782425D01*
X179460377Y-107632319D01*
X179232820Y-107516374D01*
X179232814Y-107516372D01*
X179093866Y-107471225D01*
X178989935Y-107437456D01*
X178989933Y-107437455D01*
X178989931Y-107437455D01*
X178737704Y-107397506D01*
X178737695Y-107397505D01*
X178737693Y-107397505D01*
X178737689Y-107397505D01*
X178482311Y-107397505D01*
X178482307Y-107397505D01*
X178482304Y-107397505D01*
X178482295Y-107397506D01*
X178230068Y-107437455D01*
X177987185Y-107516372D01*
X177987179Y-107516374D01*
X177759622Y-107632319D01*
X177553020Y-107782425D01*
X177372425Y-107963020D01*
X177222319Y-108169622D01*
X177106374Y-108397179D01*
X177106372Y-108397185D01*
X177027455Y-108640068D01*
X176987506Y-108892295D01*
X176987505Y-108892311D01*
X145615612Y-108892311D01*
X143883301Y-107160000D01*
X165214859Y-107160000D01*
X165235387Y-107407741D01*
X165235389Y-107407748D01*
X165296410Y-107648714D01*
X165296413Y-107648722D01*
X165396266Y-107876364D01*
X165496564Y-108029881D01*
X166004152Y-107522292D01*
X166011049Y-107538942D01*
X166098599Y-107669970D01*
X166210030Y-107781401D01*
X166341058Y-107868951D01*
X166357705Y-107875846D01*
X165849942Y-108383610D01*
X165896766Y-108420054D01*
X165896770Y-108420057D01*
X166115388Y-108538366D01*
X166115390Y-108538367D01*
X166350509Y-108619083D01*
X166350512Y-108619084D01*
X166595706Y-108660000D01*
X166844294Y-108660000D01*
X167089487Y-108619084D01*
X167089490Y-108619083D01*
X167324607Y-108538368D01*
X167543230Y-108420055D01*
X167543238Y-108420050D01*
X167590056Y-108383610D01*
X167082293Y-107875847D01*
X167098942Y-107868951D01*
X167229970Y-107781401D01*
X167341401Y-107669970D01*
X167428951Y-107538942D01*
X167435847Y-107522293D01*
X167943435Y-108029881D01*
X168043731Y-107876368D01*
X168143586Y-107648722D01*
X168143589Y-107648714D01*
X168204610Y-107407748D01*
X168204612Y-107407741D01*
X168225140Y-107160000D01*
X168204612Y-106912258D01*
X168204610Y-106912251D01*
X168143589Y-106671285D01*
X168143586Y-106671277D01*
X168043730Y-106443628D01*
X167943435Y-106290117D01*
X167435846Y-106797705D01*
X167428951Y-106781058D01*
X167341401Y-106650030D01*
X167229970Y-106538599D01*
X167098942Y-106451049D01*
X167082292Y-106444152D01*
X167590056Y-105936388D01*
X167543241Y-105899951D01*
X167543230Y-105899944D01*
X167324607Y-105781631D01*
X167089490Y-105700916D01*
X167089487Y-105700915D01*
X166844294Y-105660000D01*
X166595706Y-105660000D01*
X166350512Y-105700915D01*
X166350509Y-105700916D01*
X166115392Y-105781631D01*
X165896768Y-105899944D01*
X165896758Y-105899951D01*
X165849941Y-105936388D01*
X166357706Y-106444153D01*
X166341058Y-106451049D01*
X166210030Y-106538599D01*
X166098599Y-106650030D01*
X166011049Y-106781058D01*
X166004152Y-106797706D01*
X165496563Y-106290117D01*
X165396268Y-106443630D01*
X165396268Y-106443631D01*
X165296413Y-106671277D01*
X165296410Y-106671285D01*
X165235389Y-106912251D01*
X165235387Y-106912258D01*
X165214859Y-107160000D01*
X143883301Y-107160000D01*
X143577821Y-106854520D01*
X143486496Y-106801793D01*
X143486493Y-106801792D01*
X143384635Y-106774500D01*
X142087591Y-106774500D01*
X141992303Y-106755546D01*
X141911521Y-106701570D01*
X141857545Y-106620788D01*
X141841126Y-106560937D01*
X141822666Y-106432549D01*
X141822665Y-106432548D01*
X141822665Y-106432543D01*
X141762877Y-106301627D01*
X141760502Y-106296426D01*
X141738159Y-106201875D01*
X141738000Y-106192987D01*
X141738000Y-106170035D01*
X141756954Y-106074747D01*
X141810930Y-105993965D01*
X141891712Y-105939989D01*
X141904747Y-105935013D01*
X141925382Y-105927793D01*
X142034650Y-105847150D01*
X142115293Y-105737882D01*
X142115295Y-105737874D01*
X142117352Y-105733985D01*
X142126232Y-105723060D01*
X142126374Y-105722868D01*
X142126382Y-105722874D01*
X142178633Y-105658594D01*
X142264099Y-105612393D01*
X142360741Y-105602416D01*
X142453844Y-105630181D01*
X142529235Y-105691462D01*
X142557648Y-105733985D01*
X142559709Y-105737885D01*
X142626234Y-105828023D01*
X142640350Y-105847150D01*
X142749618Y-105927793D01*
X142877801Y-105972646D01*
X142908227Y-105975499D01*
X142908229Y-105975500D01*
X142908234Y-105975500D01*
X143416771Y-105975500D01*
X143416772Y-105975499D01*
X143447199Y-105972646D01*
X143575382Y-105927793D01*
X143684650Y-105847150D01*
X143765293Y-105737882D01*
X143810146Y-105609699D01*
X143813000Y-105579266D01*
X143813000Y-104920734D01*
X143810146Y-104890301D01*
X143765293Y-104762118D01*
X143684650Y-104652850D01*
X143664136Y-104637710D01*
X143598725Y-104565876D01*
X143565781Y-104474477D01*
X143563000Y-104437367D01*
X143563000Y-103031677D01*
X143581954Y-102936389D01*
X143635930Y-102855607D01*
X143716712Y-102801631D01*
X143812000Y-102782677D01*
X143907288Y-102801631D01*
X143988070Y-102855607D01*
X144027699Y-102914918D01*
X144030239Y-102913452D01*
X144038403Y-102927592D01*
X144134570Y-103052920D01*
X144134579Y-103052929D01*
X144259907Y-103149096D01*
X144259911Y-103149098D01*
X144405872Y-103209556D01*
X144405870Y-103209556D01*
X144523176Y-103224999D01*
X145876823Y-103224999D01*
X145994129Y-103209556D01*
X146140088Y-103149098D01*
X146140092Y-103149096D01*
X146265420Y-103052929D01*
X146265429Y-103052920D01*
X146361596Y-102927592D01*
X146361598Y-102927588D01*
X146422056Y-102781628D01*
X146437499Y-102664323D01*
X146437499Y-102385676D01*
X146422056Y-102268367D01*
X146421006Y-102264449D01*
X146420475Y-102256364D01*
X146419926Y-102252187D01*
X146420199Y-102252150D01*
X146414650Y-102167502D01*
X146421005Y-102135551D01*
X146422055Y-102131632D01*
X146437499Y-102014321D01*
X146437499Y-101735676D01*
X146422056Y-101618370D01*
X146361598Y-101472411D01*
X146361599Y-101472411D01*
X146288066Y-101376582D01*
X146245096Y-101289447D01*
X146238741Y-101192500D01*
X146269970Y-101100501D01*
X146288066Y-101073418D01*
X146361599Y-100977588D01*
X146422056Y-100831628D01*
X146437499Y-100714323D01*
X146437499Y-100435676D01*
X146422056Y-100318367D01*
X146421006Y-100314449D01*
X146420475Y-100306364D01*
X146419926Y-100302187D01*
X146420199Y-100302150D01*
X146414650Y-100217502D01*
X146421005Y-100185551D01*
X146422055Y-100181632D01*
X146437499Y-100064321D01*
X146437499Y-99924502D01*
X146456452Y-99829213D01*
X146510428Y-99748432D01*
X146591209Y-99694455D01*
X146686497Y-99675500D01*
X146725501Y-99675500D01*
X146820789Y-99694454D01*
X146901571Y-99748430D01*
X146955547Y-99829212D01*
X146974501Y-99924500D01*
X146974501Y-100005485D01*
X146980587Y-100062110D01*
X146980589Y-100062119D01*
X147028369Y-100190221D01*
X147028372Y-100190227D01*
X147110309Y-100299683D01*
X147110316Y-100299690D01*
X147219772Y-100381627D01*
X147219776Y-100381629D01*
X147263363Y-100397886D01*
X147347886Y-100429412D01*
X147404515Y-100435500D01*
X147733018Y-100435499D01*
X147797465Y-100443983D01*
X147859108Y-100460500D01*
X148655818Y-100460500D01*
X148751106Y-100479454D01*
X148831888Y-100533430D01*
X148848911Y-100553211D01*
X148852849Y-100557150D01*
X148962116Y-100637792D01*
X148962117Y-100637792D01*
X148962118Y-100637793D01*
X149090301Y-100682646D01*
X149120727Y-100685499D01*
X149120729Y-100685500D01*
X149120734Y-100685500D01*
X149629271Y-100685500D01*
X149629272Y-100685499D01*
X149659699Y-100682646D01*
X149787882Y-100637793D01*
X149897150Y-100557150D01*
X149977793Y-100447882D01*
X149977795Y-100447874D01*
X149979852Y-100443985D01*
X149988732Y-100433060D01*
X149988874Y-100432868D01*
X149988882Y-100432874D01*
X150041133Y-100368594D01*
X150126599Y-100322393D01*
X150223241Y-100312416D01*
X150316344Y-100340181D01*
X150391735Y-100401462D01*
X150420148Y-100443985D01*
X150422209Y-100447885D01*
X150485344Y-100533430D01*
X150502850Y-100557150D01*
X150612118Y-100637793D01*
X150740301Y-100682646D01*
X150770727Y-100685499D01*
X150770729Y-100685500D01*
X150770734Y-100685500D01*
X150939546Y-100685500D01*
X151034834Y-100704454D01*
X151115616Y-100758430D01*
X154164500Y-103807314D01*
X154164499Y-103807314D01*
X154257683Y-103900497D01*
X154257683Y-103900498D01*
X154257685Y-103900499D01*
X154257686Y-103900500D01*
X154371814Y-103966392D01*
X154499108Y-104000500D01*
X180065892Y-104000500D01*
X180193186Y-103966392D01*
X180307314Y-103900500D01*
X180410500Y-103797314D01*
X180476392Y-103683186D01*
X180510500Y-103555893D01*
X180510500Y-103424108D01*
X180510500Y-102788337D01*
X180529454Y-102693049D01*
X180583430Y-102612267D01*
X180651463Y-102563996D01*
X180723244Y-102529427D01*
X180887704Y-102450228D01*
X180888344Y-102449792D01*
X180982384Y-102385676D01*
X181104479Y-102302433D01*
X181296805Y-102123981D01*
X181460386Y-101918857D01*
X181591568Y-101691643D01*
X181687420Y-101447416D01*
X181745802Y-101191630D01*
X181765408Y-100930000D01*
X181745802Y-100668370D01*
X181692691Y-100435676D01*
X181687421Y-100412587D01*
X181591571Y-100168364D01*
X181591569Y-100168361D01*
X181591568Y-100168357D01*
X181539615Y-100078372D01*
X181460387Y-99941144D01*
X181296805Y-99736019D01*
X181296794Y-99736008D01*
X181104479Y-99557567D01*
X180887707Y-99409773D01*
X180887702Y-99409771D01*
X180651331Y-99295940D01*
X180651326Y-99295938D01*
X180651323Y-99295937D01*
X180400615Y-99218604D01*
X180141182Y-99179500D01*
X179878818Y-99179500D01*
X179671271Y-99210783D01*
X179619384Y-99218604D01*
X179474107Y-99263416D01*
X179368677Y-99295937D01*
X179368675Y-99295937D01*
X179368668Y-99295940D01*
X179132297Y-99409771D01*
X179132292Y-99409773D01*
X178915520Y-99557567D01*
X178723205Y-99736008D01*
X178723194Y-99736019D01*
X178559612Y-99941144D01*
X178428436Y-100168348D01*
X178428428Y-100168364D01*
X178332578Y-100412587D01*
X178274198Y-100668370D01*
X178274197Y-100668375D01*
X178258053Y-100883811D01*
X178247342Y-100922339D01*
X178258053Y-100976188D01*
X178274197Y-101191625D01*
X178274198Y-101191629D01*
X178332578Y-101447412D01*
X178428428Y-101691635D01*
X178428436Y-101691651D01*
X178559612Y-101918855D01*
X178723194Y-102123980D01*
X178723205Y-102123991D01*
X178915520Y-102302432D01*
X179132292Y-102450226D01*
X179132294Y-102450227D01*
X179132296Y-102450228D01*
X179178075Y-102472274D01*
X179289967Y-102526159D01*
X179367595Y-102584580D01*
X179416957Y-102668261D01*
X179430538Y-102764462D01*
X179406271Y-102858537D01*
X179347850Y-102936165D01*
X179264169Y-102985527D01*
X179181930Y-102999500D01*
X176836919Y-102999500D01*
X176741631Y-102980546D01*
X176660849Y-102926570D01*
X176606873Y-102845788D01*
X176587919Y-102750500D01*
X176606873Y-102655212D01*
X176660849Y-102574430D01*
X176728881Y-102526159D01*
X176887457Y-102449792D01*
X177059167Y-102332721D01*
X176372293Y-101645847D01*
X176388942Y-101638951D01*
X176519970Y-101551401D01*
X176631401Y-101439970D01*
X176718951Y-101308942D01*
X176725846Y-101292293D01*
X177412125Y-101978572D01*
X177459966Y-101918581D01*
X177459972Y-101918572D01*
X177591112Y-101691434D01*
X177591116Y-101691425D01*
X177686941Y-101447267D01*
X177745304Y-101191558D01*
X177761445Y-100976187D01*
X177772155Y-100937659D01*
X177761445Y-100883812D01*
X177745304Y-100668441D01*
X177686941Y-100412732D01*
X177591116Y-100168574D01*
X177591114Y-100168569D01*
X177459971Y-99941425D01*
X177412125Y-99881427D01*
X176725846Y-100567705D01*
X176718951Y-100551058D01*
X176631401Y-100420030D01*
X176519970Y-100308599D01*
X176388942Y-100221049D01*
X176372292Y-100214152D01*
X177059167Y-99527277D01*
X176887455Y-99410207D01*
X176887444Y-99410201D01*
X176651146Y-99296405D01*
X176651141Y-99296403D01*
X176400510Y-99219093D01*
X176141146Y-99180000D01*
X175878854Y-99180000D01*
X175619489Y-99219093D01*
X175368858Y-99296403D01*
X175132539Y-99410209D01*
X174960830Y-99527277D01*
X175647706Y-100214153D01*
X175631058Y-100221049D01*
X175500030Y-100308599D01*
X175388599Y-100420030D01*
X175301049Y-100551058D01*
X175294153Y-100567706D01*
X174607873Y-99881426D01*
X174560030Y-99941422D01*
X174428885Y-100168569D01*
X174428883Y-100168574D01*
X174333058Y-100412732D01*
X174274694Y-100668441D01*
X174255093Y-100930000D01*
X174274694Y-101191558D01*
X174333058Y-101447267D01*
X174428883Y-101691425D01*
X174428885Y-101691430D01*
X174560028Y-101918574D01*
X174607873Y-101978570D01*
X175294152Y-101292291D01*
X175301049Y-101308942D01*
X175388599Y-101439970D01*
X175500030Y-101551401D01*
X175631058Y-101638951D01*
X175647705Y-101645846D01*
X174960831Y-102332721D01*
X175132545Y-102449792D01*
X175132551Y-102449795D01*
X175291120Y-102526159D01*
X175368747Y-102584580D01*
X175418109Y-102668261D01*
X175431690Y-102764462D01*
X175407423Y-102858538D01*
X175349002Y-102936165D01*
X175265321Y-102985527D01*
X175183082Y-102999500D01*
X154875454Y-102999500D01*
X154780166Y-102980546D01*
X154699384Y-102926570D01*
X151748430Y-99975616D01*
X151694454Y-99894834D01*
X151675500Y-99799546D01*
X151675500Y-99630729D01*
X151675499Y-99630726D01*
X151672646Y-99600304D01*
X151672646Y-99600301D01*
X151627793Y-99472118D01*
X151547150Y-99362850D01*
X151437882Y-99282207D01*
X151437880Y-99282206D01*
X151382898Y-99262967D01*
X151309699Y-99237354D01*
X151309697Y-99237353D01*
X151309695Y-99237353D01*
X151279273Y-99234500D01*
X151279266Y-99234500D01*
X150770734Y-99234500D01*
X150770726Y-99234500D01*
X150740304Y-99237353D01*
X150612119Y-99282206D01*
X150612116Y-99282208D01*
X150502853Y-99362847D01*
X150502847Y-99362853D01*
X150422208Y-99472116D01*
X150420146Y-99476018D01*
X150411267Y-99486940D01*
X150411126Y-99487132D01*
X150411117Y-99487125D01*
X150358863Y-99551408D01*
X150273396Y-99597607D01*
X150176754Y-99607583D01*
X150083652Y-99579816D01*
X150008262Y-99518533D01*
X149979854Y-99476018D01*
X149977793Y-99472119D01*
X149977793Y-99472118D01*
X149897150Y-99362850D01*
X149787882Y-99282207D01*
X149787880Y-99282206D01*
X149732898Y-99262967D01*
X149659699Y-99237354D01*
X149659697Y-99237353D01*
X149659695Y-99237353D01*
X149629273Y-99234500D01*
X149629266Y-99234500D01*
X149120734Y-99234500D01*
X149120726Y-99234500D01*
X149090304Y-99237353D01*
X148962119Y-99282206D01*
X148962116Y-99282207D01*
X148852849Y-99362849D01*
X148839659Y-99376041D01*
X148838271Y-99374653D01*
X148784326Y-99423776D01*
X148692927Y-99456719D01*
X148655818Y-99459500D01*
X148611546Y-99459500D01*
X148516258Y-99440546D01*
X148435476Y-99386570D01*
X148381500Y-99305788D01*
X148378245Y-99297514D01*
X148371629Y-99279777D01*
X148371627Y-99279772D01*
X148289690Y-99170316D01*
X148289684Y-99170310D01*
X148275025Y-99159337D01*
X148210101Y-99087061D01*
X148177777Y-98995440D01*
X148182976Y-98898425D01*
X148224905Y-98810783D01*
X148275025Y-98760663D01*
X148289684Y-98749689D01*
X148289683Y-98749689D01*
X148289687Y-98749687D01*
X148371628Y-98640226D01*
X148377494Y-98624500D01*
X148378248Y-98622480D01*
X148429308Y-98539824D01*
X148508112Y-98483000D01*
X148602664Y-98460659D01*
X148611547Y-98460500D01*
X148655818Y-98460500D01*
X148751106Y-98479454D01*
X148831888Y-98533430D01*
X148848911Y-98553211D01*
X148852849Y-98557150D01*
X148962116Y-98637792D01*
X148962117Y-98637792D01*
X148962118Y-98637793D01*
X149090301Y-98682646D01*
X149120727Y-98685499D01*
X149120729Y-98685500D01*
X149120734Y-98685500D01*
X149629271Y-98685500D01*
X149629272Y-98685499D01*
X149659699Y-98682646D01*
X149787882Y-98637793D01*
X149897150Y-98557150D01*
X149977793Y-98447882D01*
X149977795Y-98447874D01*
X149979852Y-98443985D01*
X149988732Y-98433060D01*
X149988874Y-98432868D01*
X149988882Y-98432874D01*
X150041133Y-98368594D01*
X150126599Y-98322393D01*
X150223241Y-98312416D01*
X150316344Y-98340181D01*
X150391735Y-98401462D01*
X150420148Y-98443985D01*
X150422209Y-98447885D01*
X150483365Y-98530749D01*
X150502850Y-98557150D01*
X150612118Y-98637793D01*
X150740301Y-98682646D01*
X150770727Y-98685499D01*
X150770729Y-98685500D01*
X150770734Y-98685500D01*
X151279271Y-98685500D01*
X151279272Y-98685499D01*
X151309699Y-98682646D01*
X151437882Y-98637793D01*
X151547150Y-98557150D01*
X151627793Y-98447882D01*
X151672646Y-98319699D01*
X151675500Y-98289266D01*
X151675500Y-98120454D01*
X151694454Y-98025166D01*
X151748430Y-97944384D01*
X152762814Y-96930000D01*
X174254592Y-96930000D01*
X174274197Y-97191625D01*
X174274198Y-97191629D01*
X174332578Y-97447412D01*
X174428428Y-97691635D01*
X174428436Y-97691651D01*
X174559612Y-97918855D01*
X174723194Y-98123980D01*
X174723205Y-98123991D01*
X174855000Y-98246278D01*
X174915521Y-98302433D01*
X174939112Y-98318517D01*
X175132292Y-98450226D01*
X175132294Y-98450227D01*
X175132296Y-98450228D01*
X175241714Y-98502921D01*
X175368668Y-98564059D01*
X175368669Y-98564059D01*
X175368677Y-98564063D01*
X175619385Y-98641396D01*
X175878818Y-98680500D01*
X175878822Y-98680500D01*
X176141178Y-98680500D01*
X176141182Y-98680500D01*
X176400615Y-98641396D01*
X176651323Y-98564063D01*
X176887704Y-98450228D01*
X176891144Y-98447883D01*
X176912885Y-98433060D01*
X177104479Y-98302433D01*
X177296805Y-98123981D01*
X177460386Y-97918857D01*
X177591568Y-97691643D01*
X177687420Y-97447416D01*
X177745802Y-97191630D01*
X177761696Y-96979532D01*
X177773183Y-96938212D01*
X177761696Y-96880466D01*
X177761692Y-96880408D01*
X177745802Y-96668370D01*
X177687420Y-96412584D01*
X177591568Y-96168357D01*
X177496728Y-96004089D01*
X177460387Y-95941144D01*
X177296805Y-95736019D01*
X177296794Y-95736008D01*
X177104479Y-95557567D01*
X176887707Y-95409773D01*
X176887702Y-95409771D01*
X176651331Y-95295940D01*
X176651326Y-95295938D01*
X176651323Y-95295937D01*
X176400615Y-95218604D01*
X176141182Y-95179500D01*
X175878818Y-95179500D01*
X175671271Y-95210783D01*
X175619384Y-95218604D01*
X175524954Y-95247732D01*
X175368677Y-95295937D01*
X175368675Y-95295937D01*
X175368668Y-95295940D01*
X175132297Y-95409771D01*
X175132292Y-95409773D01*
X174915520Y-95557567D01*
X174723205Y-95736008D01*
X174723194Y-95736019D01*
X174559612Y-95941144D01*
X174428436Y-96168348D01*
X174428428Y-96168364D01*
X174332578Y-96412587D01*
X174274198Y-96668370D01*
X174274197Y-96668374D01*
X174254592Y-96930000D01*
X152762814Y-96930000D01*
X155119384Y-94573430D01*
X155200166Y-94519454D01*
X155295454Y-94500500D01*
X179260500Y-94500500D01*
X179355788Y-94519454D01*
X179436570Y-94573430D01*
X179490546Y-94654212D01*
X179509500Y-94749500D01*
X179509500Y-95071662D01*
X179490546Y-95166950D01*
X179436570Y-95247732D01*
X179368538Y-95296003D01*
X179132292Y-95409773D01*
X178915520Y-95557567D01*
X178723205Y-95736008D01*
X178723194Y-95736019D01*
X178559612Y-95941144D01*
X178428436Y-96168348D01*
X178428428Y-96168364D01*
X178332578Y-96412587D01*
X178274198Y-96668370D01*
X178274197Y-96668374D01*
X178258304Y-96880466D01*
X178246816Y-96921786D01*
X178258304Y-96979533D01*
X178274197Y-97191625D01*
X178274198Y-97191629D01*
X178332578Y-97447412D01*
X178428428Y-97691635D01*
X178428436Y-97691651D01*
X178559612Y-97918855D01*
X178723194Y-98123980D01*
X178723205Y-98123991D01*
X178855000Y-98246278D01*
X178915521Y-98302433D01*
X178939112Y-98318517D01*
X179132292Y-98450226D01*
X179132294Y-98450227D01*
X179132296Y-98450228D01*
X179241714Y-98502921D01*
X179368668Y-98564059D01*
X179368669Y-98564059D01*
X179368677Y-98564063D01*
X179619385Y-98641396D01*
X179878818Y-98680500D01*
X179878822Y-98680500D01*
X180141178Y-98680500D01*
X180141182Y-98680500D01*
X180400615Y-98641396D01*
X180651323Y-98564063D01*
X180887704Y-98450228D01*
X180891144Y-98447883D01*
X180912885Y-98433060D01*
X181104479Y-98302433D01*
X181296805Y-98123981D01*
X181460386Y-97918857D01*
X181591568Y-97691643D01*
X181687420Y-97447416D01*
X181745802Y-97191630D01*
X181765408Y-96930000D01*
X181745802Y-96668370D01*
X181687420Y-96412584D01*
X181591568Y-96168357D01*
X181496728Y-96004089D01*
X181460387Y-95941144D01*
X181296805Y-95736019D01*
X181296794Y-95736008D01*
X181104479Y-95557567D01*
X180887707Y-95409773D01*
X180651462Y-95296003D01*
X180573835Y-95237582D01*
X180524473Y-95153901D01*
X180510500Y-95071662D01*
X180510500Y-93944110D01*
X180510499Y-93944104D01*
X180507821Y-93934111D01*
X180507818Y-93934100D01*
X180476392Y-93816814D01*
X180410500Y-93702686D01*
X180307314Y-93599500D01*
X180193186Y-93533608D01*
X180193183Y-93533607D01*
X180193181Y-93533606D01*
X180065892Y-93499500D01*
X155050893Y-93499500D01*
X154919108Y-93499500D01*
X154791818Y-93533606D01*
X154791814Y-93533607D01*
X154791814Y-93533608D01*
X154677686Y-93599500D01*
X151115616Y-97161570D01*
X151034834Y-97215546D01*
X150939546Y-97234500D01*
X150770726Y-97234500D01*
X150740304Y-97237353D01*
X150612119Y-97282206D01*
X150612116Y-97282208D01*
X150502853Y-97362847D01*
X150502847Y-97362853D01*
X150422208Y-97472116D01*
X150420146Y-97476018D01*
X150411267Y-97486940D01*
X150411126Y-97487132D01*
X150411117Y-97487125D01*
X150358863Y-97551408D01*
X150273396Y-97597607D01*
X150176754Y-97607583D01*
X150083652Y-97579816D01*
X150008262Y-97518533D01*
X149979854Y-97476018D01*
X149977794Y-97472123D01*
X149977793Y-97472118D01*
X149897150Y-97362850D01*
X149787882Y-97282207D01*
X149787880Y-97282206D01*
X149732898Y-97262967D01*
X149659699Y-97237354D01*
X149659697Y-97237353D01*
X149659695Y-97237353D01*
X149629273Y-97234500D01*
X149629266Y-97234500D01*
X149120734Y-97234500D01*
X149120726Y-97234500D01*
X149090304Y-97237353D01*
X148962119Y-97282206D01*
X148962116Y-97282207D01*
X148852849Y-97362849D01*
X148839659Y-97376041D01*
X148838271Y-97374653D01*
X148784326Y-97423776D01*
X148692927Y-97456719D01*
X148655818Y-97459500D01*
X147859107Y-97459500D01*
X147797467Y-97476016D01*
X147733024Y-97484500D01*
X147404525Y-97484500D01*
X147404514Y-97484501D01*
X147347889Y-97490587D01*
X147347880Y-97490589D01*
X147219778Y-97538369D01*
X147219772Y-97538372D01*
X147110316Y-97620309D01*
X147110309Y-97620316D01*
X147028372Y-97729772D01*
X147028370Y-97729776D01*
X146980588Y-97857884D01*
X146980587Y-97857886D01*
X146974500Y-97914508D01*
X146974500Y-97975500D01*
X146955546Y-98070788D01*
X146901570Y-98151570D01*
X146820788Y-98205546D01*
X146725500Y-98224500D01*
X146686500Y-98224500D01*
X146591212Y-98205546D01*
X146510430Y-98151570D01*
X146456454Y-98070788D01*
X146437500Y-97975502D01*
X146437499Y-97835677D01*
X146422056Y-97718370D01*
X146361598Y-97572411D01*
X146361596Y-97572407D01*
X146265429Y-97447079D01*
X146265420Y-97447070D01*
X146140092Y-97350903D01*
X146140088Y-97350901D01*
X145994127Y-97290443D01*
X145994129Y-97290443D01*
X145876823Y-97275000D01*
X144523176Y-97275000D01*
X144405870Y-97290443D01*
X144259911Y-97350901D01*
X144259907Y-97350903D01*
X144134579Y-97447070D01*
X144134570Y-97447079D01*
X144038403Y-97572407D01*
X144038401Y-97572411D01*
X143977943Y-97718371D01*
X143962500Y-97835676D01*
X143962500Y-98114323D01*
X143977943Y-98231629D01*
X144038401Y-98377588D01*
X144038403Y-98377592D01*
X144134571Y-98502921D01*
X144139064Y-98507414D01*
X144193043Y-98588194D01*
X144212000Y-98683481D01*
X144212000Y-98758259D01*
X144211999Y-98758259D01*
X144221926Y-98826392D01*
X144223737Y-98830096D01*
X144228889Y-98840635D01*
X144228892Y-98840640D01*
X144253714Y-98934571D01*
X144240700Y-99030851D01*
X144228892Y-99059358D01*
X144228166Y-99060844D01*
X144221926Y-99073607D01*
X144212000Y-99141740D01*
X144212000Y-99216511D01*
X144193046Y-99311799D01*
X144139070Y-99392581D01*
X144134573Y-99397077D01*
X144038400Y-99522411D01*
X143977943Y-99668371D01*
X143962500Y-99785676D01*
X143962500Y-100064323D01*
X143977943Y-100181629D01*
X143978996Y-100185557D01*
X143979526Y-100193652D01*
X143980074Y-100197812D01*
X143979801Y-100197847D01*
X143985348Y-100282505D01*
X143978996Y-100314441D01*
X143977943Y-100318367D01*
X143962500Y-100435676D01*
X143962500Y-100714323D01*
X143977943Y-100831629D01*
X143977944Y-100831632D01*
X144005520Y-100898207D01*
X144024473Y-100993495D01*
X144005518Y-101088783D01*
X143951543Y-101169562D01*
X142842021Y-102279086D01*
X142842019Y-102279088D01*
X142789292Y-102370415D01*
X142770390Y-102440961D01*
X142770390Y-102440962D01*
X142762000Y-102472274D01*
X142762000Y-104437367D01*
X142743046Y-104532655D01*
X142689070Y-104613437D01*
X142660863Y-104637711D01*
X142640351Y-104652849D01*
X142640347Y-104652853D01*
X142559708Y-104762116D01*
X142557646Y-104766018D01*
X142548767Y-104776940D01*
X142548626Y-104777132D01*
X142548617Y-104777125D01*
X142496363Y-104841408D01*
X142410896Y-104887607D01*
X142314254Y-104897583D01*
X142221152Y-104869816D01*
X142145762Y-104808533D01*
X142117354Y-104766018D01*
X142115293Y-104762119D01*
X142115293Y-104762118D01*
X142034650Y-104652850D01*
X142014136Y-104637710D01*
X141948725Y-104565876D01*
X141915781Y-104474477D01*
X141913000Y-104437367D01*
X141913000Y-101890699D01*
X141913001Y-101890686D01*
X141913001Y-101765167D01*
X141885708Y-101663310D01*
X141885707Y-101663309D01*
X141885707Y-101663307D01*
X141857354Y-101614198D01*
X141832980Y-101571981D01*
X141758413Y-101497414D01*
X141758410Y-101497412D01*
X140533061Y-100272062D01*
X140479085Y-100191280D01*
X140460131Y-100095992D01*
X140462733Y-100060091D01*
X140463000Y-100058258D01*
X140463000Y-99791740D01*
X140453073Y-99723607D01*
X140449145Y-99715573D01*
X140446109Y-99709362D01*
X140421286Y-99615435D01*
X140434297Y-99519155D01*
X140446106Y-99490642D01*
X140453073Y-99476393D01*
X140463000Y-99408260D01*
X140463000Y-99141740D01*
X140453073Y-99073607D01*
X140446109Y-99059362D01*
X140421286Y-98965435D01*
X140434297Y-98869155D01*
X140446108Y-98840640D01*
X140453073Y-98826393D01*
X140463000Y-98758260D01*
X140463000Y-98491740D01*
X140453073Y-98423607D01*
X140446109Y-98409362D01*
X140421286Y-98315435D01*
X140434297Y-98219155D01*
X140446106Y-98190642D01*
X140453073Y-98176393D01*
X140463000Y-98108260D01*
X140463000Y-97841740D01*
X140453073Y-97773607D01*
X140453072Y-97773604D01*
X140453072Y-97773603D01*
X140401700Y-97668520D01*
X140401698Y-97668518D01*
X140401698Y-97668517D01*
X140318983Y-97585802D01*
X140318981Y-97585801D01*
X140318979Y-97585799D01*
X140213895Y-97534427D01*
X140145760Y-97524500D01*
X138804240Y-97524500D01*
X138736108Y-97534426D01*
X138705886Y-97549201D01*
X138611955Y-97574022D01*
X138596529Y-97574500D01*
X137708456Y-97574500D01*
X137613168Y-97555546D01*
X137532386Y-97501570D01*
X137478410Y-97420788D01*
X137475156Y-97412517D01*
X137432712Y-97298722D01*
X137348619Y-97186388D01*
X137348618Y-97186387D01*
X137348616Y-97186384D01*
X137315469Y-97161570D01*
X137236276Y-97102286D01*
X137230159Y-97098946D01*
X137155613Y-97036641D01*
X137110584Y-96950551D01*
X137100500Y-96880408D01*
X137100500Y-96559772D01*
X137073207Y-96457913D01*
X137047036Y-96412584D01*
X137020480Y-96366587D01*
X136945913Y-96292020D01*
X136583413Y-95929520D01*
X136492088Y-95876793D01*
X136492085Y-95876792D01*
X136390227Y-95849500D01*
X131890227Y-95849500D01*
X131784773Y-95849500D01*
X131682911Y-95876793D01*
X131637250Y-95903156D01*
X131637249Y-95903155D01*
X131591592Y-95929516D01*
X131591588Y-95929519D01*
X131517019Y-96004088D01*
X131017020Y-96504086D01*
X130964293Y-96595412D01*
X130956115Y-96625934D01*
X130956114Y-96625936D01*
X130937000Y-96697269D01*
X130937000Y-101480967D01*
X130918046Y-101576255D01*
X130864070Y-101657036D01*
X130591587Y-101929519D01*
X124517020Y-108004086D01*
X124464292Y-108095413D01*
X124452285Y-108140227D01*
X124437000Y-108197272D01*
X120500000Y-108197272D01*
X120500000Y-87501339D01*
X120500015Y-87498625D01*
X120501680Y-87345940D01*
X123649500Y-87345940D01*
X123649500Y-87654060D01*
X123689718Y-87959544D01*
X123769465Y-88257164D01*
X123887378Y-88541830D01*
X123887380Y-88541834D01*
X123887382Y-88541838D01*
X124041432Y-88808660D01*
X124041443Y-88808678D01*
X124229001Y-89053108D01*
X124229005Y-89053112D01*
X124229009Y-89053117D01*
X124446883Y-89270991D01*
X124446887Y-89270994D01*
X124446891Y-89270998D01*
X124691321Y-89458556D01*
X124691326Y-89458559D01*
X124691330Y-89458562D01*
X124958170Y-89612622D01*
X125242836Y-89730535D01*
X125540456Y-89810282D01*
X125769569Y-89840445D01*
X125845939Y-89850500D01*
X125845940Y-89850500D01*
X126154061Y-89850500D01*
X126204974Y-89843797D01*
X126459544Y-89810282D01*
X126757164Y-89730535D01*
X127041830Y-89612622D01*
X127308670Y-89458562D01*
X127553117Y-89270991D01*
X127770991Y-89053117D01*
X127958562Y-88808670D01*
X128112622Y-88541830D01*
X128230535Y-88257164D01*
X128310282Y-87959544D01*
X128350500Y-87654060D01*
X128350500Y-87345940D01*
X181649500Y-87345940D01*
X181649500Y-87654060D01*
X181689718Y-87959544D01*
X181769465Y-88257164D01*
X181887378Y-88541830D01*
X181887380Y-88541834D01*
X181887382Y-88541838D01*
X182041432Y-88808660D01*
X182041443Y-88808678D01*
X182229001Y-89053108D01*
X182229005Y-89053112D01*
X182229009Y-89053117D01*
X182446883Y-89270991D01*
X182446887Y-89270994D01*
X182446891Y-89270998D01*
X182691321Y-89458556D01*
X182691326Y-89458559D01*
X182691330Y-89458562D01*
X182958170Y-89612622D01*
X183242836Y-89730535D01*
X183540456Y-89810282D01*
X183769569Y-89840445D01*
X183845939Y-89850500D01*
X183845940Y-89850500D01*
X184154061Y-89850500D01*
X184204974Y-89843797D01*
X184459544Y-89810282D01*
X184757164Y-89730535D01*
X185041830Y-89612622D01*
X185308670Y-89458562D01*
X185553117Y-89270991D01*
X185770991Y-89053117D01*
X185958562Y-88808670D01*
X186112622Y-88541830D01*
X186230535Y-88257164D01*
X186310282Y-87959544D01*
X186350500Y-87654060D01*
X186350500Y-87345940D01*
X186310282Y-87040456D01*
X186230535Y-86742836D01*
X186112622Y-86458170D01*
X185958562Y-86191330D01*
X185958559Y-86191326D01*
X185958556Y-86191321D01*
X185770998Y-85946891D01*
X185770994Y-85946887D01*
X185770991Y-85946883D01*
X185553117Y-85729009D01*
X185553112Y-85729005D01*
X185553108Y-85729001D01*
X185308678Y-85541443D01*
X185308660Y-85541432D01*
X185041838Y-85387382D01*
X185041834Y-85387380D01*
X185041830Y-85387378D01*
X184757164Y-85269465D01*
X184459544Y-85189718D01*
X184459539Y-85189717D01*
X184459540Y-85189717D01*
X184154061Y-85149500D01*
X184154060Y-85149500D01*
X183845940Y-85149500D01*
X183845939Y-85149500D01*
X183540460Y-85189717D01*
X183242842Y-85269463D01*
X183242839Y-85269464D01*
X183242836Y-85269465D01*
X182958170Y-85387378D01*
X182958168Y-85387378D01*
X182958161Y-85387382D01*
X182691339Y-85541432D01*
X182691321Y-85541443D01*
X182446891Y-85729001D01*
X182229001Y-85946891D01*
X182041443Y-86191321D01*
X182041432Y-86191339D01*
X181887382Y-86458161D01*
X181769463Y-86742842D01*
X181756132Y-86792596D01*
X181689718Y-87040456D01*
X181649500Y-87345940D01*
X128350500Y-87345940D01*
X128310282Y-87040456D01*
X128230535Y-86742836D01*
X128112622Y-86458170D01*
X127958562Y-86191330D01*
X127958559Y-86191326D01*
X127958556Y-86191321D01*
X127770998Y-85946891D01*
X127770994Y-85946887D01*
X127770991Y-85946883D01*
X127553117Y-85729009D01*
X127553112Y-85729005D01*
X127553108Y-85729001D01*
X127308678Y-85541443D01*
X127308660Y-85541432D01*
X127041838Y-85387382D01*
X127041834Y-85387380D01*
X127041830Y-85387378D01*
X126757164Y-85269465D01*
X126459544Y-85189718D01*
X126459539Y-85189717D01*
X126459540Y-85189717D01*
X126154061Y-85149500D01*
X126154060Y-85149500D01*
X125845940Y-85149500D01*
X125845939Y-85149500D01*
X125540460Y-85189717D01*
X125242842Y-85269463D01*
X125242839Y-85269464D01*
X125242836Y-85269465D01*
X124958170Y-85387378D01*
X124958168Y-85387378D01*
X124958161Y-85387382D01*
X124691339Y-85541432D01*
X124691321Y-85541443D01*
X124446891Y-85729001D01*
X124229001Y-85946891D01*
X124041443Y-86191321D01*
X124041432Y-86191339D01*
X123887382Y-86458161D01*
X123769463Y-86742842D01*
X123756132Y-86792596D01*
X123689718Y-87040456D01*
X123649500Y-87345940D01*
X120501680Y-87345940D01*
X120502513Y-87269487D01*
X120503446Y-87250499D01*
X120521823Y-87040460D01*
X120543508Y-86792589D01*
X120546343Y-86771060D01*
X120551319Y-86742842D01*
X120625928Y-86319710D01*
X120630620Y-86298539D01*
X120749252Y-85855801D01*
X120755772Y-85835123D01*
X120912526Y-85404446D01*
X120920825Y-85384408D01*
X121114531Y-84969005D01*
X121124547Y-84949764D01*
X121353705Y-84552851D01*
X121365359Y-84534557D01*
X121628258Y-84159099D01*
X121641455Y-84141901D01*
X121936060Y-83790805D01*
X121950713Y-83774813D01*
X122274813Y-83450713D01*
X122290805Y-83436060D01*
X122641901Y-83141455D01*
X122659099Y-83128258D01*
X123034557Y-82865359D01*
X123052851Y-82853705D01*
X123449764Y-82624547D01*
X123469005Y-82614531D01*
X123884408Y-82420825D01*
X123904446Y-82412526D01*
X124335123Y-82255772D01*
X124355801Y-82249252D01*
X124798539Y-82130620D01*
X124819710Y-82125928D01*
X125271068Y-82046341D01*
X125292589Y-82043508D01*
X125750509Y-82003445D01*
X125769478Y-82002513D01*
X125993183Y-82000074D01*
X125998625Y-82000015D01*
X126001339Y-82000000D01*
X183998661Y-82000000D01*
X184001375Y-82000015D01*
G37*
%TD.AperFunction*%
%TD*%
%TA.AperFunction,Conductor*%
%TO.N,VIN*%
G36*
X184943039Y-132019685D02*
G01*
X184988794Y-132072489D01*
X185000000Y-132124000D01*
X185000000Y-136376000D01*
X184980315Y-136443039D01*
X184927511Y-136488794D01*
X184876000Y-136500000D01*
X181000000Y-136500000D01*
X173500000Y-136500000D01*
X170124000Y-136500000D01*
X170056961Y-136480315D01*
X170011206Y-136427511D01*
X170000000Y-136376000D01*
X170000000Y-133624000D01*
X170019685Y-133556961D01*
X170072489Y-133511206D01*
X170124000Y-133500000D01*
X173500001Y-133500000D01*
X173500001Y-133499999D01*
X174371007Y-133313355D01*
X174440676Y-133318555D01*
X174471289Y-133335332D01*
X174519774Y-133371628D01*
X174647886Y-133419412D01*
X174704515Y-133425500D01*
X175295484Y-133425499D01*
X175352114Y-133419412D01*
X175480226Y-133371628D01*
X175589687Y-133289687D01*
X175671628Y-133180226D01*
X175706893Y-133085677D01*
X175748764Y-133029745D01*
X175797087Y-133007766D01*
X180487157Y-132002751D01*
X180513139Y-132000000D01*
X184876000Y-132000000D01*
X184943039Y-132019685D01*
G37*
%TD.AperFunction*%
%TD*%
M02*
