%TF.GenerationSoftware,KiCad,Pcbnew,8.0.2-1*%
%TF.CreationDate,2025-01-08T22:21:28-08:00*%
%TF.ProjectId,rocket2-load-cell,726f636b-6574-4322-9d6c-6f61642d6365,rev?*%
%TF.SameCoordinates,Original*%
%TF.FileFunction,Copper,L2,Bot*%
%TF.FilePolarity,Positive*%
%FSLAX46Y46*%
G04 Gerber Fmt 4.6, Leading zero omitted, Abs format (unit mm)*
G04 Created by KiCad (PCBNEW 8.0.2-1) date 2025-01-08 22:21:28*
%MOMM*%
%LPD*%
G01*
G04 APERTURE LIST*
%TA.AperFunction,ComponentPad*%
%ADD10C,2.500000*%
%TD*%
%TA.AperFunction,ComponentPad*%
%ADD11C,1.400000*%
%TD*%
%TA.AperFunction,ComponentPad*%
%ADD12C,2.000000*%
%TD*%
%TA.AperFunction,ComponentPad*%
%ADD13R,2.600000X2.600000*%
%TD*%
%TA.AperFunction,ComponentPad*%
%ADD14C,2.600000*%
%TD*%
%TA.AperFunction,ViaPad*%
%ADD15C,0.500000*%
%TD*%
%TA.AperFunction,Conductor*%
%ADD16C,0.300000*%
%TD*%
%TA.AperFunction,Conductor*%
%ADD17C,0.500000*%
%TD*%
G04 APERTURE END LIST*
D10*
%TO.P,GX12,1*%
%TO.N,AIN+*%
X184000000Y-97000000D03*
%TO.P,GX12,2*%
%TO.N,GND*%
X184000000Y-101000000D03*
%TO.P,GX12,3*%
%TO.N,Net-(C13-Pad1)*%
X180000000Y-101000000D03*
%TO.P,GX12,4*%
%TO.N,AIN-*%
X180000000Y-97000000D03*
%TD*%
D11*
%TO.P,U5,1,GND*%
%TO.N,GND*%
X169740000Y-110730000D03*
D12*
X166720000Y-107160000D03*
X166710000Y-123200000D03*
D11*
%TO.P,U5,2,3.3V*%
%TO.N,+3.3V*%
X172260000Y-112000000D03*
%TO.P,U5,3,~{RST}*%
%TO.N,ETH_~{RST}*%
X169720000Y-113260000D03*
%TO.P,U5,4,TX*%
%TO.N,ETH_TX*%
X172260000Y-114540000D03*
%TO.P,U5,5,RX*%
%TO.N,ETH_RX*%
X169720000Y-115780000D03*
%TO.P,U5,6,CP1/RTS*%
%TO.N,ETH_RTS*%
X172260000Y-117080000D03*
%TO.P,U5,7,CP2/DTR*%
%TO.N,unconnected-(U5-CP2{slash}DTR-Pad7)*%
X169720000Y-118350000D03*
%TO.P,U5,8,CP3/CTS/DCD*%
%TO.N,ETH_CTS*%
X172260000Y-119610000D03*
%TD*%
D13*
%TO.P,J2,1,Pin_1*%
%TO.N,VBUS*%
X182500000Y-134080000D03*
D14*
%TO.P,J2,2,Pin_2*%
%TO.N,GND*%
X182500000Y-129000000D03*
%TD*%
D15*
%TO.N,+3.3V*%
X150000000Y-125500000D03*
X153000000Y-125500000D03*
%TO.N,ETH_~{RST}*%
X164500000Y-113000000D03*
X137000000Y-111000000D03*
%TO.N,ETH_RTS*%
X165500000Y-115000000D03*
X137500000Y-111500000D03*
%TO.N,ETH_RX*%
X165500000Y-116000000D03*
X138000000Y-112000000D03*
%TO.N,ETH_TX*%
X165500000Y-117000000D03*
X138500000Y-112500000D03*
%TO.N,ETH_CTS*%
X165500000Y-118000000D03*
X139000000Y-113000000D03*
%TO.N,+3.3V*%
X142337500Y-113250000D03*
X141337500Y-106575000D03*
X141837500Y-118250000D03*
X141337500Y-107775000D03*
%TO.N,GND*%
X143837500Y-100250000D03*
X139837500Y-119750000D03*
X139837500Y-127250000D03*
X133337500Y-99250000D03*
X146337500Y-118660000D03*
X145337500Y-96750000D03*
X148837500Y-109750000D03*
X144061765Y-102474266D03*
X142837500Y-128250000D03*
X129337500Y-109750000D03*
X145837500Y-132750000D03*
X128837500Y-106250000D03*
X134837500Y-105250000D03*
X148837500Y-132750000D03*
X128837500Y-113750000D03*
X130337500Y-118250000D03*
X144112500Y-109525000D03*
%TO.N,MEM_CS*%
X134337500Y-121750000D03*
X134337500Y-114750000D03*
%TO.N,MEM_WP*%
X137337500Y-115000000D03*
X137337500Y-121750000D03*
%TO.N,MEM_MISO*%
X135837500Y-114750000D03*
X135837500Y-121750000D03*
%TD*%
D16*
%TO.N,ETH_RTS*%
X165500000Y-115000000D02*
X161500000Y-111000000D01*
X161500000Y-111000000D02*
X138000000Y-111000000D01*
X138000000Y-111000000D02*
X137500000Y-111500000D01*
%TO.N,ETH_RX*%
X161000000Y-111500000D02*
X138500000Y-111500000D01*
X138500000Y-111500000D02*
X138000000Y-112000000D01*
X165500000Y-116000000D02*
X161000000Y-111500000D01*
%TO.N,ETH_TX*%
X165500000Y-117000000D02*
X160650000Y-112150000D01*
X160650000Y-112150000D02*
X138850000Y-112150000D01*
X138850000Y-112150000D02*
X138500000Y-112500000D01*
%TO.N,ETH_CTS*%
X160150000Y-112650000D02*
X139350000Y-112650000D01*
X165500000Y-118000000D02*
X160150000Y-112650000D01*
X139350000Y-112650000D02*
X139000000Y-113000000D01*
D17*
%TO.N,+3.3V*%
X150000000Y-125500000D02*
X153000000Y-125500000D01*
D16*
%TO.N,ETH_~{RST}*%
X162000000Y-110500000D02*
X164500000Y-113000000D01*
X137500000Y-110500000D02*
X162000000Y-110500000D01*
X137000000Y-111000000D02*
X137500000Y-110500000D01*
D17*
%TO.N,+3.3V*%
X142337500Y-115500000D02*
X142337500Y-113250000D01*
X141837500Y-118250000D02*
X142337500Y-117750000D01*
D16*
X141337500Y-107775000D02*
X141337500Y-106575000D01*
D17*
X142337500Y-117750000D02*
X142337500Y-115500000D01*
D16*
%TO.N,MEM_CS*%
X134337500Y-121750000D02*
X134337500Y-114750000D01*
%TO.N,MEM_WP*%
X137337500Y-121750000D02*
X137337500Y-115000000D01*
%TO.N,MEM_MISO*%
X135837500Y-121750000D02*
X135837500Y-114750000D01*
%TD*%
%TA.AperFunction,Conductor*%
%TO.N,GND*%
G36*
X184000642Y-82000007D02*
G01*
X184235302Y-82002565D01*
X184244734Y-82003029D01*
X184712846Y-82043984D01*
X184723567Y-82045396D01*
X185185664Y-82126875D01*
X185196192Y-82129209D01*
X185649458Y-82250661D01*
X185659747Y-82253906D01*
X186100688Y-82414395D01*
X186110654Y-82418523D01*
X186535926Y-82616830D01*
X186545512Y-82621821D01*
X186951866Y-82856429D01*
X186960985Y-82862238D01*
X187345353Y-83131376D01*
X187353935Y-83137962D01*
X187713370Y-83439564D01*
X187721345Y-83446872D01*
X188053127Y-83778654D01*
X188060435Y-83786629D01*
X188362037Y-84146064D01*
X188368623Y-84154646D01*
X188637761Y-84539014D01*
X188643573Y-84548138D01*
X188878176Y-84954483D01*
X188883171Y-84964078D01*
X189081470Y-85389331D01*
X189085609Y-85399323D01*
X189205604Y-85729007D01*
X189246089Y-85840239D01*
X189249342Y-85850555D01*
X189370786Y-86303790D01*
X189373127Y-86314352D01*
X189454603Y-86776432D01*
X189456015Y-86787156D01*
X189496969Y-87255252D01*
X189497434Y-87264708D01*
X189499993Y-87499357D01*
X189500000Y-87500709D01*
X189500000Y-143499290D01*
X189499993Y-143500642D01*
X189497434Y-143735291D01*
X189496969Y-143744747D01*
X189456015Y-144212843D01*
X189454603Y-144223567D01*
X189373127Y-144685647D01*
X189370786Y-144696209D01*
X189249342Y-145149444D01*
X189246089Y-145159760D01*
X189085610Y-145600673D01*
X189081470Y-145610668D01*
X188883171Y-146035921D01*
X188878176Y-146045516D01*
X188643573Y-146451861D01*
X188637761Y-146460985D01*
X188368623Y-146845353D01*
X188362037Y-146853935D01*
X188060435Y-147213370D01*
X188053127Y-147221345D01*
X187721345Y-147553127D01*
X187713370Y-147560435D01*
X187353935Y-147862037D01*
X187345353Y-147868623D01*
X186960985Y-148137761D01*
X186951861Y-148143573D01*
X186545516Y-148378176D01*
X186535921Y-148383171D01*
X186110668Y-148581470D01*
X186100673Y-148585610D01*
X185659760Y-148746089D01*
X185649444Y-148749342D01*
X185196209Y-148870786D01*
X185185647Y-148873127D01*
X184723567Y-148954603D01*
X184712843Y-148956015D01*
X184244747Y-148996969D01*
X184235291Y-148997434D01*
X184000642Y-148999993D01*
X183999290Y-149000000D01*
X126000710Y-149000000D01*
X125999358Y-148999993D01*
X125764708Y-148997434D01*
X125755252Y-148996969D01*
X125287156Y-148956015D01*
X125276432Y-148954603D01*
X124814352Y-148873127D01*
X124803790Y-148870786D01*
X124350555Y-148749342D01*
X124340239Y-148746089D01*
X123899326Y-148585610D01*
X123889331Y-148581470D01*
X123464078Y-148383171D01*
X123454483Y-148378176D01*
X123048138Y-148143573D01*
X123039014Y-148137761D01*
X122654646Y-147868623D01*
X122646064Y-147862037D01*
X122286629Y-147560435D01*
X122278654Y-147553127D01*
X121946872Y-147221345D01*
X121939564Y-147213370D01*
X121637962Y-146853935D01*
X121631376Y-146845353D01*
X121362238Y-146460985D01*
X121356426Y-146451861D01*
X121121823Y-146045516D01*
X121116828Y-146035921D01*
X121011611Y-145810282D01*
X120918523Y-145610654D01*
X120914395Y-145600688D01*
X120753906Y-145159747D01*
X120750661Y-145149458D01*
X120629209Y-144696192D01*
X120626875Y-144685664D01*
X120545396Y-144223567D01*
X120543984Y-144212843D01*
X120503030Y-143744747D01*
X120502565Y-143735291D01*
X120501679Y-143654053D01*
X120500007Y-143500642D01*
X120500000Y-143499290D01*
X120500000Y-143345946D01*
X123649500Y-143345946D01*
X123649500Y-143654053D01*
X123649501Y-143654069D01*
X123689717Y-143959542D01*
X123769464Y-144257162D01*
X123887376Y-144541826D01*
X123887381Y-144541837D01*
X123976499Y-144696192D01*
X124041438Y-144808670D01*
X124041440Y-144808673D01*
X124041441Y-144808674D01*
X124229007Y-145053115D01*
X124229013Y-145053122D01*
X124446877Y-145270986D01*
X124446883Y-145270991D01*
X124691330Y-145458562D01*
X124862830Y-145557578D01*
X124958162Y-145612618D01*
X124958167Y-145612620D01*
X124958170Y-145612622D01*
X125242836Y-145730535D01*
X125540456Y-145810282D01*
X125845940Y-145850500D01*
X125845947Y-145850500D01*
X126154053Y-145850500D01*
X126154060Y-145850500D01*
X126459544Y-145810282D01*
X126757164Y-145730535D01*
X127041830Y-145612622D01*
X127308670Y-145458562D01*
X127553117Y-145270991D01*
X127770991Y-145053117D01*
X127958562Y-144808670D01*
X128112622Y-144541830D01*
X128230535Y-144257164D01*
X128310282Y-143959544D01*
X128350500Y-143654060D01*
X128350500Y-143345946D01*
X181649500Y-143345946D01*
X181649500Y-143654053D01*
X181649501Y-143654069D01*
X181689717Y-143959542D01*
X181769464Y-144257162D01*
X181887376Y-144541826D01*
X181887381Y-144541837D01*
X181976499Y-144696192D01*
X182041438Y-144808670D01*
X182041440Y-144808673D01*
X182041441Y-144808674D01*
X182229007Y-145053115D01*
X182229013Y-145053122D01*
X182446877Y-145270986D01*
X182446883Y-145270991D01*
X182691330Y-145458562D01*
X182862830Y-145557578D01*
X182958162Y-145612618D01*
X182958167Y-145612620D01*
X182958170Y-145612622D01*
X183242836Y-145730535D01*
X183540456Y-145810282D01*
X183845940Y-145850500D01*
X183845947Y-145850500D01*
X184154053Y-145850500D01*
X184154060Y-145850500D01*
X184459544Y-145810282D01*
X184757164Y-145730535D01*
X185041830Y-145612622D01*
X185308670Y-145458562D01*
X185553117Y-145270991D01*
X185770991Y-145053117D01*
X185958562Y-144808670D01*
X186112622Y-144541830D01*
X186230535Y-144257164D01*
X186310282Y-143959544D01*
X186350500Y-143654060D01*
X186350500Y-143345940D01*
X186310282Y-143040456D01*
X186230535Y-142742836D01*
X186112622Y-142458170D01*
X186112620Y-142458167D01*
X186112618Y-142458162D01*
X186057578Y-142362830D01*
X185958562Y-142191330D01*
X185770991Y-141946883D01*
X185770986Y-141946877D01*
X185553122Y-141729013D01*
X185553115Y-141729007D01*
X185308674Y-141541441D01*
X185308673Y-141541440D01*
X185308670Y-141541438D01*
X185202280Y-141480014D01*
X185041837Y-141387381D01*
X185041826Y-141387376D01*
X184757162Y-141269464D01*
X184459542Y-141189717D01*
X184154069Y-141149501D01*
X184154066Y-141149500D01*
X184154060Y-141149500D01*
X183845940Y-141149500D01*
X183845934Y-141149500D01*
X183845930Y-141149501D01*
X183540457Y-141189717D01*
X183242837Y-141269464D01*
X182958173Y-141387376D01*
X182958162Y-141387381D01*
X182691325Y-141541441D01*
X182446884Y-141729007D01*
X182446877Y-141729013D01*
X182229013Y-141946877D01*
X182229007Y-141946884D01*
X182041441Y-142191325D01*
X181887381Y-142458162D01*
X181887376Y-142458173D01*
X181769464Y-142742837D01*
X181689717Y-143040457D01*
X181649501Y-143345930D01*
X181649500Y-143345946D01*
X128350500Y-143345946D01*
X128350500Y-143345940D01*
X128310282Y-143040456D01*
X128230535Y-142742836D01*
X128112622Y-142458170D01*
X128112620Y-142458167D01*
X128112618Y-142458162D01*
X128057578Y-142362830D01*
X127958562Y-142191330D01*
X127770991Y-141946883D01*
X127770986Y-141946877D01*
X127553122Y-141729013D01*
X127553115Y-141729007D01*
X127308674Y-141541441D01*
X127308673Y-141541440D01*
X127308670Y-141541438D01*
X127202280Y-141480014D01*
X127041837Y-141387381D01*
X127041826Y-141387376D01*
X126757162Y-141269464D01*
X126459542Y-141189717D01*
X126154069Y-141149501D01*
X126154066Y-141149500D01*
X126154060Y-141149500D01*
X125845940Y-141149500D01*
X125845934Y-141149500D01*
X125845930Y-141149501D01*
X125540457Y-141189717D01*
X125242837Y-141269464D01*
X124958173Y-141387376D01*
X124958162Y-141387381D01*
X124691325Y-141541441D01*
X124446884Y-141729007D01*
X124446877Y-141729013D01*
X124229013Y-141946877D01*
X124229007Y-141946884D01*
X124041441Y-142191325D01*
X123887381Y-142458162D01*
X123887376Y-142458173D01*
X123769464Y-142742837D01*
X123689717Y-143040457D01*
X123649501Y-143345930D01*
X123649500Y-143345946D01*
X120500000Y-143345946D01*
X120500000Y-132760247D01*
X180999500Y-132760247D01*
X180999500Y-135399752D01*
X181011131Y-135458229D01*
X181011132Y-135458230D01*
X181055447Y-135524552D01*
X181121769Y-135568867D01*
X181121770Y-135568868D01*
X181180247Y-135580499D01*
X181180250Y-135580500D01*
X181180252Y-135580500D01*
X183819750Y-135580500D01*
X183819751Y-135580499D01*
X183834568Y-135577552D01*
X183878229Y-135568868D01*
X183878229Y-135568867D01*
X183878231Y-135568867D01*
X183944552Y-135524552D01*
X183988867Y-135458231D01*
X183988867Y-135458229D01*
X183988868Y-135458229D01*
X184000499Y-135399752D01*
X184000500Y-135399750D01*
X184000500Y-132760249D01*
X184000499Y-132760247D01*
X183988868Y-132701770D01*
X183988867Y-132701769D01*
X183944552Y-132635447D01*
X183878230Y-132591132D01*
X183878229Y-132591131D01*
X183819752Y-132579500D01*
X183819748Y-132579500D01*
X181180252Y-132579500D01*
X181180247Y-132579500D01*
X181121770Y-132591131D01*
X181121769Y-132591132D01*
X181055447Y-132635447D01*
X181011132Y-132701769D01*
X181011131Y-132701770D01*
X180999500Y-132760247D01*
X120500000Y-132760247D01*
X120500000Y-125499999D01*
X149544867Y-125499999D01*
X149548238Y-125523445D01*
X149549500Y-125541092D01*
X149549500Y-125559310D01*
X149555991Y-125583537D01*
X149558952Y-125597976D01*
X149563301Y-125628222D01*
X149563302Y-125628225D01*
X149570286Y-125643518D01*
X149577264Y-125662927D01*
X149577267Y-125662940D01*
X149580201Y-125673886D01*
X149596170Y-125701545D01*
X149601574Y-125712027D01*
X149617118Y-125746063D01*
X149623612Y-125753558D01*
X149637291Y-125772767D01*
X149639510Y-125776612D01*
X149666920Y-125804022D01*
X149672952Y-125810500D01*
X149701951Y-125843967D01*
X149704485Y-125845595D01*
X149716897Y-125855598D01*
X149716941Y-125855542D01*
X149723381Y-125860483D01*
X149723387Y-125860489D01*
X149762871Y-125883285D01*
X149762878Y-125883289D01*
X149767918Y-125886361D01*
X149810930Y-125914004D01*
X149812226Y-125914595D01*
X149821171Y-125917751D01*
X149826107Y-125919795D01*
X149826114Y-125919799D01*
X149874940Y-125932881D01*
X149876778Y-125933374D01*
X149879580Y-125934160D01*
X149935228Y-125950500D01*
X153064772Y-125950500D01*
X153120426Y-125934157D01*
X153123243Y-125933368D01*
X153173886Y-125919799D01*
X153173892Y-125919795D01*
X153178821Y-125917754D01*
X153187768Y-125914597D01*
X153189062Y-125914005D01*
X153189069Y-125914004D01*
X153232114Y-125886339D01*
X153237086Y-125883309D01*
X153276613Y-125860489D01*
X153276618Y-125860483D01*
X153283068Y-125855536D01*
X153283111Y-125855593D01*
X153295525Y-125845588D01*
X153298049Y-125843967D01*
X153327054Y-125810491D01*
X153333060Y-125804040D01*
X153360489Y-125776613D01*
X153362708Y-125772767D01*
X153376391Y-125753553D01*
X153382882Y-125746063D01*
X153398428Y-125712018D01*
X153403822Y-125701555D01*
X153419799Y-125673886D01*
X153422734Y-125662931D01*
X153429715Y-125643513D01*
X153436697Y-125628226D01*
X153441046Y-125597976D01*
X153444007Y-125583537D01*
X153450500Y-125559309D01*
X153450500Y-125541092D01*
X153451762Y-125523445D01*
X153455133Y-125499999D01*
X153451762Y-125476552D01*
X153450500Y-125458906D01*
X153450500Y-125440692D01*
X153450498Y-125440683D01*
X153444004Y-125416451D01*
X153441044Y-125402013D01*
X153436697Y-125371776D01*
X153436696Y-125371771D01*
X153433780Y-125365387D01*
X153429713Y-125356481D01*
X153422734Y-125337069D01*
X153419799Y-125326114D01*
X153403826Y-125298450D01*
X153398427Y-125287975D01*
X153382884Y-125253941D01*
X153382883Y-125253940D01*
X153382882Y-125253937D01*
X153376385Y-125246439D01*
X153362709Y-125227233D01*
X153360488Y-125223386D01*
X153333062Y-125195960D01*
X153327046Y-125189498D01*
X153327034Y-125189484D01*
X153298049Y-125156033D01*
X153298047Y-125156032D01*
X153298048Y-125156032D01*
X153295508Y-125154400D01*
X153283101Y-125144401D01*
X153283059Y-125144458D01*
X153276617Y-125139515D01*
X153276613Y-125139511D01*
X153259933Y-125129881D01*
X153237115Y-125116706D01*
X153232078Y-125113636D01*
X153189068Y-125085995D01*
X153187773Y-125085404D01*
X153178845Y-125082254D01*
X153173887Y-125080200D01*
X153123195Y-125066617D01*
X153120358Y-125065821D01*
X153064772Y-125049500D01*
X153059309Y-125049500D01*
X150064772Y-125049500D01*
X149935228Y-125049500D01*
X149879584Y-125065837D01*
X149876747Y-125066633D01*
X149826112Y-125080201D01*
X149821148Y-125082257D01*
X149812223Y-125085405D01*
X149810932Y-125085995D01*
X149767923Y-125113635D01*
X149762887Y-125116704D01*
X149723388Y-125139509D01*
X149716942Y-125144456D01*
X149716900Y-125144401D01*
X149704501Y-125154392D01*
X149701956Y-125156027D01*
X149701951Y-125156032D01*
X149672965Y-125189484D01*
X149666936Y-125195960D01*
X149639511Y-125223386D01*
X149637283Y-125227245D01*
X149623618Y-125246435D01*
X149617117Y-125253937D01*
X149601574Y-125287971D01*
X149596169Y-125298454D01*
X149580202Y-125326110D01*
X149577265Y-125337069D01*
X149570290Y-125356472D01*
X149563302Y-125371774D01*
X149563301Y-125371780D01*
X149558952Y-125402023D01*
X149555990Y-125416464D01*
X149549501Y-125440683D01*
X149549500Y-125440691D01*
X149549500Y-125458906D01*
X149548238Y-125476552D01*
X149544867Y-125499999D01*
X120500000Y-125499999D01*
X120500000Y-114750000D01*
X133882367Y-114750000D01*
X133900802Y-114878225D01*
X133954520Y-114995848D01*
X133954618Y-114996063D01*
X133956712Y-114998480D01*
X133958040Y-115001388D01*
X133959413Y-115003524D01*
X133959106Y-115003721D01*
X133985737Y-115062032D01*
X133987000Y-115079683D01*
X133987000Y-121420317D01*
X133967315Y-121487356D01*
X133956715Y-121501517D01*
X133954619Y-121503935D01*
X133954616Y-121503939D01*
X133900802Y-121621774D01*
X133882367Y-121750000D01*
X133900802Y-121878225D01*
X133930303Y-121942822D01*
X133954618Y-121996063D01*
X134039451Y-122093967D01*
X134148431Y-122164004D01*
X134272725Y-122200499D01*
X134272727Y-122200500D01*
X134272728Y-122200500D01*
X134402273Y-122200500D01*
X134402273Y-122200499D01*
X134526569Y-122164004D01*
X134635549Y-122093967D01*
X134720382Y-121996063D01*
X134774197Y-121878226D01*
X134792633Y-121750000D01*
X134774197Y-121621774D01*
X134720382Y-121503937D01*
X134718284Y-121501516D01*
X134716956Y-121498607D01*
X134715589Y-121496480D01*
X134715895Y-121496283D01*
X134689262Y-121437961D01*
X134688000Y-121420317D01*
X134688000Y-115079683D01*
X134707685Y-115012644D01*
X134718280Y-114998487D01*
X134720382Y-114996063D01*
X134774197Y-114878226D01*
X134792633Y-114750000D01*
X135382367Y-114750000D01*
X135400802Y-114878225D01*
X135454520Y-114995848D01*
X135454618Y-114996063D01*
X135456712Y-114998480D01*
X135458040Y-115001388D01*
X135459413Y-115003524D01*
X135459106Y-115003721D01*
X135485737Y-115062032D01*
X135487000Y-115079683D01*
X135487000Y-121420317D01*
X135467315Y-121487356D01*
X135456715Y-121501517D01*
X135454619Y-121503935D01*
X135454616Y-121503939D01*
X135400802Y-121621774D01*
X135382367Y-121750000D01*
X135400802Y-121878225D01*
X135430303Y-121942822D01*
X135454618Y-121996063D01*
X135539451Y-122093967D01*
X135648431Y-122164004D01*
X135772725Y-122200499D01*
X135772727Y-122200500D01*
X135772728Y-122200500D01*
X135902273Y-122200500D01*
X135902273Y-122200499D01*
X136026569Y-122164004D01*
X136135549Y-122093967D01*
X136220382Y-121996063D01*
X136274197Y-121878226D01*
X136292633Y-121750000D01*
X136274197Y-121621774D01*
X136220382Y-121503937D01*
X136218284Y-121501516D01*
X136216956Y-121498607D01*
X136215589Y-121496480D01*
X136215895Y-121496283D01*
X136189262Y-121437961D01*
X136188000Y-121420317D01*
X136188000Y-115079683D01*
X136207685Y-115012644D01*
X136217148Y-115000000D01*
X136882367Y-115000000D01*
X136900802Y-115128225D01*
X136939467Y-115212888D01*
X136954618Y-115246063D01*
X136956712Y-115248480D01*
X136958040Y-115251388D01*
X136959413Y-115253524D01*
X136959106Y-115253721D01*
X136985737Y-115312032D01*
X136987000Y-115329683D01*
X136987000Y-121420317D01*
X136967315Y-121487356D01*
X136956715Y-121501517D01*
X136954619Y-121503935D01*
X136954616Y-121503939D01*
X136900802Y-121621774D01*
X136882367Y-121750000D01*
X136900802Y-121878225D01*
X136930303Y-121942822D01*
X136954618Y-121996063D01*
X137039451Y-122093967D01*
X137148431Y-122164004D01*
X137272725Y-122200499D01*
X137272727Y-122200500D01*
X137272728Y-122200500D01*
X137402273Y-122200500D01*
X137402273Y-122200499D01*
X137526569Y-122164004D01*
X137635549Y-122093967D01*
X137720382Y-121996063D01*
X137774197Y-121878226D01*
X137792633Y-121750000D01*
X137774197Y-121621774D01*
X137720382Y-121503937D01*
X137718284Y-121501516D01*
X137716956Y-121498607D01*
X137715589Y-121496480D01*
X137715895Y-121496283D01*
X137689262Y-121437961D01*
X137688000Y-121420317D01*
X137688000Y-121192301D01*
X176987505Y-121192301D01*
X176987505Y-121447698D01*
X177027455Y-121699935D01*
X177043723Y-121750000D01*
X177106375Y-121942822D01*
X177222317Y-122170373D01*
X177372430Y-122376985D01*
X177553015Y-122557570D01*
X177759627Y-122707683D01*
X177987178Y-122823625D01*
X178183648Y-122887462D01*
X178230064Y-122902544D01*
X178482302Y-122942495D01*
X178737693Y-122942495D01*
X178737698Y-122942495D01*
X178989935Y-122902544D01*
X179232822Y-122823625D01*
X179460373Y-122707683D01*
X179666985Y-122557570D01*
X179847570Y-122376985D01*
X179997683Y-122170373D01*
X180113625Y-121942822D01*
X180192544Y-121699935D01*
X180232495Y-121447693D01*
X180235000Y-121320000D01*
X180232495Y-121192307D01*
X180192544Y-120940065D01*
X180113625Y-120697178D01*
X179997683Y-120469627D01*
X179847570Y-120263015D01*
X179666985Y-120082430D01*
X179460373Y-119932317D01*
X179232822Y-119816375D01*
X179132785Y-119783871D01*
X178989935Y-119737455D01*
X178737698Y-119697505D01*
X178737693Y-119697505D01*
X178482307Y-119697505D01*
X178482302Y-119697505D01*
X178230064Y-119737455D01*
X178042933Y-119798259D01*
X177987178Y-119816375D01*
X177987175Y-119816376D01*
X177987173Y-119816377D01*
X177759626Y-119932317D01*
X177696359Y-119978284D01*
X177553015Y-120082430D01*
X177553013Y-120082432D01*
X177553012Y-120082432D01*
X177372432Y-120263012D01*
X177372432Y-120263013D01*
X177372430Y-120263015D01*
X177307962Y-120351746D01*
X177222317Y-120469626D01*
X177106377Y-120697173D01*
X177027455Y-120940064D01*
X176987505Y-121192301D01*
X137688000Y-121192301D01*
X137688000Y-119610000D01*
X171354540Y-119610000D01*
X171374326Y-119798256D01*
X171374327Y-119798259D01*
X171432818Y-119978277D01*
X171432821Y-119978284D01*
X171527467Y-120142216D01*
X171636235Y-120263015D01*
X171654129Y-120282888D01*
X171807265Y-120394148D01*
X171807270Y-120394151D01*
X171980192Y-120471142D01*
X171980197Y-120471144D01*
X172165354Y-120510500D01*
X172165355Y-120510500D01*
X172354644Y-120510500D01*
X172354646Y-120510500D01*
X172539803Y-120471144D01*
X172712730Y-120394151D01*
X172865871Y-120282888D01*
X172992533Y-120142216D01*
X173087179Y-119978284D01*
X173145674Y-119798256D01*
X173165460Y-119610000D01*
X173145674Y-119421744D01*
X173087179Y-119241716D01*
X172992533Y-119077784D01*
X172865871Y-118937112D01*
X172865870Y-118937111D01*
X172712734Y-118825851D01*
X172712729Y-118825848D01*
X172539807Y-118748857D01*
X172539802Y-118748855D01*
X172394001Y-118717865D01*
X172354646Y-118709500D01*
X172165354Y-118709500D01*
X172132897Y-118716398D01*
X171980197Y-118748855D01*
X171980192Y-118748857D01*
X171807270Y-118825848D01*
X171807265Y-118825851D01*
X171654129Y-118937111D01*
X171527466Y-119077785D01*
X171432821Y-119241715D01*
X171432818Y-119241722D01*
X171374327Y-119421740D01*
X171374326Y-119421744D01*
X171354540Y-119610000D01*
X137688000Y-119610000D01*
X137688000Y-115329683D01*
X137707685Y-115262644D01*
X137718280Y-115248487D01*
X137720382Y-115246063D01*
X137774197Y-115128226D01*
X137792633Y-115000000D01*
X137774197Y-114871774D01*
X137720382Y-114753937D01*
X137635549Y-114656033D01*
X137526569Y-114585996D01*
X137526565Y-114585994D01*
X137526564Y-114585994D01*
X137402274Y-114549500D01*
X137402272Y-114549500D01*
X137272728Y-114549500D01*
X137272726Y-114549500D01*
X137148435Y-114585994D01*
X137148432Y-114585995D01*
X137148431Y-114585996D01*
X137097177Y-114618934D01*
X137039450Y-114656033D01*
X136954618Y-114753937D01*
X136954617Y-114753938D01*
X136900802Y-114871774D01*
X136882367Y-115000000D01*
X136217148Y-115000000D01*
X136218280Y-114998487D01*
X136220382Y-114996063D01*
X136274197Y-114878226D01*
X136292633Y-114750000D01*
X136274197Y-114621774D01*
X136220382Y-114503937D01*
X136135549Y-114406033D01*
X136026569Y-114335996D01*
X136026565Y-114335994D01*
X136026564Y-114335994D01*
X135902274Y-114299500D01*
X135902272Y-114299500D01*
X135772728Y-114299500D01*
X135772726Y-114299500D01*
X135648435Y-114335994D01*
X135648432Y-114335995D01*
X135648431Y-114335996D01*
X135623933Y-114351740D01*
X135539450Y-114406033D01*
X135454618Y-114503937D01*
X135454617Y-114503938D01*
X135400802Y-114621774D01*
X135382367Y-114750000D01*
X134792633Y-114750000D01*
X134774197Y-114621774D01*
X134720382Y-114503937D01*
X134635549Y-114406033D01*
X134526569Y-114335996D01*
X134526565Y-114335994D01*
X134526564Y-114335994D01*
X134402274Y-114299500D01*
X134402272Y-114299500D01*
X134272728Y-114299500D01*
X134272726Y-114299500D01*
X134148435Y-114335994D01*
X134148432Y-114335995D01*
X134148431Y-114335996D01*
X134123933Y-114351740D01*
X134039450Y-114406033D01*
X133954618Y-114503937D01*
X133954617Y-114503938D01*
X133900802Y-114621774D01*
X133882367Y-114750000D01*
X120500000Y-114750000D01*
X120500000Y-111000000D01*
X136544867Y-111000000D01*
X136563302Y-111128225D01*
X136603320Y-111215851D01*
X136617118Y-111246063D01*
X136701951Y-111343967D01*
X136810931Y-111414004D01*
X136935228Y-111450500D01*
X136935232Y-111450500D01*
X136944005Y-111451762D01*
X136943624Y-111454411D01*
X136997342Y-111470185D01*
X137043097Y-111522989D01*
X137053041Y-111556853D01*
X137063302Y-111628225D01*
X137117117Y-111746061D01*
X137117118Y-111746063D01*
X137201951Y-111843967D01*
X137310931Y-111914004D01*
X137435228Y-111950500D01*
X137435232Y-111950500D01*
X137444005Y-111951762D01*
X137443624Y-111954411D01*
X137497342Y-111970185D01*
X137543097Y-112022989D01*
X137553041Y-112056853D01*
X137563302Y-112128225D01*
X137590718Y-112188256D01*
X137617118Y-112246063D01*
X137701951Y-112343967D01*
X137810931Y-112414004D01*
X137935228Y-112450500D01*
X137935232Y-112450500D01*
X137944005Y-112451762D01*
X137943624Y-112454411D01*
X137997342Y-112470185D01*
X138043097Y-112522989D01*
X138053041Y-112556853D01*
X138063302Y-112628225D01*
X138117117Y-112746061D01*
X138117118Y-112746063D01*
X138201951Y-112843967D01*
X138310931Y-112914004D01*
X138435228Y-112950500D01*
X138435232Y-112950500D01*
X138444005Y-112951762D01*
X138443624Y-112954411D01*
X138497342Y-112970185D01*
X138543097Y-113022989D01*
X138553041Y-113056853D01*
X138563302Y-113128225D01*
X138617117Y-113246061D01*
X138617118Y-113246063D01*
X138701951Y-113343967D01*
X138810931Y-113414004D01*
X138927596Y-113448259D01*
X138935225Y-113450499D01*
X138935227Y-113450500D01*
X138935228Y-113450500D01*
X139064773Y-113450500D01*
X139064773Y-113450499D01*
X139189069Y-113414004D01*
X139298049Y-113343967D01*
X139382882Y-113246063D01*
X139436697Y-113128226D01*
X139439769Y-113106856D01*
X139468792Y-113043300D01*
X139527569Y-113005524D01*
X139562507Y-113000500D01*
X141775135Y-113000500D01*
X141842174Y-113020185D01*
X141887929Y-113072989D01*
X141897873Y-113142147D01*
X141897872Y-113142153D01*
X141896452Y-113152026D01*
X141893490Y-113166464D01*
X141887001Y-113190683D01*
X141887000Y-113190691D01*
X141887000Y-113208906D01*
X141885738Y-113226552D01*
X141882367Y-113249999D01*
X141885738Y-113273445D01*
X141887000Y-113291092D01*
X141887000Y-117512034D01*
X141867315Y-117579073D01*
X141850681Y-117599715D01*
X141562625Y-117887770D01*
X141541991Y-117904400D01*
X141539450Y-117906032D01*
X141539449Y-117906033D01*
X141510464Y-117939484D01*
X141504437Y-117945957D01*
X141477015Y-117973380D01*
X141477003Y-117973396D01*
X141474779Y-117977249D01*
X141461119Y-117996433D01*
X141454616Y-118003938D01*
X141454614Y-118003941D01*
X141439076Y-118037965D01*
X141433672Y-118048450D01*
X141417700Y-118076114D01*
X141414763Y-118087074D01*
X141407789Y-118106473D01*
X141400805Y-118121767D01*
X141400802Y-118121777D01*
X141396452Y-118152028D01*
X141393491Y-118166464D01*
X141387002Y-118190684D01*
X141387001Y-118190693D01*
X141387001Y-118208899D01*
X141385739Y-118226545D01*
X141382367Y-118249999D01*
X141385739Y-118273452D01*
X141387001Y-118291099D01*
X141387001Y-118309313D01*
X141393491Y-118333535D01*
X141396452Y-118347972D01*
X141400803Y-118378225D01*
X141400804Y-118378230D01*
X141407786Y-118393518D01*
X141414765Y-118412932D01*
X141415053Y-118414005D01*
X141417701Y-118423887D01*
X141433065Y-118450499D01*
X141433666Y-118451539D01*
X141439073Y-118462026D01*
X141454617Y-118496062D01*
X141454618Y-118496063D01*
X141461109Y-118503555D01*
X141474783Y-118522756D01*
X141477009Y-118526612D01*
X141477010Y-118526613D01*
X141477011Y-118526614D01*
X141504445Y-118554048D01*
X141510451Y-118560499D01*
X141539451Y-118593967D01*
X141541988Y-118595597D01*
X141554398Y-118605598D01*
X141554441Y-118605543D01*
X141560884Y-118610487D01*
X141560886Y-118610489D01*
X141600396Y-118633300D01*
X141605386Y-118636340D01*
X141648431Y-118664004D01*
X141648436Y-118664005D01*
X141648437Y-118664006D01*
X141649735Y-118664599D01*
X141658670Y-118667751D01*
X141663611Y-118669798D01*
X141663613Y-118669799D01*
X141663614Y-118669799D01*
X141663616Y-118669800D01*
X141714277Y-118683374D01*
X141717084Y-118684161D01*
X141772728Y-118700500D01*
X141902272Y-118700500D01*
X141957923Y-118684159D01*
X141960718Y-118683374D01*
X142011387Y-118669799D01*
X142011399Y-118669791D01*
X142016323Y-118667753D01*
X142025264Y-118664599D01*
X142026565Y-118664005D01*
X142026569Y-118664004D01*
X142069581Y-118636360D01*
X142074585Y-118633310D01*
X142114114Y-118610489D01*
X142114116Y-118610487D01*
X142120569Y-118605536D01*
X142120612Y-118605592D01*
X142133019Y-118595592D01*
X142135549Y-118593967D01*
X142164542Y-118560505D01*
X142170559Y-118554042D01*
X142697990Y-118026614D01*
X142757299Y-117923887D01*
X142771262Y-117871774D01*
X142788000Y-117809309D01*
X142788000Y-115440691D01*
X142788000Y-113291092D01*
X142789262Y-113273445D01*
X142792633Y-113249999D01*
X142789262Y-113226552D01*
X142788000Y-113208906D01*
X142788000Y-113190692D01*
X142787998Y-113190683D01*
X142781504Y-113166451D01*
X142778545Y-113152019D01*
X142777124Y-113142133D01*
X142787075Y-113072976D01*
X142832836Y-113020177D01*
X142899864Y-113000500D01*
X159953456Y-113000500D01*
X160020495Y-113020185D01*
X160041137Y-113036819D01*
X165022492Y-118018174D01*
X165055977Y-118079497D01*
X165057549Y-118088207D01*
X165063302Y-118128225D01*
X165104196Y-118217769D01*
X165117118Y-118246063D01*
X165201951Y-118343967D01*
X165310931Y-118414004D01*
X165435225Y-118450499D01*
X165435227Y-118450500D01*
X165435228Y-118450500D01*
X165564773Y-118450500D01*
X165564773Y-118450499D01*
X165689069Y-118414004D01*
X165788661Y-118350000D01*
X168814540Y-118350000D01*
X168834326Y-118538256D01*
X168834327Y-118538259D01*
X168892818Y-118718277D01*
X168892821Y-118718284D01*
X168987467Y-118882216D01*
X169036895Y-118937111D01*
X169114129Y-119022888D01*
X169267265Y-119134148D01*
X169267270Y-119134151D01*
X169440192Y-119211142D01*
X169440197Y-119211144D01*
X169625354Y-119250500D01*
X169625355Y-119250500D01*
X169814644Y-119250500D01*
X169814646Y-119250500D01*
X169999803Y-119211144D01*
X170172730Y-119134151D01*
X170325871Y-119022888D01*
X170452533Y-118882216D01*
X170547179Y-118718284D01*
X170605674Y-118538256D01*
X170625460Y-118350000D01*
X170605674Y-118161744D01*
X170547179Y-117981716D01*
X170452533Y-117817784D01*
X170325871Y-117677112D01*
X170325870Y-117677111D01*
X170172734Y-117565851D01*
X170172729Y-117565848D01*
X169999807Y-117488857D01*
X169999802Y-117488855D01*
X169854001Y-117457865D01*
X169814646Y-117449500D01*
X169625354Y-117449500D01*
X169592897Y-117456398D01*
X169440197Y-117488855D01*
X169440192Y-117488857D01*
X169267270Y-117565848D01*
X169267265Y-117565851D01*
X169114129Y-117677111D01*
X168987466Y-117817785D01*
X168892821Y-117981715D01*
X168892818Y-117981722D01*
X168837483Y-118152028D01*
X168834326Y-118161744D01*
X168814540Y-118350000D01*
X165788661Y-118350000D01*
X165798049Y-118343967D01*
X165882882Y-118246063D01*
X165936697Y-118128226D01*
X165955133Y-118000000D01*
X165936697Y-117871774D01*
X165882882Y-117753937D01*
X165798049Y-117656033D01*
X165717572Y-117604313D01*
X165671819Y-117551512D01*
X165661875Y-117482354D01*
X165690899Y-117418798D01*
X165717569Y-117395687D01*
X165798049Y-117343967D01*
X165882882Y-117246063D01*
X165936697Y-117128226D01*
X165943631Y-117080000D01*
X171354540Y-117080000D01*
X171374326Y-117268256D01*
X171374327Y-117268259D01*
X171432818Y-117448277D01*
X171432821Y-117448284D01*
X171527467Y-117612216D01*
X171585899Y-117677111D01*
X171654129Y-117752888D01*
X171807265Y-117864148D01*
X171807270Y-117864151D01*
X171980192Y-117941142D01*
X171980197Y-117941144D01*
X172165354Y-117980500D01*
X172165355Y-117980500D01*
X172354644Y-117980500D01*
X172354646Y-117980500D01*
X172539803Y-117941144D01*
X172712730Y-117864151D01*
X172865871Y-117752888D01*
X172992533Y-117612216D01*
X173087179Y-117448284D01*
X173145674Y-117268256D01*
X173165460Y-117080000D01*
X173145674Y-116891744D01*
X173087179Y-116711716D01*
X172992533Y-116547784D01*
X172865871Y-116407112D01*
X172850142Y-116395684D01*
X172712734Y-116295851D01*
X172712729Y-116295848D01*
X172539807Y-116218857D01*
X172539802Y-116218855D01*
X172394001Y-116187865D01*
X172354646Y-116179500D01*
X172165354Y-116179500D01*
X172132897Y-116186398D01*
X171980197Y-116218855D01*
X171980192Y-116218857D01*
X171807270Y-116295848D01*
X171807265Y-116295851D01*
X171654129Y-116407111D01*
X171527466Y-116547785D01*
X171432821Y-116711715D01*
X171432818Y-116711722D01*
X171374327Y-116891740D01*
X171374326Y-116891744D01*
X171354540Y-117080000D01*
X165943631Y-117080000D01*
X165955133Y-117000000D01*
X165936697Y-116871774D01*
X165882882Y-116753937D01*
X165798049Y-116656033D01*
X165717572Y-116604313D01*
X165671819Y-116551512D01*
X165661875Y-116482354D01*
X165690899Y-116418798D01*
X165717569Y-116395687D01*
X165798049Y-116343967D01*
X165882882Y-116246063D01*
X165936697Y-116128226D01*
X165955133Y-116000000D01*
X165936697Y-115871774D01*
X165894785Y-115780000D01*
X168814540Y-115780000D01*
X168834326Y-115968256D01*
X168834327Y-115968259D01*
X168892818Y-116148277D01*
X168892821Y-116148284D01*
X168987467Y-116312216D01*
X169016056Y-116343967D01*
X169114129Y-116452888D01*
X169267265Y-116564148D01*
X169267270Y-116564151D01*
X169440192Y-116641142D01*
X169440197Y-116641144D01*
X169625354Y-116680500D01*
X169625355Y-116680500D01*
X169814644Y-116680500D01*
X169814646Y-116680500D01*
X169999803Y-116641144D01*
X170172730Y-116564151D01*
X170325871Y-116452888D01*
X170452533Y-116312216D01*
X170547179Y-116148284D01*
X170605674Y-115968256D01*
X170625460Y-115780000D01*
X170605674Y-115591744D01*
X170547179Y-115411716D01*
X170452533Y-115247784D01*
X170325871Y-115107112D01*
X170325870Y-115107111D01*
X170172734Y-114995851D01*
X170172729Y-114995848D01*
X169999807Y-114918857D01*
X169999802Y-114918855D01*
X169854001Y-114887865D01*
X169814646Y-114879500D01*
X169625354Y-114879500D01*
X169592897Y-114886398D01*
X169440197Y-114918855D01*
X169440192Y-114918857D01*
X169267270Y-114995848D01*
X169267265Y-114995851D01*
X169114129Y-115107111D01*
X168987466Y-115247785D01*
X168892821Y-115411715D01*
X168892818Y-115411722D01*
X168834327Y-115591740D01*
X168834326Y-115591744D01*
X168814540Y-115780000D01*
X165894785Y-115780000D01*
X165882882Y-115753937D01*
X165798049Y-115656033D01*
X165717572Y-115604313D01*
X165671819Y-115551512D01*
X165661875Y-115482354D01*
X165690899Y-115418798D01*
X165717569Y-115395687D01*
X165798049Y-115343967D01*
X165882882Y-115246063D01*
X165936697Y-115128226D01*
X165955133Y-115000000D01*
X165936697Y-114871774D01*
X165882882Y-114753937D01*
X165798049Y-114656033D01*
X165689069Y-114585996D01*
X165689068Y-114585995D01*
X165689064Y-114585993D01*
X165567404Y-114550272D01*
X165550091Y-114540000D01*
X171354540Y-114540000D01*
X171374326Y-114728256D01*
X171374327Y-114728259D01*
X171432818Y-114908277D01*
X171432821Y-114908284D01*
X171527467Y-115072216D01*
X171558887Y-115107111D01*
X171654129Y-115212888D01*
X171807265Y-115324148D01*
X171807270Y-115324151D01*
X171980192Y-115401142D01*
X171980197Y-115401144D01*
X172165354Y-115440500D01*
X172165355Y-115440500D01*
X172354644Y-115440500D01*
X172354646Y-115440500D01*
X172539803Y-115401144D01*
X172712730Y-115324151D01*
X172865871Y-115212888D01*
X172992533Y-115072216D01*
X173087179Y-114908284D01*
X173145674Y-114728256D01*
X173165460Y-114540000D01*
X173145674Y-114351744D01*
X173087179Y-114171716D01*
X172992533Y-114007784D01*
X172865871Y-113867112D01*
X172865870Y-113867111D01*
X172712734Y-113755851D01*
X172712729Y-113755848D01*
X172539807Y-113678857D01*
X172539802Y-113678855D01*
X172394001Y-113647865D01*
X172354646Y-113639500D01*
X172165354Y-113639500D01*
X172132897Y-113646398D01*
X171980197Y-113678855D01*
X171980192Y-113678857D01*
X171807270Y-113755848D01*
X171807265Y-113755851D01*
X171654129Y-113867111D01*
X171527466Y-114007785D01*
X171432821Y-114171715D01*
X171432818Y-114171722D01*
X171379443Y-114335996D01*
X171374326Y-114351744D01*
X171354540Y-114540000D01*
X165550091Y-114540000D01*
X165514657Y-114518976D01*
X164620878Y-113625197D01*
X164587393Y-113563874D01*
X164592377Y-113494182D01*
X164634249Y-113438249D01*
X164673627Y-113418538D01*
X164689069Y-113414004D01*
X164798049Y-113343967D01*
X164870806Y-113260000D01*
X168814540Y-113260000D01*
X168834326Y-113448256D01*
X168834327Y-113448259D01*
X168892818Y-113628277D01*
X168892821Y-113628284D01*
X168987467Y-113792216D01*
X169054903Y-113867111D01*
X169114129Y-113932888D01*
X169267265Y-114044148D01*
X169267270Y-114044151D01*
X169440192Y-114121142D01*
X169440197Y-114121144D01*
X169625354Y-114160500D01*
X169625355Y-114160500D01*
X169814644Y-114160500D01*
X169814646Y-114160500D01*
X169999803Y-114121144D01*
X170172730Y-114044151D01*
X170325871Y-113932888D01*
X170452533Y-113792216D01*
X170547179Y-113628284D01*
X170605674Y-113448256D01*
X170625460Y-113260000D01*
X170605674Y-113071744D01*
X170547179Y-112891716D01*
X170452533Y-112727784D01*
X170325871Y-112587112D01*
X170324331Y-112585993D01*
X170172734Y-112475851D01*
X170172729Y-112475848D01*
X169999807Y-112398857D01*
X169999802Y-112398855D01*
X169854001Y-112367865D01*
X169814646Y-112359500D01*
X169625354Y-112359500D01*
X169592897Y-112366398D01*
X169440197Y-112398855D01*
X169440192Y-112398857D01*
X169267270Y-112475848D01*
X169267265Y-112475851D01*
X169114129Y-112587111D01*
X168987466Y-112727785D01*
X168892821Y-112891715D01*
X168892818Y-112891722D01*
X168839164Y-113056853D01*
X168834326Y-113071744D01*
X168814540Y-113260000D01*
X164870806Y-113260000D01*
X164882882Y-113246063D01*
X164936697Y-113128226D01*
X164955133Y-113000000D01*
X164936697Y-112871774D01*
X164882882Y-112753937D01*
X164798049Y-112656033D01*
X164689069Y-112585996D01*
X164689068Y-112585995D01*
X164689064Y-112585993D01*
X164567405Y-112550272D01*
X164514658Y-112518976D01*
X163995682Y-112000000D01*
X171354540Y-112000000D01*
X171374326Y-112188256D01*
X171374327Y-112188259D01*
X171432818Y-112368277D01*
X171432821Y-112368284D01*
X171527467Y-112532216D01*
X171575891Y-112585996D01*
X171654129Y-112672888D01*
X171807265Y-112784148D01*
X171807270Y-112784151D01*
X171980192Y-112861142D01*
X171980197Y-112861144D01*
X172165354Y-112900500D01*
X172165355Y-112900500D01*
X172354644Y-112900500D01*
X172354646Y-112900500D01*
X172539803Y-112861144D01*
X172712730Y-112784151D01*
X172865871Y-112672888D01*
X172992533Y-112532216D01*
X173087179Y-112368284D01*
X173145674Y-112188256D01*
X173165460Y-112000000D01*
X173145674Y-111811744D01*
X173087179Y-111631716D01*
X172992533Y-111467784D01*
X172865871Y-111327112D01*
X172865870Y-111327111D01*
X172712734Y-111215851D01*
X172712729Y-111215848D01*
X172539807Y-111138857D01*
X172539802Y-111138855D01*
X172394001Y-111107865D01*
X172354646Y-111099500D01*
X172165354Y-111099500D01*
X172132897Y-111106398D01*
X171980197Y-111138855D01*
X171980192Y-111138857D01*
X171807270Y-111215848D01*
X171807265Y-111215851D01*
X171654129Y-111327111D01*
X171527466Y-111467785D01*
X171432821Y-111631715D01*
X171432818Y-111631722D01*
X171395667Y-111746063D01*
X171374326Y-111811744D01*
X171354540Y-112000000D01*
X163995682Y-112000000D01*
X162215213Y-110219531D01*
X162215208Y-110219527D01*
X162135290Y-110173387D01*
X162135289Y-110173386D01*
X162135288Y-110173386D01*
X162046144Y-110149500D01*
X137546144Y-110149500D01*
X137453856Y-110149500D01*
X137364712Y-110173386D01*
X137364709Y-110173387D01*
X137284791Y-110219527D01*
X137284786Y-110219531D01*
X136985341Y-110518976D01*
X136932595Y-110550272D01*
X136810934Y-110585994D01*
X136701950Y-110656033D01*
X136617118Y-110753937D01*
X136617117Y-110753938D01*
X136563302Y-110871774D01*
X136544867Y-111000000D01*
X120500000Y-111000000D01*
X120500000Y-108892301D01*
X176987505Y-108892301D01*
X176987505Y-109147698D01*
X177027455Y-109399935D01*
X177073871Y-109542785D01*
X177106375Y-109642822D01*
X177222317Y-109870373D01*
X177372430Y-110076985D01*
X177553015Y-110257570D01*
X177759627Y-110407683D01*
X177987178Y-110523625D01*
X178183648Y-110587462D01*
X178230064Y-110602544D01*
X178482302Y-110642495D01*
X178737693Y-110642495D01*
X178737698Y-110642495D01*
X178989935Y-110602544D01*
X179232822Y-110523625D01*
X179460373Y-110407683D01*
X179666985Y-110257570D01*
X179847570Y-110076985D01*
X179997683Y-109870373D01*
X180113625Y-109642822D01*
X180192544Y-109399935D01*
X180232495Y-109147693D01*
X180235000Y-109020000D01*
X180232495Y-108892307D01*
X180192544Y-108640065D01*
X180113625Y-108397178D01*
X179997683Y-108169627D01*
X179847570Y-107963015D01*
X179666985Y-107782430D01*
X179460373Y-107632317D01*
X179232826Y-107516377D01*
X179232825Y-107516376D01*
X179232822Y-107516375D01*
X179132785Y-107483871D01*
X178989935Y-107437455D01*
X178737698Y-107397505D01*
X178737693Y-107397505D01*
X178482307Y-107397505D01*
X178482302Y-107397505D01*
X178230064Y-107437455D01*
X178040798Y-107498952D01*
X177987178Y-107516375D01*
X177987175Y-107516376D01*
X177987173Y-107516377D01*
X177759626Y-107632317D01*
X177641746Y-107717962D01*
X177553015Y-107782430D01*
X177553013Y-107782432D01*
X177553012Y-107782432D01*
X177372432Y-107963012D01*
X177372432Y-107963013D01*
X177372430Y-107963015D01*
X177330257Y-108021061D01*
X177222317Y-108169626D01*
X177106377Y-108397173D01*
X177027455Y-108640064D01*
X176987505Y-108892301D01*
X120500000Y-108892301D01*
X120500000Y-106575000D01*
X140882367Y-106575000D01*
X140900802Y-106703225D01*
X140954616Y-106821059D01*
X140954618Y-106821063D01*
X140956712Y-106823480D01*
X140958040Y-106826388D01*
X140959413Y-106828524D01*
X140959106Y-106828721D01*
X140985737Y-106887032D01*
X140987000Y-106904683D01*
X140987000Y-107445317D01*
X140967315Y-107512356D01*
X140956715Y-107526517D01*
X140954619Y-107528935D01*
X140954616Y-107528939D01*
X140900802Y-107646774D01*
X140882367Y-107775000D01*
X140900802Y-107903225D01*
X140928107Y-107963013D01*
X140954618Y-108021063D01*
X141039451Y-108118967D01*
X141148431Y-108189004D01*
X141272725Y-108225499D01*
X141272727Y-108225500D01*
X141272728Y-108225500D01*
X141402273Y-108225500D01*
X141402273Y-108225499D01*
X141526569Y-108189004D01*
X141635549Y-108118967D01*
X141720382Y-108021063D01*
X141774197Y-107903226D01*
X141792633Y-107775000D01*
X141774197Y-107646774D01*
X141720382Y-107528937D01*
X141718284Y-107526516D01*
X141716956Y-107523607D01*
X141715589Y-107521480D01*
X141715895Y-107521283D01*
X141689262Y-107462961D01*
X141688000Y-107445317D01*
X141688000Y-106904683D01*
X141707685Y-106837644D01*
X141718280Y-106823487D01*
X141720382Y-106821063D01*
X141774197Y-106703226D01*
X141792633Y-106575000D01*
X141774197Y-106446774D01*
X141720382Y-106328937D01*
X141635549Y-106231033D01*
X141526569Y-106160996D01*
X141526565Y-106160994D01*
X141526564Y-106160994D01*
X141402274Y-106124500D01*
X141402272Y-106124500D01*
X141272728Y-106124500D01*
X141272726Y-106124500D01*
X141148435Y-106160994D01*
X141148432Y-106160995D01*
X141148431Y-106160996D01*
X141097177Y-106193934D01*
X141039450Y-106231033D01*
X140954618Y-106328937D01*
X140954617Y-106328938D01*
X140900802Y-106446774D01*
X140882367Y-106575000D01*
X120500000Y-106575000D01*
X120500000Y-100999995D01*
X178244592Y-100999995D01*
X178244592Y-101000004D01*
X178264196Y-101261620D01*
X178264197Y-101261625D01*
X178322576Y-101517402D01*
X178322578Y-101517411D01*
X178322580Y-101517416D01*
X178418432Y-101761643D01*
X178549614Y-101988857D01*
X178681736Y-102154533D01*
X178713198Y-102193985D01*
X178894753Y-102362441D01*
X178905521Y-102372433D01*
X179122296Y-102520228D01*
X179122301Y-102520230D01*
X179122302Y-102520231D01*
X179122303Y-102520232D01*
X179247843Y-102580688D01*
X179358673Y-102634061D01*
X179358674Y-102634061D01*
X179358677Y-102634063D01*
X179609385Y-102711396D01*
X179868818Y-102750500D01*
X180131182Y-102750500D01*
X180390615Y-102711396D01*
X180641323Y-102634063D01*
X180877704Y-102520228D01*
X181094479Y-102372433D01*
X181286805Y-102193981D01*
X181450386Y-101988857D01*
X181581568Y-101761643D01*
X181677420Y-101517416D01*
X181735802Y-101261630D01*
X181755408Y-101000000D01*
X181735802Y-100738370D01*
X181677420Y-100482584D01*
X181581568Y-100238357D01*
X181450386Y-100011143D01*
X181286805Y-99806019D01*
X181286804Y-99806018D01*
X181286801Y-99806014D01*
X181094479Y-99627567D01*
X180877704Y-99479772D01*
X180877700Y-99479770D01*
X180877697Y-99479768D01*
X180877696Y-99479767D01*
X180641325Y-99365938D01*
X180641327Y-99365938D01*
X180390623Y-99288606D01*
X180390619Y-99288605D01*
X180390615Y-99288604D01*
X180265823Y-99269794D01*
X180131187Y-99249500D01*
X180131182Y-99249500D01*
X179868818Y-99249500D01*
X179868812Y-99249500D01*
X179707247Y-99273853D01*
X179609385Y-99288604D01*
X179609382Y-99288605D01*
X179609376Y-99288606D01*
X179358673Y-99365938D01*
X179122303Y-99479767D01*
X179122302Y-99479768D01*
X178905520Y-99627567D01*
X178713198Y-99806014D01*
X178549614Y-100011143D01*
X178418432Y-100238356D01*
X178322582Y-100482578D01*
X178322576Y-100482597D01*
X178264197Y-100738374D01*
X178264196Y-100738379D01*
X178244592Y-100999995D01*
X120500000Y-100999995D01*
X120500000Y-96999995D01*
X178244592Y-96999995D01*
X178244592Y-97000004D01*
X178264196Y-97261620D01*
X178264197Y-97261625D01*
X178322576Y-97517402D01*
X178322578Y-97517411D01*
X178322580Y-97517416D01*
X178418432Y-97761643D01*
X178549614Y-97988857D01*
X178681736Y-98154533D01*
X178713198Y-98193985D01*
X178894753Y-98362441D01*
X178905521Y-98372433D01*
X179122296Y-98520228D01*
X179122301Y-98520230D01*
X179122302Y-98520231D01*
X179122303Y-98520232D01*
X179247843Y-98580688D01*
X179358673Y-98634061D01*
X179358674Y-98634061D01*
X179358677Y-98634063D01*
X179609385Y-98711396D01*
X179868818Y-98750500D01*
X180131182Y-98750500D01*
X180390615Y-98711396D01*
X180641323Y-98634063D01*
X180877704Y-98520228D01*
X181094479Y-98372433D01*
X181286805Y-98193981D01*
X181450386Y-97988857D01*
X181581568Y-97761643D01*
X181677420Y-97517416D01*
X181735802Y-97261630D01*
X181755408Y-97000000D01*
X181755408Y-96999995D01*
X182244592Y-96999995D01*
X182244592Y-97000004D01*
X182264196Y-97261620D01*
X182264197Y-97261625D01*
X182322576Y-97517402D01*
X182322578Y-97517411D01*
X182322580Y-97517416D01*
X182418432Y-97761643D01*
X182549614Y-97988857D01*
X182681736Y-98154533D01*
X182713198Y-98193985D01*
X182894753Y-98362441D01*
X182905521Y-98372433D01*
X183122296Y-98520228D01*
X183122301Y-98520230D01*
X183122302Y-98520231D01*
X183122303Y-98520232D01*
X183247843Y-98580688D01*
X183358673Y-98634061D01*
X183358674Y-98634061D01*
X183358677Y-98634063D01*
X183609385Y-98711396D01*
X183868818Y-98750500D01*
X184131182Y-98750500D01*
X184390615Y-98711396D01*
X184641323Y-98634063D01*
X184877704Y-98520228D01*
X185094479Y-98372433D01*
X185286805Y-98193981D01*
X185450386Y-97988857D01*
X185581568Y-97761643D01*
X185677420Y-97517416D01*
X185735802Y-97261630D01*
X185755408Y-97000000D01*
X185735802Y-96738370D01*
X185677420Y-96482584D01*
X185581568Y-96238357D01*
X185450386Y-96011143D01*
X185286805Y-95806019D01*
X185286804Y-95806018D01*
X185286801Y-95806014D01*
X185094479Y-95627567D01*
X184877704Y-95479772D01*
X184877700Y-95479770D01*
X184877697Y-95479768D01*
X184877696Y-95479767D01*
X184641325Y-95365938D01*
X184641327Y-95365938D01*
X184390623Y-95288606D01*
X184390619Y-95288605D01*
X184390615Y-95288604D01*
X184265823Y-95269794D01*
X184131187Y-95249500D01*
X184131182Y-95249500D01*
X183868818Y-95249500D01*
X183868812Y-95249500D01*
X183707247Y-95273853D01*
X183609385Y-95288604D01*
X183609382Y-95288605D01*
X183609376Y-95288606D01*
X183358673Y-95365938D01*
X183122303Y-95479767D01*
X183122302Y-95479768D01*
X182905520Y-95627567D01*
X182713198Y-95806014D01*
X182549614Y-96011143D01*
X182418432Y-96238356D01*
X182322582Y-96482578D01*
X182322576Y-96482597D01*
X182264197Y-96738374D01*
X182264196Y-96738379D01*
X182244592Y-96999995D01*
X181755408Y-96999995D01*
X181735802Y-96738370D01*
X181677420Y-96482584D01*
X181581568Y-96238357D01*
X181450386Y-96011143D01*
X181286805Y-95806019D01*
X181286804Y-95806018D01*
X181286801Y-95806014D01*
X181094479Y-95627567D01*
X180877704Y-95479772D01*
X180877700Y-95479770D01*
X180877697Y-95479768D01*
X180877696Y-95479767D01*
X180641325Y-95365938D01*
X180641327Y-95365938D01*
X180390623Y-95288606D01*
X180390619Y-95288605D01*
X180390615Y-95288604D01*
X180265823Y-95269794D01*
X180131187Y-95249500D01*
X180131182Y-95249500D01*
X179868818Y-95249500D01*
X179868812Y-95249500D01*
X179707247Y-95273853D01*
X179609385Y-95288604D01*
X179609382Y-95288605D01*
X179609376Y-95288606D01*
X179358673Y-95365938D01*
X179122303Y-95479767D01*
X179122302Y-95479768D01*
X178905520Y-95627567D01*
X178713198Y-95806014D01*
X178549614Y-96011143D01*
X178418432Y-96238356D01*
X178322582Y-96482578D01*
X178322576Y-96482597D01*
X178264197Y-96738374D01*
X178264196Y-96738379D01*
X178244592Y-96999995D01*
X120500000Y-96999995D01*
X120500000Y-87500709D01*
X120500007Y-87499357D01*
X120501679Y-87345946D01*
X123649500Y-87345946D01*
X123649500Y-87654053D01*
X123649501Y-87654069D01*
X123689717Y-87959542D01*
X123769464Y-88257162D01*
X123887376Y-88541826D01*
X123887381Y-88541837D01*
X123980014Y-88702280D01*
X124041438Y-88808670D01*
X124041440Y-88808673D01*
X124041441Y-88808674D01*
X124229007Y-89053115D01*
X124229013Y-89053122D01*
X124446877Y-89270986D01*
X124446883Y-89270991D01*
X124691330Y-89458562D01*
X124862830Y-89557578D01*
X124958162Y-89612618D01*
X124958167Y-89612620D01*
X124958170Y-89612622D01*
X125242836Y-89730535D01*
X125540456Y-89810282D01*
X125845940Y-89850500D01*
X125845947Y-89850500D01*
X126154053Y-89850500D01*
X126154060Y-89850500D01*
X126459544Y-89810282D01*
X126757164Y-89730535D01*
X127041830Y-89612622D01*
X127308670Y-89458562D01*
X127553117Y-89270991D01*
X127770991Y-89053117D01*
X127958562Y-88808670D01*
X128112622Y-88541830D01*
X128230535Y-88257164D01*
X128310282Y-87959544D01*
X128350500Y-87654060D01*
X128350500Y-87345946D01*
X181649500Y-87345946D01*
X181649500Y-87654053D01*
X181649501Y-87654069D01*
X181689717Y-87959542D01*
X181769464Y-88257162D01*
X181887376Y-88541826D01*
X181887381Y-88541837D01*
X181980014Y-88702280D01*
X182041438Y-88808670D01*
X182041440Y-88808673D01*
X182041441Y-88808674D01*
X182229007Y-89053115D01*
X182229013Y-89053122D01*
X182446877Y-89270986D01*
X182446883Y-89270991D01*
X182691330Y-89458562D01*
X182862830Y-89557578D01*
X182958162Y-89612618D01*
X182958167Y-89612620D01*
X182958170Y-89612622D01*
X183242836Y-89730535D01*
X183540456Y-89810282D01*
X183845940Y-89850500D01*
X183845947Y-89850500D01*
X184154053Y-89850500D01*
X184154060Y-89850500D01*
X184459544Y-89810282D01*
X184757164Y-89730535D01*
X185041830Y-89612622D01*
X185308670Y-89458562D01*
X185553117Y-89270991D01*
X185770991Y-89053117D01*
X185958562Y-88808670D01*
X186112622Y-88541830D01*
X186230535Y-88257164D01*
X186310282Y-87959544D01*
X186350500Y-87654060D01*
X186350500Y-87345940D01*
X186310282Y-87040456D01*
X186230535Y-86742836D01*
X186112622Y-86458170D01*
X186112620Y-86458167D01*
X186112618Y-86458162D01*
X186057578Y-86362830D01*
X185958562Y-86191330D01*
X185770991Y-85946883D01*
X185770986Y-85946877D01*
X185553122Y-85729013D01*
X185553115Y-85729007D01*
X185308674Y-85541441D01*
X185308673Y-85541440D01*
X185308670Y-85541438D01*
X185202280Y-85480014D01*
X185041837Y-85387381D01*
X185041826Y-85387376D01*
X184757162Y-85269464D01*
X184459542Y-85189717D01*
X184154069Y-85149501D01*
X184154066Y-85149500D01*
X184154060Y-85149500D01*
X183845940Y-85149500D01*
X183845934Y-85149500D01*
X183845930Y-85149501D01*
X183540457Y-85189717D01*
X183242837Y-85269464D01*
X182958173Y-85387376D01*
X182958162Y-85387381D01*
X182691325Y-85541441D01*
X182446884Y-85729007D01*
X182446877Y-85729013D01*
X182229013Y-85946877D01*
X182229007Y-85946884D01*
X182041441Y-86191325D01*
X181887381Y-86458162D01*
X181887376Y-86458173D01*
X181769464Y-86742837D01*
X181689717Y-87040457D01*
X181649501Y-87345930D01*
X181649500Y-87345946D01*
X128350500Y-87345946D01*
X128350500Y-87345940D01*
X128310282Y-87040456D01*
X128230535Y-86742836D01*
X128112622Y-86458170D01*
X128112620Y-86458167D01*
X128112618Y-86458162D01*
X128057578Y-86362830D01*
X127958562Y-86191330D01*
X127770991Y-85946883D01*
X127770986Y-85946877D01*
X127553122Y-85729013D01*
X127553115Y-85729007D01*
X127308674Y-85541441D01*
X127308673Y-85541440D01*
X127308670Y-85541438D01*
X127202280Y-85480014D01*
X127041837Y-85387381D01*
X127041826Y-85387376D01*
X126757162Y-85269464D01*
X126459542Y-85189717D01*
X126154069Y-85149501D01*
X126154066Y-85149500D01*
X126154060Y-85149500D01*
X125845940Y-85149500D01*
X125845934Y-85149500D01*
X125845930Y-85149501D01*
X125540457Y-85189717D01*
X125242837Y-85269464D01*
X124958173Y-85387376D01*
X124958162Y-85387381D01*
X124691325Y-85541441D01*
X124446884Y-85729007D01*
X124446877Y-85729013D01*
X124229013Y-85946877D01*
X124229007Y-85946884D01*
X124041441Y-86191325D01*
X123887381Y-86458162D01*
X123887376Y-86458173D01*
X123769464Y-86742837D01*
X123689717Y-87040457D01*
X123649501Y-87345930D01*
X123649500Y-87345946D01*
X120501679Y-87345946D01*
X120502565Y-87264696D01*
X120503029Y-87255266D01*
X120543984Y-86787150D01*
X120545396Y-86776432D01*
X120551320Y-86742837D01*
X120626876Y-86314331D01*
X120629208Y-86303812D01*
X120750663Y-85850534D01*
X120753903Y-85840258D01*
X120914398Y-85399303D01*
X120918519Y-85389353D01*
X121116835Y-84964063D01*
X121121815Y-84954496D01*
X121356435Y-84548122D01*
X121362228Y-84539028D01*
X121631384Y-84154634D01*
X121637953Y-84146074D01*
X121939575Y-83786616D01*
X121946861Y-83778665D01*
X122278665Y-83446861D01*
X122286616Y-83439575D01*
X122646074Y-83137953D01*
X122654634Y-83131384D01*
X123039028Y-82862228D01*
X123048122Y-82856435D01*
X123454496Y-82621815D01*
X123464063Y-82616835D01*
X123889353Y-82418519D01*
X123899303Y-82414398D01*
X124340258Y-82253903D01*
X124350534Y-82250663D01*
X124803812Y-82129208D01*
X124814331Y-82126876D01*
X125276435Y-82045395D01*
X125287150Y-82043984D01*
X125755266Y-82003029D01*
X125764696Y-82002565D01*
X125999358Y-82000007D01*
X126000710Y-82000000D01*
X183999290Y-82000000D01*
X184000642Y-82000007D01*
G37*
%TD.AperFunction*%
%TD*%
M02*
