%TF.GenerationSoftware,KiCad,Pcbnew,8.0.2-1*%
%TF.CreationDate,2025-01-08T22:21:24-08:00*%
%TF.ProjectId,rocket2-load-cell,726f636b-6574-4322-9d6c-6f61642d6365,rev?*%
%TF.SameCoordinates,Original*%
%TF.FileFunction,Drillmap*%
%TF.FilePolarity,Positive*%
%FSLAX45Y45*%
G04 Gerber Fmt 4.5, Leading zero omitted, Abs format (unit mm)*
G04 Created by KiCad (PCBNEW 8.0.2-1) date 2025-01-08 22:21:24*
%MOMM*%
%LPD*%
G01*
G04 APERTURE LIST*
%ADD10C,0.100000*%
%ADD11C,0.200000*%
%ADD12C,0.130000*%
%ADD13C,0.160000*%
G04 APERTURE END LIST*
D10*
X18400000Y-8200000D02*
X12600000Y-8200000D01*
X12050000Y-8750000D02*
X12050000Y-14350000D01*
X18950000Y-8750000D02*
X18950000Y-14350000D01*
X18400000Y-8200000D02*
G75*
G02*
X18950000Y-8750000I0J-550000D01*
G01*
X18950000Y-14350000D02*
G75*
G02*
X18400000Y-14900000I-550000J0D01*
G01*
X12600000Y-14900000D02*
X18400000Y-14900000D01*
X12050000Y-8750000D02*
G75*
G02*
X12600000Y-8200000I550000J0D01*
G01*
X12600000Y-14900000D02*
G75*
G02*
X12050000Y-14350000I0J550000D01*
G01*
X18023500Y-12132000D02*
G75*
G02*
X17698500Y-12132000I-162500J0D01*
G01*
X17698500Y-12132000D02*
G75*
G02*
X18023500Y-12132000I162500J0D01*
G01*
X18023500Y-10902000D02*
G75*
G02*
X17698500Y-10902000I-162500J0D01*
G01*
X17698500Y-10902000D02*
G75*
G02*
X18023500Y-10902000I162500J0D01*
G01*
D11*
D10*
X12873750Y-10615000D02*
X12893750Y-10635000D01*
X12893750Y-10615000D02*
X12873750Y-10635000D01*
X12873750Y-11365000D02*
X12893750Y-11385000D01*
X12893750Y-11365000D02*
X12873750Y-11385000D01*
X12923750Y-10965000D02*
X12943750Y-10985000D01*
X12943750Y-10965000D02*
X12923750Y-10985000D01*
X13023750Y-11815000D02*
X13043750Y-11835000D01*
X13043750Y-11815000D02*
X13023750Y-11835000D01*
X13323750Y-9915000D02*
X13343750Y-9935000D01*
X13343750Y-9915000D02*
X13323750Y-9935000D01*
X13423750Y-11465000D02*
X13443750Y-11485000D01*
X13443750Y-11465000D02*
X13423750Y-11485000D01*
X13423750Y-12165000D02*
X13443750Y-12185000D01*
X13443750Y-12165000D02*
X13423750Y-12185000D01*
X13473750Y-10515000D02*
X13493750Y-10535000D01*
X13493750Y-10515000D02*
X13473750Y-10535000D01*
X13573750Y-11465000D02*
X13593750Y-11485000D01*
X13593750Y-11465000D02*
X13573750Y-11485000D01*
X13573750Y-12165000D02*
X13593750Y-12185000D01*
X13593750Y-12165000D02*
X13573750Y-12185000D01*
X13690000Y-11090000D02*
X13710000Y-11110000D01*
X13710000Y-11090000D02*
X13690000Y-11110000D01*
X13723750Y-11490000D02*
X13743750Y-11510000D01*
X13743750Y-11490000D02*
X13723750Y-11510000D01*
X13723750Y-12165000D02*
X13743750Y-12185000D01*
X13743750Y-12165000D02*
X13723750Y-12185000D01*
X13740000Y-11140000D02*
X13760000Y-11160000D01*
X13760000Y-11140000D02*
X13740000Y-11160000D01*
X13790000Y-11190000D02*
X13810000Y-11210000D01*
X13810000Y-11190000D02*
X13790000Y-11210000D01*
X13840000Y-11240000D02*
X13860000Y-11260000D01*
X13860000Y-11240000D02*
X13840000Y-11260000D01*
X13890000Y-11290000D02*
X13910000Y-11310000D01*
X13910000Y-11290000D02*
X13890000Y-11310000D01*
X13973750Y-11965000D02*
X13993750Y-11985000D01*
X13993750Y-11965000D02*
X13973750Y-11985000D01*
X13973750Y-12715000D02*
X13993750Y-12735000D01*
X13993750Y-12715000D02*
X13973750Y-12735000D01*
X14123750Y-10647500D02*
X14143750Y-10667500D01*
X14143750Y-10647500D02*
X14123750Y-10667500D01*
X14123750Y-10767500D02*
X14143750Y-10787500D01*
X14143750Y-10767500D02*
X14123750Y-10787500D01*
X14173750Y-11815000D02*
X14193750Y-11835000D01*
X14193750Y-11815000D02*
X14173750Y-11835000D01*
X14223750Y-11315000D02*
X14243750Y-11335000D01*
X14243750Y-11315000D02*
X14223750Y-11335000D01*
X14273750Y-12815000D02*
X14293750Y-12835000D01*
X14293750Y-12815000D02*
X14273750Y-12835000D01*
X14373750Y-10015000D02*
X14393750Y-10035000D01*
X14393750Y-10015000D02*
X14373750Y-10035000D01*
X14396176Y-10237427D02*
X14416176Y-10257427D01*
X14416176Y-10237427D02*
X14396176Y-10257427D01*
X14401250Y-10942500D02*
X14421250Y-10962500D01*
X14421250Y-10942500D02*
X14401250Y-10962500D01*
X14523750Y-9665000D02*
X14543750Y-9685000D01*
X14543750Y-9665000D02*
X14523750Y-9685000D01*
X14573750Y-13265000D02*
X14593750Y-13285000D01*
X14593750Y-13265000D02*
X14573750Y-13285000D01*
X14623750Y-11856000D02*
X14643750Y-11876000D01*
X14643750Y-11856000D02*
X14623750Y-11876000D01*
X14873750Y-10965000D02*
X14893750Y-10985000D01*
X14893750Y-10965000D02*
X14873750Y-10985000D01*
X14873750Y-13265000D02*
X14893750Y-13285000D01*
X14893750Y-13265000D02*
X14873750Y-13285000D01*
X14990000Y-12540000D02*
X15010000Y-12560000D01*
X15010000Y-12540000D02*
X14990000Y-12560000D01*
X15290000Y-12540000D02*
X15310000Y-12560000D01*
X15310000Y-12540000D02*
X15290000Y-12560000D01*
X16440000Y-11290000D02*
X16460000Y-11310000D01*
X16460000Y-11290000D02*
X16440000Y-11310000D01*
X16540000Y-11490000D02*
X16560000Y-11510000D01*
X16560000Y-11490000D02*
X16540000Y-11510000D01*
X16540000Y-11590000D02*
X16560000Y-11610000D01*
X16560000Y-11590000D02*
X16540000Y-11610000D01*
X16540000Y-11690000D02*
X16560000Y-11710000D01*
X16560000Y-11690000D02*
X16540000Y-11710000D01*
X16540000Y-11790000D02*
X16560000Y-11810000D01*
X16560000Y-11790000D02*
X16540000Y-11810000D01*
X17017000Y-11326000D02*
G75*
G02*
X16927000Y-11326000I-45000J0D01*
G01*
X16927000Y-11326000D02*
G75*
G02*
X17017000Y-11326000I45000J0D01*
G01*
X17017000Y-11578000D02*
G75*
G02*
X16927000Y-11578000I-45000J0D01*
G01*
X16927000Y-11578000D02*
G75*
G02*
X17017000Y-11578000I45000J0D01*
G01*
X17017000Y-11835000D02*
G75*
G02*
X16927000Y-11835000I-45000J0D01*
G01*
X16927000Y-11835000D02*
G75*
G02*
X17017000Y-11835000I45000J0D01*
G01*
X17019000Y-11073000D02*
G75*
G02*
X16929000Y-11073000I-45000J0D01*
G01*
X16929000Y-11073000D02*
G75*
G02*
X17019000Y-11073000I45000J0D01*
G01*
X17271000Y-11200000D02*
G75*
G02*
X17181000Y-11200000I-45000J0D01*
G01*
X17181000Y-11200000D02*
G75*
G02*
X17271000Y-11200000I45000J0D01*
G01*
X17271000Y-11454000D02*
G75*
G02*
X17181000Y-11454000I-45000J0D01*
G01*
X17181000Y-11454000D02*
G75*
G02*
X17271000Y-11454000I45000J0D01*
G01*
X17271000Y-11708000D02*
G75*
G02*
X17181000Y-11708000I-45000J0D01*
G01*
X17181000Y-11708000D02*
G75*
G02*
X17271000Y-11708000I45000J0D01*
G01*
X17271000Y-11961000D02*
G75*
G02*
X17181000Y-11961000I-45000J0D01*
G01*
X17181000Y-11961000D02*
G75*
G02*
X17271000Y-11961000I45000J0D01*
G01*
D12*
X18250000Y-12835000D02*
X18250000Y-12965000D01*
X18185000Y-12900000D02*
X18315000Y-12900000D01*
X18250000Y-13343000D02*
X18250000Y-13473000D01*
X18185000Y-13408000D02*
X18315000Y-13408000D01*
D13*
X16727569Y-12376569D02*
X16727569Y-12263431D01*
X16614431Y-12263431D01*
X16614431Y-12376569D01*
X16727569Y-12376569D01*
X16728569Y-10772569D02*
X16728569Y-10659431D01*
X16615431Y-10659431D01*
X16615431Y-10772569D01*
X16728569Y-10772569D01*
X18056569Y-9756569D02*
X18056569Y-9643431D01*
X17943431Y-9643431D01*
X17943431Y-9756569D01*
X18056569Y-9756569D01*
X18056569Y-10156569D02*
X18056569Y-10043431D01*
X17943431Y-10043431D01*
X17943431Y-10156569D01*
X18056569Y-10156569D01*
X18456569Y-9756569D02*
X18456569Y-9643431D01*
X18343431Y-9643431D01*
X18343431Y-9756569D01*
X18456569Y-9756569D01*
X18456569Y-10156569D02*
X18456569Y-10043431D01*
X18343431Y-10043431D01*
X18343431Y-10156569D01*
X18456569Y-10156569D01*
D11*
X12305777Y-15216484D02*
X12305777Y-15016484D01*
X12305777Y-15016484D02*
X12353396Y-15016484D01*
X12353396Y-15016484D02*
X12381967Y-15026008D01*
X12381967Y-15026008D02*
X12401015Y-15045055D01*
X12401015Y-15045055D02*
X12410539Y-15064103D01*
X12410539Y-15064103D02*
X12420062Y-15102198D01*
X12420062Y-15102198D02*
X12420062Y-15130769D01*
X12420062Y-15130769D02*
X12410539Y-15168865D01*
X12410539Y-15168865D02*
X12401015Y-15187912D01*
X12401015Y-15187912D02*
X12381967Y-15206960D01*
X12381967Y-15206960D02*
X12353396Y-15216484D01*
X12353396Y-15216484D02*
X12305777Y-15216484D01*
X12505777Y-15216484D02*
X12505777Y-15083150D01*
X12505777Y-15121246D02*
X12515301Y-15102198D01*
X12515301Y-15102198D02*
X12524824Y-15092674D01*
X12524824Y-15092674D02*
X12543872Y-15083150D01*
X12543872Y-15083150D02*
X12562920Y-15083150D01*
X12629586Y-15216484D02*
X12629586Y-15083150D01*
X12629586Y-15016484D02*
X12620062Y-15026008D01*
X12620062Y-15026008D02*
X12629586Y-15035531D01*
X12629586Y-15035531D02*
X12639110Y-15026008D01*
X12639110Y-15026008D02*
X12629586Y-15016484D01*
X12629586Y-15016484D02*
X12629586Y-15035531D01*
X12753396Y-15216484D02*
X12734348Y-15206960D01*
X12734348Y-15206960D02*
X12724824Y-15187912D01*
X12724824Y-15187912D02*
X12724824Y-15016484D01*
X12858158Y-15216484D02*
X12839110Y-15206960D01*
X12839110Y-15206960D02*
X12829586Y-15187912D01*
X12829586Y-15187912D02*
X12829586Y-15016484D01*
X13086729Y-15216484D02*
X13086729Y-15016484D01*
X13086729Y-15016484D02*
X13153396Y-15159341D01*
X13153396Y-15159341D02*
X13220062Y-15016484D01*
X13220062Y-15016484D02*
X13220062Y-15216484D01*
X13401015Y-15216484D02*
X13401015Y-15111722D01*
X13401015Y-15111722D02*
X13391491Y-15092674D01*
X13391491Y-15092674D02*
X13372443Y-15083150D01*
X13372443Y-15083150D02*
X13334348Y-15083150D01*
X13334348Y-15083150D02*
X13315301Y-15092674D01*
X13401015Y-15206960D02*
X13381967Y-15216484D01*
X13381967Y-15216484D02*
X13334348Y-15216484D01*
X13334348Y-15216484D02*
X13315301Y-15206960D01*
X13315301Y-15206960D02*
X13305777Y-15187912D01*
X13305777Y-15187912D02*
X13305777Y-15168865D01*
X13305777Y-15168865D02*
X13315301Y-15149817D01*
X13315301Y-15149817D02*
X13334348Y-15140293D01*
X13334348Y-15140293D02*
X13381967Y-15140293D01*
X13381967Y-15140293D02*
X13401015Y-15130769D01*
X13496253Y-15083150D02*
X13496253Y-15283150D01*
X13496253Y-15092674D02*
X13515301Y-15083150D01*
X13515301Y-15083150D02*
X13553396Y-15083150D01*
X13553396Y-15083150D02*
X13572443Y-15092674D01*
X13572443Y-15092674D02*
X13581967Y-15102198D01*
X13581967Y-15102198D02*
X13591491Y-15121246D01*
X13591491Y-15121246D02*
X13591491Y-15178388D01*
X13591491Y-15178388D02*
X13581967Y-15197436D01*
X13581967Y-15197436D02*
X13572443Y-15206960D01*
X13572443Y-15206960D02*
X13553396Y-15216484D01*
X13553396Y-15216484D02*
X13515301Y-15216484D01*
X13515301Y-15216484D02*
X13496253Y-15206960D01*
X13677205Y-15197436D02*
X13686729Y-15206960D01*
X13686729Y-15206960D02*
X13677205Y-15216484D01*
X13677205Y-15216484D02*
X13667682Y-15206960D01*
X13667682Y-15206960D02*
X13677205Y-15197436D01*
X13677205Y-15197436D02*
X13677205Y-15216484D01*
X13677205Y-15092674D02*
X13686729Y-15102198D01*
X13686729Y-15102198D02*
X13677205Y-15111722D01*
X13677205Y-15111722D02*
X13667682Y-15102198D01*
X13667682Y-15102198D02*
X13677205Y-15092674D01*
X13677205Y-15092674D02*
X13677205Y-15111722D01*
D10*
X12025000Y-15535000D02*
X12045000Y-15555000D01*
X12045000Y-15535000D02*
X12025000Y-15555000D01*
D11*
X12343872Y-15436484D02*
X12362920Y-15436484D01*
X12362920Y-15436484D02*
X12381967Y-15446008D01*
X12381967Y-15446008D02*
X12391491Y-15455531D01*
X12391491Y-15455531D02*
X12401015Y-15474579D01*
X12401015Y-15474579D02*
X12410539Y-15512674D01*
X12410539Y-15512674D02*
X12410539Y-15560293D01*
X12410539Y-15560293D02*
X12401015Y-15598388D01*
X12401015Y-15598388D02*
X12391491Y-15617436D01*
X12391491Y-15617436D02*
X12381967Y-15626960D01*
X12381967Y-15626960D02*
X12362920Y-15636484D01*
X12362920Y-15636484D02*
X12343872Y-15636484D01*
X12343872Y-15636484D02*
X12324824Y-15626960D01*
X12324824Y-15626960D02*
X12315301Y-15617436D01*
X12315301Y-15617436D02*
X12305777Y-15598388D01*
X12305777Y-15598388D02*
X12296253Y-15560293D01*
X12296253Y-15560293D02*
X12296253Y-15512674D01*
X12296253Y-15512674D02*
X12305777Y-15474579D01*
X12305777Y-15474579D02*
X12315301Y-15455531D01*
X12315301Y-15455531D02*
X12324824Y-15446008D01*
X12324824Y-15446008D02*
X12343872Y-15436484D01*
X12496253Y-15617436D02*
X12505777Y-15626960D01*
X12505777Y-15626960D02*
X12496253Y-15636484D01*
X12496253Y-15636484D02*
X12486729Y-15626960D01*
X12486729Y-15626960D02*
X12496253Y-15617436D01*
X12496253Y-15617436D02*
X12496253Y-15636484D01*
X12581967Y-15455531D02*
X12591491Y-15446008D01*
X12591491Y-15446008D02*
X12610539Y-15436484D01*
X12610539Y-15436484D02*
X12658158Y-15436484D01*
X12658158Y-15436484D02*
X12677205Y-15446008D01*
X12677205Y-15446008D02*
X12686729Y-15455531D01*
X12686729Y-15455531D02*
X12696253Y-15474579D01*
X12696253Y-15474579D02*
X12696253Y-15493627D01*
X12696253Y-15493627D02*
X12686729Y-15522198D01*
X12686729Y-15522198D02*
X12572443Y-15636484D01*
X12572443Y-15636484D02*
X12696253Y-15636484D01*
X12820062Y-15436484D02*
X12839110Y-15436484D01*
X12839110Y-15436484D02*
X12858158Y-15446008D01*
X12858158Y-15446008D02*
X12867682Y-15455531D01*
X12867682Y-15455531D02*
X12877205Y-15474579D01*
X12877205Y-15474579D02*
X12886729Y-15512674D01*
X12886729Y-15512674D02*
X12886729Y-15560293D01*
X12886729Y-15560293D02*
X12877205Y-15598388D01*
X12877205Y-15598388D02*
X12867682Y-15617436D01*
X12867682Y-15617436D02*
X12858158Y-15626960D01*
X12858158Y-15626960D02*
X12839110Y-15636484D01*
X12839110Y-15636484D02*
X12820062Y-15636484D01*
X12820062Y-15636484D02*
X12801015Y-15626960D01*
X12801015Y-15626960D02*
X12791491Y-15617436D01*
X12791491Y-15617436D02*
X12781967Y-15598388D01*
X12781967Y-15598388D02*
X12772443Y-15560293D01*
X12772443Y-15560293D02*
X12772443Y-15512674D01*
X12772443Y-15512674D02*
X12781967Y-15474579D01*
X12781967Y-15474579D02*
X12791491Y-15455531D01*
X12791491Y-15455531D02*
X12801015Y-15446008D01*
X12801015Y-15446008D02*
X12820062Y-15436484D01*
X13010539Y-15436484D02*
X13029586Y-15436484D01*
X13029586Y-15436484D02*
X13048634Y-15446008D01*
X13048634Y-15446008D02*
X13058158Y-15455531D01*
X13058158Y-15455531D02*
X13067682Y-15474579D01*
X13067682Y-15474579D02*
X13077205Y-15512674D01*
X13077205Y-15512674D02*
X13077205Y-15560293D01*
X13077205Y-15560293D02*
X13067682Y-15598388D01*
X13067682Y-15598388D02*
X13058158Y-15617436D01*
X13058158Y-15617436D02*
X13048634Y-15626960D01*
X13048634Y-15626960D02*
X13029586Y-15636484D01*
X13029586Y-15636484D02*
X13010539Y-15636484D01*
X13010539Y-15636484D02*
X12991491Y-15626960D01*
X12991491Y-15626960D02*
X12981967Y-15617436D01*
X12981967Y-15617436D02*
X12972443Y-15598388D01*
X12972443Y-15598388D02*
X12962920Y-15560293D01*
X12962920Y-15560293D02*
X12962920Y-15512674D01*
X12962920Y-15512674D02*
X12972443Y-15474579D01*
X12972443Y-15474579D02*
X12981967Y-15455531D01*
X12981967Y-15455531D02*
X12991491Y-15446008D01*
X12991491Y-15446008D02*
X13010539Y-15436484D01*
X13162920Y-15636484D02*
X13162920Y-15503150D01*
X13162920Y-15522198D02*
X13172443Y-15512674D01*
X13172443Y-15512674D02*
X13191491Y-15503150D01*
X13191491Y-15503150D02*
X13220063Y-15503150D01*
X13220063Y-15503150D02*
X13239110Y-15512674D01*
X13239110Y-15512674D02*
X13248634Y-15531722D01*
X13248634Y-15531722D02*
X13248634Y-15636484D01*
X13248634Y-15531722D02*
X13258158Y-15512674D01*
X13258158Y-15512674D02*
X13277205Y-15503150D01*
X13277205Y-15503150D02*
X13305777Y-15503150D01*
X13305777Y-15503150D02*
X13324824Y-15512674D01*
X13324824Y-15512674D02*
X13334348Y-15531722D01*
X13334348Y-15531722D02*
X13334348Y-15636484D01*
X13429586Y-15636484D02*
X13429586Y-15503150D01*
X13429586Y-15522198D02*
X13439110Y-15512674D01*
X13439110Y-15512674D02*
X13458158Y-15503150D01*
X13458158Y-15503150D02*
X13486729Y-15503150D01*
X13486729Y-15503150D02*
X13505777Y-15512674D01*
X13505777Y-15512674D02*
X13515301Y-15531722D01*
X13515301Y-15531722D02*
X13515301Y-15636484D01*
X13515301Y-15531722D02*
X13524824Y-15512674D01*
X13524824Y-15512674D02*
X13543872Y-15503150D01*
X13543872Y-15503150D02*
X13572443Y-15503150D01*
X13572443Y-15503150D02*
X13591491Y-15512674D01*
X13591491Y-15512674D02*
X13601015Y-15531722D01*
X13601015Y-15531722D02*
X13601015Y-15636484D01*
X13991491Y-15426960D02*
X13820063Y-15684103D01*
X14248634Y-15436484D02*
X14267682Y-15436484D01*
X14267682Y-15436484D02*
X14286729Y-15446008D01*
X14286729Y-15446008D02*
X14296253Y-15455531D01*
X14296253Y-15455531D02*
X14305777Y-15474579D01*
X14305777Y-15474579D02*
X14315301Y-15512674D01*
X14315301Y-15512674D02*
X14315301Y-15560293D01*
X14315301Y-15560293D02*
X14305777Y-15598388D01*
X14305777Y-15598388D02*
X14296253Y-15617436D01*
X14296253Y-15617436D02*
X14286729Y-15626960D01*
X14286729Y-15626960D02*
X14267682Y-15636484D01*
X14267682Y-15636484D02*
X14248634Y-15636484D01*
X14248634Y-15636484D02*
X14229586Y-15626960D01*
X14229586Y-15626960D02*
X14220063Y-15617436D01*
X14220063Y-15617436D02*
X14210539Y-15598388D01*
X14210539Y-15598388D02*
X14201015Y-15560293D01*
X14201015Y-15560293D02*
X14201015Y-15512674D01*
X14201015Y-15512674D02*
X14210539Y-15474579D01*
X14210539Y-15474579D02*
X14220063Y-15455531D01*
X14220063Y-15455531D02*
X14229586Y-15446008D01*
X14229586Y-15446008D02*
X14248634Y-15436484D01*
X14401015Y-15617436D02*
X14410539Y-15626960D01*
X14410539Y-15626960D02*
X14401015Y-15636484D01*
X14401015Y-15636484D02*
X14391491Y-15626960D01*
X14391491Y-15626960D02*
X14401015Y-15617436D01*
X14401015Y-15617436D02*
X14401015Y-15636484D01*
X14534348Y-15436484D02*
X14553396Y-15436484D01*
X14553396Y-15436484D02*
X14572444Y-15446008D01*
X14572444Y-15446008D02*
X14581967Y-15455531D01*
X14581967Y-15455531D02*
X14591491Y-15474579D01*
X14591491Y-15474579D02*
X14601015Y-15512674D01*
X14601015Y-15512674D02*
X14601015Y-15560293D01*
X14601015Y-15560293D02*
X14591491Y-15598388D01*
X14591491Y-15598388D02*
X14581967Y-15617436D01*
X14581967Y-15617436D02*
X14572444Y-15626960D01*
X14572444Y-15626960D02*
X14553396Y-15636484D01*
X14553396Y-15636484D02*
X14534348Y-15636484D01*
X14534348Y-15636484D02*
X14515301Y-15626960D01*
X14515301Y-15626960D02*
X14505777Y-15617436D01*
X14505777Y-15617436D02*
X14496253Y-15598388D01*
X14496253Y-15598388D02*
X14486729Y-15560293D01*
X14486729Y-15560293D02*
X14486729Y-15512674D01*
X14486729Y-15512674D02*
X14496253Y-15474579D01*
X14496253Y-15474579D02*
X14505777Y-15455531D01*
X14505777Y-15455531D02*
X14515301Y-15446008D01*
X14515301Y-15446008D02*
X14534348Y-15436484D01*
X14724825Y-15436484D02*
X14743872Y-15436484D01*
X14743872Y-15436484D02*
X14762920Y-15446008D01*
X14762920Y-15446008D02*
X14772444Y-15455531D01*
X14772444Y-15455531D02*
X14781967Y-15474579D01*
X14781967Y-15474579D02*
X14791491Y-15512674D01*
X14791491Y-15512674D02*
X14791491Y-15560293D01*
X14791491Y-15560293D02*
X14781967Y-15598388D01*
X14781967Y-15598388D02*
X14772444Y-15617436D01*
X14772444Y-15617436D02*
X14762920Y-15626960D01*
X14762920Y-15626960D02*
X14743872Y-15636484D01*
X14743872Y-15636484D02*
X14724825Y-15636484D01*
X14724825Y-15636484D02*
X14705777Y-15626960D01*
X14705777Y-15626960D02*
X14696253Y-15617436D01*
X14696253Y-15617436D02*
X14686729Y-15598388D01*
X14686729Y-15598388D02*
X14677206Y-15560293D01*
X14677206Y-15560293D02*
X14677206Y-15512674D01*
X14677206Y-15512674D02*
X14686729Y-15474579D01*
X14686729Y-15474579D02*
X14696253Y-15455531D01*
X14696253Y-15455531D02*
X14705777Y-15446008D01*
X14705777Y-15446008D02*
X14724825Y-15436484D01*
X14858158Y-15436484D02*
X14991491Y-15436484D01*
X14991491Y-15436484D02*
X14905777Y-15636484D01*
X15077206Y-15636484D02*
X15115301Y-15636484D01*
X15115301Y-15636484D02*
X15134348Y-15626960D01*
X15134348Y-15626960D02*
X15143872Y-15617436D01*
X15143872Y-15617436D02*
X15162920Y-15588865D01*
X15162920Y-15588865D02*
X15172444Y-15550769D01*
X15172444Y-15550769D02*
X15172444Y-15474579D01*
X15172444Y-15474579D02*
X15162920Y-15455531D01*
X15162920Y-15455531D02*
X15153396Y-15446008D01*
X15153396Y-15446008D02*
X15134348Y-15436484D01*
X15134348Y-15436484D02*
X15096253Y-15436484D01*
X15096253Y-15436484D02*
X15077206Y-15446008D01*
X15077206Y-15446008D02*
X15067682Y-15455531D01*
X15067682Y-15455531D02*
X15058158Y-15474579D01*
X15058158Y-15474579D02*
X15058158Y-15522198D01*
X15058158Y-15522198D02*
X15067682Y-15541246D01*
X15067682Y-15541246D02*
X15077206Y-15550769D01*
X15077206Y-15550769D02*
X15096253Y-15560293D01*
X15096253Y-15560293D02*
X15134348Y-15560293D01*
X15134348Y-15560293D02*
X15153396Y-15550769D01*
X15153396Y-15550769D02*
X15162920Y-15541246D01*
X15162920Y-15541246D02*
X15172444Y-15522198D01*
X15248634Y-15436484D02*
X15248634Y-15474579D01*
X15324825Y-15436484D02*
X15324825Y-15474579D01*
X15620063Y-15712674D02*
X15610539Y-15703150D01*
X15610539Y-15703150D02*
X15591491Y-15674579D01*
X15591491Y-15674579D02*
X15581968Y-15655531D01*
X15581968Y-15655531D02*
X15572444Y-15626960D01*
X15572444Y-15626960D02*
X15562920Y-15579341D01*
X15562920Y-15579341D02*
X15562920Y-15541246D01*
X15562920Y-15541246D02*
X15572444Y-15493627D01*
X15572444Y-15493627D02*
X15581968Y-15465055D01*
X15581968Y-15465055D02*
X15591491Y-15446008D01*
X15591491Y-15446008D02*
X15610539Y-15417436D01*
X15610539Y-15417436D02*
X15620063Y-15407912D01*
X15677206Y-15436484D02*
X15801015Y-15436484D01*
X15801015Y-15436484D02*
X15734348Y-15512674D01*
X15734348Y-15512674D02*
X15762920Y-15512674D01*
X15762920Y-15512674D02*
X15781968Y-15522198D01*
X15781968Y-15522198D02*
X15791491Y-15531722D01*
X15791491Y-15531722D02*
X15801015Y-15550769D01*
X15801015Y-15550769D02*
X15801015Y-15598388D01*
X15801015Y-15598388D02*
X15791491Y-15617436D01*
X15791491Y-15617436D02*
X15781968Y-15626960D01*
X15781968Y-15626960D02*
X15762920Y-15636484D01*
X15762920Y-15636484D02*
X15705777Y-15636484D01*
X15705777Y-15636484D02*
X15686729Y-15626960D01*
X15686729Y-15626960D02*
X15677206Y-15617436D01*
X15896253Y-15636484D02*
X15934348Y-15636484D01*
X15934348Y-15636484D02*
X15953396Y-15626960D01*
X15953396Y-15626960D02*
X15962920Y-15617436D01*
X15962920Y-15617436D02*
X15981968Y-15588865D01*
X15981968Y-15588865D02*
X15991491Y-15550769D01*
X15991491Y-15550769D02*
X15991491Y-15474579D01*
X15991491Y-15474579D02*
X15981968Y-15455531D01*
X15981968Y-15455531D02*
X15972444Y-15446008D01*
X15972444Y-15446008D02*
X15953396Y-15436484D01*
X15953396Y-15436484D02*
X15915301Y-15436484D01*
X15915301Y-15436484D02*
X15896253Y-15446008D01*
X15896253Y-15446008D02*
X15886729Y-15455531D01*
X15886729Y-15455531D02*
X15877206Y-15474579D01*
X15877206Y-15474579D02*
X15877206Y-15522198D01*
X15877206Y-15522198D02*
X15886729Y-15541246D01*
X15886729Y-15541246D02*
X15896253Y-15550769D01*
X15896253Y-15550769D02*
X15915301Y-15560293D01*
X15915301Y-15560293D02*
X15953396Y-15560293D01*
X15953396Y-15560293D02*
X15972444Y-15550769D01*
X15972444Y-15550769D02*
X15981968Y-15541246D01*
X15981968Y-15541246D02*
X15991491Y-15522198D01*
X16229587Y-15636484D02*
X16229587Y-15436484D01*
X16315301Y-15636484D02*
X16315301Y-15531722D01*
X16315301Y-15531722D02*
X16305777Y-15512674D01*
X16305777Y-15512674D02*
X16286730Y-15503150D01*
X16286730Y-15503150D02*
X16258158Y-15503150D01*
X16258158Y-15503150D02*
X16239110Y-15512674D01*
X16239110Y-15512674D02*
X16229587Y-15522198D01*
X16439110Y-15636484D02*
X16420063Y-15626960D01*
X16420063Y-15626960D02*
X16410539Y-15617436D01*
X16410539Y-15617436D02*
X16401015Y-15598388D01*
X16401015Y-15598388D02*
X16401015Y-15541246D01*
X16401015Y-15541246D02*
X16410539Y-15522198D01*
X16410539Y-15522198D02*
X16420063Y-15512674D01*
X16420063Y-15512674D02*
X16439110Y-15503150D01*
X16439110Y-15503150D02*
X16467682Y-15503150D01*
X16467682Y-15503150D02*
X16486730Y-15512674D01*
X16486730Y-15512674D02*
X16496253Y-15522198D01*
X16496253Y-15522198D02*
X16505777Y-15541246D01*
X16505777Y-15541246D02*
X16505777Y-15598388D01*
X16505777Y-15598388D02*
X16496253Y-15617436D01*
X16496253Y-15617436D02*
X16486730Y-15626960D01*
X16486730Y-15626960D02*
X16467682Y-15636484D01*
X16467682Y-15636484D02*
X16439110Y-15636484D01*
X16620063Y-15636484D02*
X16601015Y-15626960D01*
X16601015Y-15626960D02*
X16591491Y-15607912D01*
X16591491Y-15607912D02*
X16591491Y-15436484D01*
X16772444Y-15626960D02*
X16753396Y-15636484D01*
X16753396Y-15636484D02*
X16715301Y-15636484D01*
X16715301Y-15636484D02*
X16696253Y-15626960D01*
X16696253Y-15626960D02*
X16686730Y-15607912D01*
X16686730Y-15607912D02*
X16686730Y-15531722D01*
X16686730Y-15531722D02*
X16696253Y-15512674D01*
X16696253Y-15512674D02*
X16715301Y-15503150D01*
X16715301Y-15503150D02*
X16753396Y-15503150D01*
X16753396Y-15503150D02*
X16772444Y-15512674D01*
X16772444Y-15512674D02*
X16781968Y-15531722D01*
X16781968Y-15531722D02*
X16781968Y-15550769D01*
X16781968Y-15550769D02*
X16686730Y-15569817D01*
X16858158Y-15626960D02*
X16877206Y-15636484D01*
X16877206Y-15636484D02*
X16915301Y-15636484D01*
X16915301Y-15636484D02*
X16934349Y-15626960D01*
X16934349Y-15626960D02*
X16943873Y-15607912D01*
X16943873Y-15607912D02*
X16943873Y-15598388D01*
X16943873Y-15598388D02*
X16934349Y-15579341D01*
X16934349Y-15579341D02*
X16915301Y-15569817D01*
X16915301Y-15569817D02*
X16886730Y-15569817D01*
X16886730Y-15569817D02*
X16867682Y-15560293D01*
X16867682Y-15560293D02*
X16858158Y-15541246D01*
X16858158Y-15541246D02*
X16858158Y-15531722D01*
X16858158Y-15531722D02*
X16867682Y-15512674D01*
X16867682Y-15512674D02*
X16886730Y-15503150D01*
X16886730Y-15503150D02*
X16915301Y-15503150D01*
X16915301Y-15503150D02*
X16934349Y-15512674D01*
X17010539Y-15712674D02*
X17020063Y-15703150D01*
X17020063Y-15703150D02*
X17039111Y-15674579D01*
X17039111Y-15674579D02*
X17048634Y-15655531D01*
X17048634Y-15655531D02*
X17058158Y-15626960D01*
X17058158Y-15626960D02*
X17067682Y-15579341D01*
X17067682Y-15579341D02*
X17067682Y-15541246D01*
X17067682Y-15541246D02*
X17058158Y-15493627D01*
X17058158Y-15493627D02*
X17048634Y-15465055D01*
X17048634Y-15465055D02*
X17039111Y-15446008D01*
X17039111Y-15446008D02*
X17020063Y-15417436D01*
X17020063Y-15417436D02*
X17010539Y-15407912D01*
D10*
X12045000Y-15809000D02*
G75*
G02*
X11955000Y-15809000I-45000J0D01*
G01*
X11955000Y-15809000D02*
G75*
G02*
X12045000Y-15809000I45000J0D01*
G01*
D11*
X12343872Y-15700484D02*
X12362920Y-15700484D01*
X12362920Y-15700484D02*
X12381967Y-15710008D01*
X12381967Y-15710008D02*
X12391491Y-15719531D01*
X12391491Y-15719531D02*
X12401015Y-15738579D01*
X12401015Y-15738579D02*
X12410539Y-15776674D01*
X12410539Y-15776674D02*
X12410539Y-15824293D01*
X12410539Y-15824293D02*
X12401015Y-15862388D01*
X12401015Y-15862388D02*
X12391491Y-15881436D01*
X12391491Y-15881436D02*
X12381967Y-15890960D01*
X12381967Y-15890960D02*
X12362920Y-15900484D01*
X12362920Y-15900484D02*
X12343872Y-15900484D01*
X12343872Y-15900484D02*
X12324824Y-15890960D01*
X12324824Y-15890960D02*
X12315301Y-15881436D01*
X12315301Y-15881436D02*
X12305777Y-15862388D01*
X12305777Y-15862388D02*
X12296253Y-15824293D01*
X12296253Y-15824293D02*
X12296253Y-15776674D01*
X12296253Y-15776674D02*
X12305777Y-15738579D01*
X12305777Y-15738579D02*
X12315301Y-15719531D01*
X12315301Y-15719531D02*
X12324824Y-15710008D01*
X12324824Y-15710008D02*
X12343872Y-15700484D01*
X12496253Y-15881436D02*
X12505777Y-15890960D01*
X12505777Y-15890960D02*
X12496253Y-15900484D01*
X12496253Y-15900484D02*
X12486729Y-15890960D01*
X12486729Y-15890960D02*
X12496253Y-15881436D01*
X12496253Y-15881436D02*
X12496253Y-15900484D01*
X12601015Y-15900484D02*
X12639110Y-15900484D01*
X12639110Y-15900484D02*
X12658158Y-15890960D01*
X12658158Y-15890960D02*
X12667682Y-15881436D01*
X12667682Y-15881436D02*
X12686729Y-15852865D01*
X12686729Y-15852865D02*
X12696253Y-15814769D01*
X12696253Y-15814769D02*
X12696253Y-15738579D01*
X12696253Y-15738579D02*
X12686729Y-15719531D01*
X12686729Y-15719531D02*
X12677205Y-15710008D01*
X12677205Y-15710008D02*
X12658158Y-15700484D01*
X12658158Y-15700484D02*
X12620062Y-15700484D01*
X12620062Y-15700484D02*
X12601015Y-15710008D01*
X12601015Y-15710008D02*
X12591491Y-15719531D01*
X12591491Y-15719531D02*
X12581967Y-15738579D01*
X12581967Y-15738579D02*
X12581967Y-15786198D01*
X12581967Y-15786198D02*
X12591491Y-15805246D01*
X12591491Y-15805246D02*
X12601015Y-15814769D01*
X12601015Y-15814769D02*
X12620062Y-15824293D01*
X12620062Y-15824293D02*
X12658158Y-15824293D01*
X12658158Y-15824293D02*
X12677205Y-15814769D01*
X12677205Y-15814769D02*
X12686729Y-15805246D01*
X12686729Y-15805246D02*
X12696253Y-15786198D01*
X12820062Y-15700484D02*
X12839110Y-15700484D01*
X12839110Y-15700484D02*
X12858158Y-15710008D01*
X12858158Y-15710008D02*
X12867682Y-15719531D01*
X12867682Y-15719531D02*
X12877205Y-15738579D01*
X12877205Y-15738579D02*
X12886729Y-15776674D01*
X12886729Y-15776674D02*
X12886729Y-15824293D01*
X12886729Y-15824293D02*
X12877205Y-15862388D01*
X12877205Y-15862388D02*
X12867682Y-15881436D01*
X12867682Y-15881436D02*
X12858158Y-15890960D01*
X12858158Y-15890960D02*
X12839110Y-15900484D01*
X12839110Y-15900484D02*
X12820062Y-15900484D01*
X12820062Y-15900484D02*
X12801015Y-15890960D01*
X12801015Y-15890960D02*
X12791491Y-15881436D01*
X12791491Y-15881436D02*
X12781967Y-15862388D01*
X12781967Y-15862388D02*
X12772443Y-15824293D01*
X12772443Y-15824293D02*
X12772443Y-15776674D01*
X12772443Y-15776674D02*
X12781967Y-15738579D01*
X12781967Y-15738579D02*
X12791491Y-15719531D01*
X12791491Y-15719531D02*
X12801015Y-15710008D01*
X12801015Y-15710008D02*
X12820062Y-15700484D01*
X13010539Y-15700484D02*
X13029586Y-15700484D01*
X13029586Y-15700484D02*
X13048634Y-15710008D01*
X13048634Y-15710008D02*
X13058158Y-15719531D01*
X13058158Y-15719531D02*
X13067682Y-15738579D01*
X13067682Y-15738579D02*
X13077205Y-15776674D01*
X13077205Y-15776674D02*
X13077205Y-15824293D01*
X13077205Y-15824293D02*
X13067682Y-15862388D01*
X13067682Y-15862388D02*
X13058158Y-15881436D01*
X13058158Y-15881436D02*
X13048634Y-15890960D01*
X13048634Y-15890960D02*
X13029586Y-15900484D01*
X13029586Y-15900484D02*
X13010539Y-15900484D01*
X13010539Y-15900484D02*
X12991491Y-15890960D01*
X12991491Y-15890960D02*
X12981967Y-15881436D01*
X12981967Y-15881436D02*
X12972443Y-15862388D01*
X12972443Y-15862388D02*
X12962920Y-15824293D01*
X12962920Y-15824293D02*
X12962920Y-15776674D01*
X12962920Y-15776674D02*
X12972443Y-15738579D01*
X12972443Y-15738579D02*
X12981967Y-15719531D01*
X12981967Y-15719531D02*
X12991491Y-15710008D01*
X12991491Y-15710008D02*
X13010539Y-15700484D01*
X13162920Y-15900484D02*
X13162920Y-15767150D01*
X13162920Y-15786198D02*
X13172443Y-15776674D01*
X13172443Y-15776674D02*
X13191491Y-15767150D01*
X13191491Y-15767150D02*
X13220063Y-15767150D01*
X13220063Y-15767150D02*
X13239110Y-15776674D01*
X13239110Y-15776674D02*
X13248634Y-15795722D01*
X13248634Y-15795722D02*
X13248634Y-15900484D01*
X13248634Y-15795722D02*
X13258158Y-15776674D01*
X13258158Y-15776674D02*
X13277205Y-15767150D01*
X13277205Y-15767150D02*
X13305777Y-15767150D01*
X13305777Y-15767150D02*
X13324824Y-15776674D01*
X13324824Y-15776674D02*
X13334348Y-15795722D01*
X13334348Y-15795722D02*
X13334348Y-15900484D01*
X13429586Y-15900484D02*
X13429586Y-15767150D01*
X13429586Y-15786198D02*
X13439110Y-15776674D01*
X13439110Y-15776674D02*
X13458158Y-15767150D01*
X13458158Y-15767150D02*
X13486729Y-15767150D01*
X13486729Y-15767150D02*
X13505777Y-15776674D01*
X13505777Y-15776674D02*
X13515301Y-15795722D01*
X13515301Y-15795722D02*
X13515301Y-15900484D01*
X13515301Y-15795722D02*
X13524824Y-15776674D01*
X13524824Y-15776674D02*
X13543872Y-15767150D01*
X13543872Y-15767150D02*
X13572443Y-15767150D01*
X13572443Y-15767150D02*
X13591491Y-15776674D01*
X13591491Y-15776674D02*
X13601015Y-15795722D01*
X13601015Y-15795722D02*
X13601015Y-15900484D01*
X13991491Y-15690960D02*
X13820063Y-15948103D01*
X14248634Y-15700484D02*
X14267682Y-15700484D01*
X14267682Y-15700484D02*
X14286729Y-15710008D01*
X14286729Y-15710008D02*
X14296253Y-15719531D01*
X14296253Y-15719531D02*
X14305777Y-15738579D01*
X14305777Y-15738579D02*
X14315301Y-15776674D01*
X14315301Y-15776674D02*
X14315301Y-15824293D01*
X14315301Y-15824293D02*
X14305777Y-15862388D01*
X14305777Y-15862388D02*
X14296253Y-15881436D01*
X14296253Y-15881436D02*
X14286729Y-15890960D01*
X14286729Y-15890960D02*
X14267682Y-15900484D01*
X14267682Y-15900484D02*
X14248634Y-15900484D01*
X14248634Y-15900484D02*
X14229586Y-15890960D01*
X14229586Y-15890960D02*
X14220063Y-15881436D01*
X14220063Y-15881436D02*
X14210539Y-15862388D01*
X14210539Y-15862388D02*
X14201015Y-15824293D01*
X14201015Y-15824293D02*
X14201015Y-15776674D01*
X14201015Y-15776674D02*
X14210539Y-15738579D01*
X14210539Y-15738579D02*
X14220063Y-15719531D01*
X14220063Y-15719531D02*
X14229586Y-15710008D01*
X14229586Y-15710008D02*
X14248634Y-15700484D01*
X14401015Y-15881436D02*
X14410539Y-15890960D01*
X14410539Y-15890960D02*
X14401015Y-15900484D01*
X14401015Y-15900484D02*
X14391491Y-15890960D01*
X14391491Y-15890960D02*
X14401015Y-15881436D01*
X14401015Y-15881436D02*
X14401015Y-15900484D01*
X14534348Y-15700484D02*
X14553396Y-15700484D01*
X14553396Y-15700484D02*
X14572444Y-15710008D01*
X14572444Y-15710008D02*
X14581967Y-15719531D01*
X14581967Y-15719531D02*
X14591491Y-15738579D01*
X14591491Y-15738579D02*
X14601015Y-15776674D01*
X14601015Y-15776674D02*
X14601015Y-15824293D01*
X14601015Y-15824293D02*
X14591491Y-15862388D01*
X14591491Y-15862388D02*
X14581967Y-15881436D01*
X14581967Y-15881436D02*
X14572444Y-15890960D01*
X14572444Y-15890960D02*
X14553396Y-15900484D01*
X14553396Y-15900484D02*
X14534348Y-15900484D01*
X14534348Y-15900484D02*
X14515301Y-15890960D01*
X14515301Y-15890960D02*
X14505777Y-15881436D01*
X14505777Y-15881436D02*
X14496253Y-15862388D01*
X14496253Y-15862388D02*
X14486729Y-15824293D01*
X14486729Y-15824293D02*
X14486729Y-15776674D01*
X14486729Y-15776674D02*
X14496253Y-15738579D01*
X14496253Y-15738579D02*
X14505777Y-15719531D01*
X14505777Y-15719531D02*
X14515301Y-15710008D01*
X14515301Y-15710008D02*
X14534348Y-15700484D01*
X14667682Y-15700484D02*
X14791491Y-15700484D01*
X14791491Y-15700484D02*
X14724825Y-15776674D01*
X14724825Y-15776674D02*
X14753396Y-15776674D01*
X14753396Y-15776674D02*
X14772444Y-15786198D01*
X14772444Y-15786198D02*
X14781967Y-15795722D01*
X14781967Y-15795722D02*
X14791491Y-15814769D01*
X14791491Y-15814769D02*
X14791491Y-15862388D01*
X14791491Y-15862388D02*
X14781967Y-15881436D01*
X14781967Y-15881436D02*
X14772444Y-15890960D01*
X14772444Y-15890960D02*
X14753396Y-15900484D01*
X14753396Y-15900484D02*
X14696253Y-15900484D01*
X14696253Y-15900484D02*
X14677206Y-15890960D01*
X14677206Y-15890960D02*
X14667682Y-15881436D01*
X14972444Y-15700484D02*
X14877206Y-15700484D01*
X14877206Y-15700484D02*
X14867682Y-15795722D01*
X14867682Y-15795722D02*
X14877206Y-15786198D01*
X14877206Y-15786198D02*
X14896253Y-15776674D01*
X14896253Y-15776674D02*
X14943872Y-15776674D01*
X14943872Y-15776674D02*
X14962920Y-15786198D01*
X14962920Y-15786198D02*
X14972444Y-15795722D01*
X14972444Y-15795722D02*
X14981967Y-15814769D01*
X14981967Y-15814769D02*
X14981967Y-15862388D01*
X14981967Y-15862388D02*
X14972444Y-15881436D01*
X14972444Y-15881436D02*
X14962920Y-15890960D01*
X14962920Y-15890960D02*
X14943872Y-15900484D01*
X14943872Y-15900484D02*
X14896253Y-15900484D01*
X14896253Y-15900484D02*
X14877206Y-15890960D01*
X14877206Y-15890960D02*
X14867682Y-15881436D01*
X15153396Y-15767150D02*
X15153396Y-15900484D01*
X15105777Y-15690960D02*
X15058158Y-15833817D01*
X15058158Y-15833817D02*
X15181967Y-15833817D01*
X15248634Y-15700484D02*
X15248634Y-15738579D01*
X15324825Y-15700484D02*
X15324825Y-15738579D01*
X15620063Y-15976674D02*
X15610539Y-15967150D01*
X15610539Y-15967150D02*
X15591491Y-15938579D01*
X15591491Y-15938579D02*
X15581968Y-15919531D01*
X15581968Y-15919531D02*
X15572444Y-15890960D01*
X15572444Y-15890960D02*
X15562920Y-15843341D01*
X15562920Y-15843341D02*
X15562920Y-15805246D01*
X15562920Y-15805246D02*
X15572444Y-15757627D01*
X15572444Y-15757627D02*
X15581968Y-15729055D01*
X15581968Y-15729055D02*
X15591491Y-15710008D01*
X15591491Y-15710008D02*
X15610539Y-15681436D01*
X15610539Y-15681436D02*
X15620063Y-15671912D01*
X15724825Y-15786198D02*
X15705777Y-15776674D01*
X15705777Y-15776674D02*
X15696253Y-15767150D01*
X15696253Y-15767150D02*
X15686729Y-15748103D01*
X15686729Y-15748103D02*
X15686729Y-15738579D01*
X15686729Y-15738579D02*
X15696253Y-15719531D01*
X15696253Y-15719531D02*
X15705777Y-15710008D01*
X15705777Y-15710008D02*
X15724825Y-15700484D01*
X15724825Y-15700484D02*
X15762920Y-15700484D01*
X15762920Y-15700484D02*
X15781968Y-15710008D01*
X15781968Y-15710008D02*
X15791491Y-15719531D01*
X15791491Y-15719531D02*
X15801015Y-15738579D01*
X15801015Y-15738579D02*
X15801015Y-15748103D01*
X15801015Y-15748103D02*
X15791491Y-15767150D01*
X15791491Y-15767150D02*
X15781968Y-15776674D01*
X15781968Y-15776674D02*
X15762920Y-15786198D01*
X15762920Y-15786198D02*
X15724825Y-15786198D01*
X15724825Y-15786198D02*
X15705777Y-15795722D01*
X15705777Y-15795722D02*
X15696253Y-15805246D01*
X15696253Y-15805246D02*
X15686729Y-15824293D01*
X15686729Y-15824293D02*
X15686729Y-15862388D01*
X15686729Y-15862388D02*
X15696253Y-15881436D01*
X15696253Y-15881436D02*
X15705777Y-15890960D01*
X15705777Y-15890960D02*
X15724825Y-15900484D01*
X15724825Y-15900484D02*
X15762920Y-15900484D01*
X15762920Y-15900484D02*
X15781968Y-15890960D01*
X15781968Y-15890960D02*
X15791491Y-15881436D01*
X15791491Y-15881436D02*
X15801015Y-15862388D01*
X15801015Y-15862388D02*
X15801015Y-15824293D01*
X15801015Y-15824293D02*
X15791491Y-15805246D01*
X15791491Y-15805246D02*
X15781968Y-15795722D01*
X15781968Y-15795722D02*
X15762920Y-15786198D01*
X16039110Y-15900484D02*
X16039110Y-15700484D01*
X16124825Y-15900484D02*
X16124825Y-15795722D01*
X16124825Y-15795722D02*
X16115301Y-15776674D01*
X16115301Y-15776674D02*
X16096253Y-15767150D01*
X16096253Y-15767150D02*
X16067682Y-15767150D01*
X16067682Y-15767150D02*
X16048634Y-15776674D01*
X16048634Y-15776674D02*
X16039110Y-15786198D01*
X16248634Y-15900484D02*
X16229587Y-15890960D01*
X16229587Y-15890960D02*
X16220063Y-15881436D01*
X16220063Y-15881436D02*
X16210539Y-15862388D01*
X16210539Y-15862388D02*
X16210539Y-15805246D01*
X16210539Y-15805246D02*
X16220063Y-15786198D01*
X16220063Y-15786198D02*
X16229587Y-15776674D01*
X16229587Y-15776674D02*
X16248634Y-15767150D01*
X16248634Y-15767150D02*
X16277206Y-15767150D01*
X16277206Y-15767150D02*
X16296253Y-15776674D01*
X16296253Y-15776674D02*
X16305777Y-15786198D01*
X16305777Y-15786198D02*
X16315301Y-15805246D01*
X16315301Y-15805246D02*
X16315301Y-15862388D01*
X16315301Y-15862388D02*
X16305777Y-15881436D01*
X16305777Y-15881436D02*
X16296253Y-15890960D01*
X16296253Y-15890960D02*
X16277206Y-15900484D01*
X16277206Y-15900484D02*
X16248634Y-15900484D01*
X16429587Y-15900484D02*
X16410539Y-15890960D01*
X16410539Y-15890960D02*
X16401015Y-15871912D01*
X16401015Y-15871912D02*
X16401015Y-15700484D01*
X16581968Y-15890960D02*
X16562920Y-15900484D01*
X16562920Y-15900484D02*
X16524825Y-15900484D01*
X16524825Y-15900484D02*
X16505777Y-15890960D01*
X16505777Y-15890960D02*
X16496253Y-15871912D01*
X16496253Y-15871912D02*
X16496253Y-15795722D01*
X16496253Y-15795722D02*
X16505777Y-15776674D01*
X16505777Y-15776674D02*
X16524825Y-15767150D01*
X16524825Y-15767150D02*
X16562920Y-15767150D01*
X16562920Y-15767150D02*
X16581968Y-15776674D01*
X16581968Y-15776674D02*
X16591491Y-15795722D01*
X16591491Y-15795722D02*
X16591491Y-15814769D01*
X16591491Y-15814769D02*
X16496253Y-15833817D01*
X16667682Y-15890960D02*
X16686730Y-15900484D01*
X16686730Y-15900484D02*
X16724825Y-15900484D01*
X16724825Y-15900484D02*
X16743872Y-15890960D01*
X16743872Y-15890960D02*
X16753396Y-15871912D01*
X16753396Y-15871912D02*
X16753396Y-15862388D01*
X16753396Y-15862388D02*
X16743872Y-15843341D01*
X16743872Y-15843341D02*
X16724825Y-15833817D01*
X16724825Y-15833817D02*
X16696253Y-15833817D01*
X16696253Y-15833817D02*
X16677206Y-15824293D01*
X16677206Y-15824293D02*
X16667682Y-15805246D01*
X16667682Y-15805246D02*
X16667682Y-15795722D01*
X16667682Y-15795722D02*
X16677206Y-15776674D01*
X16677206Y-15776674D02*
X16696253Y-15767150D01*
X16696253Y-15767150D02*
X16724825Y-15767150D01*
X16724825Y-15767150D02*
X16743872Y-15776674D01*
X16820063Y-15976674D02*
X16829587Y-15967150D01*
X16829587Y-15967150D02*
X16848634Y-15938579D01*
X16848634Y-15938579D02*
X16858158Y-15919531D01*
X16858158Y-15919531D02*
X16867682Y-15890960D01*
X16867682Y-15890960D02*
X16877206Y-15843341D01*
X16877206Y-15843341D02*
X16877206Y-15805246D01*
X16877206Y-15805246D02*
X16867682Y-15757627D01*
X16867682Y-15757627D02*
X16858158Y-15729055D01*
X16858158Y-15729055D02*
X16848634Y-15710008D01*
X16848634Y-15710008D02*
X16829587Y-15681436D01*
X16829587Y-15681436D02*
X16820063Y-15671912D01*
D12*
X11980000Y-16008000D02*
X11980000Y-16138000D01*
X11915000Y-16073000D02*
X12045000Y-16073000D01*
D11*
X12410539Y-16164484D02*
X12296253Y-16164484D01*
X12353396Y-16164484D02*
X12353396Y-15964484D01*
X12353396Y-15964484D02*
X12334348Y-15993055D01*
X12334348Y-15993055D02*
X12315301Y-16012103D01*
X12315301Y-16012103D02*
X12296253Y-16021627D01*
X12496253Y-16145436D02*
X12505777Y-16154960D01*
X12505777Y-16154960D02*
X12496253Y-16164484D01*
X12496253Y-16164484D02*
X12486729Y-16154960D01*
X12486729Y-16154960D02*
X12496253Y-16145436D01*
X12496253Y-16145436D02*
X12496253Y-16164484D01*
X12572443Y-15964484D02*
X12696253Y-15964484D01*
X12696253Y-15964484D02*
X12629586Y-16040674D01*
X12629586Y-16040674D02*
X12658158Y-16040674D01*
X12658158Y-16040674D02*
X12677205Y-16050198D01*
X12677205Y-16050198D02*
X12686729Y-16059722D01*
X12686729Y-16059722D02*
X12696253Y-16078769D01*
X12696253Y-16078769D02*
X12696253Y-16126388D01*
X12696253Y-16126388D02*
X12686729Y-16145436D01*
X12686729Y-16145436D02*
X12677205Y-16154960D01*
X12677205Y-16154960D02*
X12658158Y-16164484D01*
X12658158Y-16164484D02*
X12601015Y-16164484D01*
X12601015Y-16164484D02*
X12581967Y-16154960D01*
X12581967Y-16154960D02*
X12572443Y-16145436D01*
X12820062Y-15964484D02*
X12839110Y-15964484D01*
X12839110Y-15964484D02*
X12858158Y-15974008D01*
X12858158Y-15974008D02*
X12867682Y-15983531D01*
X12867682Y-15983531D02*
X12877205Y-16002579D01*
X12877205Y-16002579D02*
X12886729Y-16040674D01*
X12886729Y-16040674D02*
X12886729Y-16088293D01*
X12886729Y-16088293D02*
X12877205Y-16126388D01*
X12877205Y-16126388D02*
X12867682Y-16145436D01*
X12867682Y-16145436D02*
X12858158Y-16154960D01*
X12858158Y-16154960D02*
X12839110Y-16164484D01*
X12839110Y-16164484D02*
X12820062Y-16164484D01*
X12820062Y-16164484D02*
X12801015Y-16154960D01*
X12801015Y-16154960D02*
X12791491Y-16145436D01*
X12791491Y-16145436D02*
X12781967Y-16126388D01*
X12781967Y-16126388D02*
X12772443Y-16088293D01*
X12772443Y-16088293D02*
X12772443Y-16040674D01*
X12772443Y-16040674D02*
X12781967Y-16002579D01*
X12781967Y-16002579D02*
X12791491Y-15983531D01*
X12791491Y-15983531D02*
X12801015Y-15974008D01*
X12801015Y-15974008D02*
X12820062Y-15964484D01*
X13010539Y-15964484D02*
X13029586Y-15964484D01*
X13029586Y-15964484D02*
X13048634Y-15974008D01*
X13048634Y-15974008D02*
X13058158Y-15983531D01*
X13058158Y-15983531D02*
X13067682Y-16002579D01*
X13067682Y-16002579D02*
X13077205Y-16040674D01*
X13077205Y-16040674D02*
X13077205Y-16088293D01*
X13077205Y-16088293D02*
X13067682Y-16126388D01*
X13067682Y-16126388D02*
X13058158Y-16145436D01*
X13058158Y-16145436D02*
X13048634Y-16154960D01*
X13048634Y-16154960D02*
X13029586Y-16164484D01*
X13029586Y-16164484D02*
X13010539Y-16164484D01*
X13010539Y-16164484D02*
X12991491Y-16154960D01*
X12991491Y-16154960D02*
X12981967Y-16145436D01*
X12981967Y-16145436D02*
X12972443Y-16126388D01*
X12972443Y-16126388D02*
X12962920Y-16088293D01*
X12962920Y-16088293D02*
X12962920Y-16040674D01*
X12962920Y-16040674D02*
X12972443Y-16002579D01*
X12972443Y-16002579D02*
X12981967Y-15983531D01*
X12981967Y-15983531D02*
X12991491Y-15974008D01*
X12991491Y-15974008D02*
X13010539Y-15964484D01*
X13162920Y-16164484D02*
X13162920Y-16031150D01*
X13162920Y-16050198D02*
X13172443Y-16040674D01*
X13172443Y-16040674D02*
X13191491Y-16031150D01*
X13191491Y-16031150D02*
X13220063Y-16031150D01*
X13220063Y-16031150D02*
X13239110Y-16040674D01*
X13239110Y-16040674D02*
X13248634Y-16059722D01*
X13248634Y-16059722D02*
X13248634Y-16164484D01*
X13248634Y-16059722D02*
X13258158Y-16040674D01*
X13258158Y-16040674D02*
X13277205Y-16031150D01*
X13277205Y-16031150D02*
X13305777Y-16031150D01*
X13305777Y-16031150D02*
X13324824Y-16040674D01*
X13324824Y-16040674D02*
X13334348Y-16059722D01*
X13334348Y-16059722D02*
X13334348Y-16164484D01*
X13429586Y-16164484D02*
X13429586Y-16031150D01*
X13429586Y-16050198D02*
X13439110Y-16040674D01*
X13439110Y-16040674D02*
X13458158Y-16031150D01*
X13458158Y-16031150D02*
X13486729Y-16031150D01*
X13486729Y-16031150D02*
X13505777Y-16040674D01*
X13505777Y-16040674D02*
X13515301Y-16059722D01*
X13515301Y-16059722D02*
X13515301Y-16164484D01*
X13515301Y-16059722D02*
X13524824Y-16040674D01*
X13524824Y-16040674D02*
X13543872Y-16031150D01*
X13543872Y-16031150D02*
X13572443Y-16031150D01*
X13572443Y-16031150D02*
X13591491Y-16040674D01*
X13591491Y-16040674D02*
X13601015Y-16059722D01*
X13601015Y-16059722D02*
X13601015Y-16164484D01*
X13991491Y-15954960D02*
X13820063Y-16212103D01*
X14248634Y-15964484D02*
X14267682Y-15964484D01*
X14267682Y-15964484D02*
X14286729Y-15974008D01*
X14286729Y-15974008D02*
X14296253Y-15983531D01*
X14296253Y-15983531D02*
X14305777Y-16002579D01*
X14305777Y-16002579D02*
X14315301Y-16040674D01*
X14315301Y-16040674D02*
X14315301Y-16088293D01*
X14315301Y-16088293D02*
X14305777Y-16126388D01*
X14305777Y-16126388D02*
X14296253Y-16145436D01*
X14296253Y-16145436D02*
X14286729Y-16154960D01*
X14286729Y-16154960D02*
X14267682Y-16164484D01*
X14267682Y-16164484D02*
X14248634Y-16164484D01*
X14248634Y-16164484D02*
X14229586Y-16154960D01*
X14229586Y-16154960D02*
X14220063Y-16145436D01*
X14220063Y-16145436D02*
X14210539Y-16126388D01*
X14210539Y-16126388D02*
X14201015Y-16088293D01*
X14201015Y-16088293D02*
X14201015Y-16040674D01*
X14201015Y-16040674D02*
X14210539Y-16002579D01*
X14210539Y-16002579D02*
X14220063Y-15983531D01*
X14220063Y-15983531D02*
X14229586Y-15974008D01*
X14229586Y-15974008D02*
X14248634Y-15964484D01*
X14401015Y-16145436D02*
X14410539Y-16154960D01*
X14410539Y-16154960D02*
X14401015Y-16164484D01*
X14401015Y-16164484D02*
X14391491Y-16154960D01*
X14391491Y-16154960D02*
X14401015Y-16145436D01*
X14401015Y-16145436D02*
X14401015Y-16164484D01*
X14534348Y-15964484D02*
X14553396Y-15964484D01*
X14553396Y-15964484D02*
X14572444Y-15974008D01*
X14572444Y-15974008D02*
X14581967Y-15983531D01*
X14581967Y-15983531D02*
X14591491Y-16002579D01*
X14591491Y-16002579D02*
X14601015Y-16040674D01*
X14601015Y-16040674D02*
X14601015Y-16088293D01*
X14601015Y-16088293D02*
X14591491Y-16126388D01*
X14591491Y-16126388D02*
X14581967Y-16145436D01*
X14581967Y-16145436D02*
X14572444Y-16154960D01*
X14572444Y-16154960D02*
X14553396Y-16164484D01*
X14553396Y-16164484D02*
X14534348Y-16164484D01*
X14534348Y-16164484D02*
X14515301Y-16154960D01*
X14515301Y-16154960D02*
X14505777Y-16145436D01*
X14505777Y-16145436D02*
X14496253Y-16126388D01*
X14496253Y-16126388D02*
X14486729Y-16088293D01*
X14486729Y-16088293D02*
X14486729Y-16040674D01*
X14486729Y-16040674D02*
X14496253Y-16002579D01*
X14496253Y-16002579D02*
X14505777Y-15983531D01*
X14505777Y-15983531D02*
X14515301Y-15974008D01*
X14515301Y-15974008D02*
X14534348Y-15964484D01*
X14781967Y-15964484D02*
X14686729Y-15964484D01*
X14686729Y-15964484D02*
X14677206Y-16059722D01*
X14677206Y-16059722D02*
X14686729Y-16050198D01*
X14686729Y-16050198D02*
X14705777Y-16040674D01*
X14705777Y-16040674D02*
X14753396Y-16040674D01*
X14753396Y-16040674D02*
X14772444Y-16050198D01*
X14772444Y-16050198D02*
X14781967Y-16059722D01*
X14781967Y-16059722D02*
X14791491Y-16078769D01*
X14791491Y-16078769D02*
X14791491Y-16126388D01*
X14791491Y-16126388D02*
X14781967Y-16145436D01*
X14781967Y-16145436D02*
X14772444Y-16154960D01*
X14772444Y-16154960D02*
X14753396Y-16164484D01*
X14753396Y-16164484D02*
X14705777Y-16164484D01*
X14705777Y-16164484D02*
X14686729Y-16154960D01*
X14686729Y-16154960D02*
X14677206Y-16145436D01*
X14981967Y-16164484D02*
X14867682Y-16164484D01*
X14924825Y-16164484D02*
X14924825Y-15964484D01*
X14924825Y-15964484D02*
X14905777Y-15993055D01*
X14905777Y-15993055D02*
X14886729Y-16012103D01*
X14886729Y-16012103D02*
X14867682Y-16021627D01*
X15058158Y-15983531D02*
X15067682Y-15974008D01*
X15067682Y-15974008D02*
X15086729Y-15964484D01*
X15086729Y-15964484D02*
X15134348Y-15964484D01*
X15134348Y-15964484D02*
X15153396Y-15974008D01*
X15153396Y-15974008D02*
X15162920Y-15983531D01*
X15162920Y-15983531D02*
X15172444Y-16002579D01*
X15172444Y-16002579D02*
X15172444Y-16021627D01*
X15172444Y-16021627D02*
X15162920Y-16050198D01*
X15162920Y-16050198D02*
X15048634Y-16164484D01*
X15048634Y-16164484D02*
X15172444Y-16164484D01*
X15248634Y-15964484D02*
X15248634Y-16002579D01*
X15324825Y-15964484D02*
X15324825Y-16002579D01*
X15620063Y-16240674D02*
X15610539Y-16231150D01*
X15610539Y-16231150D02*
X15591491Y-16202579D01*
X15591491Y-16202579D02*
X15581968Y-16183531D01*
X15581968Y-16183531D02*
X15572444Y-16154960D01*
X15572444Y-16154960D02*
X15562920Y-16107341D01*
X15562920Y-16107341D02*
X15562920Y-16069246D01*
X15562920Y-16069246D02*
X15572444Y-16021627D01*
X15572444Y-16021627D02*
X15581968Y-15993055D01*
X15581968Y-15993055D02*
X15591491Y-15974008D01*
X15591491Y-15974008D02*
X15610539Y-15945436D01*
X15610539Y-15945436D02*
X15620063Y-15935912D01*
X15686729Y-15983531D02*
X15696253Y-15974008D01*
X15696253Y-15974008D02*
X15715301Y-15964484D01*
X15715301Y-15964484D02*
X15762920Y-15964484D01*
X15762920Y-15964484D02*
X15781968Y-15974008D01*
X15781968Y-15974008D02*
X15791491Y-15983531D01*
X15791491Y-15983531D02*
X15801015Y-16002579D01*
X15801015Y-16002579D02*
X15801015Y-16021627D01*
X15801015Y-16021627D02*
X15791491Y-16050198D01*
X15791491Y-16050198D02*
X15677206Y-16164484D01*
X15677206Y-16164484D02*
X15801015Y-16164484D01*
X16039110Y-16164484D02*
X16039110Y-15964484D01*
X16124825Y-16164484D02*
X16124825Y-16059722D01*
X16124825Y-16059722D02*
X16115301Y-16040674D01*
X16115301Y-16040674D02*
X16096253Y-16031150D01*
X16096253Y-16031150D02*
X16067682Y-16031150D01*
X16067682Y-16031150D02*
X16048634Y-16040674D01*
X16048634Y-16040674D02*
X16039110Y-16050198D01*
X16248634Y-16164484D02*
X16229587Y-16154960D01*
X16229587Y-16154960D02*
X16220063Y-16145436D01*
X16220063Y-16145436D02*
X16210539Y-16126388D01*
X16210539Y-16126388D02*
X16210539Y-16069246D01*
X16210539Y-16069246D02*
X16220063Y-16050198D01*
X16220063Y-16050198D02*
X16229587Y-16040674D01*
X16229587Y-16040674D02*
X16248634Y-16031150D01*
X16248634Y-16031150D02*
X16277206Y-16031150D01*
X16277206Y-16031150D02*
X16296253Y-16040674D01*
X16296253Y-16040674D02*
X16305777Y-16050198D01*
X16305777Y-16050198D02*
X16315301Y-16069246D01*
X16315301Y-16069246D02*
X16315301Y-16126388D01*
X16315301Y-16126388D02*
X16305777Y-16145436D01*
X16305777Y-16145436D02*
X16296253Y-16154960D01*
X16296253Y-16154960D02*
X16277206Y-16164484D01*
X16277206Y-16164484D02*
X16248634Y-16164484D01*
X16429587Y-16164484D02*
X16410539Y-16154960D01*
X16410539Y-16154960D02*
X16401015Y-16135912D01*
X16401015Y-16135912D02*
X16401015Y-15964484D01*
X16581968Y-16154960D02*
X16562920Y-16164484D01*
X16562920Y-16164484D02*
X16524825Y-16164484D01*
X16524825Y-16164484D02*
X16505777Y-16154960D01*
X16505777Y-16154960D02*
X16496253Y-16135912D01*
X16496253Y-16135912D02*
X16496253Y-16059722D01*
X16496253Y-16059722D02*
X16505777Y-16040674D01*
X16505777Y-16040674D02*
X16524825Y-16031150D01*
X16524825Y-16031150D02*
X16562920Y-16031150D01*
X16562920Y-16031150D02*
X16581968Y-16040674D01*
X16581968Y-16040674D02*
X16591491Y-16059722D01*
X16591491Y-16059722D02*
X16591491Y-16078769D01*
X16591491Y-16078769D02*
X16496253Y-16097817D01*
X16667682Y-16154960D02*
X16686730Y-16164484D01*
X16686730Y-16164484D02*
X16724825Y-16164484D01*
X16724825Y-16164484D02*
X16743872Y-16154960D01*
X16743872Y-16154960D02*
X16753396Y-16135912D01*
X16753396Y-16135912D02*
X16753396Y-16126388D01*
X16753396Y-16126388D02*
X16743872Y-16107341D01*
X16743872Y-16107341D02*
X16724825Y-16097817D01*
X16724825Y-16097817D02*
X16696253Y-16097817D01*
X16696253Y-16097817D02*
X16677206Y-16088293D01*
X16677206Y-16088293D02*
X16667682Y-16069246D01*
X16667682Y-16069246D02*
X16667682Y-16059722D01*
X16667682Y-16059722D02*
X16677206Y-16040674D01*
X16677206Y-16040674D02*
X16696253Y-16031150D01*
X16696253Y-16031150D02*
X16724825Y-16031150D01*
X16724825Y-16031150D02*
X16743872Y-16040674D01*
X16820063Y-16240674D02*
X16829587Y-16231150D01*
X16829587Y-16231150D02*
X16848634Y-16202579D01*
X16848634Y-16202579D02*
X16858158Y-16183531D01*
X16858158Y-16183531D02*
X16867682Y-16154960D01*
X16867682Y-16154960D02*
X16877206Y-16107341D01*
X16877206Y-16107341D02*
X16877206Y-16069246D01*
X16877206Y-16069246D02*
X16867682Y-16021627D01*
X16867682Y-16021627D02*
X16858158Y-15993055D01*
X16858158Y-15993055D02*
X16848634Y-15974008D01*
X16848634Y-15974008D02*
X16829587Y-15945436D01*
X16829587Y-15945436D02*
X16820063Y-15935912D01*
D13*
X12021569Y-16393569D02*
X12021569Y-16280431D01*
X11908431Y-16280431D01*
X11908431Y-16393569D01*
X12021569Y-16393569D01*
D11*
X12410539Y-16428484D02*
X12296253Y-16428484D01*
X12353396Y-16428484D02*
X12353396Y-16228484D01*
X12353396Y-16228484D02*
X12334348Y-16257055D01*
X12334348Y-16257055D02*
X12315301Y-16276103D01*
X12315301Y-16276103D02*
X12296253Y-16285627D01*
X12496253Y-16409436D02*
X12505777Y-16418960D01*
X12505777Y-16418960D02*
X12496253Y-16428484D01*
X12496253Y-16428484D02*
X12486729Y-16418960D01*
X12486729Y-16418960D02*
X12496253Y-16409436D01*
X12496253Y-16409436D02*
X12496253Y-16428484D01*
X12677205Y-16228484D02*
X12639110Y-16228484D01*
X12639110Y-16228484D02*
X12620062Y-16238008D01*
X12620062Y-16238008D02*
X12610539Y-16247531D01*
X12610539Y-16247531D02*
X12591491Y-16276103D01*
X12591491Y-16276103D02*
X12581967Y-16314198D01*
X12581967Y-16314198D02*
X12581967Y-16390388D01*
X12581967Y-16390388D02*
X12591491Y-16409436D01*
X12591491Y-16409436D02*
X12601015Y-16418960D01*
X12601015Y-16418960D02*
X12620062Y-16428484D01*
X12620062Y-16428484D02*
X12658158Y-16428484D01*
X12658158Y-16428484D02*
X12677205Y-16418960D01*
X12677205Y-16418960D02*
X12686729Y-16409436D01*
X12686729Y-16409436D02*
X12696253Y-16390388D01*
X12696253Y-16390388D02*
X12696253Y-16342769D01*
X12696253Y-16342769D02*
X12686729Y-16323722D01*
X12686729Y-16323722D02*
X12677205Y-16314198D01*
X12677205Y-16314198D02*
X12658158Y-16304674D01*
X12658158Y-16304674D02*
X12620062Y-16304674D01*
X12620062Y-16304674D02*
X12601015Y-16314198D01*
X12601015Y-16314198D02*
X12591491Y-16323722D01*
X12591491Y-16323722D02*
X12581967Y-16342769D01*
X12820062Y-16228484D02*
X12839110Y-16228484D01*
X12839110Y-16228484D02*
X12858158Y-16238008D01*
X12858158Y-16238008D02*
X12867682Y-16247531D01*
X12867682Y-16247531D02*
X12877205Y-16266579D01*
X12877205Y-16266579D02*
X12886729Y-16304674D01*
X12886729Y-16304674D02*
X12886729Y-16352293D01*
X12886729Y-16352293D02*
X12877205Y-16390388D01*
X12877205Y-16390388D02*
X12867682Y-16409436D01*
X12867682Y-16409436D02*
X12858158Y-16418960D01*
X12858158Y-16418960D02*
X12839110Y-16428484D01*
X12839110Y-16428484D02*
X12820062Y-16428484D01*
X12820062Y-16428484D02*
X12801015Y-16418960D01*
X12801015Y-16418960D02*
X12791491Y-16409436D01*
X12791491Y-16409436D02*
X12781967Y-16390388D01*
X12781967Y-16390388D02*
X12772443Y-16352293D01*
X12772443Y-16352293D02*
X12772443Y-16304674D01*
X12772443Y-16304674D02*
X12781967Y-16266579D01*
X12781967Y-16266579D02*
X12791491Y-16247531D01*
X12791491Y-16247531D02*
X12801015Y-16238008D01*
X12801015Y-16238008D02*
X12820062Y-16228484D01*
X13010539Y-16228484D02*
X13029586Y-16228484D01*
X13029586Y-16228484D02*
X13048634Y-16238008D01*
X13048634Y-16238008D02*
X13058158Y-16247531D01*
X13058158Y-16247531D02*
X13067682Y-16266579D01*
X13067682Y-16266579D02*
X13077205Y-16304674D01*
X13077205Y-16304674D02*
X13077205Y-16352293D01*
X13077205Y-16352293D02*
X13067682Y-16390388D01*
X13067682Y-16390388D02*
X13058158Y-16409436D01*
X13058158Y-16409436D02*
X13048634Y-16418960D01*
X13048634Y-16418960D02*
X13029586Y-16428484D01*
X13029586Y-16428484D02*
X13010539Y-16428484D01*
X13010539Y-16428484D02*
X12991491Y-16418960D01*
X12991491Y-16418960D02*
X12981967Y-16409436D01*
X12981967Y-16409436D02*
X12972443Y-16390388D01*
X12972443Y-16390388D02*
X12962920Y-16352293D01*
X12962920Y-16352293D02*
X12962920Y-16304674D01*
X12962920Y-16304674D02*
X12972443Y-16266579D01*
X12972443Y-16266579D02*
X12981967Y-16247531D01*
X12981967Y-16247531D02*
X12991491Y-16238008D01*
X12991491Y-16238008D02*
X13010539Y-16228484D01*
X13162920Y-16428484D02*
X13162920Y-16295150D01*
X13162920Y-16314198D02*
X13172443Y-16304674D01*
X13172443Y-16304674D02*
X13191491Y-16295150D01*
X13191491Y-16295150D02*
X13220063Y-16295150D01*
X13220063Y-16295150D02*
X13239110Y-16304674D01*
X13239110Y-16304674D02*
X13248634Y-16323722D01*
X13248634Y-16323722D02*
X13248634Y-16428484D01*
X13248634Y-16323722D02*
X13258158Y-16304674D01*
X13258158Y-16304674D02*
X13277205Y-16295150D01*
X13277205Y-16295150D02*
X13305777Y-16295150D01*
X13305777Y-16295150D02*
X13324824Y-16304674D01*
X13324824Y-16304674D02*
X13334348Y-16323722D01*
X13334348Y-16323722D02*
X13334348Y-16428484D01*
X13429586Y-16428484D02*
X13429586Y-16295150D01*
X13429586Y-16314198D02*
X13439110Y-16304674D01*
X13439110Y-16304674D02*
X13458158Y-16295150D01*
X13458158Y-16295150D02*
X13486729Y-16295150D01*
X13486729Y-16295150D02*
X13505777Y-16304674D01*
X13505777Y-16304674D02*
X13515301Y-16323722D01*
X13515301Y-16323722D02*
X13515301Y-16428484D01*
X13515301Y-16323722D02*
X13524824Y-16304674D01*
X13524824Y-16304674D02*
X13543872Y-16295150D01*
X13543872Y-16295150D02*
X13572443Y-16295150D01*
X13572443Y-16295150D02*
X13591491Y-16304674D01*
X13591491Y-16304674D02*
X13601015Y-16323722D01*
X13601015Y-16323722D02*
X13601015Y-16428484D01*
X13991491Y-16218960D02*
X13820063Y-16476103D01*
X14248634Y-16228484D02*
X14267682Y-16228484D01*
X14267682Y-16228484D02*
X14286729Y-16238008D01*
X14286729Y-16238008D02*
X14296253Y-16247531D01*
X14296253Y-16247531D02*
X14305777Y-16266579D01*
X14305777Y-16266579D02*
X14315301Y-16304674D01*
X14315301Y-16304674D02*
X14315301Y-16352293D01*
X14315301Y-16352293D02*
X14305777Y-16390388D01*
X14305777Y-16390388D02*
X14296253Y-16409436D01*
X14296253Y-16409436D02*
X14286729Y-16418960D01*
X14286729Y-16418960D02*
X14267682Y-16428484D01*
X14267682Y-16428484D02*
X14248634Y-16428484D01*
X14248634Y-16428484D02*
X14229586Y-16418960D01*
X14229586Y-16418960D02*
X14220063Y-16409436D01*
X14220063Y-16409436D02*
X14210539Y-16390388D01*
X14210539Y-16390388D02*
X14201015Y-16352293D01*
X14201015Y-16352293D02*
X14201015Y-16304674D01*
X14201015Y-16304674D02*
X14210539Y-16266579D01*
X14210539Y-16266579D02*
X14220063Y-16247531D01*
X14220063Y-16247531D02*
X14229586Y-16238008D01*
X14229586Y-16238008D02*
X14248634Y-16228484D01*
X14401015Y-16409436D02*
X14410539Y-16418960D01*
X14410539Y-16418960D02*
X14401015Y-16428484D01*
X14401015Y-16428484D02*
X14391491Y-16418960D01*
X14391491Y-16418960D02*
X14401015Y-16409436D01*
X14401015Y-16409436D02*
X14401015Y-16428484D01*
X14534348Y-16228484D02*
X14553396Y-16228484D01*
X14553396Y-16228484D02*
X14572444Y-16238008D01*
X14572444Y-16238008D02*
X14581967Y-16247531D01*
X14581967Y-16247531D02*
X14591491Y-16266579D01*
X14591491Y-16266579D02*
X14601015Y-16304674D01*
X14601015Y-16304674D02*
X14601015Y-16352293D01*
X14601015Y-16352293D02*
X14591491Y-16390388D01*
X14591491Y-16390388D02*
X14581967Y-16409436D01*
X14581967Y-16409436D02*
X14572444Y-16418960D01*
X14572444Y-16418960D02*
X14553396Y-16428484D01*
X14553396Y-16428484D02*
X14534348Y-16428484D01*
X14534348Y-16428484D02*
X14515301Y-16418960D01*
X14515301Y-16418960D02*
X14505777Y-16409436D01*
X14505777Y-16409436D02*
X14496253Y-16390388D01*
X14496253Y-16390388D02*
X14486729Y-16352293D01*
X14486729Y-16352293D02*
X14486729Y-16304674D01*
X14486729Y-16304674D02*
X14496253Y-16266579D01*
X14496253Y-16266579D02*
X14505777Y-16247531D01*
X14505777Y-16247531D02*
X14515301Y-16238008D01*
X14515301Y-16238008D02*
X14534348Y-16228484D01*
X14772444Y-16228484D02*
X14734348Y-16228484D01*
X14734348Y-16228484D02*
X14715301Y-16238008D01*
X14715301Y-16238008D02*
X14705777Y-16247531D01*
X14705777Y-16247531D02*
X14686729Y-16276103D01*
X14686729Y-16276103D02*
X14677206Y-16314198D01*
X14677206Y-16314198D02*
X14677206Y-16390388D01*
X14677206Y-16390388D02*
X14686729Y-16409436D01*
X14686729Y-16409436D02*
X14696253Y-16418960D01*
X14696253Y-16418960D02*
X14715301Y-16428484D01*
X14715301Y-16428484D02*
X14753396Y-16428484D01*
X14753396Y-16428484D02*
X14772444Y-16418960D01*
X14772444Y-16418960D02*
X14781967Y-16409436D01*
X14781967Y-16409436D02*
X14791491Y-16390388D01*
X14791491Y-16390388D02*
X14791491Y-16342769D01*
X14791491Y-16342769D02*
X14781967Y-16323722D01*
X14781967Y-16323722D02*
X14772444Y-16314198D01*
X14772444Y-16314198D02*
X14753396Y-16304674D01*
X14753396Y-16304674D02*
X14715301Y-16304674D01*
X14715301Y-16304674D02*
X14696253Y-16314198D01*
X14696253Y-16314198D02*
X14686729Y-16323722D01*
X14686729Y-16323722D02*
X14677206Y-16342769D01*
X14858158Y-16228484D02*
X14981967Y-16228484D01*
X14981967Y-16228484D02*
X14915301Y-16304674D01*
X14915301Y-16304674D02*
X14943872Y-16304674D01*
X14943872Y-16304674D02*
X14962920Y-16314198D01*
X14962920Y-16314198D02*
X14972444Y-16323722D01*
X14972444Y-16323722D02*
X14981967Y-16342769D01*
X14981967Y-16342769D02*
X14981967Y-16390388D01*
X14981967Y-16390388D02*
X14972444Y-16409436D01*
X14972444Y-16409436D02*
X14962920Y-16418960D01*
X14962920Y-16418960D02*
X14943872Y-16428484D01*
X14943872Y-16428484D02*
X14886729Y-16428484D01*
X14886729Y-16428484D02*
X14867682Y-16418960D01*
X14867682Y-16418960D02*
X14858158Y-16409436D01*
X15105777Y-16228484D02*
X15124825Y-16228484D01*
X15124825Y-16228484D02*
X15143872Y-16238008D01*
X15143872Y-16238008D02*
X15153396Y-16247531D01*
X15153396Y-16247531D02*
X15162920Y-16266579D01*
X15162920Y-16266579D02*
X15172444Y-16304674D01*
X15172444Y-16304674D02*
X15172444Y-16352293D01*
X15172444Y-16352293D02*
X15162920Y-16390388D01*
X15162920Y-16390388D02*
X15153396Y-16409436D01*
X15153396Y-16409436D02*
X15143872Y-16418960D01*
X15143872Y-16418960D02*
X15124825Y-16428484D01*
X15124825Y-16428484D02*
X15105777Y-16428484D01*
X15105777Y-16428484D02*
X15086729Y-16418960D01*
X15086729Y-16418960D02*
X15077206Y-16409436D01*
X15077206Y-16409436D02*
X15067682Y-16390388D01*
X15067682Y-16390388D02*
X15058158Y-16352293D01*
X15058158Y-16352293D02*
X15058158Y-16304674D01*
X15058158Y-16304674D02*
X15067682Y-16266579D01*
X15067682Y-16266579D02*
X15077206Y-16247531D01*
X15077206Y-16247531D02*
X15086729Y-16238008D01*
X15086729Y-16238008D02*
X15105777Y-16228484D01*
X15248634Y-16228484D02*
X15248634Y-16266579D01*
X15324825Y-16228484D02*
X15324825Y-16266579D01*
X15620063Y-16504674D02*
X15610539Y-16495150D01*
X15610539Y-16495150D02*
X15591491Y-16466579D01*
X15591491Y-16466579D02*
X15581968Y-16447531D01*
X15581968Y-16447531D02*
X15572444Y-16418960D01*
X15572444Y-16418960D02*
X15562920Y-16371341D01*
X15562920Y-16371341D02*
X15562920Y-16333246D01*
X15562920Y-16333246D02*
X15572444Y-16285627D01*
X15572444Y-16285627D02*
X15581968Y-16257055D01*
X15581968Y-16257055D02*
X15591491Y-16238008D01*
X15591491Y-16238008D02*
X15610539Y-16209436D01*
X15610539Y-16209436D02*
X15620063Y-16199912D01*
X15781968Y-16228484D02*
X15743872Y-16228484D01*
X15743872Y-16228484D02*
X15724825Y-16238008D01*
X15724825Y-16238008D02*
X15715301Y-16247531D01*
X15715301Y-16247531D02*
X15696253Y-16276103D01*
X15696253Y-16276103D02*
X15686729Y-16314198D01*
X15686729Y-16314198D02*
X15686729Y-16390388D01*
X15686729Y-16390388D02*
X15696253Y-16409436D01*
X15696253Y-16409436D02*
X15705777Y-16418960D01*
X15705777Y-16418960D02*
X15724825Y-16428484D01*
X15724825Y-16428484D02*
X15762920Y-16428484D01*
X15762920Y-16428484D02*
X15781968Y-16418960D01*
X15781968Y-16418960D02*
X15791491Y-16409436D01*
X15791491Y-16409436D02*
X15801015Y-16390388D01*
X15801015Y-16390388D02*
X15801015Y-16342769D01*
X15801015Y-16342769D02*
X15791491Y-16323722D01*
X15791491Y-16323722D02*
X15781968Y-16314198D01*
X15781968Y-16314198D02*
X15762920Y-16304674D01*
X15762920Y-16304674D02*
X15724825Y-16304674D01*
X15724825Y-16304674D02*
X15705777Y-16314198D01*
X15705777Y-16314198D02*
X15696253Y-16323722D01*
X15696253Y-16323722D02*
X15686729Y-16342769D01*
X16039110Y-16428484D02*
X16039110Y-16228484D01*
X16124825Y-16428484D02*
X16124825Y-16323722D01*
X16124825Y-16323722D02*
X16115301Y-16304674D01*
X16115301Y-16304674D02*
X16096253Y-16295150D01*
X16096253Y-16295150D02*
X16067682Y-16295150D01*
X16067682Y-16295150D02*
X16048634Y-16304674D01*
X16048634Y-16304674D02*
X16039110Y-16314198D01*
X16248634Y-16428484D02*
X16229587Y-16418960D01*
X16229587Y-16418960D02*
X16220063Y-16409436D01*
X16220063Y-16409436D02*
X16210539Y-16390388D01*
X16210539Y-16390388D02*
X16210539Y-16333246D01*
X16210539Y-16333246D02*
X16220063Y-16314198D01*
X16220063Y-16314198D02*
X16229587Y-16304674D01*
X16229587Y-16304674D02*
X16248634Y-16295150D01*
X16248634Y-16295150D02*
X16277206Y-16295150D01*
X16277206Y-16295150D02*
X16296253Y-16304674D01*
X16296253Y-16304674D02*
X16305777Y-16314198D01*
X16305777Y-16314198D02*
X16315301Y-16333246D01*
X16315301Y-16333246D02*
X16315301Y-16390388D01*
X16315301Y-16390388D02*
X16305777Y-16409436D01*
X16305777Y-16409436D02*
X16296253Y-16418960D01*
X16296253Y-16418960D02*
X16277206Y-16428484D01*
X16277206Y-16428484D02*
X16248634Y-16428484D01*
X16429587Y-16428484D02*
X16410539Y-16418960D01*
X16410539Y-16418960D02*
X16401015Y-16399912D01*
X16401015Y-16399912D02*
X16401015Y-16228484D01*
X16581968Y-16418960D02*
X16562920Y-16428484D01*
X16562920Y-16428484D02*
X16524825Y-16428484D01*
X16524825Y-16428484D02*
X16505777Y-16418960D01*
X16505777Y-16418960D02*
X16496253Y-16399912D01*
X16496253Y-16399912D02*
X16496253Y-16323722D01*
X16496253Y-16323722D02*
X16505777Y-16304674D01*
X16505777Y-16304674D02*
X16524825Y-16295150D01*
X16524825Y-16295150D02*
X16562920Y-16295150D01*
X16562920Y-16295150D02*
X16581968Y-16304674D01*
X16581968Y-16304674D02*
X16591491Y-16323722D01*
X16591491Y-16323722D02*
X16591491Y-16342769D01*
X16591491Y-16342769D02*
X16496253Y-16361817D01*
X16667682Y-16418960D02*
X16686730Y-16428484D01*
X16686730Y-16428484D02*
X16724825Y-16428484D01*
X16724825Y-16428484D02*
X16743872Y-16418960D01*
X16743872Y-16418960D02*
X16753396Y-16399912D01*
X16753396Y-16399912D02*
X16753396Y-16390388D01*
X16753396Y-16390388D02*
X16743872Y-16371341D01*
X16743872Y-16371341D02*
X16724825Y-16361817D01*
X16724825Y-16361817D02*
X16696253Y-16361817D01*
X16696253Y-16361817D02*
X16677206Y-16352293D01*
X16677206Y-16352293D02*
X16667682Y-16333246D01*
X16667682Y-16333246D02*
X16667682Y-16323722D01*
X16667682Y-16323722D02*
X16677206Y-16304674D01*
X16677206Y-16304674D02*
X16696253Y-16295150D01*
X16696253Y-16295150D02*
X16724825Y-16295150D01*
X16724825Y-16295150D02*
X16743872Y-16304674D01*
X16820063Y-16504674D02*
X16829587Y-16495150D01*
X16829587Y-16495150D02*
X16848634Y-16466579D01*
X16848634Y-16466579D02*
X16858158Y-16447531D01*
X16858158Y-16447531D02*
X16867682Y-16418960D01*
X16867682Y-16418960D02*
X16877206Y-16371341D01*
X16877206Y-16371341D02*
X16877206Y-16333246D01*
X16877206Y-16333246D02*
X16867682Y-16285627D01*
X16867682Y-16285627D02*
X16858158Y-16257055D01*
X16858158Y-16257055D02*
X16848634Y-16238008D01*
X16848634Y-16238008D02*
X16829587Y-16209436D01*
X16829587Y-16209436D02*
X16820063Y-16199912D01*
M02*
