%TF.GenerationSoftware,KiCad,Pcbnew,8.0.2-1*%
%TF.CreationDate,2025-01-08T00:27:57-08:00*%
%TF.ProjectId,rocket2-load-cell,726f636b-6574-4322-9d6c-6f61642d6365,rev?*%
%TF.SameCoordinates,Original*%
%TF.FileFunction,Soldermask,Top*%
%TF.FilePolarity,Negative*%
%FSLAX46Y46*%
G04 Gerber Fmt 4.6, Leading zero omitted, Abs format (unit mm)*
G04 Created by KiCad (PCBNEW 8.0.2-1) date 2025-01-08 00:27:57*
%MOMM*%
%LPD*%
G01*
G04 APERTURE LIST*
G04 Aperture macros list*
%AMRoundRect*
0 Rectangle with rounded corners*
0 $1 Rounding radius*
0 $2 $3 $4 $5 $6 $7 $8 $9 X,Y pos of 4 corners*
0 Add a 4 corners polygon primitive as box body*
4,1,4,$2,$3,$4,$5,$6,$7,$8,$9,$2,$3,0*
0 Add four circle primitives for the rounded corners*
1,1,$1+$1,$2,$3*
1,1,$1+$1,$4,$5*
1,1,$1+$1,$6,$7*
1,1,$1+$1,$8,$9*
0 Add four rect primitives between the rounded corners*
20,1,$1+$1,$2,$3,$4,$5,0*
20,1,$1+$1,$4,$5,$6,$7,0*
20,1,$1+$1,$6,$7,$8,$9,0*
20,1,$1+$1,$8,$9,$2,$3,0*%
G04 Aperture macros list end*
%ADD10RoundRect,0.200000X0.200000X0.275000X-0.200000X0.275000X-0.200000X-0.275000X0.200000X-0.275000X0*%
%ADD11RoundRect,0.200000X-0.200000X-0.275000X0.200000X-0.275000X0.200000X0.275000X-0.200000X0.275000X0*%
%ADD12C,1.400000*%
%ADD13C,2.000000*%
%ADD14RoundRect,0.075000X-0.075000X-0.662500X0.075000X-0.662500X0.075000X0.662500X-0.075000X0.662500X0*%
%ADD15RoundRect,0.075000X-0.662500X-0.075000X0.662500X-0.075000X0.662500X0.075000X-0.662500X0.075000X0*%
%ADD16RoundRect,0.237500X0.300000X0.237500X-0.300000X0.237500X-0.300000X-0.237500X0.300000X-0.237500X0*%
%ADD17RoundRect,0.225000X-0.225000X-0.250000X0.225000X-0.250000X0.225000X0.250000X-0.225000X0.250000X0*%
%ADD18RoundRect,0.375000X0.375000X-0.625000X0.375000X0.625000X-0.375000X0.625000X-0.375000X-0.625000X0*%
%ADD19RoundRect,0.500000X1.400000X-0.500000X1.400000X0.500000X-1.400000X0.500000X-1.400000X-0.500000X0*%
%ADD20RoundRect,0.100000X0.637500X0.100000X-0.637500X0.100000X-0.637500X-0.100000X0.637500X-0.100000X0*%
%ADD21R,1.150000X1.000000*%
%ADD22RoundRect,0.218750X-0.218750X-0.256250X0.218750X-0.256250X0.218750X0.256250X-0.218750X0.256250X0*%
%ADD23C,2.600000*%
%ADD24R,2.600000X2.600000*%
%ADD25R,2.400000X0.740000*%
%ADD26RoundRect,0.225000X0.225000X0.250000X-0.225000X0.250000X-0.225000X-0.250000X0.225000X-0.250000X0*%
%ADD27RoundRect,0.225000X-0.250000X0.225000X-0.250000X-0.225000X0.250000X-0.225000X0.250000X0.225000X0*%
%ADD28R,0.650000X1.700000*%
%ADD29RoundRect,0.218750X-0.256250X0.218750X-0.256250X-0.218750X0.256250X-0.218750X0.256250X0.218750X0*%
%ADD30C,4.300000*%
%ADD31RoundRect,0.225000X0.250000X-0.225000X0.250000X0.225000X-0.250000X0.225000X-0.250000X-0.225000X0*%
%ADD32C,4.000000*%
G04 APERTURE END LIST*
D10*
%TO.C,R2*%
X149012500Y-100250000D03*
X150662500Y-100250000D03*
%TD*%
D11*
%TO.C,R5*%
X131847500Y-106250000D03*
X130197500Y-106250000D03*
%TD*%
D12*
%TO.C,U5*%
X171000000Y-110500000D03*
X173540000Y-111760000D03*
X171000000Y-113030000D03*
X173540000Y-114330000D03*
X171000000Y-115570000D03*
X173540000Y-116850000D03*
X171000000Y-118110000D03*
D13*
X176550000Y-106910000D03*
X176540000Y-122950000D03*
D12*
X173520000Y-119380000D03*
%TD*%
D14*
%TO.C,U2*%
X134087500Y-108087500D03*
X134587500Y-108087500D03*
X135087500Y-108087500D03*
X135587500Y-108087500D03*
X136087500Y-108087500D03*
X136587500Y-108087500D03*
X137087500Y-108087500D03*
X137587500Y-108087500D03*
X138087500Y-108087500D03*
X138587500Y-108087500D03*
X139087500Y-108087500D03*
X139587500Y-108087500D03*
D15*
X141000000Y-109500000D03*
X141000000Y-110000000D03*
X141000000Y-110500000D03*
X141000000Y-111000000D03*
X141000000Y-111500000D03*
X141000000Y-112000000D03*
X141000000Y-112500000D03*
X141000000Y-113000000D03*
X141000000Y-113500000D03*
X141000000Y-114000000D03*
X141000000Y-114500000D03*
X141000000Y-115000000D03*
D14*
X139587500Y-116412500D03*
X139087500Y-116412500D03*
X138587500Y-116412500D03*
X138087500Y-116412500D03*
X137587500Y-116412500D03*
X137087500Y-116412500D03*
X136587500Y-116412500D03*
X136087500Y-116412500D03*
X135587500Y-116412500D03*
X135087500Y-116412500D03*
X134587500Y-116412500D03*
X134087500Y-116412500D03*
D15*
X132675000Y-115000000D03*
X132675000Y-114500000D03*
X132675000Y-114000000D03*
X132675000Y-113500000D03*
X132675000Y-113000000D03*
X132675000Y-112500000D03*
X132675000Y-112000000D03*
X132675000Y-111500000D03*
X132675000Y-111000000D03*
X132675000Y-110500000D03*
X132675000Y-110000000D03*
X132675000Y-109500000D03*
%TD*%
D16*
%TO.C,C19*%
X134975000Y-97772500D03*
X136700000Y-97772500D03*
%TD*%
D10*
%TO.C,R1*%
X135012500Y-102250000D03*
X136662500Y-102250000D03*
%TD*%
D17*
%TO.C,C4*%
X167500000Y-105000000D03*
X165950000Y-105000000D03*
%TD*%
%TO.C,C2*%
X133297500Y-118250000D03*
X131747500Y-118250000D03*
%TD*%
D10*
%TO.C,R3*%
X141512500Y-105250000D03*
X143162500Y-105250000D03*
%TD*%
D18*
%TO.C,U3*%
X150137500Y-127900000D03*
D19*
X147837500Y-121600000D03*
D18*
X147837500Y-127900000D03*
X145537500Y-127900000D03*
%TD*%
D20*
%TO.C,ADS1219*%
X139475000Y-102525000D03*
X139475000Y-101875000D03*
X139475000Y-101225000D03*
X139475000Y-100575000D03*
X139475000Y-99925000D03*
X139475000Y-99275000D03*
X139475000Y-98625000D03*
X139475000Y-97975000D03*
X145200000Y-97975000D03*
X145200000Y-98625000D03*
X145200000Y-99275000D03*
X145200000Y-99925000D03*
X145200000Y-100575000D03*
X145200000Y-101225000D03*
X145200000Y-101875000D03*
X145200000Y-102525000D03*
%TD*%
D21*
%TO.C,Y1*%
X126462500Y-111050000D03*
X128212500Y-111050000D03*
X128212500Y-112450000D03*
X126462500Y-112450000D03*
%TD*%
D22*
%TO.C,D1*%
X133522500Y-104250000D03*
X131947500Y-104250000D03*
%TD*%
D23*
%TO.C,J2*%
X182500000Y-129000000D03*
D24*
X182500000Y-134080000D03*
%TD*%
D25*
%TO.C,J1*%
X148450000Y-118540000D03*
X144550000Y-118540000D03*
X148450000Y-117270000D03*
X144550000Y-117270000D03*
X148450000Y-116000000D03*
X144550000Y-116000000D03*
X148450000Y-114730000D03*
X144550000Y-114730000D03*
X148450000Y-113460000D03*
X144550000Y-113460000D03*
%TD*%
D26*
%TO.C,C1*%
X135062500Y-100750000D03*
X136612500Y-100750000D03*
%TD*%
D27*
%TO.C,C13*%
X149837500Y-109750000D03*
X149837500Y-108200000D03*
%TD*%
%TO.C,C14*%
X130522500Y-109800000D03*
X130522500Y-108250000D03*
%TD*%
D26*
%TO.C,C7*%
X133472500Y-106250000D03*
X135022500Y-106250000D03*
%TD*%
D28*
%TO.C,U1*%
X134432500Y-120100000D03*
X135702500Y-120100000D03*
X136972500Y-120100000D03*
X138242500Y-120100000D03*
X138242500Y-127400000D03*
X136972500Y-127400000D03*
X135702500Y-127400000D03*
X134432500Y-127400000D03*
%TD*%
D29*
%TO.C,L2*%
X151837500Y-109987500D03*
X151837500Y-108412500D03*
%TD*%
D30*
%TO.C,H3*%
X184000000Y-87500000D03*
%TD*%
D31*
%TO.C,C20*%
X147337500Y-98475000D03*
X147337500Y-100025000D03*
%TD*%
D16*
%TO.C,C16*%
X134975000Y-99250000D03*
X136700000Y-99250000D03*
%TD*%
D31*
%TO.C,C8*%
X130522500Y-114975000D03*
X130522500Y-116525000D03*
%TD*%
D17*
%TO.C,C3*%
X140297500Y-118250000D03*
X138747500Y-118250000D03*
%TD*%
D30*
%TO.C,H2*%
X126000000Y-87500000D03*
%TD*%
D31*
%TO.C,C6*%
X142837500Y-107975000D03*
X142837500Y-109525000D03*
%TD*%
D32*
%TO.C,GX12*%
X180000000Y-97000000D03*
X180000000Y-101000000D03*
X184000000Y-101000000D03*
X184000000Y-97000000D03*
%TD*%
D31*
%TO.C,C5*%
X130522500Y-111975000D03*
X130522500Y-113525000D03*
%TD*%
D10*
%TO.C,R4*%
X149012500Y-98250000D03*
X150662500Y-98250000D03*
%TD*%
D17*
%TO.C,C11*%
X147337500Y-130250000D03*
X145787500Y-130250000D03*
%TD*%
D27*
%TO.C,C18*%
X147837500Y-109750000D03*
X147837500Y-108200000D03*
%TD*%
D30*
%TO.C,H1*%
X184000000Y-143500000D03*
%TD*%
%TO.C,H4*%
X126000000Y-143500000D03*
%TD*%
D17*
%TO.C,C9*%
X150612500Y-130250000D03*
X149062500Y-130250000D03*
%TD*%
M02*
