M48
; DRILL file {KiCad 8.0.2-1} date 2025-01-08T22:21:23-0800
; FORMAT={-:-/ absolute / inch / decimal}
; #@! TF.CreationDate,2025-01-08T22:21:23-08:00
; #@! TF.GenerationSoftware,Kicad,Pcbnew,8.0.2-1
; #@! TF.FileFunction,Plated,1,2,PTH
FMAT,2
INCH
; #@! TA.AperFunction,Plated,PTH,ViaDrill
T1C0.0079
; #@! TA.AperFunction,Plated,PTH,ComponentDrill
T2C0.0354
; #@! TA.AperFunction,Plated,PTH,ComponentDrill
T3C0.0512
; #@! TA.AperFunction,Plated,PTH,ComponentDrill
T4C0.0630
%
G90
G05
T1
X5.0723Y-4.1831
X5.0723Y-4.4783
X5.092Y-4.3209
X5.1314Y-4.6555
X5.2495Y-3.9075
X5.2889Y-4.5177
X5.2889Y-4.7933
X5.3086Y-4.1437
X5.3479Y-4.5177
X5.3479Y-4.7933
X5.3937Y-4.3701
X5.407Y-4.5276
X5.407Y-4.7933
X5.4134Y-4.3898
X5.4331Y-4.4094
X5.4528Y-4.4291
X5.4724Y-4.4488
X5.5054Y-4.7146
X5.5054Y-5.0098
X5.5645Y-4.1959
X5.5645Y-4.2431
X5.5842Y-4.6555
X5.6038Y-4.4587
X5.6235Y-5.0492
X5.6629Y-3.9469
X5.6717Y-4.0344
X5.6737Y-4.312
X5.7219Y-3.8091
X5.7416Y-5.2264
X5.7613Y-4.6717
X5.8597Y-4.3209
X5.8597Y-5.2264
X5.9055Y-4.9409
X6.0236Y-4.9409
X6.4764Y-4.4488
X6.5157Y-4.5276
X6.5157Y-4.5669
X6.5157Y-4.6063
X6.5157Y-4.6457
T2
X6.6819Y-4.4591
X6.6819Y-4.5583
X6.6819Y-4.6594
X6.6827Y-4.3594
X6.7819Y-4.4094
X6.7819Y-4.5094
X6.7819Y-4.6094
X6.7819Y-4.7091
T3
X7.185Y-5.0787
X7.185Y-5.2787
T4
X6.5634Y-4.8504
X6.5638Y-4.2189
X7.0866Y-3.8189
X7.0866Y-3.9764
X7.2441Y-3.8189
X7.2441Y-3.9764
M30
