%TF.GenerationSoftware,KiCad,Pcbnew,8.0.2-1*%
%TF.CreationDate,2025-01-15T14:17:39-08:00*%
%TF.ProjectId,rocket2-load-cell,726f636b-6574-4322-9d6c-6f61642d6365,rev?*%
%TF.SameCoordinates,Original*%
%TF.FileFunction,Copper,L2,Bot*%
%TF.FilePolarity,Positive*%
%FSLAX46Y46*%
G04 Gerber Fmt 4.6, Leading zero omitted, Abs format (unit mm)*
G04 Created by KiCad (PCBNEW 8.0.2-1) date 2025-01-15 14:17:39*
%MOMM*%
%LPD*%
G01*
G04 APERTURE LIST*
%TA.AperFunction,ComponentPad*%
%ADD10R,1.599999X1.599999*%
%TD*%
%TA.AperFunction,ComponentPad*%
%ADD11C,1.599999*%
%TD*%
%TA.AperFunction,ComponentPad*%
%ADD12C,2.500000*%
%TD*%
%TA.AperFunction,ComponentPad*%
%ADD13C,1.400000*%
%TD*%
%TA.AperFunction,ComponentPad*%
%ADD14C,2.000000*%
%TD*%
%TA.AperFunction,ComponentPad*%
%ADD15R,2.600000X2.600000*%
%TD*%
%TA.AperFunction,ComponentPad*%
%ADD16C,2.600000*%
%TD*%
%TA.AperFunction,ViaPad*%
%ADD17C,0.500000*%
%TD*%
%TA.AperFunction,Conductor*%
%ADD18C,0.500000*%
%TD*%
%TA.AperFunction,Conductor*%
%ADD19C,0.300000*%
%TD*%
G04 APERTURE END LIST*
D10*
%TO.P,U4,1,INPUT*%
%TO.N,VIN*%
X172000000Y-134540000D03*
D11*
%TO.P,U4,2,COMMON*%
%TO.N,GND*%
X172000000Y-132000000D03*
%TO.P,U4,3,OUTPUT*%
%TO.N,VBUS*%
X172000000Y-129460000D03*
%TD*%
D12*
%TO.P,GX12,1*%
%TO.N,AIN-*%
X180010000Y-96930000D03*
%TO.P,GX12,4*%
%TO.N,AIN+*%
X180010000Y-100930000D03*
%TO.P,GX12,3*%
%TO.N,GND*%
X176010000Y-100930000D03*
%TO.P,GX12,2*%
%TO.N,VLC*%
X176010000Y-96930000D03*
%TD*%
D13*
%TO.P,U5,1,GND*%
%TO.N,GND*%
X169740000Y-110730000D03*
D14*
X166720000Y-107160000D03*
X166710000Y-123200000D03*
D13*
%TO.P,U5,2,3.3V*%
%TO.N,+3.3V*%
X172260000Y-112000000D03*
%TO.P,U5,3,~{RST}*%
%TO.N,ETH_~{RST}*%
X169720000Y-113260000D03*
%TO.P,U5,4,TX*%
%TO.N,ETH_TX*%
X172260000Y-114540000D03*
%TO.P,U5,5,RX*%
%TO.N,ETH_RX*%
X169720000Y-115780000D03*
%TO.P,U5,6,CP1/RTS*%
%TO.N,ETH_RTS*%
X172260000Y-117080000D03*
%TO.P,U5,7,CP2/DTR*%
%TO.N,unconnected-(U5-CP2{slash}DTR-Pad7)*%
X169720000Y-118350000D03*
%TO.P,U5,8,CP3/CTS/DCD*%
%TO.N,ETH_CTS*%
X172260000Y-119610000D03*
%TD*%
D15*
%TO.P,J2,1,Pin_1*%
%TO.N,VIN*%
X182500000Y-134080000D03*
D16*
%TO.P,J2,2,Pin_2*%
%TO.N,GND*%
X182500000Y-129000000D03*
%TD*%
D17*
%TO.N,VLC*%
X188000000Y-99000000D03*
%TO.N,+3.3V*%
X142337500Y-113250000D03*
X141337500Y-106575000D03*
X141837500Y-118250000D03*
X141337500Y-107775000D03*
%TO.N,GND*%
X143837500Y-100250000D03*
X139837500Y-119750000D03*
X139837500Y-127250000D03*
X133337500Y-99250000D03*
X146337500Y-118660000D03*
X145337500Y-96750000D03*
X144061765Y-102474266D03*
X142837500Y-128250000D03*
X129337500Y-109750000D03*
X145837500Y-132750000D03*
X128837500Y-106250000D03*
X134837500Y-105250000D03*
X148837500Y-132750000D03*
X187000000Y-106500000D03*
X128837500Y-113750000D03*
X130337500Y-118250000D03*
X144112500Y-109525000D03*
%TO.N,MEM_CS*%
X134337500Y-121750000D03*
X134337500Y-114750000D03*
%TO.N,MEM_WP*%
X137337500Y-115000000D03*
X137337500Y-121750000D03*
%TO.N,MEM_MISO*%
X135837500Y-114750000D03*
X135837500Y-121750000D03*
%TO.N,ETH_~{RST}*%
X137000000Y-111000000D03*
X163500000Y-112000000D03*
%TO.N,ETH_RX*%
X138000000Y-112000000D03*
X163500000Y-114000000D03*
%TO.N,ETH_TX*%
X138500000Y-112500000D03*
X163500000Y-115000000D03*
%TO.N,ETH_RTS*%
X137500000Y-111500000D03*
X163500000Y-113000000D03*
%TO.N,ETH_CTS*%
X139000000Y-113000000D03*
X163500000Y-116000000D03*
%TD*%
D18*
%TO.N,VLC*%
X178010000Y-98930000D02*
X176010000Y-96930000D01*
D19*
%TO.N,ETH_~{RST}*%
X162000000Y-110500000D02*
X163500000Y-112000000D01*
%TO.N,ETH_RTS*%
X161500000Y-111000000D02*
X163500000Y-113000000D01*
%TO.N,ETH_RX*%
X161000000Y-111500000D02*
X163500000Y-114000000D01*
%TO.N,ETH_TX*%
X160650000Y-112150000D02*
X163500000Y-115000000D01*
%TO.N,ETH_CTS*%
X160150000Y-112650000D02*
X163500000Y-116000000D01*
D18*
%TO.N,VLC*%
X188000000Y-99000000D02*
X187930000Y-98930000D01*
X187930000Y-98930000D02*
X178010000Y-98930000D01*
%TO.N,+3.3V*%
X142337500Y-117750000D02*
X142337500Y-113250000D01*
X141837500Y-118250000D02*
X142337500Y-117750000D01*
D19*
X141337500Y-107775000D02*
X141337500Y-106575000D01*
%TO.N,MEM_CS*%
X134337500Y-121750000D02*
X134337500Y-114750000D01*
%TO.N,MEM_WP*%
X137337500Y-121750000D02*
X137337500Y-115000000D01*
%TO.N,MEM_MISO*%
X135837500Y-121750000D02*
X135837500Y-114750000D01*
%TO.N,ETH_~{RST}*%
X137500000Y-110500000D02*
X137000000Y-111000000D01*
X162000000Y-110500000D02*
X137500000Y-110500000D01*
%TO.N,ETH_RX*%
X161000000Y-111500000D02*
X138500000Y-111500000D01*
X138500000Y-111500000D02*
X138000000Y-112000000D01*
%TO.N,ETH_TX*%
X138850000Y-112150000D02*
X138500000Y-112500000D01*
X160650000Y-112150000D02*
X138850000Y-112150000D01*
%TO.N,ETH_RTS*%
X138000000Y-111000000D02*
X137500000Y-111500000D01*
X161500000Y-111000000D02*
X138000000Y-111000000D01*
%TO.N,ETH_CTS*%
X139350000Y-112650000D02*
X139000000Y-113000000D01*
X160150000Y-112650000D02*
X139350000Y-112650000D01*
%TD*%
%TA.AperFunction,Conductor*%
%TO.N,GND*%
G36*
X184000642Y-82000007D02*
G01*
X184235302Y-82002565D01*
X184244734Y-82003029D01*
X184712846Y-82043984D01*
X184723567Y-82045396D01*
X185185664Y-82126875D01*
X185196192Y-82129209D01*
X185649458Y-82250661D01*
X185659747Y-82253906D01*
X186100688Y-82414395D01*
X186110654Y-82418523D01*
X186535926Y-82616830D01*
X186545512Y-82621821D01*
X186951866Y-82856429D01*
X186960985Y-82862238D01*
X187345353Y-83131376D01*
X187353935Y-83137962D01*
X187713370Y-83439564D01*
X187721345Y-83446872D01*
X188053127Y-83778654D01*
X188060435Y-83786629D01*
X188362037Y-84146064D01*
X188368623Y-84154646D01*
X188637761Y-84539014D01*
X188643573Y-84548138D01*
X188878176Y-84954483D01*
X188883171Y-84964078D01*
X189081470Y-85389331D01*
X189085609Y-85399323D01*
X189205604Y-85729007D01*
X189246089Y-85840239D01*
X189249342Y-85850555D01*
X189370786Y-86303790D01*
X189373127Y-86314352D01*
X189454603Y-86776432D01*
X189456015Y-86787156D01*
X189496969Y-87255252D01*
X189497434Y-87264708D01*
X189499993Y-87499357D01*
X189500000Y-87500709D01*
X189500000Y-98957129D01*
X189487578Y-98999430D01*
X189497569Y-99018437D01*
X189500000Y-99042869D01*
X189500000Y-143499290D01*
X189499993Y-143500642D01*
X189497434Y-143735291D01*
X189496969Y-143744747D01*
X189456015Y-144212843D01*
X189454603Y-144223567D01*
X189373127Y-144685647D01*
X189370786Y-144696209D01*
X189249342Y-145149444D01*
X189246089Y-145159760D01*
X189085610Y-145600673D01*
X189081470Y-145610668D01*
X188883171Y-146035921D01*
X188878176Y-146045516D01*
X188643573Y-146451861D01*
X188637761Y-146460985D01*
X188368623Y-146845353D01*
X188362037Y-146853935D01*
X188060435Y-147213370D01*
X188053127Y-147221345D01*
X187721345Y-147553127D01*
X187713370Y-147560435D01*
X187353935Y-147862037D01*
X187345353Y-147868623D01*
X186960985Y-148137761D01*
X186951861Y-148143573D01*
X186545516Y-148378176D01*
X186535921Y-148383171D01*
X186110668Y-148581470D01*
X186100673Y-148585610D01*
X185659760Y-148746089D01*
X185649444Y-148749342D01*
X185196209Y-148870786D01*
X185185647Y-148873127D01*
X184723567Y-148954603D01*
X184712843Y-148956015D01*
X184244747Y-148996969D01*
X184235291Y-148997434D01*
X184000642Y-148999993D01*
X183999290Y-149000000D01*
X126000710Y-149000000D01*
X125999358Y-148999993D01*
X125764708Y-148997434D01*
X125755252Y-148996969D01*
X125287156Y-148956015D01*
X125276432Y-148954603D01*
X124814352Y-148873127D01*
X124803790Y-148870786D01*
X124350555Y-148749342D01*
X124340239Y-148746089D01*
X123899326Y-148585610D01*
X123889331Y-148581470D01*
X123464078Y-148383171D01*
X123454483Y-148378176D01*
X123048138Y-148143573D01*
X123039014Y-148137761D01*
X122654646Y-147868623D01*
X122646064Y-147862037D01*
X122286629Y-147560435D01*
X122278654Y-147553127D01*
X121946872Y-147221345D01*
X121939564Y-147213370D01*
X121637962Y-146853935D01*
X121631376Y-146845353D01*
X121362238Y-146460985D01*
X121356426Y-146451861D01*
X121121823Y-146045516D01*
X121116828Y-146035921D01*
X121011611Y-145810282D01*
X120918523Y-145610654D01*
X120914395Y-145600688D01*
X120753906Y-145159747D01*
X120750661Y-145149458D01*
X120629209Y-144696192D01*
X120626875Y-144685664D01*
X120545396Y-144223567D01*
X120543984Y-144212843D01*
X120503030Y-143744747D01*
X120502565Y-143735291D01*
X120501679Y-143654053D01*
X120500007Y-143500642D01*
X120500000Y-143499290D01*
X120500000Y-143345946D01*
X123649500Y-143345946D01*
X123649500Y-143654053D01*
X123649501Y-143654069D01*
X123689717Y-143959542D01*
X123769464Y-144257162D01*
X123887376Y-144541826D01*
X123887381Y-144541837D01*
X123976499Y-144696192D01*
X124041438Y-144808670D01*
X124041440Y-144808673D01*
X124041441Y-144808674D01*
X124229007Y-145053115D01*
X124229013Y-145053122D01*
X124446877Y-145270986D01*
X124446883Y-145270991D01*
X124691330Y-145458562D01*
X124862830Y-145557578D01*
X124958162Y-145612618D01*
X124958167Y-145612620D01*
X124958170Y-145612622D01*
X125242836Y-145730535D01*
X125540456Y-145810282D01*
X125845940Y-145850500D01*
X125845947Y-145850500D01*
X126154053Y-145850500D01*
X126154060Y-145850500D01*
X126459544Y-145810282D01*
X126757164Y-145730535D01*
X127041830Y-145612622D01*
X127308670Y-145458562D01*
X127553117Y-145270991D01*
X127770991Y-145053117D01*
X127958562Y-144808670D01*
X128112622Y-144541830D01*
X128230535Y-144257164D01*
X128310282Y-143959544D01*
X128350500Y-143654060D01*
X128350500Y-143345946D01*
X181649500Y-143345946D01*
X181649500Y-143654053D01*
X181649501Y-143654069D01*
X181689717Y-143959542D01*
X181769464Y-144257162D01*
X181887376Y-144541826D01*
X181887381Y-144541837D01*
X181976499Y-144696192D01*
X182041438Y-144808670D01*
X182041440Y-144808673D01*
X182041441Y-144808674D01*
X182229007Y-145053115D01*
X182229013Y-145053122D01*
X182446877Y-145270986D01*
X182446883Y-145270991D01*
X182691330Y-145458562D01*
X182862830Y-145557578D01*
X182958162Y-145612618D01*
X182958167Y-145612620D01*
X182958170Y-145612622D01*
X183242836Y-145730535D01*
X183540456Y-145810282D01*
X183845940Y-145850500D01*
X183845947Y-145850500D01*
X184154053Y-145850500D01*
X184154060Y-145850500D01*
X184459544Y-145810282D01*
X184757164Y-145730535D01*
X185041830Y-145612622D01*
X185308670Y-145458562D01*
X185553117Y-145270991D01*
X185770991Y-145053117D01*
X185958562Y-144808670D01*
X186112622Y-144541830D01*
X186230535Y-144257164D01*
X186310282Y-143959544D01*
X186350500Y-143654060D01*
X186350500Y-143345940D01*
X186310282Y-143040456D01*
X186230535Y-142742836D01*
X186112622Y-142458170D01*
X186112620Y-142458167D01*
X186112618Y-142458162D01*
X186057578Y-142362830D01*
X185958562Y-142191330D01*
X185770991Y-141946883D01*
X185770986Y-141946877D01*
X185553122Y-141729013D01*
X185553115Y-141729007D01*
X185308674Y-141541441D01*
X185308673Y-141541440D01*
X185308670Y-141541438D01*
X185202280Y-141480014D01*
X185041837Y-141387381D01*
X185041826Y-141387376D01*
X184757162Y-141269464D01*
X184459542Y-141189717D01*
X184154069Y-141149501D01*
X184154066Y-141149500D01*
X184154060Y-141149500D01*
X183845940Y-141149500D01*
X183845934Y-141149500D01*
X183845930Y-141149501D01*
X183540457Y-141189717D01*
X183242837Y-141269464D01*
X182958173Y-141387376D01*
X182958162Y-141387381D01*
X182691325Y-141541441D01*
X182446884Y-141729007D01*
X182446877Y-141729013D01*
X182229013Y-141946877D01*
X182229007Y-141946884D01*
X182041441Y-142191325D01*
X181887381Y-142458162D01*
X181887376Y-142458173D01*
X181769464Y-142742837D01*
X181689717Y-143040457D01*
X181649501Y-143345930D01*
X181649500Y-143345946D01*
X128350500Y-143345946D01*
X128350500Y-143345940D01*
X128310282Y-143040456D01*
X128230535Y-142742836D01*
X128112622Y-142458170D01*
X128112620Y-142458167D01*
X128112618Y-142458162D01*
X128057578Y-142362830D01*
X127958562Y-142191330D01*
X127770991Y-141946883D01*
X127770986Y-141946877D01*
X127553122Y-141729013D01*
X127553115Y-141729007D01*
X127308674Y-141541441D01*
X127308673Y-141541440D01*
X127308670Y-141541438D01*
X127202280Y-141480014D01*
X127041837Y-141387381D01*
X127041826Y-141387376D01*
X126757162Y-141269464D01*
X126459542Y-141189717D01*
X126154069Y-141149501D01*
X126154066Y-141149500D01*
X126154060Y-141149500D01*
X125845940Y-141149500D01*
X125845934Y-141149500D01*
X125845930Y-141149501D01*
X125540457Y-141189717D01*
X125242837Y-141269464D01*
X124958173Y-141387376D01*
X124958162Y-141387381D01*
X124691325Y-141541441D01*
X124446884Y-141729007D01*
X124446877Y-141729013D01*
X124229013Y-141946877D01*
X124229007Y-141946884D01*
X124041441Y-142191325D01*
X123887381Y-142458162D01*
X123887376Y-142458173D01*
X123769464Y-142742837D01*
X123689717Y-143040457D01*
X123649501Y-143345930D01*
X123649500Y-143345946D01*
X120500000Y-143345946D01*
X120500000Y-133681966D01*
X170199500Y-133681966D01*
X170199500Y-135398028D01*
X170199501Y-135398034D01*
X170210113Y-135517415D01*
X170266089Y-135713045D01*
X170266090Y-135713048D01*
X170266091Y-135713049D01*
X170360302Y-135893407D01*
X170360304Y-135893409D01*
X170488890Y-136051109D01*
X170537947Y-136091109D01*
X170646593Y-136179698D01*
X170826951Y-136273909D01*
X171022582Y-136329886D01*
X171141963Y-136340500D01*
X172858036Y-136340499D01*
X172977418Y-136329886D01*
X173173049Y-136273909D01*
X173353407Y-136179698D01*
X173511109Y-136051109D01*
X173639698Y-135893407D01*
X173733909Y-135713049D01*
X173789886Y-135517418D01*
X173800500Y-135398037D01*
X173800499Y-133681964D01*
X173789886Y-133562582D01*
X173733909Y-133366951D01*
X173639698Y-133186593D01*
X173587684Y-133122803D01*
X173511109Y-133028890D01*
X173353409Y-132900304D01*
X173353410Y-132900304D01*
X173353407Y-132900302D01*
X173173049Y-132806091D01*
X173173048Y-132806090D01*
X173173045Y-132806089D01*
X173055829Y-132772550D01*
X172977418Y-132750114D01*
X172977415Y-132750113D01*
X172977413Y-132750113D01*
X172911102Y-132744217D01*
X172858037Y-132739500D01*
X172858032Y-132739500D01*
X171141971Y-132739500D01*
X171141965Y-132739500D01*
X171141964Y-132739501D01*
X171130316Y-132740536D01*
X171022584Y-132750113D01*
X170826954Y-132806089D01*
X170736772Y-132853196D01*
X170646593Y-132900302D01*
X170646591Y-132900303D01*
X170646590Y-132900304D01*
X170488890Y-133028890D01*
X170360304Y-133186590D01*
X170266089Y-133366954D01*
X170210114Y-133562583D01*
X170210113Y-133562586D01*
X170199500Y-133681966D01*
X120500000Y-133681966D01*
X120500000Y-132721966D01*
X180199500Y-132721966D01*
X180199500Y-135438028D01*
X180199501Y-135438034D01*
X180210113Y-135557415D01*
X180266089Y-135753045D01*
X180266090Y-135753048D01*
X180266091Y-135753049D01*
X180360302Y-135933407D01*
X180360304Y-135933409D01*
X180488890Y-136091109D01*
X180582803Y-136167684D01*
X180646593Y-136219698D01*
X180826951Y-136313909D01*
X181022582Y-136369886D01*
X181141963Y-136380500D01*
X183858036Y-136380499D01*
X183977418Y-136369886D01*
X184173049Y-136313909D01*
X184353407Y-136219698D01*
X184511109Y-136091109D01*
X184639698Y-135933407D01*
X184733909Y-135753049D01*
X184789886Y-135557418D01*
X184800500Y-135438037D01*
X184800499Y-132721964D01*
X184789886Y-132602582D01*
X184733909Y-132406951D01*
X184639698Y-132226593D01*
X184587684Y-132162803D01*
X184511109Y-132068890D01*
X184353409Y-131940304D01*
X184353410Y-131940304D01*
X184353407Y-131940302D01*
X184173049Y-131846091D01*
X184173048Y-131846090D01*
X184173045Y-131846089D01*
X184055829Y-131812550D01*
X183977418Y-131790114D01*
X183977415Y-131790113D01*
X183977413Y-131790113D01*
X183911102Y-131784217D01*
X183858037Y-131779500D01*
X183858032Y-131779500D01*
X181141971Y-131779500D01*
X181141965Y-131779500D01*
X181141964Y-131779501D01*
X181130316Y-131780536D01*
X181022584Y-131790113D01*
X180826954Y-131846089D01*
X180736772Y-131893196D01*
X180646593Y-131940302D01*
X180646591Y-131940303D01*
X180646590Y-131940304D01*
X180488890Y-132068890D01*
X180360304Y-132226590D01*
X180266089Y-132406954D01*
X180210114Y-132602583D01*
X180210113Y-132602586D01*
X180199500Y-132721966D01*
X120500000Y-132721966D01*
X120500000Y-129459995D01*
X170194452Y-129459995D01*
X170194452Y-129460004D01*
X170214617Y-129729101D01*
X170274664Y-129992183D01*
X170274667Y-129992195D01*
X170274669Y-129992200D01*
X170373257Y-130243398D01*
X170373256Y-130243398D01*
X170458798Y-130391558D01*
X170508186Y-130477101D01*
X170644083Y-130647511D01*
X170676443Y-130688089D01*
X170863183Y-130861357D01*
X170874259Y-130871634D01*
X171097226Y-131023650D01*
X171340359Y-131140737D01*
X171598228Y-131220279D01*
X171598229Y-131220279D01*
X171598232Y-131220280D01*
X171865063Y-131260498D01*
X171865068Y-131260498D01*
X171865071Y-131260499D01*
X171865072Y-131260499D01*
X172134928Y-131260499D01*
X172134929Y-131260499D01*
X172134936Y-131260498D01*
X172401767Y-131220280D01*
X172401768Y-131220279D01*
X172401772Y-131220279D01*
X172659641Y-131140737D01*
X172902774Y-131023650D01*
X173125741Y-130871634D01*
X173323560Y-130688085D01*
X173491814Y-130477101D01*
X173626743Y-130243398D01*
X173725333Y-129992195D01*
X173785382Y-129729103D01*
X173805548Y-129460000D01*
X173785382Y-129190897D01*
X173725333Y-128927805D01*
X173626743Y-128676602D01*
X173626742Y-128676601D01*
X173626743Y-128676601D01*
X173577355Y-128591059D01*
X173491814Y-128442899D01*
X173323560Y-128231915D01*
X173323559Y-128231914D01*
X173323556Y-128231910D01*
X173125741Y-128048366D01*
X172902774Y-127896350D01*
X172902771Y-127896349D01*
X172902769Y-127896347D01*
X172659641Y-127779263D01*
X172401773Y-127699721D01*
X172401767Y-127699719D01*
X172134936Y-127659501D01*
X172134929Y-127659501D01*
X171865071Y-127659501D01*
X171865063Y-127659501D01*
X171598232Y-127699719D01*
X171598226Y-127699721D01*
X171340358Y-127779263D01*
X171097230Y-127896347D01*
X170874258Y-128048366D01*
X170676443Y-128231910D01*
X170508186Y-128442899D01*
X170373257Y-128676601D01*
X170274669Y-128927799D01*
X170274664Y-128927816D01*
X170214617Y-129190898D01*
X170194452Y-129459995D01*
X120500000Y-129459995D01*
X120500000Y-114749997D01*
X133082223Y-114749997D01*
X133082223Y-114750002D01*
X133101293Y-114967975D01*
X133101293Y-114967979D01*
X133157922Y-115179322D01*
X133157924Y-115179326D01*
X133157925Y-115179330D01*
X133175382Y-115216766D01*
X133187000Y-115269171D01*
X133187000Y-121230828D01*
X133175383Y-121283229D01*
X133162668Y-121310499D01*
X133157924Y-121320672D01*
X133157922Y-121320677D01*
X133101293Y-121532020D01*
X133101293Y-121532024D01*
X133082223Y-121749997D01*
X133082223Y-121750002D01*
X133101293Y-121967975D01*
X133101293Y-121967979D01*
X133157922Y-122179322D01*
X133157924Y-122179326D01*
X133157925Y-122179330D01*
X133204161Y-122278484D01*
X133250397Y-122377638D01*
X133250398Y-122377639D01*
X133375902Y-122556877D01*
X133530623Y-122711598D01*
X133709861Y-122837102D01*
X133908170Y-122929575D01*
X134119523Y-122986207D01*
X134302426Y-123002208D01*
X134337498Y-123005277D01*
X134337500Y-123005277D01*
X134337502Y-123005277D01*
X134365754Y-123002805D01*
X134555477Y-122986207D01*
X134766830Y-122929575D01*
X134965139Y-122837102D01*
X135016377Y-122801224D01*
X135082581Y-122778897D01*
X135150349Y-122795906D01*
X135158611Y-122801216D01*
X135209861Y-122837102D01*
X135408170Y-122929575D01*
X135619523Y-122986207D01*
X135802426Y-123002208D01*
X135837498Y-123005277D01*
X135837500Y-123005277D01*
X135837502Y-123005277D01*
X135865754Y-123002805D01*
X136055477Y-122986207D01*
X136266830Y-122929575D01*
X136465139Y-122837102D01*
X136516377Y-122801224D01*
X136582581Y-122778897D01*
X136650349Y-122795906D01*
X136658611Y-122801216D01*
X136709861Y-122837102D01*
X136908170Y-122929575D01*
X137119523Y-122986207D01*
X137302426Y-123002208D01*
X137337498Y-123005277D01*
X137337500Y-123005277D01*
X137337502Y-123005277D01*
X137365754Y-123002805D01*
X137555477Y-122986207D01*
X137766830Y-122929575D01*
X137965139Y-122837102D01*
X138144377Y-122711598D01*
X138299098Y-122556877D01*
X138424602Y-122377639D01*
X138517075Y-122179330D01*
X138573707Y-121967977D01*
X138592777Y-121750000D01*
X138573707Y-121532023D01*
X138517075Y-121320670D01*
X138499616Y-121283229D01*
X138488000Y-121230828D01*
X138488000Y-115519171D01*
X138499618Y-115466766D01*
X138517075Y-115429330D01*
X138573707Y-115217977D01*
X138592777Y-115000000D01*
X138573707Y-114782023D01*
X138517075Y-114570670D01*
X138424602Y-114372362D01*
X138418789Y-114364060D01*
X138396460Y-114297857D01*
X138413468Y-114230089D01*
X138464414Y-114182274D01*
X138533123Y-114169593D01*
X138565310Y-114178489D01*
X138565589Y-114177725D01*
X138570664Y-114179572D01*
X138570670Y-114179575D01*
X138570675Y-114179576D01*
X138570677Y-114179577D01*
X138601364Y-114187799D01*
X138782023Y-114236207D01*
X138964926Y-114252208D01*
X138999998Y-114255277D01*
X139000000Y-114255277D01*
X139000002Y-114255277D01*
X139028254Y-114252805D01*
X139217977Y-114236207D01*
X139429330Y-114179575D01*
X139627639Y-114087102D01*
X139806877Y-113961598D01*
X139931656Y-113836819D01*
X139992979Y-113803334D01*
X140019337Y-113800500D01*
X140963000Y-113800500D01*
X141030039Y-113820185D01*
X141075794Y-113872989D01*
X141087000Y-113924500D01*
X141087000Y-117180663D01*
X141067315Y-117247702D01*
X141050681Y-117268344D01*
X140875905Y-117443119D01*
X140875900Y-117443125D01*
X140819999Y-117522958D01*
X140818744Y-117524717D01*
X140767980Y-117594588D01*
X140767967Y-117594609D01*
X140766916Y-117596672D01*
X140758030Y-117611459D01*
X140750400Y-117622358D01*
X140714286Y-117699800D01*
X140712391Y-117703685D01*
X140678614Y-117769978D01*
X140678612Y-117769982D01*
X140674179Y-117783625D01*
X140668637Y-117797695D01*
X140657925Y-117820669D01*
X140657922Y-117820679D01*
X140638919Y-117891595D01*
X140637077Y-117897816D01*
X140617790Y-117957176D01*
X140613665Y-117983223D01*
X140610967Y-117995917D01*
X140601295Y-118032014D01*
X140601292Y-118032027D01*
X140595939Y-118093209D01*
X140594885Y-118101797D01*
X140587000Y-118151583D01*
X140587000Y-118189984D01*
X140586528Y-118200791D01*
X140582223Y-118249997D01*
X140582223Y-118250000D01*
X140586528Y-118299206D01*
X140587000Y-118310014D01*
X140587000Y-118348421D01*
X140594885Y-118398201D01*
X140595940Y-118406792D01*
X140601292Y-118467972D01*
X140601295Y-118467985D01*
X140610967Y-118504083D01*
X140613665Y-118516777D01*
X140617791Y-118542827D01*
X140617791Y-118542830D01*
X140637076Y-118602181D01*
X140638919Y-118608403D01*
X140657924Y-118679327D01*
X140657928Y-118679338D01*
X140668635Y-118702298D01*
X140674185Y-118716388D01*
X140678615Y-118730025D01*
X140678618Y-118730031D01*
X140712403Y-118796339D01*
X140714300Y-118800228D01*
X140750397Y-118877638D01*
X140750399Y-118877641D01*
X140758018Y-118888521D01*
X140766934Y-118903359D01*
X140767975Y-118905403D01*
X140767978Y-118905409D01*
X140818735Y-118975268D01*
X140819991Y-118977029D01*
X140847470Y-119016273D01*
X140875902Y-119056877D01*
X141030623Y-119211598D01*
X141110507Y-119267533D01*
X141112108Y-119268675D01*
X141182095Y-119319524D01*
X141184142Y-119320567D01*
X141198974Y-119329479D01*
X141203628Y-119332737D01*
X141209859Y-119337101D01*
X141209860Y-119337101D01*
X141209861Y-119337102D01*
X141250052Y-119355843D01*
X141287270Y-119373198D01*
X141291146Y-119375087D01*
X141357474Y-119408884D01*
X141371113Y-119413315D01*
X141385202Y-119418864D01*
X141408170Y-119429575D01*
X141479119Y-119448585D01*
X141485290Y-119450413D01*
X141544674Y-119469709D01*
X141544678Y-119469709D01*
X141544683Y-119469711D01*
X141570723Y-119473834D01*
X141583408Y-119476529D01*
X141619523Y-119486207D01*
X141680709Y-119491559D01*
X141689276Y-119492610D01*
X141739083Y-119500500D01*
X141777485Y-119500500D01*
X141788292Y-119500972D01*
X141837498Y-119505277D01*
X141837500Y-119505277D01*
X141837502Y-119505277D01*
X141886708Y-119500972D01*
X141897515Y-119500500D01*
X141935916Y-119500500D01*
X141935917Y-119500500D01*
X141985709Y-119492613D01*
X141994299Y-119491558D01*
X142055477Y-119486207D01*
X142091587Y-119476530D01*
X142104257Y-119473836D01*
X142130326Y-119469709D01*
X142189693Y-119450418D01*
X142195874Y-119448586D01*
X142266830Y-119429575D01*
X142289791Y-119418866D01*
X142303880Y-119413316D01*
X142317526Y-119408884D01*
X142383867Y-119375080D01*
X142387695Y-119373213D01*
X142465139Y-119337102D01*
X142476014Y-119329485D01*
X142490861Y-119320565D01*
X142490867Y-119320562D01*
X142492905Y-119319524D01*
X142562877Y-119268684D01*
X142564483Y-119267539D01*
X142644377Y-119211598D01*
X142799098Y-119056877D01*
X142799099Y-119056874D01*
X143291329Y-118564646D01*
X143407024Y-118405405D01*
X143496384Y-118230026D01*
X143557209Y-118042826D01*
X143566649Y-117983223D01*
X143572309Y-117947488D01*
X143572309Y-117947486D01*
X143588000Y-117848421D01*
X143588000Y-113924500D01*
X143607685Y-113857461D01*
X143660489Y-113811706D01*
X143712000Y-113800500D01*
X159622085Y-113800500D01*
X159689124Y-113820185D01*
X159709766Y-113836819D01*
X162320819Y-116447872D01*
X162345520Y-116483148D01*
X162412896Y-116627636D01*
X162412897Y-116627638D01*
X162412898Y-116627639D01*
X162538402Y-116806877D01*
X162693123Y-116961598D01*
X162872361Y-117087102D01*
X163070670Y-117179575D01*
X163282023Y-117236207D01*
X163464926Y-117252208D01*
X163499998Y-117255277D01*
X163500000Y-117255277D01*
X163500002Y-117255277D01*
X163528254Y-117252805D01*
X163717977Y-117236207D01*
X163929330Y-117179575D01*
X164127639Y-117087102D01*
X164306877Y-116961598D01*
X164461598Y-116806877D01*
X164587102Y-116627639D01*
X164679575Y-116429330D01*
X164736207Y-116217977D01*
X164755277Y-116000000D01*
X164736207Y-115782023D01*
X164679575Y-115570670D01*
X164671058Y-115552407D01*
X164660564Y-115483332D01*
X164671059Y-115447591D01*
X164679575Y-115429330D01*
X164736207Y-115217977D01*
X164755277Y-115000000D01*
X164736207Y-114782023D01*
X164679575Y-114570670D01*
X164671058Y-114552407D01*
X164660564Y-114483332D01*
X164671059Y-114447591D01*
X164679575Y-114429330D01*
X164736207Y-114217977D01*
X164755277Y-114000000D01*
X164755267Y-113999890D01*
X164748672Y-113924500D01*
X164736207Y-113782023D01*
X164679575Y-113570670D01*
X164671058Y-113552407D01*
X164660564Y-113483332D01*
X164671059Y-113447591D01*
X164679575Y-113429330D01*
X164724948Y-113259995D01*
X168014732Y-113259995D01*
X168014732Y-113260004D01*
X168033777Y-113514154D01*
X168087282Y-113748576D01*
X168090492Y-113762637D01*
X168183607Y-113999888D01*
X168311041Y-114220612D01*
X168425440Y-114364063D01*
X168469954Y-114419882D01*
X168479892Y-114429103D01*
X168515645Y-114489132D01*
X168513269Y-114558961D01*
X168479892Y-114610897D01*
X168469954Y-114620117D01*
X168311041Y-114819388D01*
X168183608Y-115040109D01*
X168090492Y-115277362D01*
X168090490Y-115277369D01*
X168033777Y-115525845D01*
X168014732Y-115779995D01*
X168014732Y-115780004D01*
X168033777Y-116034154D01*
X168075733Y-116217977D01*
X168090492Y-116282637D01*
X168183607Y-116519888D01*
X168311041Y-116740612D01*
X168469950Y-116939877D01*
X168469955Y-116939881D01*
X168469958Y-116939885D01*
X168506835Y-116974102D01*
X168542590Y-117034130D01*
X168540215Y-117103959D01*
X168506835Y-117155898D01*
X168469958Y-117190114D01*
X168469950Y-117190123D01*
X168311041Y-117389388D01*
X168183608Y-117610109D01*
X168090492Y-117847362D01*
X168090490Y-117847369D01*
X168033777Y-118095845D01*
X168014732Y-118349995D01*
X168014732Y-118350004D01*
X168033777Y-118604154D01*
X168078080Y-118798260D01*
X168090492Y-118852637D01*
X168166645Y-119046671D01*
X168183608Y-119089890D01*
X168210536Y-119136531D01*
X168311041Y-119310612D01*
X168469950Y-119509877D01*
X168656783Y-119683232D01*
X168867366Y-119826805D01*
X168867371Y-119826807D01*
X168867372Y-119826808D01*
X168867373Y-119826809D01*
X168944922Y-119864154D01*
X169096992Y-119937387D01*
X169096993Y-119937387D01*
X169096996Y-119937389D01*
X169340542Y-120012513D01*
X169592565Y-120050500D01*
X169847435Y-120050500D01*
X170099458Y-120012513D01*
X170343004Y-119937389D01*
X170425893Y-119897471D01*
X170494831Y-119886120D01*
X170558966Y-119913842D01*
X170597931Y-119971837D01*
X170600583Y-119981599D01*
X170623597Y-120082432D01*
X170630492Y-120112637D01*
X170723607Y-120349888D01*
X170851041Y-120570612D01*
X171009950Y-120769877D01*
X171196783Y-120943232D01*
X171407366Y-121086805D01*
X171407371Y-121086807D01*
X171407372Y-121086808D01*
X171407373Y-121086809D01*
X171529328Y-121145538D01*
X171636992Y-121197387D01*
X171636993Y-121197387D01*
X171636996Y-121197389D01*
X171880542Y-121272513D01*
X172132565Y-121310500D01*
X172387435Y-121310500D01*
X172639458Y-121272513D01*
X172883004Y-121197389D01*
X172893569Y-121192301D01*
X176987505Y-121192301D01*
X176987505Y-121447698D01*
X177027455Y-121699935D01*
X177073871Y-121842785D01*
X177106375Y-121942822D01*
X177222317Y-122170373D01*
X177372430Y-122376985D01*
X177553015Y-122557570D01*
X177759627Y-122707683D01*
X177987178Y-122823625D01*
X178183648Y-122887462D01*
X178230064Y-122902544D01*
X178482302Y-122942495D01*
X178737693Y-122942495D01*
X178737698Y-122942495D01*
X178989935Y-122902544D01*
X179232822Y-122823625D01*
X179460373Y-122707683D01*
X179666985Y-122557570D01*
X179847570Y-122376985D01*
X179997683Y-122170373D01*
X180113625Y-121942822D01*
X180192544Y-121699935D01*
X180232495Y-121447693D01*
X180235000Y-121320000D01*
X180232495Y-121192307D01*
X180192544Y-120940065D01*
X180113625Y-120697178D01*
X179997683Y-120469627D01*
X179847570Y-120263015D01*
X179666985Y-120082430D01*
X179460373Y-119932317D01*
X179391985Y-119897472D01*
X179232826Y-119816377D01*
X179232825Y-119816376D01*
X179232822Y-119816375D01*
X179132785Y-119783871D01*
X178989935Y-119737455D01*
X178737698Y-119697505D01*
X178737693Y-119697505D01*
X178482307Y-119697505D01*
X178482302Y-119697505D01*
X178230064Y-119737455D01*
X178040798Y-119798952D01*
X177987178Y-119816375D01*
X177987175Y-119816376D01*
X177987173Y-119816377D01*
X177759626Y-119932317D01*
X177691796Y-119981599D01*
X177553015Y-120082430D01*
X177553013Y-120082432D01*
X177553012Y-120082432D01*
X177372432Y-120263012D01*
X177372432Y-120263013D01*
X177372430Y-120263015D01*
X177309311Y-120349890D01*
X177222317Y-120469626D01*
X177106377Y-120697173D01*
X177027455Y-120940064D01*
X176987505Y-121192301D01*
X172893569Y-121192301D01*
X173112634Y-121086805D01*
X173323217Y-120943232D01*
X173510050Y-120769877D01*
X173668959Y-120570612D01*
X173796393Y-120349888D01*
X173889508Y-120112637D01*
X173946222Y-119864157D01*
X173965268Y-119610000D01*
X173946222Y-119355843D01*
X173889508Y-119107363D01*
X173796393Y-118870112D01*
X173668959Y-118649388D01*
X173510050Y-118450123D01*
X173510045Y-118450118D01*
X173510043Y-118450116D01*
X173494721Y-118435900D01*
X173458965Y-118375873D01*
X173461338Y-118306043D01*
X173494721Y-118254100D01*
X173499143Y-118249997D01*
X173510050Y-118239877D01*
X173668959Y-118040612D01*
X173796393Y-117819888D01*
X173889508Y-117582637D01*
X173946222Y-117334157D01*
X173957806Y-117179573D01*
X173965268Y-117080004D01*
X173965268Y-117079995D01*
X173946222Y-116825845D01*
X173926768Y-116740612D01*
X173889508Y-116577363D01*
X173796393Y-116340112D01*
X173668959Y-116119388D01*
X173510050Y-115920123D01*
X173489330Y-115900898D01*
X173453576Y-115840870D01*
X173455951Y-115771041D01*
X173489331Y-115719101D01*
X173510050Y-115699877D01*
X173668959Y-115500612D01*
X173796393Y-115279888D01*
X173889508Y-115042637D01*
X173946222Y-114794157D01*
X173965268Y-114540000D01*
X173964670Y-114532024D01*
X173946222Y-114285845D01*
X173939245Y-114255277D01*
X173889508Y-114037363D01*
X173796393Y-113800112D01*
X173668959Y-113579388D01*
X173510050Y-113380123D01*
X173489330Y-113360898D01*
X173453576Y-113300870D01*
X173455951Y-113231041D01*
X173489331Y-113179101D01*
X173510050Y-113159877D01*
X173668959Y-112960612D01*
X173796393Y-112739888D01*
X173889508Y-112502637D01*
X173946222Y-112254157D01*
X173955703Y-112127639D01*
X173965268Y-112000004D01*
X173965268Y-111999995D01*
X173946222Y-111745845D01*
X173940833Y-111722236D01*
X173889508Y-111497363D01*
X173796393Y-111260112D01*
X173668959Y-111039388D01*
X173510050Y-110840123D01*
X173323217Y-110666768D01*
X173112634Y-110523195D01*
X173112630Y-110523193D01*
X173112627Y-110523191D01*
X173112626Y-110523190D01*
X172883006Y-110412612D01*
X172883008Y-110412612D01*
X172639466Y-110337489D01*
X172639462Y-110337488D01*
X172639458Y-110337487D01*
X172518231Y-110319214D01*
X172387440Y-110299500D01*
X172387435Y-110299500D01*
X172132565Y-110299500D01*
X172132559Y-110299500D01*
X171975609Y-110323157D01*
X171880542Y-110337487D01*
X171880539Y-110337488D01*
X171880533Y-110337489D01*
X171636992Y-110412612D01*
X171407373Y-110523190D01*
X171407372Y-110523191D01*
X171196782Y-110666768D01*
X171009952Y-110840121D01*
X171009950Y-110840123D01*
X170851041Y-111039388D01*
X170723608Y-111260109D01*
X170630492Y-111497362D01*
X170630490Y-111497369D01*
X170600583Y-111628400D01*
X170566474Y-111689378D01*
X170504813Y-111722236D01*
X170435175Y-111716541D01*
X170425891Y-111712527D01*
X170343006Y-111672612D01*
X170343008Y-111672612D01*
X170099466Y-111597489D01*
X170099462Y-111597488D01*
X170099458Y-111597487D01*
X169978231Y-111579214D01*
X169847440Y-111559500D01*
X169847435Y-111559500D01*
X169592565Y-111559500D01*
X169592559Y-111559500D01*
X169435609Y-111583157D01*
X169340542Y-111597487D01*
X169340539Y-111597488D01*
X169340533Y-111597489D01*
X169096992Y-111672612D01*
X168867373Y-111783190D01*
X168867372Y-111783191D01*
X168656782Y-111926768D01*
X168469952Y-112100121D01*
X168469950Y-112100123D01*
X168311041Y-112299388D01*
X168183608Y-112520109D01*
X168090492Y-112757362D01*
X168090490Y-112757369D01*
X168033777Y-113005845D01*
X168014732Y-113259995D01*
X164724948Y-113259995D01*
X164736207Y-113217977D01*
X164755277Y-113000000D01*
X164736207Y-112782023D01*
X164679575Y-112570670D01*
X164671058Y-112552407D01*
X164660564Y-112483332D01*
X164671059Y-112447591D01*
X164679575Y-112429330D01*
X164736207Y-112217977D01*
X164755277Y-112000000D01*
X164736207Y-111782023D01*
X164679575Y-111570670D01*
X164587102Y-111372362D01*
X164587100Y-111372359D01*
X164587099Y-111372357D01*
X164461599Y-111193124D01*
X164461598Y-111193123D01*
X164306877Y-111038402D01*
X164127639Y-110912898D01*
X164127638Y-110912897D01*
X164127636Y-110912896D01*
X163983148Y-110845520D01*
X163947872Y-110820819D01*
X162881893Y-109754840D01*
X162881884Y-109754830D01*
X162877553Y-109750499D01*
X162749501Y-109622447D01*
X162749497Y-109622444D01*
X162749493Y-109622440D01*
X162602997Y-109516006D01*
X162602996Y-109516005D01*
X162602994Y-109516004D01*
X162551300Y-109489664D01*
X162441639Y-109433788D01*
X162441633Y-109433786D01*
X162269410Y-109377829D01*
X162269353Y-109377819D01*
X162113404Y-109353119D01*
X162090546Y-109349499D01*
X161909454Y-109349499D01*
X161904343Y-109349499D01*
X161904319Y-109349500D01*
X137595682Y-109349500D01*
X137595658Y-109349499D01*
X137590547Y-109349499D01*
X137409454Y-109349499D01*
X137409449Y-109349499D01*
X137230590Y-109377827D01*
X137058356Y-109433790D01*
X136897002Y-109516006D01*
X136750505Y-109622441D01*
X136750500Y-109622445D01*
X136622447Y-109750499D01*
X136622444Y-109750502D01*
X136552125Y-109820821D01*
X136516850Y-109845521D01*
X136372359Y-109912899D01*
X136193121Y-110038402D01*
X136038402Y-110193121D01*
X135912900Y-110372357D01*
X135912898Y-110372361D01*
X135820426Y-110570668D01*
X135820422Y-110570677D01*
X135763793Y-110782020D01*
X135763793Y-110782024D01*
X135744723Y-110999997D01*
X135744723Y-111000002D01*
X135763793Y-111217975D01*
X135763793Y-111217979D01*
X135820422Y-111429322D01*
X135820424Y-111429326D01*
X135820425Y-111429330D01*
X135852149Y-111497362D01*
X135912897Y-111627638D01*
X135912898Y-111627639D01*
X136038402Y-111806877D01*
X136193123Y-111961598D01*
X136372361Y-112087102D01*
X136372362Y-112087102D01*
X136376796Y-112090207D01*
X136375711Y-112091755D01*
X136408251Y-112124283D01*
X136409793Y-112123204D01*
X136412897Y-112127637D01*
X136412898Y-112127639D01*
X136538402Y-112306877D01*
X136693123Y-112461598D01*
X136872361Y-112587102D01*
X136872362Y-112587102D01*
X136876796Y-112590207D01*
X136875711Y-112591755D01*
X136908251Y-112624283D01*
X136909793Y-112623204D01*
X136912897Y-112627637D01*
X136912898Y-112627639D01*
X137038402Y-112806877D01*
X137193123Y-112961598D01*
X137372361Y-113087102D01*
X137372362Y-113087102D01*
X137376796Y-113090207D01*
X137375711Y-113091755D01*
X137408251Y-113124283D01*
X137409793Y-113123204D01*
X137412897Y-113127637D01*
X137412898Y-113127639D01*
X137538402Y-113306877D01*
X137693123Y-113461598D01*
X137872361Y-113587102D01*
X137872362Y-113587102D01*
X137876796Y-113590207D01*
X137875711Y-113591755D01*
X137908251Y-113624282D01*
X137909792Y-113623204D01*
X137918710Y-113635940D01*
X137941038Y-113702146D01*
X137924028Y-113769913D01*
X137873081Y-113817726D01*
X137804371Y-113830405D01*
X137772189Y-113821509D01*
X137771911Y-113822275D01*
X137766822Y-113820422D01*
X137555477Y-113763793D01*
X137337502Y-113744723D01*
X137337498Y-113744723D01*
X137192182Y-113757436D01*
X137119523Y-113763793D01*
X137119520Y-113763793D01*
X136908177Y-113820422D01*
X136908163Y-113820427D01*
X136828796Y-113857437D01*
X136759719Y-113867929D01*
X136695935Y-113839409D01*
X136688711Y-113832736D01*
X136644381Y-113788406D01*
X136644377Y-113788402D01*
X136465139Y-113662898D01*
X136465140Y-113662898D01*
X136465138Y-113662897D01*
X136365984Y-113616661D01*
X136266830Y-113570425D01*
X136266826Y-113570424D01*
X136266822Y-113570422D01*
X136055477Y-113513793D01*
X135837502Y-113494723D01*
X135837498Y-113494723D01*
X135692182Y-113507436D01*
X135619523Y-113513793D01*
X135619520Y-113513793D01*
X135408177Y-113570422D01*
X135408168Y-113570426D01*
X135209863Y-113662897D01*
X135158622Y-113698776D01*
X135092415Y-113721103D01*
X135024648Y-113704091D01*
X135016378Y-113698776D01*
X134965139Y-113662898D01*
X134766830Y-113570425D01*
X134766826Y-113570424D01*
X134766822Y-113570422D01*
X134555477Y-113513793D01*
X134337502Y-113494723D01*
X134337498Y-113494723D01*
X134192182Y-113507436D01*
X134119523Y-113513793D01*
X134119520Y-113513793D01*
X133908177Y-113570422D01*
X133908168Y-113570426D01*
X133709861Y-113662898D01*
X133709857Y-113662900D01*
X133530621Y-113788402D01*
X133375902Y-113943121D01*
X133250400Y-114122357D01*
X133250398Y-114122361D01*
X133157926Y-114320668D01*
X133157922Y-114320677D01*
X133101293Y-114532020D01*
X133101293Y-114532024D01*
X133082223Y-114749997D01*
X120500000Y-114749997D01*
X120500000Y-106574997D01*
X140082223Y-106574997D01*
X140082223Y-106575002D01*
X140101293Y-106792975D01*
X140101293Y-106792979D01*
X140157922Y-107004322D01*
X140157924Y-107004326D01*
X140157925Y-107004330D01*
X140175382Y-107041766D01*
X140187000Y-107094171D01*
X140187000Y-107255828D01*
X140175383Y-107308229D01*
X140159986Y-107341248D01*
X140157924Y-107345672D01*
X140157922Y-107345677D01*
X140101293Y-107557020D01*
X140101293Y-107557023D01*
X140082223Y-107775000D01*
X140098671Y-107963012D01*
X140101293Y-107992975D01*
X140101293Y-107992979D01*
X140157922Y-108204322D01*
X140157924Y-108204326D01*
X140157925Y-108204330D01*
X140204161Y-108303484D01*
X140250397Y-108402638D01*
X140250398Y-108402639D01*
X140375902Y-108581877D01*
X140530623Y-108736598D01*
X140709861Y-108862102D01*
X140908170Y-108954575D01*
X141119523Y-109011207D01*
X141302426Y-109027208D01*
X141337498Y-109030277D01*
X141337500Y-109030277D01*
X141337502Y-109030277D01*
X141365754Y-109027805D01*
X141555477Y-109011207D01*
X141766830Y-108954575D01*
X141900377Y-108892301D01*
X176987505Y-108892301D01*
X176987505Y-109147698D01*
X177027455Y-109399935D01*
X177065170Y-109516006D01*
X177106375Y-109642822D01*
X177106376Y-109642825D01*
X177106377Y-109642826D01*
X177197069Y-109820821D01*
X177222317Y-109870373D01*
X177372430Y-110076985D01*
X177553015Y-110257570D01*
X177759627Y-110407683D01*
X177987178Y-110523625D01*
X178183648Y-110587462D01*
X178230064Y-110602544D01*
X178482302Y-110642495D01*
X178737693Y-110642495D01*
X178737698Y-110642495D01*
X178989935Y-110602544D01*
X179232822Y-110523625D01*
X179460373Y-110407683D01*
X179666985Y-110257570D01*
X179847570Y-110076985D01*
X179997683Y-109870373D01*
X180113625Y-109642822D01*
X180192544Y-109399935D01*
X180232495Y-109147693D01*
X180235000Y-109020000D01*
X180232495Y-108892307D01*
X180192544Y-108640065D01*
X180113625Y-108397178D01*
X179997683Y-108169627D01*
X179847570Y-107963015D01*
X179666985Y-107782430D01*
X179460373Y-107632317D01*
X179232822Y-107516375D01*
X179132785Y-107483871D01*
X178989935Y-107437455D01*
X178737698Y-107397505D01*
X178737693Y-107397505D01*
X178482307Y-107397505D01*
X178482302Y-107397505D01*
X178230064Y-107437455D01*
X178040798Y-107498952D01*
X177987178Y-107516375D01*
X177987175Y-107516376D01*
X177987173Y-107516377D01*
X177759626Y-107632317D01*
X177641746Y-107717962D01*
X177553015Y-107782430D01*
X177553013Y-107782432D01*
X177553012Y-107782432D01*
X177372432Y-107963012D01*
X177372432Y-107963013D01*
X177372430Y-107963015D01*
X177350663Y-107992975D01*
X177222317Y-108169626D01*
X177106377Y-108397173D01*
X177027455Y-108640064D01*
X176987505Y-108892301D01*
X141900377Y-108892301D01*
X141965139Y-108862102D01*
X142144377Y-108736598D01*
X142299098Y-108581877D01*
X142424602Y-108402639D01*
X142517075Y-108204330D01*
X142573707Y-107992977D01*
X142592777Y-107775000D01*
X142573707Y-107557023D01*
X142517075Y-107345670D01*
X142499616Y-107308229D01*
X142488000Y-107255828D01*
X142488000Y-107094171D01*
X142499618Y-107041766D01*
X142517075Y-107004330D01*
X142573707Y-106792977D01*
X142592777Y-106575000D01*
X142573707Y-106357023D01*
X142517075Y-106145670D01*
X142424602Y-105947362D01*
X142424600Y-105947359D01*
X142424599Y-105947357D01*
X142299099Y-105768124D01*
X142299096Y-105768121D01*
X142144377Y-105613402D01*
X141965139Y-105487898D01*
X141965140Y-105487898D01*
X141965138Y-105487897D01*
X141865984Y-105441661D01*
X141766830Y-105395425D01*
X141766826Y-105395424D01*
X141766822Y-105395422D01*
X141555477Y-105338793D01*
X141337502Y-105319723D01*
X141337498Y-105319723D01*
X141192182Y-105332436D01*
X141119523Y-105338793D01*
X141119520Y-105338793D01*
X140908177Y-105395422D01*
X140908168Y-105395426D01*
X140709861Y-105487898D01*
X140709857Y-105487900D01*
X140530621Y-105613402D01*
X140375902Y-105768121D01*
X140250400Y-105947357D01*
X140250398Y-105947361D01*
X140157926Y-106145668D01*
X140157922Y-106145677D01*
X140101293Y-106357020D01*
X140101293Y-106357024D01*
X140082223Y-106574997D01*
X120500000Y-106574997D01*
X120500000Y-96929995D01*
X174254592Y-96929995D01*
X174254592Y-96930004D01*
X174274196Y-97191620D01*
X174274197Y-97191625D01*
X174332576Y-97447402D01*
X174332578Y-97447411D01*
X174332580Y-97447416D01*
X174428432Y-97691643D01*
X174559614Y-97918857D01*
X174605323Y-97976174D01*
X174723198Y-98123985D01*
X174883693Y-98272901D01*
X174915521Y-98302433D01*
X175132296Y-98450228D01*
X175132301Y-98450230D01*
X175132302Y-98450231D01*
X175132303Y-98450232D01*
X175257843Y-98510688D01*
X175368673Y-98564061D01*
X175368674Y-98564061D01*
X175368677Y-98564063D01*
X175619385Y-98641396D01*
X175878818Y-98680500D01*
X175940664Y-98680500D01*
X176007703Y-98700185D01*
X176028345Y-98716819D01*
X177195354Y-99883828D01*
X177354595Y-99999524D01*
X177437454Y-100041742D01*
X177529969Y-100088882D01*
X177529971Y-100088882D01*
X177529974Y-100088884D01*
X177630318Y-100121487D01*
X177717173Y-100149709D01*
X177911578Y-100180500D01*
X177911583Y-100180500D01*
X178241792Y-100180500D01*
X178308831Y-100200185D01*
X178354586Y-100252989D01*
X178364530Y-100322147D01*
X178357220Y-100349802D01*
X178332582Y-100412578D01*
X178332576Y-100412597D01*
X178274197Y-100668374D01*
X178274196Y-100668379D01*
X178254592Y-100929995D01*
X178254592Y-100930004D01*
X178274196Y-101191620D01*
X178274197Y-101191625D01*
X178332576Y-101447402D01*
X178332578Y-101447411D01*
X178332580Y-101447416D01*
X178428432Y-101691643D01*
X178559614Y-101918857D01*
X178691736Y-102084533D01*
X178723198Y-102123985D01*
X178904753Y-102292441D01*
X178915521Y-102302433D01*
X179132296Y-102450228D01*
X179132301Y-102450230D01*
X179132302Y-102450231D01*
X179132303Y-102450232D01*
X179257843Y-102510688D01*
X179368673Y-102564061D01*
X179368674Y-102564061D01*
X179368677Y-102564063D01*
X179619385Y-102641396D01*
X179878818Y-102680500D01*
X180141182Y-102680500D01*
X180400615Y-102641396D01*
X180651323Y-102564063D01*
X180887704Y-102450228D01*
X181104479Y-102302433D01*
X181296805Y-102123981D01*
X181460386Y-101918857D01*
X181591568Y-101691643D01*
X181687420Y-101447416D01*
X181745802Y-101191630D01*
X181765408Y-100930000D01*
X181745802Y-100668370D01*
X181687420Y-100412584D01*
X181662780Y-100349802D01*
X181656611Y-100280205D01*
X181689049Y-100218322D01*
X181749794Y-100183799D01*
X181778208Y-100180500D01*
X187557799Y-100180500D01*
X187589890Y-100184725D01*
X187608280Y-100189652D01*
X187641584Y-100198575D01*
X187647800Y-100200416D01*
X187707174Y-100219709D01*
X187707178Y-100219709D01*
X187707183Y-100219711D01*
X187733223Y-100223834D01*
X187745908Y-100226529D01*
X187782023Y-100236207D01*
X187843209Y-100241559D01*
X187851776Y-100242610D01*
X187901583Y-100250500D01*
X187939985Y-100250500D01*
X187950792Y-100250972D01*
X187999998Y-100255277D01*
X188000000Y-100255277D01*
X188000002Y-100255277D01*
X188049208Y-100250972D01*
X188060015Y-100250500D01*
X188098416Y-100250500D01*
X188098417Y-100250500D01*
X188148209Y-100242613D01*
X188156799Y-100241558D01*
X188217977Y-100236207D01*
X188254087Y-100226530D01*
X188266757Y-100223836D01*
X188292826Y-100219709D01*
X188352193Y-100200418D01*
X188358374Y-100198586D01*
X188429330Y-100179575D01*
X188452291Y-100168866D01*
X188466380Y-100163316D01*
X188480026Y-100158884D01*
X188546367Y-100125080D01*
X188550195Y-100123213D01*
X188627639Y-100087102D01*
X188638514Y-100079485D01*
X188653361Y-100070565D01*
X188655405Y-100069524D01*
X188725377Y-100018684D01*
X188726983Y-100017539D01*
X188806877Y-99961598D01*
X188961598Y-99806877D01*
X189017539Y-99726983D01*
X189018684Y-99725377D01*
X189069524Y-99655405D01*
X189070566Y-99653358D01*
X189079487Y-99638513D01*
X189087102Y-99627639D01*
X189123213Y-99550195D01*
X189125080Y-99546367D01*
X189158884Y-99480026D01*
X189163316Y-99466380D01*
X189168869Y-99452286D01*
X189179575Y-99429330D01*
X189198586Y-99358374D01*
X189200422Y-99352181D01*
X189219709Y-99292826D01*
X189223836Y-99266757D01*
X189226530Y-99254087D01*
X189236207Y-99217977D01*
X189241558Y-99156799D01*
X189242613Y-99148209D01*
X189250500Y-99098415D01*
X189250500Y-99060014D01*
X189250972Y-99049207D01*
X189252472Y-99032062D01*
X189263919Y-99002795D01*
X189257023Y-98992064D01*
X189252472Y-98967936D01*
X189250972Y-98950791D01*
X189250500Y-98939984D01*
X189250500Y-98901585D01*
X189250500Y-98901583D01*
X189242610Y-98851776D01*
X189241558Y-98843199D01*
X189236207Y-98782024D01*
X189236207Y-98782023D01*
X189226529Y-98745908D01*
X189223834Y-98733223D01*
X189219711Y-98707183D01*
X189219709Y-98707178D01*
X189219709Y-98707174D01*
X189200413Y-98647790D01*
X189198587Y-98641629D01*
X189179575Y-98570670D01*
X189168864Y-98547700D01*
X189163318Y-98533621D01*
X189158883Y-98519972D01*
X189125092Y-98453653D01*
X189123195Y-98449763D01*
X189118115Y-98438870D01*
X189087102Y-98372362D01*
X189079475Y-98361470D01*
X189070566Y-98346641D01*
X189069524Y-98344595D01*
X189018705Y-98274649D01*
X189017486Y-98272941D01*
X188961598Y-98193123D01*
X188961597Y-98193122D01*
X188961595Y-98193119D01*
X188803781Y-98035305D01*
X188803750Y-98035276D01*
X188744648Y-97976174D01*
X188744646Y-97976172D01*
X188585405Y-97860476D01*
X188410030Y-97771117D01*
X188222826Y-97710290D01*
X188028422Y-97679500D01*
X188028417Y-97679500D01*
X181778208Y-97679500D01*
X181711169Y-97659815D01*
X181665414Y-97607011D01*
X181655470Y-97537853D01*
X181662780Y-97510198D01*
X181663902Y-97507338D01*
X181687420Y-97447416D01*
X181745802Y-97191630D01*
X181751812Y-97111432D01*
X181765408Y-96930004D01*
X181765408Y-96929995D01*
X181745803Y-96668379D01*
X181745802Y-96668374D01*
X181745802Y-96668370D01*
X181687420Y-96412584D01*
X181591568Y-96168357D01*
X181460386Y-95941143D01*
X181296805Y-95736019D01*
X181296804Y-95736018D01*
X181296801Y-95736014D01*
X181104479Y-95557567D01*
X180887704Y-95409772D01*
X180887700Y-95409770D01*
X180887697Y-95409768D01*
X180887696Y-95409767D01*
X180651325Y-95295938D01*
X180651327Y-95295938D01*
X180400623Y-95218606D01*
X180400619Y-95218605D01*
X180400615Y-95218604D01*
X180275823Y-95199794D01*
X180141187Y-95179500D01*
X180141182Y-95179500D01*
X179878818Y-95179500D01*
X179878812Y-95179500D01*
X179717247Y-95203853D01*
X179619385Y-95218604D01*
X179619382Y-95218605D01*
X179619376Y-95218606D01*
X179368673Y-95295938D01*
X179132303Y-95409767D01*
X179132302Y-95409768D01*
X178915520Y-95557567D01*
X178723198Y-95736014D01*
X178559614Y-95941143D01*
X178428432Y-96168356D01*
X178332582Y-96412578D01*
X178332576Y-96412597D01*
X178274197Y-96668374D01*
X178274196Y-96668379D01*
X178254592Y-96929995D01*
X178254592Y-96930004D01*
X178268187Y-97111432D01*
X178253567Y-97179755D01*
X178204330Y-97229328D01*
X178136108Y-97244411D01*
X178070561Y-97220217D01*
X178056853Y-97208379D01*
X177796883Y-96948409D01*
X177763398Y-96887086D01*
X177760911Y-96869994D01*
X177745803Y-96668378D01*
X177745802Y-96668374D01*
X177745802Y-96668370D01*
X177687420Y-96412584D01*
X177591568Y-96168357D01*
X177460386Y-95941143D01*
X177296805Y-95736019D01*
X177296804Y-95736018D01*
X177296801Y-95736014D01*
X177104479Y-95557567D01*
X176887704Y-95409772D01*
X176887700Y-95409770D01*
X176887697Y-95409768D01*
X176887696Y-95409767D01*
X176651325Y-95295938D01*
X176651327Y-95295938D01*
X176400623Y-95218606D01*
X176400619Y-95218605D01*
X176400615Y-95218604D01*
X176275823Y-95199794D01*
X176141187Y-95179500D01*
X176141182Y-95179500D01*
X175878818Y-95179500D01*
X175878812Y-95179500D01*
X175717247Y-95203853D01*
X175619385Y-95218604D01*
X175619382Y-95218605D01*
X175619376Y-95218606D01*
X175368673Y-95295938D01*
X175132303Y-95409767D01*
X175132302Y-95409768D01*
X174915520Y-95557567D01*
X174723198Y-95736014D01*
X174559614Y-95941143D01*
X174428432Y-96168356D01*
X174332582Y-96412578D01*
X174332576Y-96412597D01*
X174274197Y-96668374D01*
X174274196Y-96668379D01*
X174254592Y-96929995D01*
X120500000Y-96929995D01*
X120500000Y-87500709D01*
X120500007Y-87499357D01*
X120501679Y-87345946D01*
X123649500Y-87345946D01*
X123649500Y-87654053D01*
X123649501Y-87654069D01*
X123689717Y-87959542D01*
X123769464Y-88257162D01*
X123887376Y-88541826D01*
X123887381Y-88541837D01*
X123980014Y-88702280D01*
X124041438Y-88808670D01*
X124041440Y-88808673D01*
X124041441Y-88808674D01*
X124229007Y-89053115D01*
X124229013Y-89053122D01*
X124446877Y-89270986D01*
X124446883Y-89270991D01*
X124691330Y-89458562D01*
X124862830Y-89557578D01*
X124958162Y-89612618D01*
X124958167Y-89612620D01*
X124958170Y-89612622D01*
X125242836Y-89730535D01*
X125540456Y-89810282D01*
X125845940Y-89850500D01*
X125845947Y-89850500D01*
X126154053Y-89850500D01*
X126154060Y-89850500D01*
X126459544Y-89810282D01*
X126757164Y-89730535D01*
X127041830Y-89612622D01*
X127308670Y-89458562D01*
X127553117Y-89270991D01*
X127770991Y-89053117D01*
X127958562Y-88808670D01*
X128112622Y-88541830D01*
X128230535Y-88257164D01*
X128310282Y-87959544D01*
X128350500Y-87654060D01*
X128350500Y-87345946D01*
X181649500Y-87345946D01*
X181649500Y-87654053D01*
X181649501Y-87654069D01*
X181689717Y-87959542D01*
X181769464Y-88257162D01*
X181887376Y-88541826D01*
X181887381Y-88541837D01*
X181980014Y-88702280D01*
X182041438Y-88808670D01*
X182041440Y-88808673D01*
X182041441Y-88808674D01*
X182229007Y-89053115D01*
X182229013Y-89053122D01*
X182446877Y-89270986D01*
X182446883Y-89270991D01*
X182691330Y-89458562D01*
X182862830Y-89557578D01*
X182958162Y-89612618D01*
X182958167Y-89612620D01*
X182958170Y-89612622D01*
X183242836Y-89730535D01*
X183540456Y-89810282D01*
X183845940Y-89850500D01*
X183845947Y-89850500D01*
X184154053Y-89850500D01*
X184154060Y-89850500D01*
X184459544Y-89810282D01*
X184757164Y-89730535D01*
X185041830Y-89612622D01*
X185308670Y-89458562D01*
X185553117Y-89270991D01*
X185770991Y-89053117D01*
X185958562Y-88808670D01*
X186112622Y-88541830D01*
X186230535Y-88257164D01*
X186310282Y-87959544D01*
X186350500Y-87654060D01*
X186350500Y-87345940D01*
X186310282Y-87040456D01*
X186230535Y-86742836D01*
X186112622Y-86458170D01*
X186112620Y-86458167D01*
X186112618Y-86458162D01*
X186057578Y-86362830D01*
X185958562Y-86191330D01*
X185770991Y-85946883D01*
X185770986Y-85946877D01*
X185553122Y-85729013D01*
X185553115Y-85729007D01*
X185308674Y-85541441D01*
X185308673Y-85541440D01*
X185308670Y-85541438D01*
X185202280Y-85480014D01*
X185041837Y-85387381D01*
X185041826Y-85387376D01*
X184757162Y-85269464D01*
X184459542Y-85189717D01*
X184154069Y-85149501D01*
X184154066Y-85149500D01*
X184154060Y-85149500D01*
X183845940Y-85149500D01*
X183845934Y-85149500D01*
X183845930Y-85149501D01*
X183540457Y-85189717D01*
X183242837Y-85269464D01*
X182958173Y-85387376D01*
X182958162Y-85387381D01*
X182691325Y-85541441D01*
X182446884Y-85729007D01*
X182446877Y-85729013D01*
X182229013Y-85946877D01*
X182229007Y-85946884D01*
X182041441Y-86191325D01*
X181887381Y-86458162D01*
X181887376Y-86458173D01*
X181769464Y-86742837D01*
X181689717Y-87040457D01*
X181649501Y-87345930D01*
X181649500Y-87345946D01*
X128350500Y-87345946D01*
X128350500Y-87345940D01*
X128310282Y-87040456D01*
X128230535Y-86742836D01*
X128112622Y-86458170D01*
X128112620Y-86458167D01*
X128112618Y-86458162D01*
X128057578Y-86362830D01*
X127958562Y-86191330D01*
X127770991Y-85946883D01*
X127770986Y-85946877D01*
X127553122Y-85729013D01*
X127553115Y-85729007D01*
X127308674Y-85541441D01*
X127308673Y-85541440D01*
X127308670Y-85541438D01*
X127202280Y-85480014D01*
X127041837Y-85387381D01*
X127041826Y-85387376D01*
X126757162Y-85269464D01*
X126459542Y-85189717D01*
X126154069Y-85149501D01*
X126154066Y-85149500D01*
X126154060Y-85149500D01*
X125845940Y-85149500D01*
X125845934Y-85149500D01*
X125845930Y-85149501D01*
X125540457Y-85189717D01*
X125242837Y-85269464D01*
X124958173Y-85387376D01*
X124958162Y-85387381D01*
X124691325Y-85541441D01*
X124446884Y-85729007D01*
X124446877Y-85729013D01*
X124229013Y-85946877D01*
X124229007Y-85946884D01*
X124041441Y-86191325D01*
X123887381Y-86458162D01*
X123887376Y-86458173D01*
X123769464Y-86742837D01*
X123689717Y-87040457D01*
X123649501Y-87345930D01*
X123649500Y-87345946D01*
X120501679Y-87345946D01*
X120502565Y-87264696D01*
X120503029Y-87255266D01*
X120543984Y-86787150D01*
X120545396Y-86776432D01*
X120551320Y-86742837D01*
X120626876Y-86314331D01*
X120629208Y-86303812D01*
X120750663Y-85850534D01*
X120753903Y-85840258D01*
X120914398Y-85399303D01*
X120918519Y-85389353D01*
X121116835Y-84964063D01*
X121121815Y-84954496D01*
X121356435Y-84548122D01*
X121362228Y-84539028D01*
X121631384Y-84154634D01*
X121637953Y-84146074D01*
X121939575Y-83786616D01*
X121946861Y-83778665D01*
X122278665Y-83446861D01*
X122286616Y-83439575D01*
X122646074Y-83137953D01*
X122654634Y-83131384D01*
X123039028Y-82862228D01*
X123048122Y-82856435D01*
X123454496Y-82621815D01*
X123464063Y-82616835D01*
X123889353Y-82418519D01*
X123899303Y-82414398D01*
X124340258Y-82253903D01*
X124350534Y-82250663D01*
X124803812Y-82129208D01*
X124814331Y-82126876D01*
X125276435Y-82045395D01*
X125287150Y-82043984D01*
X125755266Y-82003029D01*
X125764696Y-82002565D01*
X125999358Y-82000007D01*
X126000710Y-82000000D01*
X183999290Y-82000000D01*
X184000642Y-82000007D01*
G37*
%TD.AperFunction*%
%TD*%
M02*
